;TYPE=PLATED
;Layer: PTH_Through
;EasyEDA Pro v2.2.40.8, 2025-10-14 13:53:51
;Gerber Generator version 0.3
M48
METRIC,LZ,0000.00000
;Hole size 1 = 0.81280 METRIC
T01C0.81280
;Hole size 2 = 0.89916 METRIC
T02C0.89916
;Hole size 3 = 0.90000 METRIC
T03C0.90000
;Hole size 4 = 0.90002 METRIC
T04C0.90002
;Hole size 5 = 1.10002 METRIC
T05C1.10002
;Hole size 6 = 2.00000 METRIC
T06C2.00000
%
G05
G90
T01
X20.3708Y-35.7632
X21.6408Y-37.6682
X22.9108Y-35.7632
X12.0396Y-35.8648
X13.3096Y-37.76979
X14.5796Y-35.8648
T02
X23.4696Y-51.4604
X23.4696Y-41.3004
X21.082Y-31.5468
X10.922Y-31.5468
X10.2616Y-41.402
X10.2616Y-51.562
X14.8336Y-41.3512
X14.8336Y-51.5112
X19.3548Y-51.5112
X19.3548Y-41.3512
T03
X23.1032Y-8.4436
X20.6032Y-8.4436
X20.6032Y-26.9836
X12.4752Y-26.9836
X9.85118Y-26.99077
X23.1432Y-26.9836
X12.4752Y-8.4436
X9.9352Y-8.4436
T04
X23.87879Y-1.9304
X21.8788Y-1.9304
X19.8788Y-1.9304
X17.87881Y-1.9304
T05
X3.7592Y-51.8668
X3.7592Y-49.3268
X3.7592Y-46.7868
X3.7592Y-44.2468
X3.7592Y-41.7068
X3.7592Y-39.1668
X3.7592Y-36.6268
X3.7592Y-34.0868
X3.7592Y-31.5468
X3.7592Y-29.0068
X3.7592Y-26.4668
X3.7592Y-23.9268
X3.7592Y-21.3868
X3.7592Y-18.8468
X3.7592Y-16.3068
X29.1084Y-51.8668
X29.1084Y-49.3268
X29.1084Y-46.7868
X29.1084Y-44.2468
X29.1084Y-41.7068
X29.1084Y-39.1668
X29.1084Y-36.6268
X29.1084Y-34.0868
X29.1084Y-31.5468
X29.1084Y-29.0068
X29.1084Y-26.4668
X29.1084Y-23.9268
X29.1084Y-21.3868
X29.1084Y-18.8468
X29.1084Y-16.3068
T06
X3.81Y-3.81
X29.2608Y-3.81
X3.81Y-55.88
X29.21Y-55.88
M30