G04 Layer: BottomSilkscreenLayer*
G04 EasyEDA Pro v2.2.40.8, 2025-10-14 13:53:51*
G04 Gerber Generator version 0.3*
G04 Scale: 100 percent, Rotated: No, Reflected: No*
G04 Dimensions in millimeters*
G04 Leading zeros omitted, absolute positions, 4 integers and 5 decimals*
G04 Generated by one-click*
%FSLAX45Y45*%
%MOMM*%
%ADD10C,0.127*%
%ADD11C,0.0021*%
G75*


G04 Text Start*
G36*
G01X1389916Y-3191887D02*
G01X1389916Y-3144615D01*
G01X1354462Y-3144615D01*
G01X1354462Y-3131887D01*
G01X1439462Y-3131887D01*
G01X1439462Y-3144615D01*
G01X1404007Y-3144615D01*
G01X1404007Y-3239160D01*
G01X1389916Y-3239160D01*
G01X1389916Y-3191887D01*
G37*
G36*
G01X1485371Y-3197569D02*
G01X1485371Y-3155978D01*
G01X1484462Y-3156433D01*
G01X1482871Y-3157342D01*
G01X1479462Y-3160069D01*
G01X1477871Y-3161205D01*
G01X1473325Y-3163933D01*
G01X1471507Y-3165069D01*
G01X1468325Y-3166887D01*
G01X1462871Y-3169615D01*
G01X1460371Y-3170524D01*
G01X1459007Y-3170978D01*
G01X1459007Y-3164615D01*
G01X1459235Y-3159728D01*
G01X1459916Y-3157796D01*
G01X1461507Y-3156887D01*
G01X1465598Y-3154842D01*
G01X1469235Y-3152569D01*
G01X1471280Y-3151205D01*
G01X1472871Y-3150296D01*
G01X1474007Y-3149387D01*
G01X1476734Y-3147115D01*
G01X1479007Y-3145296D01*
G01X1482416Y-3141887D01*
G01X1486507Y-3137115D01*
G01X1488098Y-3134842D01*
G01X1489462Y-3132569D01*
G01X1489916Y-3131433D01*
G01X1498553Y-3131433D01*
G01X1498553Y-3239160D01*
G01X1485371Y-3239160D01*
G01X1485371Y-3197569D01*
G37*
G36*
G01X1655598Y-3241206D02*
G01X1654462Y-3240978D01*
G01X1653553Y-3240069D01*
G01X1652416Y-3239387D01*
G01X1651280Y-3238478D01*
G01X1650144Y-3237342D01*
G01X1647871Y-3235524D01*
G01X1641053Y-3228705D01*
G01X1639916Y-3227342D01*
G01X1639007Y-3226660D01*
G01X1638098Y-3227342D01*
G01X1634916Y-3230524D01*
G01X1633325Y-3231887D01*
G01X1631507Y-3233251D01*
G01X1629916Y-3234387D01*
G01X1628098Y-3235524D01*
G01X1626507Y-3236433D01*
G01X1624689Y-3237342D01*
G01X1622643Y-3238251D01*
G01X1618553Y-3239615D01*
G01X1615598Y-3240296D01*
G01X1612871Y-3240751D01*
G01X1609007Y-3240978D01*
G01X1605144Y-3240751D01*
G01X1601053Y-3240296D01*
G01X1598780Y-3239842D01*
G01X1596280Y-3239160D01*
G01X1594462Y-3238478D01*
G01X1592871Y-3237796D01*
G01X1591053Y-3236887D01*
G01X1589007Y-3235751D01*
G01X1587416Y-3234615D01*
G01X1585144Y-3232796D01*
G01X1581280Y-3228933D01*
G01X1579916Y-3227115D01*
G01X1579007Y-3225978D01*
G01X1578098Y-3224387D01*
G01X1577189Y-3222569D01*
G01X1576507Y-3220978D01*
G01X1575825Y-3219160D01*
G01X1575144Y-3217115D01*
G01X1574689Y-3215296D01*
G01X1574462Y-3210524D01*
G01X1574570Y-3208024D01*
G01X1588553Y-3208024D01*
G01X1588780Y-3211660D01*
G01X1589462Y-3214387D01*
G01X1590371Y-3216660D01*
G01X1591280Y-3218478D01*
G01X1592416Y-3220524D01*
G01X1593553Y-3222342D01*
G01X1594689Y-3223705D01*
G01X1595825Y-3224842D01*
G01X1597416Y-3226206D01*
G01X1599235Y-3227342D01*
G01X1600825Y-3228024D01*
G01X1602643Y-3228705D01*
G01X1605598Y-3229160D01*
G01X1605598Y-3229160D01*
G01X1607871Y-3229387D01*
G01X1609007Y-3229387D01*
G01X1611507Y-3228933D01*
G01X1613780Y-3228478D01*
G01X1615825Y-3227796D01*
G01X1618098Y-3226887D01*
G01X1619916Y-3225978D01*
G01X1623553Y-3223705D01*
G01X1624916Y-3222569D01*
G01X1626053Y-3221660D01*
G01X1626962Y-3220751D01*
G01X1627871Y-3219614D01*
G01X1629462Y-3218024D01*
G01X1630371Y-3215978D01*
G01X1629689Y-3214615D01*
G01X1627871Y-3212342D01*
G01X1626734Y-3211206D01*
G01X1625825Y-3210069D01*
G01X1624916Y-3208705D01*
G01X1623780Y-3207342D01*
G01X1614689Y-3195978D01*
G01X1613553Y-3194842D01*
G01X1607189Y-3186887D01*
G01X1605598Y-3186887D01*
G01X1603553Y-3188024D01*
G01X1601507Y-3189387D01*
G01X1599916Y-3190524D01*
G01X1598780Y-3191206D01*
G01X1597643Y-3192115D01*
G01X1592644Y-3197115D01*
G01X1591280Y-3199160D01*
G01X1590371Y-3200751D01*
G01X1589462Y-3202796D01*
G01X1588780Y-3204842D01*
G01X1588553Y-3208024D01*
G01X1574570Y-3208024D01*
G01X1574689Y-3205297D01*
G01X1575144Y-3203024D01*
G01X1575825Y-3200524D01*
G01X1576734Y-3198024D01*
G01X1577871Y-3195751D01*
G01X1579235Y-3193705D01*
G01X1580371Y-3192115D01*
G01X1582189Y-3189842D01*
G01X1586053Y-3185978D01*
G01X1589689Y-3183251D01*
G01X1593098Y-3180978D01*
G01X1594689Y-3180069D01*
G01X1596734Y-3178933D01*
G01X1598553Y-3178024D01*
G01X1599178Y-3177740D01*
G01X1599235Y-3177342D01*
G01X1598780Y-3176206D01*
G01X1597871Y-3175069D01*
G01X1596734Y-3173933D01*
G01X1594007Y-3170296D01*
G01X1592871Y-3168706D01*
G01X1591734Y-3166887D01*
G01X1590825Y-3165296D01*
G01X1589916Y-3163478D01*
G01X1589007Y-3161433D01*
G01X1588326Y-3159160D01*
G01X1587871Y-3157115D01*
G01X1587644Y-3155069D01*
G01X1587871Y-3152115D01*
G01X1587947Y-3151660D01*
G01X1601280Y-3151660D01*
G01X1601507Y-3154387D01*
G01X1602189Y-3156887D01*
G01X1603098Y-3158933D01*
G01X1604235Y-3160751D01*
G01X1605825Y-3163024D01*
G01X1607189Y-3164842D01*
G01X1608325Y-3165978D01*
G01X1611053Y-3169160D01*
G01X1611053Y-3169160D01*
G01X1612416Y-3169842D01*
G01X1614007Y-3169387D01*
G01X1616053Y-3168024D01*
G01X1619235Y-3165751D01*
G01X1620825Y-3164387D01*
G01X1623098Y-3162115D01*
G01X1624007Y-3160751D01*
G01X1624916Y-3158706D01*
G01X1625598Y-3156660D01*
G01X1625825Y-3154387D01*
G01X1625598Y-3151205D01*
G01X1624916Y-3148478D01*
G01X1623325Y-3145296D01*
G01X1622416Y-3144160D01*
G01X1621280Y-3143251D01*
G01X1619916Y-3142342D01*
G01X1618098Y-3141433D01*
G01X1616280Y-3140978D01*
G01X1614689Y-3140751D01*
G01X1613325Y-3140751D01*
G01X1611053Y-3141205D01*
G01X1608325Y-3141887D01*
G01X1606734Y-3142797D01*
G01X1605598Y-3143478D01*
G01X1604462Y-3144615D01*
G01X1603325Y-3145978D01*
G01X1602416Y-3147342D01*
G01X1601734Y-3149160D01*
G01X1601280Y-3151660D01*
G01X1587947Y-3151660D01*
G01X1588326Y-3149387D01*
G01X1588780Y-3147569D01*
G01X1589462Y-3145524D01*
G01X1590598Y-3143024D01*
G01X1592189Y-3140751D01*
G01X1593553Y-3138933D01*
G01X1595825Y-3136660D01*
G01X1598098Y-3134842D01*
G01X1599689Y-3133706D01*
G01X1601507Y-3132797D01*
G01X1603098Y-3132115D01*
G01X1604916Y-3131433D01*
G01X1607189Y-3130751D01*
G01X1609235Y-3130296D01*
G01X1613098Y-3130069D01*
G01X1617871Y-3130296D01*
G01X1620598Y-3130751D01*
G01X1623325Y-3131433D01*
G01X1625598Y-3132342D01*
G01X1627416Y-3133251D01*
G01X1629007Y-3134160D01*
G01X1630598Y-3135296D01*
G01X1632189Y-3136660D01*
G01X1634462Y-3138933D01*
G01X1635598Y-3140524D01*
G01X1636734Y-3142342D01*
G01X1637644Y-3144160D01*
G01X1638553Y-3146660D01*
G01X1639234Y-3149842D01*
G01X1639234Y-3153024D01*
G01X1638780Y-3156660D01*
G01X1638098Y-3159615D01*
G01X1637416Y-3161433D01*
G01X1636734Y-3163024D01*
G01X1635598Y-3164842D01*
G01X1634234Y-3166887D01*
G01X1633098Y-3168478D01*
G01X1629689Y-3171887D01*
G01X1627416Y-3173706D01*
G01X1624234Y-3175978D01*
G01X1622871Y-3176887D01*
G01X1619689Y-3178706D01*
G01X1619291Y-3179160D01*
G01X1619462Y-3179615D01*
G01X1620825Y-3181206D01*
G01X1622189Y-3183024D01*
G01X1624007Y-3185297D01*
G01X1625371Y-3187115D01*
G01X1629007Y-3191660D01*
G01X1630371Y-3193478D01*
G01X1634007Y-3198024D01*
G01X1635371Y-3199842D01*
G01X1637189Y-3202115D01*
G01X1637985Y-3202853D01*
G01X1638553Y-3202796D01*
G01X1639462Y-3201206D01*
G01X1640371Y-3199160D01*
G01X1641280Y-3196887D01*
G01X1641962Y-3194842D01*
G01X1643098Y-3190297D01*
G01X1643666Y-3189160D01*
G01X1644462Y-3188933D01*
G01X1646507Y-3189387D01*
G01X1648325Y-3189842D01*
G01X1655144Y-3191206D01*
G01X1656735Y-3191887D01*
G01X1656507Y-3193024D01*
G01X1656053Y-3195069D01*
G01X1655371Y-3197342D01*
G01X1654007Y-3201433D01*
G01X1653098Y-3203705D01*
G01X1652189Y-3205751D01*
G01X1651280Y-3207569D01*
G01X1650371Y-3209615D01*
G01X1649462Y-3211433D01*
G01X1648325Y-3213251D01*
G01X1647871Y-3214615D01*
G01X1648553Y-3215978D01*
G01X1651962Y-3220069D01*
G01X1659234Y-3227342D01*
G01X1661507Y-3229160D01*
G01X1663325Y-3230524D01*
G01X1664007Y-3231433D01*
G01X1663325Y-3232342D01*
G01X1661053Y-3235069D01*
G01X1656962Y-3239842D01*
G01X1655598Y-3241206D01*
G37*
G36*
G01X1745825Y-3191887D02*
G01X1745825Y-3144615D01*
G01X1710371Y-3144615D01*
G01X1710371Y-3131887D01*
G01X1795371Y-3131887D01*
G01X1795371Y-3144615D01*
G01X1759916Y-3144615D01*
G01X1759916Y-3239160D01*
G01X1745825Y-3239160D01*
G01X1745825Y-3191887D01*
G37*
G36*
G01X1803098Y-3239160D02*
G01X1803098Y-3237796D01*
G01X1803325Y-3234842D01*
G01X1804007Y-3231887D01*
G01X1804916Y-3229387D01*
G01X1805825Y-3227115D01*
G01X1806962Y-3224842D01*
G01X1809234Y-3221206D01*
G01X1810825Y-3218933D01*
G01X1812189Y-3217115D01*
G01X1814007Y-3214842D01*
G01X1823098Y-3205751D01*
G01X1826280Y-3203024D01*
G01X1828553Y-3201206D01*
G01X1838098Y-3193024D01*
G01X1839234Y-3191887D01*
G01X1841507Y-3190069D01*
G01X1846962Y-3184615D01*
G01X1848553Y-3183251D01*
G01X1849462Y-3182115D01*
G01X1852189Y-3179387D01*
G01X1853553Y-3177569D01*
G01X1854689Y-3175978D01*
G01X1856053Y-3173933D01*
G01X1857189Y-3172115D01*
G01X1858098Y-3170069D01*
G01X1859007Y-3167796D01*
G01X1859689Y-3165524D01*
G01X1860144Y-3162569D01*
G01X1860144Y-3160296D01*
G01X1859916Y-3158478D01*
G01X1859462Y-3155978D01*
G01X1858553Y-3153478D01*
G01X1856962Y-3150296D01*
G01X1856053Y-3149160D01*
G01X1853780Y-3146887D01*
G01X1852643Y-3145978D01*
G01X1851280Y-3145069D01*
G01X1849689Y-3144160D01*
G01X1847416Y-3143251D01*
G01X1845143Y-3142569D01*
G01X1840598Y-3142342D01*
G01X1836052Y-3142569D01*
G01X1834007Y-3143024D01*
G01X1831507Y-3143706D01*
G01X1829462Y-3144615D01*
G01X1827644Y-3145751D01*
G01X1826052Y-3146887D01*
G01X1823098Y-3149842D01*
G01X1821962Y-3151433D01*
G01X1821052Y-3153251D01*
G01X1820371Y-3155069D01*
G01X1819689Y-3157342D01*
G01X1819234Y-3159387D01*
G01X1819007Y-3161887D01*
G01X1818780Y-3163251D01*
G01X1818098Y-3163706D01*
G01X1816507Y-3163478D01*
G01X1811962Y-3163024D01*
G01X1810371Y-3162796D01*
G01X1807416Y-3162569D01*
G01X1805939Y-3162285D01*
G01X1805598Y-3161887D01*
G01X1805825Y-3160524D01*
G01X1806053Y-3158933D01*
G01X1806507Y-3156433D01*
G01X1807189Y-3153706D01*
G01X1807871Y-3151660D01*
G01X1808553Y-3149842D01*
G01X1811053Y-3144842D01*
G01X1811962Y-3143706D01*
G01X1814234Y-3140978D01*
G01X1816507Y-3138706D01*
G01X1818098Y-3137569D01*
G01X1820143Y-3136205D01*
G01X1821962Y-3135069D01*
G01X1824007Y-3134160D01*
G01X1828780Y-3132569D01*
G01X1833780Y-3131660D01*
G01X1839234Y-3131433D01*
G01X1844689Y-3131660D01*
G01X1847871Y-3132115D01*
G01X1850143Y-3132569D01*
G01X1853098Y-3133251D01*
G01X1855598Y-3134160D01*
G01X1857643Y-3135069D01*
G01X1859234Y-3135978D01*
G01X1861053Y-3137115D01*
G01X1862643Y-3138251D01*
G01X1863780Y-3139160D01*
G01X1867189Y-3142569D01*
G01X1868553Y-3144387D01*
G01X1869916Y-3146433D01*
G01X1870825Y-3148024D01*
G01X1872189Y-3151205D01*
G01X1872871Y-3153251D01*
G01X1873325Y-3155296D01*
G01X1873553Y-3160296D01*
G01X1873325Y-3165296D01*
G01X1872871Y-3167569D01*
G01X1872189Y-3170524D01*
G01X1871280Y-3173251D01*
G01X1870371Y-3175296D01*
G01X1868553Y-3178478D01*
G01X1867416Y-3180297D01*
G01X1866280Y-3181887D01*
G01X1865371Y-3183251D01*
G01X1861962Y-3187342D01*
G01X1852871Y-3196433D01*
G01X1850598Y-3198251D01*
G01X1849462Y-3199387D01*
G01X1846734Y-3201660D01*
G01X1845143Y-3203251D01*
G01X1843325Y-3204615D01*
G01X1842189Y-3205751D01*
G01X1839462Y-3208024D01*
G01X1837189Y-3209842D01*
G01X1835598Y-3211433D01*
G01X1833780Y-3212796D01*
G01X1831507Y-3215069D01*
G01X1829234Y-3216887D01*
G01X1826962Y-3219160D01*
G01X1824689Y-3221887D01*
G01X1823553Y-3223024D01*
G01X1822644Y-3224160D01*
G01X1821962Y-3225524D01*
G01X1821734Y-3226433D01*
G01X1874007Y-3226433D01*
G01X1874007Y-3239160D01*
G01X1803098Y-3239160D01*
G37*
G36*
G01X1355825Y-3406887D02*
G01X1355825Y-3405296D01*
G01X1356053Y-3402115D01*
G01X1356735Y-3399160D01*
G01X1357644Y-3396660D01*
G01X1360598Y-3390751D01*
G01X1361962Y-3388706D01*
G01X1363098Y-3387115D01*
G01X1364007Y-3385978D01*
G01X1365144Y-3384387D01*
G01X1366507Y-3382796D01*
G01X1368098Y-3381205D01*
G01X1369462Y-3379387D01*
G01X1371735Y-3377115D01*
G01X1374462Y-3374842D01*
G01X1376735Y-3372569D01*
G01X1384916Y-3365751D01*
G01X1388098Y-3363024D01*
G01X1390826Y-3360751D01*
G01X1392416Y-3359160D01*
G01X1394234Y-3357796D01*
G01X1403325Y-3348705D01*
G01X1405143Y-3346433D01*
G01X1406280Y-3345296D01*
G01X1407416Y-3343478D01*
G01X1408780Y-3341433D01*
G01X1409916Y-3339387D01*
G01X1410825Y-3337569D01*
G01X1411507Y-3335751D01*
G01X1412189Y-3333705D01*
G01X1412644Y-3329160D01*
G01X1412189Y-3323933D01*
G01X1411280Y-3321206D01*
G01X1410371Y-3319387D01*
G01X1407644Y-3315751D01*
G01X1406507Y-3314615D01*
G01X1405371Y-3313705D01*
G01X1404007Y-3312796D01*
G01X1402189Y-3311887D01*
G01X1399916Y-3310978D01*
G01X1397871Y-3310296D01*
G01X1393553Y-3310069D01*
G01X1388780Y-3310296D01*
G01X1386507Y-3310751D01*
G01X1384234Y-3311433D01*
G01X1382189Y-3312342D01*
G01X1379007Y-3314160D01*
G01X1377644Y-3315296D01*
G01X1374916Y-3318705D01*
G01X1374007Y-3320296D01*
G01X1373098Y-3322342D01*
G01X1372416Y-3324615D01*
G01X1371962Y-3326660D01*
G01X1371735Y-3329387D01*
G01X1371507Y-3330921D01*
G01X1370826Y-3331433D01*
G01X1369234Y-3331206D01*
G01X1364689Y-3330751D01*
G01X1363098Y-3330524D01*
G01X1360144Y-3330297D01*
G01X1358098Y-3330069D01*
G01X1358325Y-3328933D01*
G01X1358780Y-3326206D01*
G01X1359235Y-3323933D01*
G01X1359689Y-3321887D01*
G01X1360371Y-3319615D01*
G01X1361053Y-3317796D01*
G01X1361735Y-3316433D01*
G01X1362644Y-3314842D01*
G01X1363780Y-3312796D01*
G01X1365144Y-3310751D01*
G01X1366507Y-3309160D01*
G01X1369234Y-3306433D01*
G01X1371053Y-3305069D01*
G01X1374689Y-3302796D01*
G01X1376735Y-3301887D01*
G01X1381507Y-3300296D01*
G01X1386507Y-3299387D01*
G01X1391280Y-3299160D01*
G01X1397416Y-3299387D01*
G01X1400598Y-3299842D01*
G01X1402871Y-3300296D01*
G01X1406507Y-3301205D01*
G01X1408325Y-3301887D01*
G01X1412416Y-3303933D01*
G01X1414462Y-3305296D01*
G01X1416053Y-3306433D01*
G01X1419916Y-3310296D01*
G01X1421507Y-3312569D01*
G01X1422871Y-3314615D01*
G01X1424007Y-3316887D01*
G01X1424916Y-3319160D01*
G01X1425598Y-3321433D01*
G01X1426053Y-3323478D01*
G01X1426280Y-3328024D01*
G01X1426053Y-3332569D01*
G01X1425825Y-3334160D01*
G01X1425371Y-3336433D01*
G01X1424689Y-3338478D01*
G01X1424235Y-3340069D01*
G01X1423553Y-3341660D01*
G01X1421507Y-3345751D01*
G01X1420371Y-3347569D01*
G01X1419462Y-3348933D01*
G01X1418553Y-3350069D01*
G01X1417871Y-3351206D01*
G01X1416962Y-3352342D01*
G01X1415371Y-3353933D01*
G01X1414007Y-3355751D01*
G01X1407189Y-3362569D01*
G01X1404916Y-3364387D01*
G01X1402644Y-3366660D01*
G01X1399916Y-3368933D01*
G01X1398325Y-3370524D01*
G01X1396507Y-3371887D01*
G01X1395371Y-3373024D01*
G01X1392644Y-3375296D01*
G01X1390371Y-3377115D01*
G01X1388780Y-3378705D01*
G01X1386962Y-3380069D01*
G01X1385826Y-3381205D01*
G01X1382644Y-3383933D01*
G01X1378098Y-3388478D01*
G01X1375371Y-3391887D01*
G01X1374689Y-3393251D01*
G01X1374462Y-3394160D01*
G01X1426735Y-3394160D01*
G01X1426735Y-3406887D01*
G01X1355825Y-3406887D01*
G37*
G36*
G01X1445825Y-3353251D02*
G01X1445825Y-3299615D01*
G01X1452644Y-3299615D01*
G01X1460144Y-3299842D01*
G01X1461507Y-3300978D01*
G01X1487416Y-3339842D01*
G01X1490598Y-3344387D01*
G01X1515144Y-3381205D01*
G01X1516280Y-3382569D01*
G01X1516621Y-3372342D01*
G01X1516735Y-3341206D01*
G01X1516735Y-3299615D01*
G01X1530371Y-3299615D01*
G01X1530371Y-3406887D01*
G01X1523325Y-3406887D01*
G01X1515826Y-3406433D01*
G01X1514689Y-3405069D01*
G01X1499689Y-3382569D01*
G01X1496507Y-3378024D01*
G01X1461053Y-3324842D01*
G01X1459916Y-3323478D01*
G01X1459575Y-3333762D01*
G01X1459462Y-3365069D01*
G01X1459462Y-3406887D01*
G01X1445825Y-3406887D01*
G01X1445825Y-3353251D01*
G37*
G36*
G01X1583553Y-3408706D02*
G01X1578325Y-3408478D01*
G01X1572644Y-3407342D01*
G01X1569916Y-3406433D01*
G01X1567871Y-3405524D01*
G01X1566053Y-3404615D01*
G01X1564007Y-3403478D01*
G01X1562416Y-3402569D01*
G01X1561280Y-3401660D01*
G01X1560144Y-3400524D01*
G01X1558780Y-3399387D01*
G01X1556735Y-3397342D01*
G01X1555825Y-3396205D01*
G01X1554689Y-3394615D01*
G01X1553553Y-3392796D01*
G01X1552644Y-3391205D01*
G01X1551735Y-3389387D01*
G01X1550825Y-3386887D01*
G01X1550143Y-3384842D01*
G01X1549234Y-3380296D01*
G01X1549462Y-3378933D01*
G01X1550825Y-3378251D01*
G01X1552871Y-3378024D01*
G01X1559234Y-3377115D01*
G01X1561507Y-3377115D01*
G01X1562360Y-3377512D01*
G01X1562644Y-3378251D01*
G01X1563098Y-3380069D01*
G01X1564462Y-3384160D01*
G01X1565371Y-3386205D01*
G01X1566507Y-3388478D01*
G01X1567644Y-3390069D01*
G01X1568553Y-3391433D01*
G01X1569689Y-3392796D01*
G01X1570825Y-3393706D01*
G01X1572416Y-3394842D01*
G01X1574235Y-3395978D01*
G01X1576507Y-3396887D01*
G01X1578780Y-3397569D01*
G01X1582416Y-3397796D01*
G01X1586507Y-3397569D01*
G01X1588780Y-3397115D01*
G01X1590598Y-3396660D01*
G01X1592416Y-3395978D01*
G01X1594235Y-3395069D01*
G01X1595825Y-3394160D01*
G01X1597189Y-3393024D01*
G01X1598325Y-3392115D01*
G01X1599235Y-3391205D01*
G01X1600144Y-3390069D01*
G01X1601507Y-3388478D01*
G01X1602643Y-3386887D01*
G01X1603325Y-3385524D01*
G01X1604007Y-3383705D01*
G01X1604689Y-3381660D01*
G01X1605144Y-3379842D01*
G01X1605371Y-3376433D01*
G01X1605144Y-3372569D01*
G01X1604689Y-3370296D01*
G01X1604007Y-3367796D01*
G01X1603098Y-3365751D01*
G01X1602416Y-3364160D01*
G01X1601507Y-3362796D01*
G01X1600371Y-3361433D01*
G01X1599235Y-3360296D01*
G01X1598098Y-3359387D01*
G01X1596962Y-3358251D01*
G01X1595598Y-3357342D01*
G01X1592871Y-3355978D01*
G01X1590825Y-3355296D01*
G01X1588780Y-3354842D01*
G01X1585825Y-3354614D01*
G01X1581507Y-3354842D01*
G01X1578780Y-3355296D01*
G01X1576734Y-3355751D01*
G01X1575371Y-3355978D01*
G01X1575371Y-3354842D01*
G01X1576053Y-3349387D01*
G01X1576280Y-3347796D01*
G01X1576507Y-3345751D01*
G01X1577132Y-3344899D01*
G01X1578553Y-3344614D01*
G01X1581053Y-3344387D01*
G01X1583780Y-3343933D01*
G01X1587189Y-3343251D01*
G01X1589462Y-3342342D01*
G01X1591507Y-3341433D01*
G01X1593325Y-3340524D01*
G01X1594689Y-3339615D01*
G01X1596962Y-3337342D01*
G01X1598325Y-3335751D01*
G01X1599462Y-3333478D01*
G01X1600144Y-3331660D01*
G01X1600371Y-3328251D01*
G01X1600144Y-3323478D01*
G01X1599462Y-3320524D01*
G01X1598553Y-3318705D01*
G01X1597416Y-3316887D01*
G01X1596280Y-3315296D01*
G01X1595144Y-3314160D01*
G01X1594007Y-3313251D01*
G01X1592644Y-3312342D01*
G01X1591053Y-3311433D01*
G01X1589235Y-3310751D01*
G01X1587416Y-3310296D01*
G01X1583780Y-3310069D01*
G01X1580144Y-3310296D01*
G01X1578553Y-3310524D01*
G01X1576734Y-3310978D01*
G01X1574689Y-3311887D01*
G01X1572871Y-3312796D01*
G01X1571507Y-3313705D01*
G01X1569916Y-3315069D01*
G01X1568098Y-3317115D01*
G01X1566734Y-3319160D01*
G01X1565825Y-3320978D01*
G01X1564916Y-3323251D01*
G01X1564234Y-3325296D01*
G01X1563780Y-3327569D01*
G01X1563553Y-3329160D01*
G01X1560144Y-3328478D01*
G01X1557416Y-3328024D01*
G01X1555143Y-3327569D01*
G01X1552416Y-3327115D01*
G01X1550939Y-3326830D01*
G01X1550598Y-3326433D01*
G01X1551053Y-3324387D01*
G01X1551735Y-3321887D01*
G01X1552416Y-3319842D01*
G01X1553098Y-3318024D01*
G01X1555143Y-3313933D01*
G01X1556280Y-3312342D01*
G01X1556962Y-3311205D01*
G01X1557871Y-3310069D01*
G01X1559234Y-3308478D01*
G01X1560598Y-3307115D01*
G01X1561734Y-3306205D01*
G01X1562871Y-3305069D01*
G01X1566507Y-3302796D01*
G01X1568325Y-3301887D01*
G01X1570598Y-3300978D01*
G01X1572416Y-3300296D01*
G01X1577416Y-3299387D01*
G01X1581507Y-3299160D01*
G01X1586507Y-3299387D01*
G01X1589689Y-3299842D01*
G01X1592644Y-3300524D01*
G01X1595371Y-3301433D01*
G01X1597416Y-3302342D01*
G01X1602416Y-3304842D01*
G01X1603553Y-3305751D01*
G01X1606734Y-3308478D01*
G01X1607643Y-3309615D01*
G01X1608325Y-3310751D01*
G01X1609235Y-3311887D01*
G01X1610371Y-3313478D01*
G01X1611280Y-3315069D01*
G01X1612189Y-3316887D01*
G01X1613098Y-3319842D01*
G01X1613780Y-3322115D01*
G01X1614007Y-3326433D01*
G01X1613553Y-3331660D01*
G01X1612871Y-3333933D01*
G01X1612416Y-3335524D01*
G01X1611734Y-3337115D01*
G01X1610598Y-3338933D01*
G01X1609462Y-3340524D01*
G01X1608553Y-3341887D01*
G01X1607416Y-3343251D01*
G01X1606280Y-3344160D01*
G01X1604916Y-3345296D01*
G01X1603098Y-3346660D01*
G01X1601280Y-3347569D01*
G01X1600144Y-3348478D01*
G01X1600257Y-3349046D01*
G01X1601053Y-3349387D01*
G01X1603553Y-3350069D01*
G01X1605598Y-3350978D01*
G01X1607189Y-3351887D01*
G01X1609916Y-3353705D01*
G01X1611280Y-3354842D01*
G01X1613553Y-3357115D01*
G01X1614689Y-3358705D01*
G01X1616053Y-3360751D01*
G01X1617189Y-3363024D01*
G01X1618098Y-3365751D01*
G01X1618780Y-3368024D01*
G01X1619235Y-3371660D01*
G01X1619462Y-3373933D01*
G01X1619235Y-3377569D01*
G01X1618780Y-3380751D01*
G01X1618325Y-3383024D01*
G01X1617871Y-3384842D01*
G01X1617416Y-3386433D01*
G01X1616734Y-3388024D01*
G01X1614689Y-3392115D01*
G01X1613553Y-3393706D01*
G01X1612643Y-3395069D01*
G01X1611507Y-3396433D01*
G01X1606962Y-3400978D01*
G01X1603780Y-3403251D01*
G01X1602416Y-3404160D01*
G01X1600598Y-3405069D01*
G01X1598553Y-3405978D01*
G01X1594462Y-3407342D01*
G01X1591734Y-3408024D01*
G01X1589235Y-3408478D01*
G01X1583553Y-3408706D01*
G37*
G36*
G01X1664234Y-3408706D02*
G01X1658098Y-3408251D01*
G01X1654689Y-3407342D01*
G01X1651962Y-3406433D01*
G01X1648325Y-3404615D01*
G01X1646053Y-3403251D01*
G01X1644234Y-3401887D01*
G01X1640825Y-3398478D01*
G01X1639689Y-3396887D01*
G01X1638553Y-3395069D01*
G01X1637644Y-3393478D01*
G01X1636734Y-3391433D01*
G01X1635144Y-3386660D01*
G01X1634689Y-3383933D01*
G01X1634462Y-3381887D01*
G01X1636053Y-3381887D01*
G01X1638325Y-3381660D01*
G01X1643325Y-3381205D01*
G01X1645598Y-3380978D01*
G01X1647189Y-3380978D01*
G01X1647416Y-3382342D01*
G01X1648098Y-3384615D01*
G01X1648780Y-3386660D01*
G01X1649462Y-3388478D01*
G01X1650371Y-3390069D01*
G01X1651280Y-3391433D01*
G01X1652644Y-3393024D01*
G01X1654462Y-3394842D01*
G01X1656280Y-3395978D01*
G01X1658553Y-3396887D01*
G01X1660598Y-3397569D01*
G01X1663553Y-3397796D01*
G01X1667871Y-3397569D01*
G01X1671280Y-3396887D01*
G01X1673780Y-3395978D01*
G01X1675825Y-3394842D01*
G01X1677644Y-3393706D01*
G01X1679007Y-3392569D01*
G01X1681280Y-3390296D01*
G01X1682189Y-3389160D01*
G01X1683098Y-3387796D01*
G01X1684007Y-3386205D01*
G01X1684916Y-3384387D01*
G01X1685825Y-3382115D01*
G01X1686734Y-3379615D01*
G01X1687644Y-3376660D01*
G01X1688325Y-3374387D01*
G01X1689234Y-3369387D01*
G01X1689689Y-3365296D01*
G01X1689916Y-3360751D01*
G01X1689803Y-3357910D01*
G01X1689462Y-3357115D01*
G01X1688325Y-3358251D01*
G01X1687189Y-3359842D01*
G01X1683780Y-3363251D01*
G01X1681962Y-3364614D01*
G01X1679916Y-3365978D01*
G01X1678325Y-3366887D01*
G01X1676507Y-3367796D01*
G01X1674462Y-3368705D01*
G01X1672189Y-3369387D01*
G01X1670143Y-3369842D01*
G01X1666962Y-3370296D01*
G01X1664234Y-3370524D01*
G01X1661053Y-3370296D01*
G01X1658325Y-3369842D01*
G01X1656053Y-3369387D01*
G01X1654007Y-3368705D01*
G01X1651507Y-3367796D01*
G01X1649234Y-3366660D01*
G01X1647416Y-3365524D01*
G01X1646053Y-3364614D01*
G01X1643780Y-3362796D01*
G01X1640371Y-3359387D01*
G01X1638098Y-3356206D01*
G01X1637189Y-3354842D01*
G01X1635371Y-3351206D01*
G01X1634689Y-3349387D01*
G01X1634007Y-3347342D01*
G01X1633325Y-3344614D01*
G01X1632871Y-3342115D01*
G01X1632644Y-3336206D01*
G01X1632717Y-3334160D01*
G01X1645825Y-3334160D01*
G01X1646053Y-3337115D01*
G01X1646507Y-3340751D01*
G01X1647189Y-3343705D01*
G01X1648098Y-3346206D01*
G01X1649234Y-3348478D01*
G01X1650598Y-3350524D01*
G01X1651735Y-3352115D01*
G01X1653325Y-3353705D01*
G01X1655144Y-3355069D01*
G01X1656280Y-3355978D01*
G01X1658098Y-3356887D01*
G01X1660371Y-3357796D01*
G01X1662189Y-3358251D01*
G01X1662189Y-3358251D01*
G01X1663325Y-3358478D01*
G01X1667189Y-3358705D01*
G01X1672416Y-3358251D01*
G01X1675371Y-3357342D01*
G01X1677871Y-3356206D01*
G01X1679462Y-3355069D01*
G01X1680598Y-3354160D01*
G01X1682189Y-3352796D01*
G01X1683553Y-3351206D01*
G01X1684689Y-3349614D01*
G01X1685825Y-3347569D01*
G01X1686734Y-3345524D01*
G01X1687416Y-3343478D01*
G01X1687871Y-3341660D01*
G01X1688325Y-3338024D01*
G01X1688553Y-3335297D01*
G01X1688325Y-3332569D01*
G01X1687871Y-3328933D01*
G01X1687416Y-3326660D01*
G01X1686734Y-3324160D01*
G01X1685825Y-3322115D01*
G01X1684234Y-3318933D01*
G01X1683325Y-3317796D01*
G01X1679916Y-3314387D01*
G01X1678325Y-3313024D01*
G01X1676507Y-3311887D01*
G01X1674462Y-3310978D01*
G01X1672416Y-3310296D01*
G01X1669234Y-3310069D01*
G01X1664689Y-3310296D01*
G01X1661735Y-3310978D01*
G01X1659689Y-3311887D01*
G01X1656507Y-3313478D01*
G01X1655371Y-3314387D01*
G01X1651962Y-3317796D01*
G01X1650598Y-3319387D01*
G01X1649462Y-3321206D01*
G01X1648553Y-3323024D01*
G01X1647644Y-3325069D01*
G01X1646962Y-3327115D01*
G01X1646507Y-3328933D01*
G01X1646053Y-3332569D01*
G01X1645825Y-3334160D01*
G01X1632717Y-3334160D01*
G01X1632871Y-3329842D01*
G01X1633325Y-3327115D01*
G01X1633780Y-3324842D01*
G01X1634234Y-3323024D01*
G01X1634916Y-3320751D01*
G01X1635825Y-3318478D01*
G01X1636962Y-3316206D01*
G01X1638098Y-3314387D01*
G01X1639007Y-3312796D01*
G01X1640144Y-3311433D01*
G01X1641962Y-3309160D01*
G01X1644234Y-3306887D01*
G01X1645371Y-3305978D01*
G01X1648553Y-3303706D01*
G01X1650144Y-3302796D01*
G01X1651962Y-3301887D01*
G01X1653780Y-3301205D01*
G01X1655825Y-3300524D01*
G01X1658325Y-3299842D01*
G01X1660598Y-3299387D01*
G01X1664916Y-3299160D01*
G01X1670143Y-3299387D01*
G01X1672416Y-3299842D01*
G01X1674007Y-3300069D01*
G01X1675825Y-3300524D01*
G01X1677871Y-3301205D01*
G01X1679689Y-3301887D01*
G01X1683325Y-3303706D01*
G01X1685143Y-3304842D01*
G01X1687416Y-3306433D01*
G01X1689234Y-3307796D01*
G01X1692644Y-3311205D01*
G01X1693553Y-3312342D01*
G01X1695825Y-3315524D01*
G01X1696734Y-3317115D01*
G01X1698553Y-3320751D01*
G01X1699462Y-3323024D01*
G01X1700143Y-3324842D01*
G01X1701053Y-3328478D01*
G01X1701962Y-3333478D01*
G01X1702416Y-3336660D01*
G01X1702871Y-3343478D01*
G01X1703098Y-3350524D01*
G01X1702871Y-3357569D01*
G01X1702644Y-3360296D01*
G01X1702416Y-3364387D01*
G01X1701962Y-3368478D01*
G01X1701053Y-3373933D01*
G01X1700371Y-3377569D01*
G01X1699462Y-3380751D01*
G01X1698553Y-3383705D01*
G01X1697644Y-3385978D01*
G01X1696734Y-3388024D01*
G01X1695598Y-3390296D01*
G01X1694234Y-3392569D01*
G01X1693098Y-3394160D01*
G01X1692189Y-3395524D01*
G01X1691052Y-3396887D01*
G01X1689234Y-3399160D01*
G01X1686962Y-3400978D01*
G01X1685143Y-3402342D01*
G01X1682871Y-3403933D01*
G01X1681053Y-3405069D01*
G01X1679007Y-3405978D01*
G01X1676507Y-3406887D01*
G01X1674234Y-3407569D01*
G01X1672416Y-3408024D01*
G01X1669234Y-3408478D01*
G01X1664234Y-3408706D01*
G37*
G36*
G01X1841734Y-3393933D02*
G01X1841734Y-3380978D01*
G01X1794916Y-3380978D01*
G01X1794916Y-3375069D01*
G01X1795143Y-3370353D01*
G01X1795559Y-3368933D01*
G01X1808325Y-3368933D01*
G01X1825143Y-3369160D01*
G01X1841734Y-3369160D01*
G01X1841734Y-3345978D01*
G01X1841507Y-3322115D01*
G01X1841223Y-3321717D01*
G01X1840825Y-3321887D01*
G01X1839462Y-3323478D01*
G01X1837871Y-3325751D01*
G01X1836507Y-3327796D01*
G01X1834234Y-3330978D01*
G01X1832871Y-3333024D01*
G01X1830598Y-3336206D01*
G01X1829234Y-3338251D01*
G01X1826962Y-3341433D01*
G01X1825598Y-3343478D01*
G01X1819234Y-3352569D01*
G01X1817871Y-3354614D01*
G01X1815598Y-3357796D01*
G01X1814234Y-3359842D01*
G01X1811053Y-3364387D01*
G01X1808780Y-3367569D01*
G01X1808780Y-3367569D01*
G01X1808325Y-3368933D01*
G01X1795559Y-3368933D01*
G01X1795825Y-3368024D01*
G01X1800598Y-3361206D01*
G01X1802871Y-3358024D01*
G01X1806053Y-3353478D01*
G01X1808325Y-3350296D01*
G01X1814689Y-3341206D01*
G01X1816962Y-3338024D01*
G01X1820143Y-3333478D01*
G01X1822416Y-3330297D01*
G01X1828780Y-3321206D01*
G01X1831052Y-3318024D01*
G01X1834234Y-3313478D01*
G01X1838780Y-3307115D01*
G01X1840143Y-3305069D01*
G01X1843553Y-3300296D01*
G01X1845257Y-3299785D01*
G01X1849462Y-3299615D01*
G01X1854916Y-3299615D01*
G01X1854916Y-3369160D01*
G01X1861053Y-3369160D01*
G01X1868325Y-3369387D01*
G01X1869462Y-3369614D01*
G01X1869462Y-3380978D01*
G01X1854916Y-3380978D01*
G01X1854916Y-3406887D01*
G01X1841734Y-3406887D01*
G01X1841734Y-3393933D01*
G37*
G36*
G01X1751053Y-3408706D02*
G01X1746962Y-3408478D01*
G01X1744689Y-3408024D01*
G01X1741507Y-3407342D01*
G01X1738780Y-3406433D01*
G01X1736507Y-3405524D01*
G01X1733325Y-3403933D01*
G01X1732189Y-3403024D01*
G01X1729462Y-3400751D01*
G01X1727189Y-3398478D01*
G01X1725825Y-3396660D01*
G01X1724462Y-3394615D01*
G01X1723325Y-3392796D01*
G01X1722189Y-3390751D01*
G01X1720371Y-3386205D01*
G01X1719689Y-3384387D01*
G01X1717416Y-3375296D01*
G01X1716507Y-3368024D01*
G01X1716053Y-3362115D01*
G01X1715825Y-3354614D01*
G01X1715860Y-3353478D01*
G01X1729462Y-3353478D01*
G01X1729689Y-3363478D01*
G01X1729916Y-3365978D01*
G01X1730144Y-3369387D01*
G01X1730598Y-3373024D01*
G01X1731053Y-3375751D01*
G01X1731507Y-3378024D01*
G01X1732189Y-3381205D01*
G01X1733098Y-3383933D01*
G01X1734007Y-3386205D01*
G01X1735144Y-3388251D01*
G01X1736280Y-3390069D01*
G01X1737416Y-3391433D01*
G01X1740144Y-3394160D01*
G01X1742189Y-3395524D01*
G01X1743780Y-3396433D01*
G01X1745825Y-3397115D01*
G01X1745825Y-3397115D01*
G01X1747416Y-3397569D01*
G01X1750371Y-3397796D01*
G01X1754689Y-3397342D01*
G01X1757416Y-3396433D01*
G01X1759234Y-3395524D01*
G01X1761053Y-3394387D01*
G01X1762643Y-3393024D01*
G01X1764916Y-3390751D01*
G01X1765825Y-3389615D01*
G01X1766734Y-3388251D01*
G01X1767643Y-3386660D01*
G01X1768553Y-3384615D01*
G01X1770144Y-3379842D01*
G01X1771053Y-3374842D01*
G01X1771507Y-3371660D01*
G01X1771962Y-3366660D01*
G01X1772189Y-3354614D01*
G01X1771962Y-3342569D01*
G01X1771734Y-3340751D01*
G01X1771507Y-3337569D01*
G01X1771053Y-3334387D01*
G01X1770598Y-3331660D01*
G01X1769689Y-3327115D01*
G01X1769007Y-3324615D01*
G01X1768098Y-3322569D01*
G01X1766280Y-3318933D01*
G01X1765144Y-3317342D01*
G01X1763552Y-3315751D01*
G01X1762189Y-3314160D01*
G01X1761053Y-3313251D01*
G01X1759234Y-3312115D01*
G01X1756962Y-3310978D01*
G01X1755144Y-3310296D01*
G01X1751734Y-3310069D01*
G01X1747416Y-3310296D01*
G01X1744916Y-3310978D01*
G01X1742871Y-3311887D01*
G01X1740825Y-3313024D01*
G01X1739235Y-3314160D01*
G01X1737643Y-3315751D01*
G01X1736280Y-3317569D01*
G01X1735371Y-3318933D01*
G01X1733553Y-3322569D01*
G01X1732871Y-3324387D01*
G01X1732189Y-3326887D01*
G01X1731507Y-3328933D01*
G01X1730598Y-3333933D01*
G01X1730144Y-3338024D01*
G01X1729689Y-3343478D01*
G01X1729462Y-3353478D01*
G01X1715860Y-3353478D01*
G01X1716053Y-3347115D01*
G01X1716507Y-3340751D01*
G01X1716734Y-3338933D01*
G01X1716962Y-3336660D01*
G01X1717871Y-3331206D01*
G01X1718325Y-3329387D01*
G01X1718780Y-3327342D01*
G01X1719462Y-3324615D01*
G01X1720371Y-3321887D01*
G01X1721280Y-3319842D01*
G01X1721962Y-3318251D01*
G01X1722871Y-3316206D01*
G01X1724235Y-3313933D01*
G01X1725825Y-3311660D01*
G01X1727189Y-3309842D01*
G01X1729007Y-3307569D01*
G01X1730144Y-3306433D01*
G01X1733553Y-3303706D01*
G01X1735144Y-3302796D01*
G01X1736962Y-3301887D01*
G01X1739007Y-3300978D01*
G01X1741053Y-3300296D01*
G01X1745144Y-3299387D01*
G01X1749462Y-3299160D01*
G01X1754689Y-3299387D01*
G01X1757416Y-3299842D01*
G01X1759234Y-3300296D01*
G01X1761280Y-3300751D01*
G01X1763325Y-3301433D01*
G01X1768325Y-3303933D01*
G01X1769462Y-3304842D01*
G01X1772189Y-3307115D01*
G01X1774462Y-3309387D01*
G01X1775825Y-3311205D01*
G01X1777189Y-3313251D01*
G01X1778325Y-3315069D01*
G01X1779462Y-3317342D01*
G01X1781280Y-3321433D01*
G01X1782189Y-3324160D01*
G01X1783098Y-3327115D01*
G01X1783780Y-3329387D01*
G01X1784689Y-3334387D01*
G01X1785143Y-3337569D01*
G01X1785598Y-3343478D01*
G01X1785825Y-3353024D01*
G01X1785598Y-3362569D01*
G01X1785143Y-3368024D01*
G01X1784689Y-3371660D01*
G01X1783780Y-3377115D01*
G01X1783325Y-3379160D01*
G01X1782644Y-3381887D01*
G01X1781280Y-3385978D01*
G01X1780371Y-3388251D01*
G01X1779462Y-3390296D01*
G01X1778325Y-3392569D01*
G01X1776962Y-3394842D01*
G01X1775825Y-3396433D01*
G01X1773098Y-3399842D01*
G01X1771507Y-3401433D01*
G01X1769234Y-3403251D01*
G01X1767189Y-3404615D01*
G01X1765598Y-3405524D01*
G01X1762416Y-3406887D01*
G01X1760371Y-3407569D01*
G01X1758325Y-3408024D01*
G01X1755144Y-3408478D01*
G01X1751053Y-3408706D01*
G37*
G36*
G01X1203554Y-1443889D02*
G01X1203554Y-1381314D01*
G01X1216016Y-1381314D01*
G01X1225429Y-1381512D01*
G01X1228743Y-1382109D01*
G01X1229539Y-1383965D01*
G01X1262948Y-1484192D01*
G01X1263478Y-1486314D01*
G01X1263677Y-1487043D01*
G01X1264273Y-1487109D01*
G01X1264936Y-1486512D01*
G01X1265334Y-1485253D01*
G01X1266130Y-1482601D01*
G01X1269311Y-1473056D01*
G01X1270372Y-1470405D01*
G01X1274614Y-1457677D01*
G01X1276736Y-1451844D01*
G01X1280978Y-1439117D01*
G01X1282039Y-1436465D01*
G01X1286811Y-1422147D01*
G01X1287872Y-1419496D01*
G01X1292114Y-1406768D01*
G01X1294236Y-1400935D01*
G01X1298478Y-1388208D01*
G01X1299539Y-1385556D01*
G01X1300334Y-1382905D01*
G01X1300599Y-1381314D01*
G01X1310675Y-1381314D01*
G01X1322076Y-1381579D01*
G01X1323402Y-1381844D01*
G01X1323402Y-1389268D01*
G01X1323137Y-1399344D01*
G01X1323137Y-1402791D01*
G01X1323402Y-1434874D01*
G01X1323137Y-1467753D01*
G01X1323137Y-1469874D01*
G01X1323402Y-1478359D01*
G01X1323137Y-1487109D01*
G01X1323137Y-1488435D01*
G01X1323402Y-1496389D01*
G01X1323137Y-1505139D01*
G01X1322872Y-1506465D01*
G01X1306963Y-1506465D01*
G01X1306963Y-1455821D01*
G01X1306432Y-1404912D01*
G01X1305902Y-1405111D01*
G01X1305372Y-1406238D01*
G01X1302190Y-1415783D01*
G01X1301129Y-1418435D01*
G01X1297948Y-1427980D01*
G01X1296887Y-1430632D01*
G01X1293705Y-1440177D01*
G01X1291584Y-1446011D01*
G01X1289463Y-1452374D01*
G01X1287342Y-1458207D01*
G01X1284160Y-1467753D01*
G01X1283099Y-1470405D01*
G01X1279917Y-1479950D01*
G01X1278326Y-1484192D01*
G01X1275940Y-1491351D01*
G01X1274349Y-1495594D01*
G01X1271167Y-1505139D01*
G01X1270902Y-1506465D01*
G01X1263478Y-1506465D01*
G01X1257777Y-1506200D01*
G01X1255524Y-1505404D01*
G01X1254463Y-1502753D01*
G01X1249160Y-1486844D01*
G01X1247039Y-1481011D01*
G01X1239614Y-1458738D01*
G01X1238554Y-1456086D01*
G01X1230599Y-1432223D01*
G01X1229539Y-1429571D01*
G01X1221054Y-1404117D01*
G01X1219993Y-1402261D01*
G01X1219595Y-1415120D01*
G01X1219463Y-1454230D01*
G01X1219463Y-1506465D01*
G01X1203554Y-1506465D01*
G01X1203554Y-1443889D01*
G37*
G36*
G01X1349917Y-1443889D02*
G01X1349917Y-1418170D01*
G01X1366357Y-1418170D01*
G01X1366622Y-1440442D01*
G01X1384387Y-1440708D01*
G01X1404273Y-1440442D01*
G01X1409046Y-1439912D01*
G01X1413023Y-1439117D01*
G01X1415675Y-1438056D01*
G01X1418061Y-1436995D01*
G01X1420448Y-1435670D01*
G01X1422304Y-1434344D01*
G01X1424425Y-1431692D01*
G01X1425751Y-1429836D01*
G01X1426811Y-1427450D01*
G01X1427607Y-1425064D01*
G01X1428137Y-1422942D01*
G01X1428402Y-1418965D01*
G01X1428137Y-1414988D01*
G01X1427607Y-1412071D01*
G01X1426811Y-1409154D01*
G01X1424425Y-1404382D01*
G01X1422834Y-1402526D01*
G01X1421508Y-1401200D01*
G01X1419917Y-1399874D01*
G01X1418326Y-1398814D01*
G01X1416736Y-1398018D01*
G01X1414614Y-1397223D01*
G01X1412493Y-1396692D01*
G01X1410637Y-1396427D01*
G01X1388099Y-1396162D01*
G01X1366357Y-1396162D01*
G01X1366357Y-1418170D01*
G01X1366357Y-1418170D01*
G01X1349917Y-1418170D01*
G01X1349917Y-1381314D01*
G01X1378023Y-1381314D01*
G01X1408516Y-1381579D01*
G01X1413289Y-1382109D01*
G01X1416470Y-1382639D01*
G01X1418326Y-1382905D01*
G01X1420448Y-1383435D01*
G01X1423099Y-1384230D01*
G01X1425486Y-1385026D01*
G01X1429728Y-1387147D01*
G01X1431319Y-1388208D01*
G01X1432645Y-1389268D01*
G01X1434501Y-1390594D01*
G01X1436092Y-1392185D01*
G01X1437152Y-1393511D01*
G01X1438743Y-1395367D01*
G01X1440334Y-1397753D01*
G01X1441660Y-1400139D01*
G01X1442720Y-1402526D01*
G01X1444311Y-1407298D01*
G01X1444841Y-1409420D01*
G01X1445107Y-1411276D01*
G01X1445372Y-1416844D01*
G01X1445107Y-1422412D01*
G01X1444841Y-1424268D01*
G01X1444311Y-1427185D01*
G01X1443251Y-1430632D01*
G01X1442190Y-1433548D01*
G01X1441129Y-1435670D01*
G01X1440334Y-1437526D01*
G01X1437152Y-1442298D01*
G01X1433175Y-1446276D01*
G01X1431319Y-1447867D01*
G01X1428932Y-1449458D01*
G01X1426546Y-1450783D01*
G01X1423629Y-1451844D01*
G01X1420182Y-1452904D01*
G01X1417531Y-1453700D01*
G01X1411698Y-1454761D01*
G01X1405334Y-1455291D01*
G01X1385448Y-1455556D01*
G01X1366357Y-1455556D01*
G01X1366357Y-1506465D01*
G01X1349917Y-1506465D01*
G01X1349917Y-1443889D01*
G37*
G36*
G01X1597569Y-1508586D02*
G01X1592531Y-1508321D01*
G01X1590144Y-1507791D01*
G01X1587228Y-1507260D01*
G01X1584841Y-1506730D01*
G01X1582190Y-1505935D01*
G01X1579538Y-1504874D01*
G01X1577152Y-1503814D01*
G01X1575296Y-1502753D01*
G01X1573705Y-1501692D01*
G01X1571849Y-1500367D01*
G01X1569993Y-1498776D01*
G01X1565750Y-1494533D01*
G01X1564160Y-1492412D01*
G01X1563099Y-1490821D01*
G01X1562039Y-1488965D01*
G01X1560978Y-1486844D01*
G01X1559387Y-1482601D01*
G01X1558591Y-1479685D01*
G01X1558061Y-1477033D01*
G01X1557796Y-1474912D01*
G01X1558194Y-1473918D01*
G01X1559387Y-1473586D01*
G01X1561773Y-1473321D01*
G01X1567607Y-1472791D01*
G01X1569993Y-1472526D01*
G01X1572910Y-1472791D01*
G01X1573970Y-1473454D01*
G01X1574501Y-1474912D01*
G01X1575296Y-1478359D01*
G01X1576357Y-1481276D01*
G01X1577417Y-1483662D01*
G01X1578478Y-1485518D01*
G01X1579538Y-1486844D01*
G01X1580599Y-1488435D01*
G01X1581925Y-1490026D01*
G01X1583781Y-1491351D01*
G01X1585902Y-1492677D01*
G01X1587758Y-1493738D01*
G01X1590144Y-1494798D01*
G01X1592531Y-1495594D01*
G01X1596773Y-1495859D01*
G01X1602076Y-1495594D01*
G01X1605523Y-1494798D01*
G01X1608440Y-1493738D01*
G01X1610296Y-1492677D01*
G01X1611887Y-1491882D01*
G01X1613478Y-1490821D01*
G01X1617455Y-1486844D01*
G01X1618781Y-1485253D01*
G01X1620106Y-1483132D01*
G01X1621432Y-1480745D01*
G01X1622493Y-1478359D01*
G01X1623288Y-1475708D01*
G01X1623819Y-1473321D01*
G01X1624614Y-1466957D01*
G01X1624349Y-1463246D01*
G01X1623819Y-1459003D01*
G01X1623288Y-1456351D01*
G01X1622758Y-1454230D01*
G01X1621963Y-1452109D01*
G01X1620902Y-1449988D01*
G01X1619841Y-1448132D01*
G01X1618781Y-1446541D01*
G01X1617455Y-1444950D01*
G01X1616129Y-1443624D01*
G01X1614273Y-1442033D01*
G01X1612417Y-1440708D01*
G01X1610561Y-1439647D01*
G01X1608175Y-1438586D01*
G01X1605258Y-1437791D01*
G01X1602607Y-1437261D01*
G01X1598629Y-1436995D01*
G01X1594652Y-1437261D01*
G01X1592531Y-1437526D01*
G01X1589879Y-1438056D01*
G01X1586963Y-1439117D01*
G01X1584046Y-1440442D01*
G01X1581660Y-1442033D01*
G01X1579804Y-1443359D01*
G01X1577152Y-1446011D01*
G01X1575561Y-1447867D01*
G01X1574699Y-1448795D01*
G01X1573705Y-1448927D01*
G01X1570258Y-1448397D01*
G01X1566016Y-1447867D01*
G01X1562303Y-1447336D01*
G01X1560978Y-1446872D01*
G01X1560713Y-1446011D01*
G01X1561243Y-1444155D01*
G01X1561773Y-1441503D01*
G01X1562303Y-1438321D01*
G01X1562834Y-1435670D01*
G01X1563364Y-1432488D01*
G01X1563895Y-1429836D01*
G01X1564955Y-1424003D01*
G01X1566546Y-1416049D01*
G01X1567076Y-1412867D01*
G01X1568137Y-1407564D01*
G01X1568667Y-1404382D01*
G01X1569728Y-1399079D01*
G01X1570258Y-1395897D01*
G01X1571849Y-1387942D01*
G01X1572379Y-1384761D01*
G01X1572645Y-1382905D01*
G01X1634690Y-1382905D01*
G01X1634690Y-1397753D01*
G01X1609766Y-1397753D01*
G01X1591006Y-1398018D01*
G01X1584576Y-1398814D01*
G01X1584046Y-1400670D01*
G01X1578743Y-1427185D01*
G01X1578478Y-1429306D01*
G01X1578677Y-1430234D01*
G01X1579273Y-1430367D01*
G01X1581129Y-1429306D01*
G01X1583516Y-1427980D01*
G01X1585637Y-1426920D01*
G01X1587758Y-1426124D01*
G01X1590144Y-1425329D01*
G01X1592796Y-1424533D01*
G01X1595182Y-1424003D01*
G01X1601281Y-1423738D01*
G01X1607379Y-1424003D01*
G01X1612682Y-1425064D01*
G01X1615069Y-1425859D01*
G01X1617985Y-1426920D01*
G01X1620106Y-1427980D01*
G01X1621963Y-1429041D01*
G01X1625144Y-1431162D01*
G01X1628326Y-1433814D01*
G01X1630448Y-1435670D01*
G01X1632569Y-1438321D01*
G01X1634160Y-1440442D01*
G01X1635220Y-1442033D01*
G01X1637341Y-1446276D01*
G01X1638137Y-1448397D01*
G01X1638932Y-1450783D01*
G01X1639728Y-1453700D01*
G01X1640258Y-1456351D01*
G01X1640523Y-1462450D01*
G01X1640258Y-1470139D01*
G01X1639728Y-1473321D01*
G01X1639197Y-1475973D01*
G01X1638402Y-1478889D01*
G01X1637607Y-1481276D01*
G01X1636811Y-1483397D01*
G01X1635751Y-1485518D01*
G01X1634425Y-1487905D01*
G01X1632834Y-1490291D01*
G01X1630978Y-1492942D01*
G01X1629387Y-1495064D01*
G01X1624879Y-1499571D01*
G01X1622758Y-1500897D01*
G01X1621432Y-1501957D01*
G01X1619576Y-1503283D01*
G01X1617455Y-1504344D01*
G01X1613743Y-1505935D01*
G01X1611092Y-1506730D01*
G01X1608175Y-1507526D01*
G01X1605523Y-1508056D01*
G01X1603137Y-1508321D01*
G01X1597569Y-1508586D01*
G37*
G36*
G01X1503175Y-1506465D02*
G01X1503175Y-1458473D01*
G01X1502910Y-1409685D01*
G01X1502578Y-1409221D01*
G01X1502114Y-1409420D01*
G01X1498137Y-1412601D01*
G01X1496016Y-1414193D01*
G01X1493364Y-1416049D01*
G01X1490713Y-1417639D01*
G01X1488326Y-1419230D01*
G01X1485940Y-1420556D01*
G01X1483288Y-1421882D01*
G01X1481167Y-1423207D01*
G01X1474008Y-1426389D01*
G01X1472417Y-1426920D01*
G01X1472417Y-1419760D01*
G01X1472948Y-1412071D01*
G01X1474273Y-1411011D01*
G01X1479046Y-1408624D01*
G01X1481167Y-1407298D01*
G01X1483023Y-1406238D01*
G01X1484614Y-1405177D01*
G01X1488326Y-1402526D01*
G01X1489652Y-1401730D01*
G01X1490978Y-1400670D01*
G01X1494690Y-1397488D01*
G01X1502644Y-1389533D01*
G01X1504235Y-1387412D01*
G01X1506091Y-1384761D01*
G01X1508478Y-1380783D01*
G01X1518553Y-1380783D01*
G01X1518553Y-1442298D01*
G01X1518289Y-1505139D01*
G01X1518023Y-1506465D01*
G01X1503175Y-1506465D01*
G37*
G36*
G01X1972493Y-1443889D02*
G01X1972493Y-1381314D01*
G01X1979917Y-1381314D01*
G01X1988667Y-1381579D01*
G01X1989860Y-1382109D01*
G01X1990788Y-1383170D01*
G01X1997152Y-1392715D01*
G01X2000864Y-1398018D01*
G01X2005637Y-1405177D01*
G01X2006962Y-1407298D01*
G01X2008023Y-1408889D01*
G01X2009349Y-1410745D01*
G01X2052303Y-1475177D01*
G01X2053364Y-1477033D01*
G01X2054425Y-1478094D01*
G01X2055021Y-1466162D01*
G01X2055220Y-1429836D01*
G01X2055220Y-1381314D01*
G01X2071129Y-1381314D01*
G01X2071129Y-1506465D01*
G01X2063705Y-1506465D01*
G01X2054955Y-1506200D01*
G01X2053762Y-1505670D01*
G01X2052834Y-1504609D01*
G01X2011470Y-1442564D01*
G01X2008818Y-1438851D01*
G01X1991319Y-1412601D01*
G01X1990258Y-1410745D01*
G01X1989197Y-1409685D01*
G01X1988601Y-1421617D01*
G01X1988402Y-1457943D01*
G01X1988402Y-1506465D01*
G01X1972493Y-1506465D01*
G01X1972493Y-1443889D01*
G37*
G36*
G01X1856356Y-1443889D02*
G01X1856356Y-1381314D01*
G01X1947038Y-1381314D01*
G01X1947038Y-1396162D01*
G01X1872796Y-1396162D01*
G01X1872796Y-1434344D01*
G01X1942266Y-1434344D01*
G01X1942266Y-1449192D01*
G01X1872796Y-1449192D01*
G01X1872796Y-1491617D01*
G01X1949690Y-1491617D01*
G01X1949690Y-1506465D01*
G01X1856356Y-1506465D01*
G01X1856356Y-1443889D01*
G37*
G36*
G01X1801735Y-1491351D02*
G01X1801735Y-1476238D01*
G01X1747114Y-1476238D01*
G01X1747114Y-1469609D01*
G01X1747313Y-1464306D01*
G01X1747910Y-1461654D01*
G01X1748288Y-1461124D01*
G01X1763288Y-1461124D01*
G01X1763288Y-1462185D01*
G01X1782644Y-1462450D01*
G01X1801735Y-1462450D01*
G01X1801735Y-1434609D01*
G01X1801603Y-1413795D01*
G01X1801205Y-1407033D01*
G01X1799614Y-1408624D01*
G01X1794046Y-1416579D01*
G01X1792455Y-1418965D01*
G01X1789803Y-1422677D01*
G01X1788213Y-1425064D01*
G01X1780788Y-1435670D01*
G01X1779197Y-1438056D01*
G01X1776546Y-1441768D01*
G01X1774955Y-1444155D01*
G01X1772304Y-1447867D01*
G01X1770712Y-1450253D01*
G01X1768061Y-1453965D01*
G01X1766470Y-1456351D01*
G01X1764614Y-1459003D01*
G01X1763288Y-1461124D01*
G01X1763288Y-1461124D01*
G01X1748288Y-1461124D01*
G01X1750561Y-1457943D01*
G01X1757985Y-1447336D01*
G01X1760637Y-1443624D01*
G01X1764349Y-1438321D01*
G01X1767001Y-1434609D01*
G01X1774425Y-1424003D01*
G01X1777076Y-1420291D01*
G01X1780788Y-1414988D01*
G01X1783440Y-1411276D01*
G01X1790864Y-1400670D01*
G01X1793516Y-1396958D01*
G01X1797228Y-1391655D01*
G01X1799879Y-1387942D01*
G01X1803591Y-1382639D01*
G01X1804387Y-1381314D01*
G01X1817114Y-1381314D01*
G01X1817114Y-1462450D01*
G01X1834084Y-1462450D01*
G01X1834084Y-1476238D01*
G01X1817114Y-1476238D01*
G01X1817114Y-1506465D01*
G01X1801735Y-1506465D01*
G01X1801735Y-1491351D01*
G37*
G36*
G01X1696205Y-1508586D02*
G01X1690637Y-1508321D01*
G01X1687985Y-1507791D01*
G01X1684804Y-1507260D01*
G01X1682682Y-1506730D01*
G01X1680296Y-1505935D01*
G01X1678175Y-1505139D01*
G01X1676319Y-1504344D01*
G01X1674198Y-1503283D01*
G01X1672341Y-1502223D01*
G01X1668629Y-1499571D01*
G01X1667303Y-1498511D01*
G01X1663326Y-1494533D01*
G01X1662266Y-1493208D01*
G01X1660940Y-1491351D01*
G01X1659614Y-1489230D01*
G01X1658553Y-1487109D01*
G01X1657493Y-1484723D01*
G01X1656432Y-1481806D01*
G01X1655637Y-1479155D01*
G01X1655107Y-1475442D01*
G01X1654841Y-1471465D01*
G01X1654983Y-1469344D01*
G01X1670751Y-1469344D01*
G01X1671016Y-1473852D01*
G01X1671546Y-1476503D01*
G01X1672341Y-1479420D01*
G01X1673402Y-1481806D01*
G01X1674728Y-1484458D01*
G01X1676054Y-1486314D01*
G01X1676849Y-1487639D01*
G01X1677910Y-1488965D01*
G01X1679235Y-1490026D01*
G01X1681091Y-1491351D01*
G01X1683743Y-1492942D01*
G01X1686129Y-1494003D01*
G01X1688250Y-1494798D01*
G01X1690637Y-1495329D01*
G01X1690637Y-1495329D01*
G01X1692228Y-1495594D01*
G01X1695940Y-1495859D01*
G01X1700182Y-1495594D01*
G01X1702834Y-1495064D01*
G01X1705750Y-1494268D01*
G01X1708137Y-1493208D01*
G01X1710258Y-1492147D01*
G01X1711849Y-1491086D01*
G01X1714501Y-1488965D01*
G01X1715826Y-1487639D01*
G01X1717417Y-1485518D01*
G01X1719008Y-1482867D01*
G01X1720069Y-1480480D01*
G01X1720864Y-1478094D01*
G01X1721394Y-1475973D01*
G01X1721659Y-1471730D01*
G01X1721394Y-1467488D01*
G01X1720864Y-1464836D01*
G01X1720069Y-1461389D01*
G01X1719008Y-1459003D01*
G01X1717682Y-1456882D01*
G01X1716356Y-1455026D01*
G01X1713175Y-1451314D01*
G01X1711849Y-1450253D01*
G01X1709993Y-1448927D01*
G01X1707606Y-1447601D01*
G01X1704690Y-1446541D01*
G01X1702303Y-1445745D01*
G01X1697000Y-1445215D01*
G01X1695675Y-1445215D01*
G01X1693288Y-1445480D01*
G01X1690637Y-1445745D01*
G01X1688516Y-1446276D01*
G01X1686129Y-1447071D01*
G01X1683743Y-1448132D01*
G01X1681622Y-1449192D01*
G01X1680031Y-1450253D01*
G01X1676054Y-1454230D01*
G01X1674728Y-1456086D01*
G01X1673402Y-1458207D01*
G01X1672341Y-1460329D01*
G01X1671546Y-1462715D01*
G01X1671016Y-1464836D01*
G01X1670751Y-1469344D01*
G01X1654983Y-1469344D01*
G01X1655107Y-1467488D01*
G01X1655372Y-1465101D01*
G01X1655902Y-1461654D01*
G01X1656697Y-1459003D01*
G01X1657493Y-1456617D01*
G01X1658819Y-1453700D01*
G01X1660145Y-1451579D01*
G01X1661205Y-1449723D01*
G01X1662531Y-1448132D01*
G01X1665713Y-1444950D01*
G01X1667834Y-1443359D01*
G01X1669425Y-1442298D01*
G01X1671546Y-1441238D01*
G01X1673932Y-1440177D01*
G01X1676319Y-1439382D01*
G01X1677910Y-1438586D01*
G01X1677843Y-1438122D01*
G01X1674728Y-1436730D01*
G01X1672607Y-1435405D01*
G01X1671016Y-1434609D01*
G01X1669690Y-1433548D01*
G01X1668099Y-1432223D01*
G01X1665978Y-1430367D01*
G01X1664387Y-1428245D01*
G01X1663326Y-1426655D01*
G01X1662531Y-1425064D01*
G01X1661735Y-1423207D01*
G01X1660940Y-1420821D01*
G01X1660410Y-1418700D01*
G01X1660145Y-1413662D01*
G01X1660233Y-1411806D01*
G01X1675523Y-1411806D01*
G01X1675788Y-1413927D01*
G01X1676319Y-1417109D01*
G01X1677114Y-1420291D01*
G01X1678175Y-1422412D01*
G01X1679235Y-1424268D01*
G01X1680031Y-1425594D01*
G01X1681622Y-1427450D01*
G01X1683743Y-1429041D01*
G01X1685334Y-1430102D01*
G01X1687455Y-1431162D01*
G01X1689576Y-1431958D01*
G01X1691963Y-1432223D01*
G01X1691963Y-1432223D01*
G01X1693819Y-1432488D01*
G01X1695410Y-1432753D01*
G01X1698061Y-1432488D01*
G01X1701243Y-1431958D01*
G01X1704425Y-1431162D01*
G01X1708137Y-1429041D01*
G01X1709993Y-1427715D01*
G01X1711319Y-1426389D01*
G01X1712909Y-1424533D01*
G01X1714235Y-1422412D01*
G01X1715031Y-1420556D01*
G01X1715826Y-1418435D01*
G01X1716356Y-1414457D01*
G01X1716091Y-1409685D01*
G01X1715296Y-1406768D01*
G01X1714235Y-1404382D01*
G01X1712909Y-1401995D01*
G01X1711584Y-1400139D01*
G01X1709728Y-1398283D01*
G01X1707606Y-1396692D01*
G01X1706016Y-1395632D01*
G01X1703894Y-1394836D01*
G01X1701508Y-1394041D01*
G01X1696735Y-1393511D01*
G01X1691167Y-1394041D01*
G01X1688516Y-1394836D01*
G01X1686394Y-1395632D01*
G01X1683743Y-1397223D01*
G01X1681622Y-1398814D01*
G01X1679766Y-1400670D01*
G01X1678175Y-1403056D01*
G01X1677114Y-1404912D01*
G01X1676319Y-1407298D01*
G01X1675788Y-1409685D01*
G01X1675523Y-1411806D01*
G01X1660233Y-1411806D01*
G01X1660410Y-1408094D01*
G01X1660940Y-1405973D01*
G01X1661470Y-1403586D01*
G01X1662266Y-1401200D01*
G01X1664652Y-1396427D01*
G01X1665978Y-1394571D01*
G01X1666773Y-1393245D01*
G01X1667834Y-1391920D01*
G01X1671016Y-1388738D01*
G01X1673137Y-1387412D01*
G01X1674462Y-1386352D01*
G01X1676319Y-1385026D01*
G01X1678705Y-1383965D01*
G01X1681357Y-1382905D01*
G01X1683743Y-1382109D01*
G01X1689046Y-1381049D01*
G01X1695144Y-1380783D01*
G01X1701243Y-1381049D01*
G01X1703099Y-1381314D01*
G01X1706016Y-1381844D01*
G01X1708667Y-1382639D01*
G01X1710523Y-1383170D01*
G01X1712644Y-1383965D01*
G01X1714766Y-1385026D01*
G01X1717152Y-1386352D01*
G01X1719008Y-1387677D01*
G01X1722985Y-1390859D01*
G01X1724311Y-1392185D01*
G01X1726432Y-1394836D01*
G01X1729084Y-1399079D01*
G01X1729879Y-1400935D01*
G01X1730675Y-1403056D01*
G01X1731470Y-1405973D01*
G01X1732000Y-1408624D01*
G01X1732266Y-1412601D01*
G01X1732000Y-1416579D01*
G01X1731735Y-1418435D01*
G01X1731205Y-1420556D01*
G01X1730410Y-1422942D01*
G01X1729614Y-1425064D01*
G01X1728554Y-1426920D01*
G01X1727493Y-1428511D01*
G01X1726167Y-1430367D01*
G01X1724311Y-1432223D01*
G01X1721129Y-1434874D01*
G01X1719008Y-1436200D01*
G01X1716887Y-1437261D01*
G01X1715031Y-1438056D01*
G01X1714699Y-1438586D01*
G01X1715296Y-1439117D01*
G01X1717417Y-1440177D01*
G01X1719804Y-1441238D01*
G01X1723516Y-1443359D01*
G01X1725372Y-1444685D01*
G01X1727228Y-1446276D01*
G01X1728819Y-1447867D01*
G01X1729879Y-1449192D01*
G01X1731205Y-1450518D01*
G01X1732531Y-1452639D01*
G01X1733857Y-1454495D01*
G01X1734652Y-1456351D01*
G01X1735447Y-1458473D01*
G01X1736243Y-1460859D01*
G01X1736773Y-1463246D01*
G01X1737038Y-1465101D01*
G01X1737303Y-1468549D01*
G01X1737303Y-1471730D01*
G01X1737038Y-1473586D01*
G01X1736773Y-1476503D01*
G01X1736243Y-1479155D01*
G01X1735713Y-1481541D01*
G01X1734917Y-1484192D01*
G01X1733857Y-1486579D01*
G01X1732796Y-1488700D01*
G01X1731735Y-1490556D01*
G01X1730675Y-1492147D01*
G01X1727493Y-1496124D01*
G01X1724841Y-1498776D01*
G01X1722985Y-1500367D01*
G01X1720334Y-1502223D01*
G01X1717682Y-1503814D01*
G01X1715561Y-1504874D01*
G01X1713440Y-1505670D01*
G01X1711053Y-1506465D01*
G01X1708402Y-1507260D01*
G01X1706016Y-1507791D01*
G01X1702303Y-1508321D01*
G01X1696205Y-1508586D01*
G37*
G36*
G01X1251016Y-1704268D02*
G01X1244122Y-1704003D01*
G01X1242531Y-1703738D01*
G01X1240410Y-1703473D01*
G01X1236698Y-1702942D01*
G01X1229539Y-1701351D01*
G01X1226887Y-1700556D01*
G01X1224766Y-1699760D01*
G01X1222910Y-1698965D01*
G01X1218667Y-1696844D01*
G01X1217077Y-1695783D01*
G01X1215751Y-1694723D01*
G01X1214160Y-1693662D01*
G01X1212569Y-1692336D01*
G01X1211243Y-1691010D01*
G01X1209652Y-1689685D01*
G01X1207796Y-1687564D01*
G01X1205675Y-1684912D01*
G01X1204084Y-1682260D01*
G01X1201963Y-1678018D01*
G01X1200902Y-1675367D01*
G01X1200107Y-1673245D01*
G01X1199046Y-1668473D01*
G01X1198781Y-1665026D01*
G01X1198980Y-1662971D01*
G01X1199576Y-1662109D01*
G01X1201168Y-1661579D01*
G01X1207001Y-1661048D01*
G01X1210713Y-1660783D01*
G01X1213033Y-1661048D01*
G01X1214160Y-1661844D01*
G01X1214955Y-1664760D01*
G01X1215751Y-1668208D01*
G01X1216811Y-1670859D01*
G01X1217872Y-1673245D01*
G01X1219198Y-1675632D01*
G01X1221054Y-1678018D01*
G01X1222645Y-1679874D01*
G01X1224501Y-1681465D01*
G01X1227152Y-1683321D01*
G01X1229273Y-1684647D01*
G01X1231395Y-1685707D01*
G01X1234311Y-1686768D01*
G01X1237758Y-1687829D01*
G01X1240410Y-1688624D01*
G01X1244652Y-1689154D01*
G01X1249955Y-1689420D01*
G01X1256319Y-1689154D01*
G01X1260031Y-1688624D01*
G01X1262683Y-1688094D01*
G01X1264804Y-1687564D01*
G01X1267190Y-1686768D01*
G01X1269577Y-1685707D01*
G01X1272228Y-1684382D01*
G01X1274084Y-1683056D01*
G01X1275675Y-1681995D01*
G01X1277266Y-1680670D01*
G01X1278326Y-1679344D01*
G01X1279652Y-1677488D01*
G01X1280978Y-1674836D01*
G01X1281773Y-1672715D01*
G01X1282039Y-1668473D01*
G01X1281508Y-1663435D01*
G01X1280448Y-1660783D01*
G01X1279387Y-1658662D01*
G01X1278061Y-1657071D01*
G01X1276736Y-1655745D01*
G01X1274880Y-1654154D01*
G01X1272758Y-1652829D01*
G01X1269577Y-1651238D01*
G01X1267720Y-1650442D01*
G01X1265599Y-1649647D01*
G01X1257645Y-1647260D01*
G01X1254198Y-1646465D01*
G01X1251546Y-1645670D01*
G01X1249160Y-1645139D01*
G01X1245713Y-1644344D01*
G01X1243061Y-1643548D01*
G01X1240675Y-1643018D01*
G01X1237493Y-1642223D01*
G01X1235107Y-1641427D01*
G01X1232720Y-1640897D01*
G01X1230069Y-1640101D01*
G01X1224766Y-1637980D01*
G01X1222380Y-1636920D01*
G01X1219728Y-1635594D01*
G01X1217607Y-1634268D01*
G01X1216016Y-1633473D01*
G01X1214690Y-1632412D01*
G01X1212834Y-1630821D01*
G01X1210448Y-1628700D01*
G01X1208592Y-1626048D01*
G01X1207266Y-1624192D01*
G01X1206205Y-1622336D01*
G01X1205145Y-1619950D01*
G01X1204349Y-1617563D01*
G01X1203819Y-1615442D01*
G01X1203554Y-1610139D01*
G01X1203819Y-1604836D01*
G01X1204349Y-1602185D01*
G01X1205145Y-1599003D01*
G01X1206205Y-1596351D01*
G01X1207266Y-1594230D01*
G01X1208592Y-1592109D01*
G01X1210182Y-1589723D01*
G01X1211508Y-1587867D01*
G01X1214160Y-1585215D01*
G01X1216016Y-1583624D01*
G01X1218402Y-1582033D01*
G01X1220789Y-1580708D01*
G01X1222910Y-1579647D01*
G01X1225296Y-1578586D01*
G01X1230864Y-1576730D01*
G01X1235637Y-1575669D01*
G01X1239879Y-1575139D01*
G01X1247039Y-1574874D01*
G01X1254198Y-1575139D01*
G01X1258440Y-1575669D01*
G01X1261092Y-1576200D01*
G01X1264804Y-1576995D01*
G01X1268251Y-1578056D01*
G01X1271167Y-1579117D01*
G01X1275410Y-1581238D01*
G01X1277796Y-1582564D01*
G01X1279917Y-1583889D01*
G01X1281508Y-1585215D01*
G01X1285220Y-1588397D01*
G01X1286281Y-1589723D01*
G01X1287607Y-1591579D01*
G01X1289198Y-1593965D01*
G01X1290523Y-1596351D01*
G01X1291584Y-1598738D01*
G01X1292379Y-1600859D01*
G01X1293175Y-1603776D01*
G01X1293970Y-1606427D01*
G01X1294236Y-1609344D01*
G01X1294037Y-1611067D01*
G01X1293440Y-1611995D01*
G01X1289728Y-1612526D01*
G01X1286016Y-1612791D01*
G01X1282039Y-1613056D01*
G01X1279586Y-1612857D01*
G01X1278592Y-1612260D01*
G01X1278061Y-1610670D01*
G01X1277531Y-1608283D01*
G01X1276736Y-1605632D01*
G01X1275675Y-1603245D01*
G01X1274614Y-1601124D01*
G01X1273289Y-1599003D01*
G01X1271698Y-1597147D01*
G01X1270372Y-1595821D01*
G01X1268516Y-1594230D01*
G01X1266395Y-1592904D01*
G01X1262683Y-1591314D01*
G01X1260296Y-1590518D01*
G01X1257910Y-1589988D01*
G01X1252607Y-1589457D01*
G01X1248629Y-1589192D01*
G01X1244652Y-1589457D01*
G01X1239349Y-1589988D01*
G01X1236167Y-1590518D01*
G01X1232720Y-1591314D01*
G01X1230334Y-1592374D01*
G01X1227683Y-1593700D01*
G01X1225827Y-1595291D01*
G01X1223970Y-1597147D01*
G01X1222114Y-1598738D01*
G01X1221054Y-1600594D01*
G01X1219993Y-1602980D01*
G01X1219463Y-1606692D01*
G01X1219728Y-1611200D01*
G01X1220523Y-1614116D01*
G01X1221319Y-1615973D01*
G01X1223440Y-1618624D01*
G01X1224766Y-1619950D01*
G01X1226357Y-1621011D01*
G01X1228213Y-1622071D01*
G01X1230864Y-1623132D01*
G01X1233781Y-1624192D01*
G01X1237228Y-1625253D01*
G01X1240940Y-1626314D01*
G01X1243592Y-1627109D01*
G01X1250751Y-1628700D01*
G01X1254198Y-1629495D01*
G01X1260561Y-1631086D01*
G01X1263213Y-1631882D01*
G01X1265599Y-1632412D01*
G01X1268251Y-1633207D01*
G01X1273023Y-1634798D01*
G01X1275145Y-1635594D01*
G01X1277001Y-1636389D01*
G01X1279122Y-1637450D01*
G01X1281508Y-1638776D01*
G01X1283895Y-1640367D01*
G01X1286546Y-1642223D01*
G01X1288402Y-1643548D01*
G01X1289463Y-1644609D01*
G01X1292645Y-1648586D01*
G01X1293705Y-1650177D01*
G01X1294766Y-1652033D01*
G01X1296357Y-1655745D01*
G01X1297152Y-1658132D01*
G01X1297682Y-1660518D01*
G01X1297948Y-1666086D01*
G01X1297682Y-1671654D01*
G01X1297152Y-1674306D01*
G01X1296357Y-1677222D01*
G01X1295296Y-1679874D01*
G01X1293970Y-1682791D01*
G01X1292645Y-1684912D01*
G01X1291584Y-1686503D01*
G01X1288402Y-1690745D01*
G01X1286546Y-1692601D01*
G01X1284425Y-1694192D01*
G01X1283099Y-1695253D01*
G01X1281508Y-1696313D01*
G01X1275940Y-1699495D01*
G01X1271698Y-1701086D01*
G01X1269046Y-1701882D01*
G01X1266130Y-1702677D01*
G01X1264008Y-1703207D01*
G01X1258440Y-1704003D01*
G01X1251016Y-1704268D01*
G37*
G36*
G01X1618781Y-1646995D02*
G01X1618781Y-1591844D01*
G01X1577417Y-1591844D01*
G01X1577417Y-1576995D01*
G01X1676584Y-1576995D01*
G01X1676584Y-1591844D01*
G01X1635220Y-1591844D01*
G01X1635220Y-1702147D01*
G01X1618781Y-1702147D01*
G01X1618781Y-1646995D01*
G37*
G36*
G01X1321281Y-1639571D02*
G01X1321281Y-1576995D01*
G01X1411963Y-1576995D01*
G01X1411963Y-1583094D01*
G01X1411698Y-1590518D01*
G01X1411433Y-1591844D01*
G01X1337720Y-1591844D01*
G01X1337720Y-1630026D01*
G01X1407190Y-1630026D01*
G01X1407190Y-1644874D01*
G01X1337720Y-1644874D01*
G01X1337720Y-1687298D01*
G01X1414614Y-1687298D01*
G01X1414614Y-1702147D01*
G01X1321281Y-1702147D01*
G01X1321281Y-1639571D01*
G37*
G36*
G01X1469236Y-1646995D02*
G01X1469236Y-1591844D01*
G01X1428402Y-1591844D01*
G01X1428402Y-1576995D01*
G01X1527569Y-1576995D01*
G01X1527569Y-1591844D01*
G01X1486205Y-1591844D01*
G01X1486205Y-1702147D01*
G01X1469236Y-1702147D01*
G01X1469236Y-1646995D01*
G37*
G36*
G01X1745523Y-1704268D02*
G01X1739425Y-1704003D01*
G01X1733061Y-1702942D01*
G01X1730410Y-1702412D01*
G01X1726963Y-1701616D01*
G01X1723781Y-1700556D01*
G01X1721394Y-1699495D01*
G01X1719538Y-1698700D01*
G01X1717152Y-1697639D01*
G01X1711849Y-1694457D01*
G01X1709993Y-1693132D01*
G01X1706016Y-1689950D01*
G01X1699387Y-1683321D01*
G01X1696735Y-1679609D01*
G01X1695675Y-1678018D01*
G01X1693553Y-1674306D01*
G01X1692493Y-1672185D01*
G01X1691432Y-1669798D01*
G01X1690637Y-1667677D01*
G01X1689841Y-1665821D01*
G01X1689046Y-1663700D01*
G01X1688250Y-1660783D01*
G01X1687455Y-1658397D01*
G01X1686394Y-1653094D01*
G01X1685864Y-1649382D01*
G01X1685599Y-1641957D01*
G01X1685661Y-1639836D01*
G01X1702569Y-1639836D01*
G01X1702834Y-1647260D01*
G01X1703099Y-1649382D01*
G01X1703364Y-1652033D01*
G01X1703894Y-1654685D01*
G01X1704425Y-1656806D01*
G01X1704955Y-1659192D01*
G01X1705750Y-1661844D01*
G01X1706546Y-1663965D01*
G01X1707341Y-1665821D01*
G01X1708402Y-1667942D01*
G01X1709728Y-1670329D01*
G01X1711319Y-1672715D01*
G01X1712644Y-1674571D01*
G01X1715826Y-1678283D01*
G01X1717152Y-1679344D01*
G01X1718478Y-1680670D01*
G01X1720334Y-1682260D01*
G01X1722720Y-1683851D01*
G01X1724841Y-1685177D01*
G01X1726697Y-1686238D01*
G01X1729084Y-1687298D01*
G01X1732531Y-1688359D01*
G01X1735182Y-1689154D01*
G01X1737303Y-1689420D01*
G01X1737303Y-1689420D01*
G01X1738894Y-1689685D01*
G01X1744728Y-1689950D01*
G01X1751091Y-1689685D01*
G01X1752947Y-1689420D01*
G01X1755599Y-1688889D01*
G01X1757985Y-1688094D01*
G01X1760106Y-1687564D01*
G01X1762228Y-1686768D01*
G01X1767001Y-1684382D01*
G01X1769387Y-1682791D01*
G01X1771773Y-1680935D01*
G01X1773894Y-1679344D01*
G01X1775750Y-1677488D01*
G01X1777872Y-1674836D01*
G01X1779463Y-1672715D01*
G01X1782114Y-1668473D01*
G01X1783175Y-1666351D01*
G01X1784235Y-1663700D01*
G01X1785296Y-1660783D01*
G01X1786091Y-1658397D01*
G01X1787152Y-1653094D01*
G01X1787682Y-1649382D01*
G01X1787947Y-1641162D01*
G01X1787682Y-1631882D01*
G01X1787152Y-1627639D01*
G01X1786357Y-1623397D01*
G01X1785561Y-1620745D01*
G01X1785031Y-1618624D01*
G01X1784235Y-1616238D01*
G01X1783175Y-1613586D01*
G01X1782114Y-1611200D01*
G01X1779993Y-1607488D01*
G01X1778932Y-1605897D01*
G01X1777872Y-1604571D01*
G01X1777076Y-1603245D01*
G01X1776015Y-1601920D01*
G01X1772834Y-1598738D01*
G01X1768591Y-1595556D01*
G01X1765940Y-1593965D01*
G01X1763288Y-1592639D01*
G01X1760637Y-1591579D01*
G01X1758516Y-1590783D01*
G01X1755864Y-1589988D01*
G01X1753213Y-1589457D01*
G01X1746849Y-1588927D01*
G01X1745523Y-1588927D01*
G01X1742607Y-1589192D01*
G01X1738894Y-1589457D01*
G01X1736773Y-1589988D01*
G01X1734917Y-1590253D01*
G01X1732796Y-1590783D01*
G01X1730410Y-1591579D01*
G01X1728288Y-1592374D01*
G01X1723516Y-1594760D01*
G01X1721129Y-1596351D01*
G01X1719273Y-1597412D01*
G01X1717948Y-1598473D01*
G01X1712909Y-1603510D01*
G01X1711319Y-1605367D01*
G01X1709728Y-1607753D01*
G01X1708402Y-1610139D01*
G01X1707341Y-1612526D01*
G01X1706281Y-1615177D01*
G01X1705220Y-1618624D01*
G01X1704425Y-1621276D01*
G01X1703364Y-1627109D01*
G01X1702834Y-1632412D01*
G01X1702569Y-1639836D01*
G01X1685661Y-1639836D01*
G01X1685864Y-1632942D01*
G01X1686394Y-1628169D01*
G01X1686925Y-1624988D01*
G01X1687985Y-1619685D01*
G01X1688516Y-1617563D01*
G01X1689311Y-1614647D01*
G01X1690372Y-1611730D01*
G01X1691432Y-1609079D01*
G01X1694879Y-1602185D01*
G01X1696470Y-1599798D01*
G01X1697531Y-1597942D01*
G01X1698591Y-1596617D01*
G01X1701243Y-1593435D01*
G01X1707076Y-1587601D01*
G01X1709197Y-1586011D01*
G01X1711053Y-1584685D01*
G01X1713440Y-1583094D01*
G01X1715561Y-1581768D01*
G01X1719804Y-1579647D01*
G01X1721659Y-1578851D01*
G01X1723781Y-1578056D01*
G01X1726167Y-1577261D01*
G01X1729349Y-1576465D01*
G01X1732000Y-1575669D01*
G01X1736243Y-1575139D01*
G01X1744463Y-1574874D01*
G01X1752682Y-1575139D01*
G01X1756394Y-1575669D01*
G01X1763553Y-1577261D01*
G01X1765940Y-1578056D01*
G01X1770182Y-1579647D01*
G01X1774955Y-1582033D01*
G01X1777607Y-1583624D01*
G01X1779993Y-1585215D01*
G01X1781849Y-1586541D01*
G01X1784500Y-1588662D01*
G01X1791129Y-1595291D01*
G01X1792190Y-1596617D01*
G01X1793516Y-1598473D01*
G01X1794841Y-1600594D01*
G01X1795902Y-1602450D01*
G01X1797228Y-1604571D01*
G01X1798288Y-1606692D01*
G01X1799879Y-1610404D01*
G01X1801470Y-1614647D01*
G01X1802266Y-1617298D01*
G01X1803061Y-1619685D01*
G01X1804122Y-1624988D01*
G01X1804652Y-1628700D01*
G01X1805182Y-1636654D01*
G01X1805447Y-1638776D01*
G01X1805182Y-1640897D01*
G01X1804917Y-1644079D01*
G01X1804652Y-1648851D01*
G01X1804122Y-1652563D01*
G01X1803061Y-1657866D01*
G01X1802000Y-1662109D01*
G01X1801205Y-1665026D01*
G01X1800144Y-1667677D01*
G01X1798023Y-1672450D01*
G01X1796963Y-1674571D01*
G01X1795637Y-1676957D01*
G01X1794311Y-1679079D01*
G01X1793250Y-1680670D01*
G01X1792190Y-1681995D01*
G01X1791129Y-1683586D01*
G01X1789803Y-1685177D01*
G01X1783970Y-1691010D01*
G01X1781849Y-1692601D01*
G01X1779993Y-1693927D01*
G01X1777607Y-1695518D01*
G01X1775485Y-1696844D01*
G01X1773364Y-1697904D01*
G01X1770978Y-1698965D01*
G01X1768857Y-1699760D01*
G01X1767001Y-1700556D01*
G01X1764614Y-1701351D01*
G01X1761962Y-1702147D01*
G01X1759046Y-1702942D01*
G01X1756394Y-1703473D01*
G01X1751622Y-1704003D01*
G01X1745523Y-1704268D01*
G37*
G36*
G01X2008553Y-1702147D02*
G01X2007758Y-1700291D01*
G01X2006432Y-1697374D01*
G01X2003250Y-1688889D01*
G01X2002190Y-1686503D01*
G01X2001129Y-1683586D01*
G01X1999008Y-1678283D01*
G01X1997947Y-1675367D01*
G01X1995826Y-1670063D01*
G01X1994765Y-1667147D01*
G01X1992644Y-1661844D01*
G01X1991584Y-1658927D01*
G01X1989462Y-1653624D01*
G01X1988402Y-1650707D01*
G01X1986281Y-1645404D01*
G01X1985220Y-1642488D01*
G01X1983099Y-1637185D01*
G01X1982038Y-1634268D01*
G01X1980977Y-1631617D01*
G01X1979387Y-1627374D01*
G01X1976205Y-1619419D01*
G01X1975144Y-1616503D01*
G01X1973023Y-1611200D01*
G01X1971963Y-1608283D01*
G01X1969841Y-1602980D01*
G01X1968781Y-1600064D01*
G01X1966660Y-1594760D01*
G01X1965599Y-1591844D01*
G01X1963478Y-1586541D01*
G01X1962417Y-1583624D01*
G01X1959765Y-1576995D01*
G01X1968515Y-1576995D01*
G01X1975277Y-1577261D01*
G01X1978061Y-1578056D01*
G01X1979122Y-1580442D01*
G01X1979917Y-1582829D01*
G01X1980977Y-1585480D01*
G01X1982038Y-1588662D01*
G01X1984159Y-1594495D01*
G01X1985220Y-1597677D01*
G01X1986281Y-1600329D01*
G01X1987872Y-1605101D01*
G01X1988932Y-1607753D01*
G01X1989993Y-1610935D01*
G01X1992114Y-1616768D01*
G01X1993175Y-1619950D01*
G01X1994235Y-1622601D01*
G01X1995826Y-1627374D01*
G01X1996887Y-1630026D01*
G01X1997947Y-1633207D01*
G01X2000068Y-1639041D01*
G01X2001129Y-1642223D01*
G01X2002190Y-1644874D01*
G01X2003781Y-1649647D01*
G01X2005371Y-1653889D01*
G01X2006167Y-1656276D01*
G01X2007758Y-1660518D01*
G01X2008553Y-1662905D01*
G01X2009614Y-1665556D01*
G01X2015713Y-1683851D01*
G01X2016243Y-1685973D01*
G01X2016574Y-1686901D01*
G01X2017038Y-1687033D01*
G01X2018099Y-1684912D01*
G01X2019159Y-1681465D01*
G01X2022341Y-1671919D01*
G01X2024462Y-1666086D01*
G01X2025523Y-1663435D01*
G01X2026319Y-1661048D01*
G01X2032682Y-1644079D01*
G01X2033478Y-1641692D01*
G01X2036659Y-1633207D01*
G01X2037720Y-1630556D01*
G01X2039841Y-1624723D01*
G01X2040902Y-1622071D01*
G01X2041697Y-1619685D01*
G01X2048061Y-1602715D01*
G01X2048856Y-1600329D01*
G01X2050447Y-1596086D01*
G01X2051508Y-1593435D01*
G01X2053629Y-1587601D01*
G01X2054690Y-1584950D01*
G01X2055485Y-1582564D01*
G01X2057076Y-1578321D01*
G01X2057341Y-1576995D01*
G01X2065561Y-1576995D01*
G01X2073780Y-1577526D01*
G01X2073250Y-1579382D01*
G01X2072190Y-1582298D01*
G01X2067947Y-1592904D01*
G01X2066887Y-1595821D01*
G01X2063705Y-1603776D01*
G01X2062644Y-1606692D01*
G01X2058402Y-1617298D01*
G01X2057341Y-1620215D01*
G01X2054159Y-1628169D01*
G01X2053099Y-1631086D01*
G01X2048856Y-1641692D01*
G01X2047796Y-1644609D01*
G01X2044614Y-1652563D01*
G01X2043553Y-1655480D01*
G01X2039311Y-1666086D01*
G01X2038250Y-1669003D01*
G01X2034008Y-1679609D01*
G01X2032947Y-1682525D01*
G01X2029766Y-1690480D01*
G01X2027379Y-1696844D01*
G01X2026584Y-1698700D01*
G01X2025788Y-1700821D01*
G01X2025523Y-1702147D01*
G01X2008553Y-1702147D01*
G37*
G36*
G01X1908856Y-1704268D02*
G01X1903819Y-1704003D01*
G01X1901167Y-1703473D01*
G01X1897985Y-1702942D01*
G01X1895864Y-1702412D01*
G01X1893478Y-1701616D01*
G01X1890826Y-1700556D01*
G01X1888440Y-1699495D01*
G01X1886584Y-1698435D01*
G01X1884993Y-1697374D01*
G01X1883137Y-1696048D01*
G01X1881281Y-1694457D01*
G01X1877834Y-1691010D01*
G01X1876243Y-1689154D01*
G01X1874652Y-1686768D01*
G01X1873326Y-1684647D01*
G01X1872265Y-1682525D01*
G01X1870675Y-1678283D01*
G01X1869879Y-1675367D01*
G01X1869349Y-1672715D01*
G01X1869084Y-1670594D01*
G01X1869481Y-1669599D01*
G01X1870675Y-1669268D01*
G01X1873061Y-1669003D01*
G01X1878894Y-1668473D01*
G01X1882341Y-1668208D01*
G01X1884993Y-1668208D01*
G01X1885523Y-1669798D01*
G01X1886319Y-1672715D01*
G01X1887114Y-1675367D01*
G01X1888175Y-1678018D01*
G01X1890031Y-1681730D01*
G01X1891091Y-1683056D01*
G01X1892417Y-1684382D01*
G01X1893478Y-1685707D01*
G01X1895069Y-1687033D01*
G01X1897190Y-1688359D01*
G01X1899046Y-1689420D01*
G01X1901432Y-1690480D01*
G01X1903819Y-1691276D01*
G01X1908061Y-1691541D01*
G01X1913364Y-1691276D01*
G01X1916811Y-1690480D01*
G01X1919728Y-1689420D01*
G01X1921584Y-1688359D01*
G01X1923175Y-1687564D01*
G01X1924766Y-1686503D01*
G01X1928743Y-1682525D01*
G01X1930069Y-1680935D01*
G01X1931394Y-1678814D01*
G01X1932720Y-1676427D01*
G01X1933781Y-1674041D01*
G01X1934576Y-1671389D01*
G01X1935106Y-1669003D01*
G01X1935637Y-1664760D01*
G01X1935902Y-1661579D01*
G01X1935637Y-1658397D01*
G01X1935106Y-1654685D01*
G01X1934576Y-1652033D01*
G01X1933781Y-1649117D01*
G01X1932720Y-1646730D01*
G01X1931659Y-1644609D01*
G01X1930334Y-1642488D01*
G01X1928743Y-1640632D01*
G01X1927417Y-1639306D01*
G01X1925561Y-1637715D01*
G01X1923705Y-1636389D01*
G01X1921849Y-1635329D01*
G01X1919463Y-1634268D01*
G01X1916546Y-1633473D01*
G01X1913894Y-1632942D01*
G01X1909917Y-1632677D01*
G01X1905940Y-1632942D01*
G01X1902228Y-1633473D01*
G01X1899841Y-1634268D01*
G01X1896925Y-1635329D01*
G01X1894538Y-1636654D01*
G01X1892682Y-1637715D01*
G01X1891356Y-1638776D01*
G01X1888175Y-1641957D01*
G01X1886584Y-1644079D01*
G01X1885921Y-1644609D01*
G01X1884993Y-1644609D01*
G01X1881546Y-1644079D01*
G01X1877303Y-1643548D01*
G01X1873591Y-1643018D01*
G01X1872265Y-1642554D01*
G01X1872000Y-1641692D01*
G01X1872531Y-1639836D01*
G01X1873061Y-1637185D01*
G01X1873591Y-1634003D01*
G01X1874121Y-1631351D01*
G01X1874652Y-1628169D01*
G01X1875713Y-1622866D01*
G01X1876243Y-1619685D01*
G01X1877834Y-1611730D01*
G01X1878364Y-1608548D01*
G01X1878894Y-1605897D01*
G01X1879955Y-1600064D01*
G01X1881546Y-1592109D01*
G01X1882076Y-1588927D01*
G01X1883137Y-1583624D01*
G01X1883667Y-1580442D01*
G01X1883932Y-1578586D01*
G01X1945978Y-1578586D01*
G01X1945978Y-1593435D01*
G01X1921053Y-1593435D01*
G01X1902294Y-1593700D01*
G01X1895864Y-1594495D01*
G01X1895334Y-1596351D01*
G01X1890031Y-1622866D01*
G01X1889766Y-1624988D01*
G01X1889964Y-1625916D01*
G01X1890561Y-1626048D01*
G01X1892417Y-1624988D01*
G01X1894803Y-1623662D01*
G01X1896925Y-1622601D01*
G01X1899046Y-1621806D01*
G01X1901432Y-1621011D01*
G01X1904084Y-1620215D01*
G01X1906470Y-1619685D01*
G01X1912568Y-1619419D01*
G01X1918667Y-1619685D01*
G01X1923970Y-1620745D01*
G01X1926356Y-1621541D01*
G01X1929273Y-1622601D01*
G01X1931394Y-1623662D01*
G01X1933250Y-1624723D01*
G01X1936432Y-1626844D01*
G01X1939614Y-1629495D01*
G01X1941735Y-1631351D01*
G01X1943856Y-1634003D01*
G01X1945447Y-1636124D01*
G01X1946508Y-1637715D01*
G01X1948629Y-1641957D01*
G01X1949425Y-1644079D01*
G01X1950220Y-1646465D01*
G01X1951015Y-1649382D01*
G01X1951546Y-1652033D01*
G01X1951811Y-1658132D01*
G01X1951546Y-1665821D01*
G01X1951015Y-1669003D01*
G01X1950750Y-1670859D01*
G01X1950220Y-1672980D01*
G01X1948629Y-1677753D01*
G01X1947569Y-1680139D01*
G01X1946243Y-1682791D01*
G01X1944652Y-1685442D01*
G01X1943326Y-1687298D01*
G01X1940144Y-1691276D01*
G01X1936167Y-1695253D01*
G01X1932455Y-1697904D01*
G01X1930864Y-1698965D01*
G01X1928743Y-1700026D01*
G01X1926356Y-1701086D01*
G01X1924235Y-1701882D01*
G01X1921318Y-1702677D01*
G01X1918667Y-1703473D01*
G01X1914425Y-1704003D01*
G01X1908856Y-1704268D01*
G37*
G36*
G01X911887Y-1835253D02*
G01X911887Y-1772677D01*
G01X924084Y-1772677D01*
G01X933431Y-1772942D01*
G01X937077Y-1773738D01*
G01X938137Y-1776124D01*
G01X970751Y-1873965D01*
G01X971546Y-1876616D01*
G01X972342Y-1878473D01*
G01X972872Y-1878274D01*
G01X973402Y-1877147D01*
G01X979766Y-1858056D01*
G01X980827Y-1855404D01*
G01X985599Y-1841086D01*
G01X987190Y-1836844D01*
G01X991167Y-1824912D01*
G01X992758Y-1820669D01*
G01X996736Y-1808738D01*
G01X998327Y-1804495D01*
G01X1000713Y-1797336D01*
G01X1001509Y-1795215D01*
G01X1003099Y-1790442D01*
G01X1003895Y-1788321D01*
G01X1008668Y-1774003D01*
G01X1008933Y-1772677D01*
G01X1031205Y-1772677D01*
G01X1031205Y-1897829D01*
G01X1015296Y-1897829D01*
G01X1015296Y-1846654D01*
G01X1015164Y-1808340D01*
G01X1014766Y-1795745D01*
G01X1013705Y-1797601D01*
G01X1012645Y-1800783D01*
G01X1010524Y-1806616D01*
G01X1007342Y-1816162D01*
G01X1006281Y-1818814D01*
G01X1003099Y-1828359D01*
G01X1001509Y-1832601D01*
G01X998327Y-1842147D01*
G01X997266Y-1844798D01*
G01X994084Y-1854344D01*
G01X993024Y-1856995D01*
G01X989842Y-1866541D01*
G01X988781Y-1869192D01*
G01X986660Y-1875556D01*
G01X985599Y-1878473D01*
G01X984804Y-1880594D01*
G01X984274Y-1882450D01*
G01X983478Y-1884571D01*
G01X981092Y-1891730D01*
G01X980296Y-1893851D01*
G01X979501Y-1896238D01*
G01X979236Y-1897829D01*
G01X971811Y-1897829D01*
G01X966111Y-1897563D01*
G01X963857Y-1896768D01*
G01X962796Y-1894116D01*
G01X960675Y-1887753D01*
G01X958554Y-1881919D01*
G01X951660Y-1861238D01*
G01X949539Y-1855404D01*
G01X942114Y-1833131D01*
G01X939993Y-1827298D01*
G01X932569Y-1805026D01*
G01X931508Y-1802374D01*
G01X929122Y-1795215D01*
G01X928327Y-1793624D01*
G01X927929Y-1806484D01*
G01X927796Y-1845594D01*
G01X927796Y-1897829D01*
G01X911887Y-1897829D01*
G01X911887Y-1835253D01*
G37*
G36*
G01X1244387Y-1899950D02*
G01X1237228Y-1899685D01*
G01X1230864Y-1898624D01*
G01X1227948Y-1898094D01*
G01X1224236Y-1897298D01*
G01X1221054Y-1896238D01*
G01X1218137Y-1895177D01*
G01X1215486Y-1893851D01*
G01X1212834Y-1892260D01*
G01X1210978Y-1890935D01*
G01X1209387Y-1889874D01*
G01X1207796Y-1888548D01*
G01X1205145Y-1885897D01*
G01X1204084Y-1884571D01*
G01X1202758Y-1882715D01*
G01X1201168Y-1880063D01*
G01X1199842Y-1877677D01*
G01X1198781Y-1875025D01*
G01X1196925Y-1869457D01*
G01X1195864Y-1864154D01*
G01X1195334Y-1860442D01*
G01X1194804Y-1854079D01*
G01X1194539Y-1812980D01*
G01X1194539Y-1772677D01*
G01X1210978Y-1772677D01*
G01X1210978Y-1811124D01*
G01X1211243Y-1850366D01*
G01X1211774Y-1857260D01*
G01X1212039Y-1859116D01*
G01X1212304Y-1861503D01*
G01X1212834Y-1863624D01*
G01X1213364Y-1866010D01*
G01X1214160Y-1868662D01*
G01X1215220Y-1871048D01*
G01X1216281Y-1872904D01*
G01X1217342Y-1874495D01*
G01X1218667Y-1876086D01*
G01X1221319Y-1878738D01*
G01X1223175Y-1880063D01*
G01X1225031Y-1881124D01*
G01X1226622Y-1881919D01*
G01X1229008Y-1882980D01*
G01X1231395Y-1883776D01*
G01X1236167Y-1884836D01*
G01X1241470Y-1885101D01*
G01X1247834Y-1884836D01*
G01X1252076Y-1884306D01*
G01X1256054Y-1883510D01*
G01X1260827Y-1881919D01*
G01X1263743Y-1880594D01*
G01X1265599Y-1879268D01*
G01X1267190Y-1878207D01*
G01X1268781Y-1876881D01*
G01X1269842Y-1875556D01*
G01X1270902Y-1873965D01*
G01X1271963Y-1872109D01*
G01X1273023Y-1869722D01*
G01X1274084Y-1866541D01*
G01X1274880Y-1863624D01*
G01X1275410Y-1861503D01*
G01X1275940Y-1857260D01*
G01X1276470Y-1847185D01*
G01X1276736Y-1809533D01*
G01X1276736Y-1772677D01*
G01X1293175Y-1772677D01*
G01X1293175Y-1811124D01*
G01X1292910Y-1850366D01*
G01X1292645Y-1853548D01*
G01X1292379Y-1857791D01*
G01X1291849Y-1862033D01*
G01X1291319Y-1865215D01*
G01X1290789Y-1867601D01*
G01X1289993Y-1871048D01*
G01X1288932Y-1873965D01*
G01X1288137Y-1876086D01*
G01X1287076Y-1878473D01*
G01X1285751Y-1880594D01*
G01X1284955Y-1882184D01*
G01X1281773Y-1886162D01*
G01X1279122Y-1888813D01*
G01X1274880Y-1891995D01*
G01X1273554Y-1893056D01*
G01X1271698Y-1894116D01*
G01X1269577Y-1895177D01*
G01X1267190Y-1896238D01*
G01X1261622Y-1898094D01*
G01X1256319Y-1899154D01*
G01X1251546Y-1899685D01*
G01X1244387Y-1899950D01*
G37*
G36*
G01X1113137Y-1899950D02*
G01X1107039Y-1899685D01*
G01X1104122Y-1899154D01*
G01X1100940Y-1898624D01*
G01X1099084Y-1898359D01*
G01X1096433Y-1897829D01*
G01X1090069Y-1895707D01*
G01X1087683Y-1894647D01*
G01X1083440Y-1892526D01*
G01X1081319Y-1891200D01*
G01X1076546Y-1888018D01*
G01X1074690Y-1886427D01*
G01X1071508Y-1883776D01*
G01X1068857Y-1881124D01*
G01X1065675Y-1877147D01*
G01X1064349Y-1875291D01*
G01X1062758Y-1872639D01*
G01X1061433Y-1870518D01*
G01X1060372Y-1868397D01*
G01X1059311Y-1866010D01*
G01X1057190Y-1860707D01*
G01X1056395Y-1858321D01*
G01X1055599Y-1855404D01*
G01X1054804Y-1853018D01*
G01X1053743Y-1846654D01*
G01X1053478Y-1843473D01*
G01X1053213Y-1838700D01*
G01X1053213Y-1835518D01*
G01X1053232Y-1835253D01*
G01X1070448Y-1835253D01*
G01X1070713Y-1844533D01*
G01X1070978Y-1846389D01*
G01X1071243Y-1848776D01*
G01X1071774Y-1851427D01*
G01X1072834Y-1855669D01*
G01X1073630Y-1858056D01*
G01X1074425Y-1860177D01*
G01X1075221Y-1862033D01*
G01X1076281Y-1864154D01*
G01X1077607Y-1866541D01*
G01X1078933Y-1868662D01*
G01X1082910Y-1873435D01*
G01X1084236Y-1874760D01*
G01X1086887Y-1876881D01*
G01X1088743Y-1878473D01*
G01X1090599Y-1879798D01*
G01X1092455Y-1880859D01*
G01X1094577Y-1881919D01*
G01X1096963Y-1882980D01*
G01X1102531Y-1884836D01*
G01X1104918Y-1885101D01*
G01X1104918Y-1885101D01*
G01X1106774Y-1885366D01*
G01X1112342Y-1885632D01*
G01X1118971Y-1885366D01*
G01X1121622Y-1884836D01*
G01X1123743Y-1884306D01*
G01X1126130Y-1883776D01*
G01X1128781Y-1882980D01*
G01X1131167Y-1881919D01*
G01X1133289Y-1880859D01*
G01X1135410Y-1879533D01*
G01X1137266Y-1878207D01*
G01X1138592Y-1877412D01*
G01X1139917Y-1876351D01*
G01X1143895Y-1872374D01*
G01X1146016Y-1869722D01*
G01X1147342Y-1868132D01*
G01X1148402Y-1866541D01*
G01X1149463Y-1864685D01*
G01X1150523Y-1862563D01*
G01X1152114Y-1858851D01*
G01X1152910Y-1856465D01*
G01X1153705Y-1853813D01*
G01X1154501Y-1850632D01*
G01X1155031Y-1847715D01*
G01X1155561Y-1842942D01*
G01X1155826Y-1836579D01*
G01X1155561Y-1829154D01*
G01X1155031Y-1824912D01*
G01X1154501Y-1821730D01*
G01X1153971Y-1819344D01*
G01X1153175Y-1815897D01*
G01X1152114Y-1812450D01*
G01X1151054Y-1809798D01*
G01X1149993Y-1807412D01*
G01X1148668Y-1804760D01*
G01X1147076Y-1802374D01*
G01X1146016Y-1800518D01*
G01X1144955Y-1799192D01*
G01X1139122Y-1793359D01*
G01X1137001Y-1791768D01*
G01X1135675Y-1790707D01*
G01X1133819Y-1789647D01*
G01X1131698Y-1788586D01*
G01X1129311Y-1787526D01*
G01X1126130Y-1786465D01*
G01X1123213Y-1785670D01*
G01X1121092Y-1785139D01*
G01X1114728Y-1784609D01*
G01X1113137Y-1784609D01*
G01X1110751Y-1784874D01*
G01X1106774Y-1785139D01*
G01X1102531Y-1785935D01*
G01X1099084Y-1786995D01*
G01X1095107Y-1788321D01*
G01X1093516Y-1789116D01*
G01X1091660Y-1790177D01*
G01X1087417Y-1792829D01*
G01X1085827Y-1794154D01*
G01X1083970Y-1795745D01*
G01X1081584Y-1797866D01*
G01X1079463Y-1800518D01*
G01X1077607Y-1803169D01*
G01X1076281Y-1805291D01*
G01X1075221Y-1807412D01*
G01X1074160Y-1810329D01*
G01X1072304Y-1815897D01*
G01X1071243Y-1821730D01*
G01X1070713Y-1825973D01*
G01X1070448Y-1835253D01*
G01X1053232Y-1835253D01*
G01X1053478Y-1831806D01*
G01X1053743Y-1826503D01*
G01X1054273Y-1822260D01*
G01X1054804Y-1819609D01*
G01X1055334Y-1816692D01*
G01X1056130Y-1813510D01*
G01X1057721Y-1808207D01*
G01X1058781Y-1805556D01*
G01X1059842Y-1803169D01*
G01X1061963Y-1798927D01*
G01X1063289Y-1796806D01*
G01X1066471Y-1792033D01*
G01X1068061Y-1790177D01*
G01X1069387Y-1788851D01*
G01X1070713Y-1787260D01*
G01X1072569Y-1785670D01*
G01X1075486Y-1782753D01*
G01X1076811Y-1781692D01*
G01X1078667Y-1780367D01*
G01X1081319Y-1778775D01*
G01X1083175Y-1777450D01*
G01X1085296Y-1776389D01*
G01X1087683Y-1775328D01*
G01X1089539Y-1774533D01*
G01X1091660Y-1773738D01*
G01X1094046Y-1772942D01*
G01X1097228Y-1772147D01*
G01X1099880Y-1771351D01*
G01X1104122Y-1770821D01*
G01X1112077Y-1770556D01*
G01X1120561Y-1770821D01*
G01X1123743Y-1771351D01*
G01X1129046Y-1772412D01*
G01X1131963Y-1773207D01*
G01X1134349Y-1774003D01*
G01X1136470Y-1774798D01*
G01X1138327Y-1775594D01*
G01X1140713Y-1776654D01*
G01X1143364Y-1778245D01*
G01X1147607Y-1780897D01*
G01X1149463Y-1782223D01*
G01X1153440Y-1785404D01*
G01X1157418Y-1789382D01*
G01X1159539Y-1792033D01*
G01X1161130Y-1794154D01*
G01X1163781Y-1798132D01*
G01X1164842Y-1799988D01*
G01X1165902Y-1802109D01*
G01X1166963Y-1804495D01*
G01X1168024Y-1807147D01*
G01X1169084Y-1810063D01*
G01X1170145Y-1813775D01*
G01X1170940Y-1816427D01*
G01X1172001Y-1821730D01*
G01X1172531Y-1826503D01*
G01X1172796Y-1834457D01*
G01X1172531Y-1842412D01*
G01X1172266Y-1844268D01*
G01X1172001Y-1846654D01*
G01X1170940Y-1853018D01*
G01X1170145Y-1856200D01*
G01X1169084Y-1859647D01*
G01X1168024Y-1862828D01*
G01X1166963Y-1865480D01*
G01X1165902Y-1867867D01*
G01X1164577Y-1870518D01*
G01X1162986Y-1873170D01*
G01X1161395Y-1875556D01*
G01X1160334Y-1877412D01*
G01X1159274Y-1878738D01*
G01X1156092Y-1882450D01*
G01X1152910Y-1885632D01*
G01X1150258Y-1887753D01*
G01X1148137Y-1889344D01*
G01X1146546Y-1890404D01*
G01X1142304Y-1893056D01*
G01X1136736Y-1895442D01*
G01X1134614Y-1896238D01*
G01X1129842Y-1897829D01*
G01X1126660Y-1898624D01*
G01X1123743Y-1899154D01*
G01X1119501Y-1899685D01*
G01X1113137Y-1899950D01*
G37*
G36*
G01X1628326Y-1842677D02*
G01X1628326Y-1787526D01*
G01X1586963Y-1787526D01*
G01X1586963Y-1772677D01*
G01X1686129Y-1772677D01*
G01X1686129Y-1787526D01*
G01X1644766Y-1787526D01*
G01X1644766Y-1897829D01*
G01X1628326Y-1897829D01*
G01X1628326Y-1842677D01*
G37*
G36*
G01X1320751Y-1835253D02*
G01X1320751Y-1772677D01*
G01X1337720Y-1772677D01*
G01X1338516Y-1774003D01*
G01X1363970Y-1812185D01*
G01X1366622Y-1815897D01*
G01X1401622Y-1868397D01*
G01X1402948Y-1869988D01*
G01X1403345Y-1857989D01*
G01X1403478Y-1821465D01*
G01X1403478Y-1772677D01*
G01X1419387Y-1772677D01*
G01X1419387Y-1897829D01*
G01X1411167Y-1897829D01*
G01X1402152Y-1897298D01*
G01X1400561Y-1895442D01*
G01X1378289Y-1862033D01*
G01X1375637Y-1858321D01*
G01X1339046Y-1803435D01*
G01X1337986Y-1801579D01*
G01X1336925Y-1800518D01*
G01X1336328Y-1812516D01*
G01X1336129Y-1849041D01*
G01X1336129Y-1897829D01*
G01X1320751Y-1897829D01*
G01X1320751Y-1835253D01*
G37*
G36*
G01X1478781Y-1842677D02*
G01X1478781Y-1787526D01*
G01X1459425Y-1787526D01*
G01X1438743Y-1787260D01*
G01X1437417Y-1786995D01*
G01X1437417Y-1772677D01*
G01X1537114Y-1772677D01*
G01X1537114Y-1787526D01*
G01X1495751Y-1787526D01*
G01X1495751Y-1841351D01*
G01X1495485Y-1896503D01*
G01X1495220Y-1897829D01*
G01X1478781Y-1897829D01*
G01X1478781Y-1842677D01*
G37*
G36*
G01X1925031Y-1899950D02*
G01X1918137Y-1899685D01*
G01X1916546Y-1899419D01*
G01X1914425Y-1899154D01*
G01X1910712Y-1898624D01*
G01X1908061Y-1898094D01*
G01X1904349Y-1897298D01*
G01X1900902Y-1896238D01*
G01X1898250Y-1895177D01*
G01X1895864Y-1894116D01*
G01X1893743Y-1893056D01*
G01X1891622Y-1891730D01*
G01X1889766Y-1890404D01*
G01X1888175Y-1889344D01*
G01X1886584Y-1888018D01*
G01X1885258Y-1886692D01*
G01X1883667Y-1885366D01*
G01X1881811Y-1883245D01*
G01X1880220Y-1881124D01*
G01X1879160Y-1879798D01*
G01X1878099Y-1877942D01*
G01X1875978Y-1873700D01*
G01X1874917Y-1871048D01*
G01X1874121Y-1868927D01*
G01X1873061Y-1864154D01*
G01X1872796Y-1860707D01*
G01X1872995Y-1858652D01*
G01X1873591Y-1857791D01*
G01X1875182Y-1857260D01*
G01X1881546Y-1856730D01*
G01X1885258Y-1856465D01*
G01X1888175Y-1856465D01*
G01X1888440Y-1858056D01*
G01X1888970Y-1860442D01*
G01X1889500Y-1862563D01*
G01X1890296Y-1865215D01*
G01X1891356Y-1867867D01*
G01X1892417Y-1869988D01*
G01X1893743Y-1872109D01*
G01X1895334Y-1873965D01*
G01X1897985Y-1876616D01*
G01X1899311Y-1877677D01*
G01X1901167Y-1879003D01*
G01X1903288Y-1880329D01*
G01X1905409Y-1881389D01*
G01X1908326Y-1882450D01*
G01X1911773Y-1883510D01*
G01X1914425Y-1884306D01*
G01X1918667Y-1884836D01*
G01X1923970Y-1885101D01*
G01X1930334Y-1884836D01*
G01X1934046Y-1884306D01*
G01X1936697Y-1883776D01*
G01X1938819Y-1883245D01*
G01X1941205Y-1882450D01*
G01X1943591Y-1881389D01*
G01X1946243Y-1880063D01*
G01X1948099Y-1878738D01*
G01X1949690Y-1877677D01*
G01X1951281Y-1876351D01*
G01X1952341Y-1875025D01*
G01X1953667Y-1873170D01*
G01X1954993Y-1870518D01*
G01X1955788Y-1868397D01*
G01X1956053Y-1864154D01*
G01X1955523Y-1859116D01*
G01X1954462Y-1856465D01*
G01X1953402Y-1854344D01*
G01X1952076Y-1852753D01*
G01X1950750Y-1851427D01*
G01X1948894Y-1849836D01*
G01X1946773Y-1848510D01*
G01X1943591Y-1846919D01*
G01X1941735Y-1846124D01*
G01X1939614Y-1845329D01*
G01X1931659Y-1842942D01*
G01X1928213Y-1842147D01*
G01X1925561Y-1841351D01*
G01X1923175Y-1840821D01*
G01X1919728Y-1840026D01*
G01X1917076Y-1839230D01*
G01X1914690Y-1838700D01*
G01X1911508Y-1837904D01*
G01X1909122Y-1837109D01*
G01X1906735Y-1836579D01*
G01X1904084Y-1835783D01*
G01X1898781Y-1833662D01*
G01X1896394Y-1832601D01*
G01X1893743Y-1831276D01*
G01X1891091Y-1829685D01*
G01X1889235Y-1828359D01*
G01X1887379Y-1826768D01*
G01X1884197Y-1823586D01*
G01X1882606Y-1821730D01*
G01X1881281Y-1819874D01*
G01X1880220Y-1818018D01*
G01X1879160Y-1815632D01*
G01X1878364Y-1813245D01*
G01X1877834Y-1811124D01*
G01X1877569Y-1805821D01*
G01X1877834Y-1800518D01*
G01X1878364Y-1797866D01*
G01X1879160Y-1794685D01*
G01X1880220Y-1792033D01*
G01X1881281Y-1789912D01*
G01X1882606Y-1787791D01*
G01X1884197Y-1785404D01*
G01X1885523Y-1783548D01*
G01X1888175Y-1780897D01*
G01X1890031Y-1779306D01*
G01X1892417Y-1777715D01*
G01X1894803Y-1776389D01*
G01X1896925Y-1775328D01*
G01X1899311Y-1774268D01*
G01X1904879Y-1772412D01*
G01X1909652Y-1771351D01*
G01X1913894Y-1770821D01*
G01X1921053Y-1770556D01*
G01X1928213Y-1770821D01*
G01X1932455Y-1771351D01*
G01X1935106Y-1771882D01*
G01X1938819Y-1772677D01*
G01X1942266Y-1773738D01*
G01X1945182Y-1774798D01*
G01X1949425Y-1776920D01*
G01X1951811Y-1778245D01*
G01X1953932Y-1779571D01*
G01X1955523Y-1780897D01*
G01X1959235Y-1784079D01*
G01X1960296Y-1785404D01*
G01X1961621Y-1787260D01*
G01X1963212Y-1789647D01*
G01X1964538Y-1792033D01*
G01X1965599Y-1794419D01*
G01X1966394Y-1796541D01*
G01X1967190Y-1799457D01*
G01X1967985Y-1802109D01*
G01X1968250Y-1805026D01*
G01X1968051Y-1806749D01*
G01X1967455Y-1807677D01*
G01X1963743Y-1808207D01*
G01X1960031Y-1808472D01*
G01X1956053Y-1808738D01*
G01X1953601Y-1808539D01*
G01X1952606Y-1807942D01*
G01X1952076Y-1806351D01*
G01X1951546Y-1803965D01*
G01X1950750Y-1801313D01*
G01X1949690Y-1798927D01*
G01X1948629Y-1796806D01*
G01X1947303Y-1794685D01*
G01X1945712Y-1792829D01*
G01X1944387Y-1791503D01*
G01X1942531Y-1789912D01*
G01X1940409Y-1788586D01*
G01X1936697Y-1786995D01*
G01X1934311Y-1786200D01*
G01X1931925Y-1785670D01*
G01X1926621Y-1785139D01*
G01X1922644Y-1784874D01*
G01X1918667Y-1785139D01*
G01X1913364Y-1785670D01*
G01X1910182Y-1786200D01*
G01X1906735Y-1786995D01*
G01X1904349Y-1788056D01*
G01X1902228Y-1789116D01*
G01X1900637Y-1790177D01*
G01X1896659Y-1794154D01*
G01X1895599Y-1795480D01*
G01X1894803Y-1797071D01*
G01X1894008Y-1798927D01*
G01X1893478Y-1802374D01*
G01X1893743Y-1806882D01*
G01X1894538Y-1809798D01*
G01X1895334Y-1811654D01*
G01X1897455Y-1814306D01*
G01X1898781Y-1815632D01*
G01X1900902Y-1816957D01*
G01X1903023Y-1818018D01*
G01X1905144Y-1818814D01*
G01X1907796Y-1819874D01*
G01X1911243Y-1820935D01*
G01X1914955Y-1821995D01*
G01X1917607Y-1822791D01*
G01X1924766Y-1824382D01*
G01X1928213Y-1825177D01*
G01X1934576Y-1826768D01*
G01X1937228Y-1827563D01*
G01X1939614Y-1828094D01*
G01X1942266Y-1828889D01*
G01X1947038Y-1830480D01*
G01X1949159Y-1831276D01*
G01X1951015Y-1832071D01*
G01X1953137Y-1833131D01*
G01X1955523Y-1834457D01*
G01X1957909Y-1836048D01*
G01X1960561Y-1837904D01*
G01X1962417Y-1839230D01*
G01X1963478Y-1840291D01*
G01X1966660Y-1844268D01*
G01X1967720Y-1845859D01*
G01X1968781Y-1847715D01*
G01X1970371Y-1851427D01*
G01X1971167Y-1853813D01*
G01X1971697Y-1856200D01*
G01X1971963Y-1861768D01*
G01X1971697Y-1867336D01*
G01X1971167Y-1869988D01*
G01X1970371Y-1872904D01*
G01X1969311Y-1875556D01*
G01X1967985Y-1878473D01*
G01X1966660Y-1880594D01*
G01X1965599Y-1882184D01*
G01X1962417Y-1886427D01*
G01X1960561Y-1888283D01*
G01X1958440Y-1889874D01*
G01X1957114Y-1890935D01*
G01X1953932Y-1893056D01*
G01X1952076Y-1894116D01*
G01X1949955Y-1895177D01*
G01X1945712Y-1896768D01*
G01X1943061Y-1897563D01*
G01X1940144Y-1898359D01*
G01X1938023Y-1898889D01*
G01X1932455Y-1899685D01*
G01X1925031Y-1899950D01*
G37*
G36*
G01X1703629Y-1835253D02*
G01X1703629Y-1772677D01*
G01X1720069Y-1772677D01*
G01X1720069Y-1824117D01*
G01X1785296Y-1824117D01*
G01X1785296Y-1772677D01*
G01X1801735Y-1772677D01*
G01X1801735Y-1897829D01*
G01X1785296Y-1897829D01*
G01X1785296Y-1838965D01*
G01X1720069Y-1838965D01*
G01X1720069Y-1897829D01*
G01X1703629Y-1897829D01*
G01X1703629Y-1835253D01*
G37*
G36*
G01X1832493Y-1835253D02*
G01X1832493Y-1772677D01*
G01X1848932Y-1772677D01*
G01X1848932Y-1897829D01*
G01X1832493Y-1897829D01*
G01X1832493Y-1835253D01*
G37*
G36*
G01X2090485Y-1899950D02*
G01X2083591Y-1899685D01*
G01X2082000Y-1899419D01*
G01X2079879Y-1899154D01*
G01X2076167Y-1898624D01*
G01X2073516Y-1898094D01*
G01X2069803Y-1897298D01*
G01X2066356Y-1896238D01*
G01X2063440Y-1895177D01*
G01X2059197Y-1893056D01*
G01X2057341Y-1891995D01*
G01X2053629Y-1889344D01*
G01X2052303Y-1888548D01*
G01X2050978Y-1887487D01*
G01X2049652Y-1886162D01*
G01X2045409Y-1880859D01*
G01X2044084Y-1879003D01*
G01X2041962Y-1875291D01*
G01X2040902Y-1872639D01*
G01X2039841Y-1869722D01*
G01X2039046Y-1867336D01*
G01X2038515Y-1864419D01*
G01X2037985Y-1859912D01*
G01X2038051Y-1858122D01*
G01X2038781Y-1857525D01*
G01X2040637Y-1857260D01*
G01X2046470Y-1856730D01*
G01X2050447Y-1856465D01*
G01X2053629Y-1856465D01*
G01X2053894Y-1858321D01*
G01X2054690Y-1862033D01*
G01X2055750Y-1865480D01*
G01X2056811Y-1868132D01*
G01X2057871Y-1870253D01*
G01X2058932Y-1871844D01*
G01X2061053Y-1874495D01*
G01X2062114Y-1875556D01*
G01X2063970Y-1877147D01*
G01X2066621Y-1879003D01*
G01X2068743Y-1880329D01*
G01X2070864Y-1881389D01*
G01X2073780Y-1882450D01*
G01X2077227Y-1883510D01*
G01X2079879Y-1884306D01*
G01X2084122Y-1884836D01*
G01X2089425Y-1885101D01*
G01X2095788Y-1884836D01*
G01X2099500Y-1884306D01*
G01X2102152Y-1883776D01*
G01X2104273Y-1883245D01*
G01X2106659Y-1882450D01*
G01X2109046Y-1881389D01*
G01X2111697Y-1880063D01*
G01X2113553Y-1878738D01*
G01X2114879Y-1877677D01*
G01X2116470Y-1876351D01*
G01X2117796Y-1874760D01*
G01X2119121Y-1872904D01*
G01X2120182Y-1870783D01*
G01X2120977Y-1868662D01*
G01X2121508Y-1864950D01*
G01X2121243Y-1860972D01*
G01X2120712Y-1858851D01*
G01X2119917Y-1856730D01*
G01X2118591Y-1854344D01*
G01X2117266Y-1852488D01*
G01X2115940Y-1851162D01*
G01X2114614Y-1850101D01*
G01X2113023Y-1849041D01*
G01X2111167Y-1847980D01*
G01X2109046Y-1846919D01*
G01X2106659Y-1845859D01*
G01X2101356Y-1844268D01*
G01X2098970Y-1843473D01*
G01X2095788Y-1842677D01*
G01X2093137Y-1841882D01*
G01X2091281Y-1841616D01*
G01X2089159Y-1841086D01*
G01X2086508Y-1840291D01*
G01X2083061Y-1839495D01*
G01X2080409Y-1838700D01*
G01X2077758Y-1838169D01*
G01X2074841Y-1837374D01*
G01X2072455Y-1836579D01*
G01X2069538Y-1835783D01*
G01X2066621Y-1834723D01*
G01X2063970Y-1833662D01*
G01X2061584Y-1832601D01*
G01X2059462Y-1831541D01*
G01X2057341Y-1830215D01*
G01X2055485Y-1829154D01*
G01X2054159Y-1828094D01*
G01X2052303Y-1826503D01*
G01X2049917Y-1824382D01*
G01X2048326Y-1822260D01*
G01X2047000Y-1820404D01*
G01X2045675Y-1818018D01*
G01X2044614Y-1815632D01*
G01X2043818Y-1813510D01*
G01X2043288Y-1811654D01*
G01X2042758Y-1807412D01*
G01X2042493Y-1805556D01*
G01X2043288Y-1799988D01*
G01X2043818Y-1797336D01*
G01X2044614Y-1794419D01*
G01X2045675Y-1792033D01*
G01X2046735Y-1789912D01*
G01X2047796Y-1788056D01*
G01X2049387Y-1785670D01*
G01X2050978Y-1783548D01*
G01X2053629Y-1780897D01*
G01X2055485Y-1779306D01*
G01X2057871Y-1777715D01*
G01X2060258Y-1776389D01*
G01X2062379Y-1775328D01*
G01X2066091Y-1773738D01*
G01X2068212Y-1772942D01*
G01X2070334Y-1772412D01*
G01X2075106Y-1771351D01*
G01X2079349Y-1770821D01*
G01X2086243Y-1770556D01*
G01X2093137Y-1770821D01*
G01X2095258Y-1771086D01*
G01X2097909Y-1771351D01*
G01X2100561Y-1771882D01*
G01X2102682Y-1772412D01*
G01X2105068Y-1772942D01*
G01X2107720Y-1773738D01*
G01X2110371Y-1774798D01*
G01X2112758Y-1775859D01*
G01X2114879Y-1776920D01*
G01X2117266Y-1778245D01*
G01X2119652Y-1779836D01*
G01X2121508Y-1781427D01*
G01X2122833Y-1782753D01*
G01X2124159Y-1783813D01*
G01X2125220Y-1784874D01*
G01X2126015Y-1786200D01*
G01X2127076Y-1787526D01*
G01X2128402Y-1789382D01*
G01X2129462Y-1791238D01*
G01X2130523Y-1793359D01*
G01X2131583Y-1796010D01*
G01X2132379Y-1798397D01*
G01X2132909Y-1800518D01*
G01X2133440Y-1803700D01*
G01X2133440Y-1806882D01*
G01X2132379Y-1807942D01*
G01X2122038Y-1808738D01*
G01X2118591Y-1808472D01*
G01X2117530Y-1806882D01*
G01X2117000Y-1804230D01*
G01X2116205Y-1801579D01*
G01X2115144Y-1798927D01*
G01X2114084Y-1796806D01*
G01X2112758Y-1794685D01*
G01X2111167Y-1792829D01*
G01X2109841Y-1791503D01*
G01X2108250Y-1790177D01*
G01X2106129Y-1788851D01*
G01X2104008Y-1787791D01*
G01X2101887Y-1786995D01*
G01X2099500Y-1786200D01*
G01X2097379Y-1785670D01*
G01X2092076Y-1785139D01*
G01X2088099Y-1784874D01*
G01X2084122Y-1785139D01*
G01X2078819Y-1785670D01*
G01X2075637Y-1786200D01*
G01X2072190Y-1786995D01*
G01X2069803Y-1788056D01*
G01X2067152Y-1789382D01*
G01X2065296Y-1790707D01*
G01X2063970Y-1791768D01*
G01X2062644Y-1793094D01*
G01X2061318Y-1794950D01*
G01X2060258Y-1796806D01*
G01X2059462Y-1798662D01*
G01X2058932Y-1800783D01*
G01X2058667Y-1802639D01*
G01X2058667Y-1803965D01*
G01X2058932Y-1805821D01*
G01X2059462Y-1808738D01*
G01X2060523Y-1811124D01*
G01X2061849Y-1813245D01*
G01X2063440Y-1815101D01*
G01X2064765Y-1816162D01*
G01X2066621Y-1817222D01*
G01X2069008Y-1818283D01*
G01X2073250Y-1819874D01*
G01X2081205Y-1822260D01*
G01X2084652Y-1823056D01*
G01X2087303Y-1823851D01*
G01X2089955Y-1824382D01*
G01X2093667Y-1825177D01*
G01X2096318Y-1825973D01*
G01X2098970Y-1826503D01*
G01X2107720Y-1828889D01*
G01X2112493Y-1830480D01*
G01X2115144Y-1831541D01*
G01X2117530Y-1832601D01*
G01X2119387Y-1833662D01*
G01X2121773Y-1834988D01*
G01X2123629Y-1836313D01*
G01X2125220Y-1837374D01*
G01X2126811Y-1838700D01*
G01X2131053Y-1842942D01*
G01X2132644Y-1845329D01*
G01X2133970Y-1847450D01*
G01X2135031Y-1849571D01*
G01X2135826Y-1851692D01*
G01X2136621Y-1854344D01*
G01X2137152Y-1856730D01*
G01X2137417Y-1861768D01*
G01X2137152Y-1866806D01*
G01X2136091Y-1871578D01*
G01X2135561Y-1873435D01*
G01X2134765Y-1875291D01*
G01X2132644Y-1879533D01*
G01X2131318Y-1881654D01*
G01X2129993Y-1883510D01*
G01X2128932Y-1884836D01*
G01X2124425Y-1889344D01*
G01X2122303Y-1890935D01*
G01X2120977Y-1891995D01*
G01X2117266Y-1894116D01*
G01X2115144Y-1895177D01*
G01X2112493Y-1896238D01*
G01X2109576Y-1897298D01*
G01X2106924Y-1898094D01*
G01X2101621Y-1899154D01*
G01X2097909Y-1899685D01*
G01X2090485Y-1899950D01*
G37*
G36*
G01X2335750Y-1835253D02*
G01X2335750Y-1772677D01*
G01X2425902Y-1772677D01*
G01X2425902Y-1787526D01*
G01X2352190Y-1787526D01*
G01X2352190Y-1825707D01*
G01X2421659Y-1825707D01*
G01X2421659Y-1831806D01*
G01X2421394Y-1839230D01*
G01X2421129Y-1840556D01*
G01X2352190Y-1840556D01*
G01X2352190Y-1882980D01*
G01X2429083Y-1882980D01*
G01X2429083Y-1897829D01*
G01X2335750Y-1897829D01*
G01X2335750Y-1835253D01*
G37*
G36*
G01X2162871Y-1835253D02*
G01X2162871Y-1772677D01*
G01X2179841Y-1772677D01*
G01X2179841Y-1833927D01*
G01X2179576Y-1896503D01*
G01X2179311Y-1897829D01*
G01X2162871Y-1897829D01*
G01X2162871Y-1835253D01*
G37*
G36*
G01X2209008Y-1835253D02*
G01X2209008Y-1834988D01*
G01X2225447Y-1834988D01*
G01X2225712Y-1882715D01*
G01X2242682Y-1882980D01*
G01X2260182Y-1882715D01*
G01X2264424Y-1882184D01*
G01X2269727Y-1881124D01*
G01X2271849Y-1880594D01*
G01X2273970Y-1879798D01*
G01X2278742Y-1877412D01*
G01X2280599Y-1876086D01*
G01X2281924Y-1875025D01*
G01X2284576Y-1872374D01*
G01X2286167Y-1870518D01*
G01X2287493Y-1868662D01*
G01X2288553Y-1866806D01*
G01X2289614Y-1864685D01*
G01X2291205Y-1860972D01*
G01X2292000Y-1858586D01*
G01X2292796Y-1855935D01*
G01X2293591Y-1853018D01*
G01X2294121Y-1850366D01*
G01X2294652Y-1846654D01*
G01X2295182Y-1839760D01*
G01X2295447Y-1834723D01*
G01X2295182Y-1829685D01*
G01X2294917Y-1827563D01*
G01X2294652Y-1823851D01*
G01X2294121Y-1820139D01*
G01X2293591Y-1816957D01*
G01X2292796Y-1813510D01*
G01X2291735Y-1810329D01*
G01X2290674Y-1807942D01*
G01X2288288Y-1803169D01*
G01X2286962Y-1801313D01*
G01X2286167Y-1799988D01*
G01X2285106Y-1798662D01*
G01X2281129Y-1794685D01*
G01X2279273Y-1793094D01*
G01X2277152Y-1791768D01*
G01X2275031Y-1790707D01*
G01X2272644Y-1789647D01*
G01X2269993Y-1788851D01*
G01X2267606Y-1788321D01*
G01X2263894Y-1787791D01*
G01X2244273Y-1787526D01*
G01X2225447Y-1787526D01*
G01X2225447Y-1834988D01*
G01X2225447Y-1834988D01*
G01X2209008Y-1834988D01*
G01X2209008Y-1772677D01*
G01X2235523Y-1772677D01*
G01X2262833Y-1772942D01*
G01X2264955Y-1773207D01*
G01X2268667Y-1773472D01*
G01X2272909Y-1774268D01*
G01X2275561Y-1775064D01*
G01X2277947Y-1775594D01*
G01X2280599Y-1776389D01*
G01X2282985Y-1777450D01*
G01X2285106Y-1778510D01*
G01X2286962Y-1779571D01*
G01X2289084Y-1780897D01*
G01X2291470Y-1782488D01*
G01X2293326Y-1784079D01*
G01X2298629Y-1789382D01*
G01X2300750Y-1792033D01*
G01X2302076Y-1794154D01*
G01X2303667Y-1796806D01*
G01X2304993Y-1798927D01*
G01X2306583Y-1802639D01*
G01X2307644Y-1805026D01*
G01X2308705Y-1808472D01*
G01X2309765Y-1812185D01*
G01X2311091Y-1817488D01*
G01X2311621Y-1821730D01*
G01X2312152Y-1827563D01*
G01X2312417Y-1834192D01*
G01X2312152Y-1840821D01*
G01X2311886Y-1842942D01*
G01X2311621Y-1846124D01*
G01X2311091Y-1849836D01*
G01X2310561Y-1853018D01*
G01X2310030Y-1855139D01*
G01X2309500Y-1857791D01*
G01X2308705Y-1860707D01*
G01X2306318Y-1867071D01*
G01X2305523Y-1868927D01*
G01X2303137Y-1873700D01*
G01X2301546Y-1876351D01*
G01X2298894Y-1880063D01*
G01X2297303Y-1881919D01*
G01X2292796Y-1886427D01*
G01X2289614Y-1889079D01*
G01X2287758Y-1890404D01*
G01X2283515Y-1892526D01*
G01X2281129Y-1893586D01*
G01X2278212Y-1894647D01*
G01X2275561Y-1895442D01*
G01X2270788Y-1896503D01*
G01X2267076Y-1897033D01*
G01X2261773Y-1897563D01*
G01X2234992Y-1897829D01*
G01X2209008Y-1897829D01*
G01X2209008Y-1835253D01*
G37*
G36*
G01X2323291Y-5572978D02*
G01X2345655Y-5572978D01*
G01X2345655Y-5595615D01*
G01X2345382Y-5618524D01*
G01X2326291Y-5618796D01*
G01X2306655Y-5618524D01*
G01X2301746Y-5617978D01*
G01X2299018Y-5617433D01*
G01X2296018Y-5616615D01*
G01X2293564Y-5615524D01*
G01X2291382Y-5614433D01*
G01X2289200Y-5613069D01*
G01X2286746Y-5610887D01*
G01X2284837Y-5608160D01*
G01X2283473Y-5605706D01*
G01X2282655Y-5603251D01*
G01X2282109Y-5601069D01*
G01X2281837Y-5595887D01*
G01X2282382Y-5589615D01*
G01X2283473Y-5586069D01*
G01X2284564Y-5583887D01*
G01X2285655Y-5581978D01*
G01X2287018Y-5580069D01*
G01X2289746Y-5577342D01*
G01X2291655Y-5575978D01*
G01X2293837Y-5574887D01*
G01X2296018Y-5574069D01*
G01X2298200Y-5573524D01*
G01X2300109Y-5573251D01*
G01X2323291Y-5572978D01*
G37*
G36*
G01X731656Y-5725160D02*
G01X731656Y-5557160D01*
G01X765474Y-5557160D01*
G01X765474Y-5686433D01*
G01X781292Y-5686433D01*
G01X781292Y-5636796D01*
G01X781497Y-5599501D01*
G01X782110Y-5586887D01*
G01X782860Y-5586887D01*
G01X783474Y-5587433D01*
G01X784837Y-5588797D01*
G01X787565Y-5590978D01*
G01X789474Y-5592342D01*
G01X791928Y-5593978D01*
G01X794656Y-5595615D01*
G01X796837Y-5596978D01*
G01X800655Y-5599160D01*
G01X807201Y-5602433D01*
G01X809656Y-5603524D01*
G01X811837Y-5604342D01*
G01X812928Y-5604615D01*
G01X812928Y-5596978D01*
G01X812656Y-5591115D01*
G01X811837Y-5588797D01*
G01X809928Y-5587706D01*
G01X805019Y-5585251D01*
G01X802837Y-5583887D01*
G01X800928Y-5582797D01*
G01X798474Y-5581160D01*
G01X796292Y-5579797D01*
G01X792201Y-5576524D01*
G01X788383Y-5573251D01*
G01X784292Y-5569160D01*
G01X782110Y-5566433D01*
G01X780746Y-5565069D01*
G01X779656Y-5563706D01*
G01X778292Y-5561796D01*
G01X776928Y-5559615D01*
G01X776110Y-5557978D01*
G01X775444Y-5557706D01*
G01X882747Y-5557706D01*
G01X882747Y-5572978D01*
G01X925292Y-5572978D01*
G01X925292Y-5686433D01*
G01X942746Y-5686433D01*
G01X942746Y-5629706D01*
G01X942746Y-5629706D01*
G01X942746Y-5572978D01*
G01X984746Y-5572978D01*
G01X984746Y-5557706D01*
G01X1005474Y-5557706D01*
G01X1005474Y-5686433D01*
G01X1022383Y-5686433D01*
G01X1039837Y-5686433D01*
G01X1062201Y-5686433D01*
G01X1063019Y-5685069D01*
G01X1065746Y-5681251D01*
G01X1073383Y-5670342D01*
G01X1076110Y-5666524D01*
G01X1083746Y-5655615D01*
G01X1086474Y-5651796D01*
G01X1094110Y-5640887D01*
G01X1096837Y-5637069D01*
G01X1104474Y-5626160D01*
G01X1105837Y-5624251D01*
G01X1106655Y-5622887D01*
G01X1107746Y-5621796D01*
G01X1108496Y-5621796D01*
G01X1109110Y-5622342D01*
G01X1120019Y-5633251D01*
G01X1123837Y-5636524D01*
G01X1127928Y-5640615D01*
G01X1128542Y-5646342D01*
G01X1128746Y-5662433D01*
G01X1129019Y-5685069D01*
G01X1129292Y-5686433D01*
G01X1146201Y-5686433D01*
G01X1146201Y-5622069D01*
G01X1146201Y-5622069D01*
G01X1146201Y-5558455D01*
G01X1161269Y-5558455D01*
G01X1161474Y-5559342D01*
G01X1164746Y-5567524D01*
G01X1165837Y-5570524D01*
G01X1169110Y-5578706D01*
G01X1170201Y-5581706D01*
G01X1174565Y-5592615D01*
G01X1175656Y-5595615D01*
G01X1178928Y-5603797D01*
G01X1180019Y-5606797D01*
G01X1184383Y-5617706D01*
G01X1185474Y-5620706D01*
G01X1188746Y-5628887D01*
G01X1189837Y-5631887D01*
G01X1194201Y-5642796D01*
G01X1195292Y-5645796D01*
G01X1199655Y-5656705D01*
G01X1200746Y-5659705D01*
G01X1205110Y-5670615D01*
G01X1206201Y-5673615D01*
G01X1209474Y-5681796D01*
G01X1210565Y-5684796D01*
G01X1210565Y-5684796D01*
G01X1211110Y-5686433D01*
G01X1219837Y-5686433D01*
G01X1228837Y-5685887D01*
G01X1229655Y-5683978D01*
G01X1230746Y-5680978D01*
G01X1231837Y-5678251D01*
G01X1233474Y-5673887D01*
G01X1234564Y-5671160D01*
G01X1289110Y-5671160D01*
G01X1289110Y-5686433D01*
G01X1385110Y-5686433D01*
G01X1385110Y-5622069D01*
G01X1385110Y-5622069D01*
G01X1385110Y-5620433D01*
G01X1409110Y-5620433D01*
G01X1409383Y-5629433D01*
G01X1409655Y-5631615D01*
G01X1409928Y-5634887D01*
G01X1410473Y-5638160D01*
G01X1411019Y-5640887D01*
G01X1411564Y-5643069D01*
G01X1412110Y-5645796D01*
G01X1412928Y-5648796D01*
G01X1414019Y-5651524D01*
G01X1415110Y-5654524D01*
G01X1416201Y-5657251D01*
G01X1417292Y-5659433D01*
G01X1418382Y-5661342D01*
G01X1419746Y-5663796D01*
G01X1421110Y-5665705D01*
G01X1422201Y-5667342D01*
G01X1426292Y-5672251D01*
G01X1427655Y-5673615D01*
G01X1430382Y-5675796D01*
G01X1432292Y-5677433D01*
G01X1434473Y-5678796D01*
G01X1438292Y-5680978D01*
G01X1440746Y-5682069D01*
G01X1444291Y-5683160D01*
G01X1447019Y-5683978D01*
G01X1451928Y-5685069D01*
G01X1455746Y-5685614D01*
G01X1461201Y-5686160D01*
G01X1488746Y-5686433D01*
G01X1515473Y-5686433D01*
G01X1515473Y-5622069D01*
G01X1515473Y-5622069D01*
G01X1515473Y-5557706D01*
G01X1579837Y-5557706D01*
G01X1579837Y-5572978D01*
G01X1622382Y-5572978D01*
G01X1622382Y-5686433D01*
G01X1639291Y-5686433D01*
G01X1639291Y-5629706D01*
G01X1639291Y-5629706D01*
G01X1639291Y-5572978D01*
G01X1681837Y-5572978D01*
G01X1681837Y-5557706D01*
G01X1702019Y-5557706D01*
G01X1702019Y-5686433D01*
G01X1719473Y-5686433D01*
G01X1719473Y-5622069D01*
G01X1719473Y-5622069D01*
G01X1719473Y-5621251D01*
G01X1744019Y-5621251D01*
G01X1744291Y-5625615D01*
G01X1744564Y-5628615D01*
G01X1744837Y-5632160D01*
G01X1745382Y-5635978D01*
G01X1746200Y-5640342D01*
G01X1747019Y-5643069D01*
G01X1747564Y-5645524D01*
G01X1748382Y-5648251D01*
G01X1750564Y-5653705D01*
G01X1751382Y-5655615D01*
G01X1752200Y-5657251D01*
G01X1754382Y-5661069D01*
G01X1755746Y-5663251D01*
G01X1757110Y-5665160D01*
G01X1757928Y-5666524D01*
G01X1759019Y-5667887D01*
G01X1760928Y-5669796D01*
G01X1762564Y-5671705D01*
G01X1763928Y-5672796D01*
G01X1766655Y-5675524D01*
G01X1770473Y-5678251D01*
G01X1772109Y-5679342D01*
G01X1775928Y-5681524D01*
G01X1778109Y-5682614D01*
G01X1780564Y-5683705D01*
G01X1783291Y-5684796D01*
G01X1789019Y-5686705D01*
G01X1794473Y-5687796D01*
G01X1794473Y-5687796D01*
G01X1799382Y-5688342D01*
G01X1805655Y-5688614D01*
G01X1812473Y-5688342D01*
G01X1815201Y-5687796D01*
G01X1818473Y-5687251D01*
G01X1821201Y-5686705D01*
G01X1823382Y-5686160D01*
G01X1826382Y-5685342D01*
G01X1829110Y-5684251D01*
G01X1831564Y-5683160D01*
G01X1835928Y-5680978D01*
G01X1838382Y-5679614D01*
G01X1840837Y-5677978D01*
G01X1843564Y-5676069D01*
G01X1845746Y-5674433D01*
G01X1852564Y-5667615D01*
G01X1854201Y-5665433D01*
G01X1856110Y-5662705D01*
G01X1857746Y-5659978D01*
G01X1859110Y-5657796D01*
G01X1860200Y-5655615D01*
G01X1861291Y-5652887D01*
G01X1862382Y-5650433D01*
G01X1863473Y-5647433D01*
G01X1864564Y-5643887D01*
G01X1865382Y-5641433D01*
G01X1866473Y-5635433D01*
G01X1867019Y-5631069D01*
G01X1867291Y-5624251D01*
G01X1867177Y-5620706D01*
G01X1885837Y-5620706D01*
G01X1886110Y-5629978D01*
G01X1886655Y-5634887D01*
G01X1887200Y-5638160D01*
G01X1888019Y-5642524D01*
G01X1888837Y-5645251D01*
G01X1889382Y-5647705D01*
G01X1890200Y-5650433D01*
G01X1892382Y-5655887D01*
G01X1893473Y-5658342D01*
G01X1894564Y-5660524D01*
G01X1897291Y-5664887D01*
G01X1898382Y-5666524D01*
G01X1901655Y-5670887D01*
G01X1904382Y-5673615D01*
G01X1907109Y-5675796D01*
G01X1909019Y-5677433D01*
G01X1911200Y-5678796D01*
G01X1913109Y-5679887D01*
G01X1915291Y-5680978D01*
G01X1917746Y-5682069D01*
G01X1920746Y-5683160D01*
G01X1923200Y-5683978D01*
G01X1928655Y-5685069D01*
G01X1932473Y-5685614D01*
G01X1937928Y-5686160D01*
G01X1965473Y-5686433D01*
G01X1992200Y-5686433D01*
G01X1992200Y-5671160D01*
G01X2065837Y-5671160D01*
G01X2065837Y-5686433D01*
G01X2108382Y-5686433D01*
G01X2150928Y-5685887D01*
G01X2150655Y-5683978D01*
G01X2150109Y-5680705D01*
G01X2149291Y-5677160D01*
G01X2148200Y-5674160D01*
G01X2144655Y-5667069D01*
G01X2143019Y-5664615D01*
G01X2141928Y-5662705D01*
G01X2140837Y-5661342D01*
G01X2137564Y-5657524D01*
G01X2134837Y-5654251D01*
G01X2129382Y-5648796D01*
G01X2127677Y-5647433D01*
G01X2164564Y-5647433D01*
G01X2164837Y-5653433D01*
G01X2165109Y-5655342D01*
G01X2165655Y-5658342D01*
G01X2166746Y-5661887D01*
G01X2167837Y-5664342D01*
G01X2168928Y-5666524D01*
G01X2170291Y-5668978D01*
G01X2171382Y-5670887D01*
G01X2174655Y-5674978D01*
G01X2177382Y-5677705D01*
G01X2181473Y-5680978D01*
G01X2184746Y-5683160D01*
G01X2186382Y-5683978D01*
G01X2190200Y-5685614D01*
G01X2192382Y-5686433D01*
G01X2194837Y-5687251D01*
G01X2197018Y-5687796D01*
G01X2197018Y-5687796D01*
G01X2200837Y-5688342D01*
G01X2207655Y-5688614D01*
G01X2213928Y-5688342D01*
G01X2216382Y-5687796D01*
G01X2220473Y-5686978D01*
G01X2223746Y-5685887D01*
G01X2226473Y-5684796D01*
G01X2228655Y-5683705D01*
G01X2230837Y-5682342D01*
G01X2234655Y-5679614D01*
G01X2236564Y-5677978D01*
G01X2239291Y-5675251D01*
G01X2241473Y-5672524D01*
G01X2242837Y-5670615D01*
G01X2244200Y-5668160D01*
G01X2245291Y-5665978D01*
G01X2246109Y-5664069D01*
G01X2246927Y-5661342D01*
G01X2247746Y-5658887D01*
G01X2248291Y-5655887D01*
G01X2248018Y-5652887D01*
G01X2246382Y-5652069D01*
G01X2240655Y-5651251D01*
G01X2234109Y-5650433D01*
G01X2233018Y-5650910D01*
G01X2232473Y-5652342D01*
G01X2231655Y-5655342D01*
G01X2230837Y-5657796D01*
G01X2230018Y-5659978D01*
G01X2227018Y-5665978D01*
G01X2225927Y-5667342D01*
G01X2223200Y-5670069D01*
G01X2221837Y-5671160D01*
G01X2220200Y-5672251D01*
G01X2218291Y-5673342D01*
G01X2216109Y-5674160D01*
G01X2213655Y-5674978D01*
G01X2209291Y-5675524D01*
G01X2203564Y-5675251D01*
G01X2199473Y-5674433D01*
G01X2197018Y-5673342D01*
G01X2194837Y-5672251D01*
G01X2192928Y-5671160D01*
G01X2191564Y-5670342D01*
G01X2190200Y-5669251D01*
G01X2187473Y-5666524D01*
G01X2186382Y-5665160D01*
G01X2185291Y-5663524D01*
G01X2183928Y-5661069D01*
G01X2182564Y-5658069D01*
G01X2181746Y-5655615D01*
G01X2181473Y-5653705D01*
G01X2181200Y-5650705D01*
G01X2181200Y-5647433D01*
G01X2181746Y-5643615D01*
G01X2182564Y-5640069D01*
G01X2183655Y-5637615D01*
G01X2184746Y-5635433D01*
G01X2185837Y-5633524D01*
G01X2187200Y-5631887D01*
G01X2189928Y-5629160D01*
G01X2192109Y-5627524D01*
G01X2194564Y-5626160D01*
G01X2196473Y-5625342D01*
G01X2198928Y-5624524D01*
G01X2201382Y-5623978D01*
G01X2204655Y-5623706D01*
G01X2209564Y-5623978D01*
G01X2213382Y-5624524D01*
G01X2215564Y-5625069D01*
G01X2216927Y-5625069D01*
G01X2217200Y-5623978D01*
G01X2215837Y-5613069D01*
G01X2215837Y-5611706D01*
G01X2213655Y-5611706D01*
G01X2210109Y-5611433D01*
G01X2206837Y-5610887D01*
G01X2204109Y-5610342D01*
G01X2202200Y-5609797D01*
G01X2200018Y-5608978D01*
G01X2197837Y-5607887D01*
G01X2195928Y-5606797D01*
G01X2194291Y-5605978D01*
G01X2192928Y-5604887D01*
G01X2191564Y-5603524D01*
G01X2189928Y-5601615D01*
G01X2188564Y-5599160D01*
G01X2187746Y-5596706D01*
G01X2187200Y-5594524D01*
G01X2187116Y-5593433D01*
G01X2264382Y-5593433D01*
G01X2264655Y-5600524D01*
G01X2265200Y-5603797D01*
G01X2266291Y-5608160D01*
G01X2267109Y-5610342D01*
G01X2268746Y-5614160D01*
G01X2269836Y-5616069D01*
G01X2270927Y-5617706D01*
G01X2271746Y-5619069D01*
G01X2272836Y-5620433D01*
G01X2274200Y-5621796D01*
G01X2275836Y-5623706D01*
G01X2277746Y-5625342D01*
G01X2279109Y-5626433D01*
G01X2280746Y-5627524D01*
G01X2282655Y-5628615D01*
G01X2284564Y-5629433D01*
G01X2286746Y-5630251D01*
G01X2289746Y-5631342D01*
G01X2292473Y-5632160D01*
G01X2299018Y-5633251D01*
G01X2305564Y-5633796D01*
G01X2326018Y-5634069D01*
G01X2345655Y-5634069D01*
G01X2345655Y-5686433D01*
G01X2362564Y-5686433D01*
G01X2362564Y-5649342D01*
G01X2386018Y-5649342D01*
G01X2386291Y-5655069D01*
G01X2386836Y-5657796D01*
G01X2387655Y-5660796D01*
G01X2388746Y-5663524D01*
G01X2390109Y-5666524D01*
G01X2391473Y-5668705D01*
G01X2392564Y-5670342D01*
G01X2395836Y-5674705D01*
G01X2397746Y-5676615D01*
G01X2399927Y-5678251D01*
G01X2401291Y-5679342D01*
G01X2402927Y-5680433D01*
G01X2408655Y-5683705D01*
G01X2413018Y-5685342D01*
G01X2415745Y-5686160D01*
G01X2418745Y-5686978D01*
G01X2420927Y-5687524D01*
G01X2420927Y-5687524D01*
G01X2426655Y-5688342D01*
G01X2434291Y-5688614D01*
G01X2441382Y-5688342D01*
G01X2443018Y-5688069D01*
G01X2445200Y-5687796D01*
G01X2449018Y-5687251D01*
G01X2456382Y-5685614D01*
G01X2459109Y-5684796D01*
G01X2461291Y-5683978D01*
G01X2463200Y-5683160D01*
G01X2467564Y-5680978D01*
G01X2469200Y-5679887D01*
G01X2470564Y-5678796D01*
G01X2472200Y-5677705D01*
G01X2473837Y-5676342D01*
G01X2475200Y-5674978D01*
G01X2476837Y-5673615D01*
G01X2478746Y-5671433D01*
G01X2478964Y-5671160D01*
G01X2506018Y-5671160D01*
G01X2506018Y-5686433D01*
G01X2602018Y-5686433D01*
G01X2602018Y-5622069D01*
G01X2602018Y-5622069D01*
G01X2602018Y-5557706D01*
G01X2509291Y-5557706D01*
G01X2509291Y-5572978D01*
G01X2585109Y-5572978D01*
G01X2585109Y-5612251D01*
G01X2550745Y-5612251D01*
G01X2515018Y-5612524D01*
G01X2513655Y-5612796D01*
G01X2513655Y-5618796D01*
G01X2513927Y-5626160D01*
G01X2514200Y-5627524D01*
G01X2585109Y-5627524D01*
G01X2585109Y-5671160D01*
G01X2506018Y-5671160D01*
G01X2478964Y-5671160D01*
G01X2480927Y-5668705D01*
G01X2482564Y-5665978D01*
G01X2484746Y-5661615D01*
G01X2485837Y-5658887D01*
G01X2486655Y-5656705D01*
G01X2487746Y-5651796D01*
G01X2488018Y-5648251D01*
G01X2487814Y-5646137D01*
G01X2487200Y-5645251D01*
G01X2485564Y-5644705D01*
G01X2479564Y-5644160D01*
G01X2475746Y-5643887D01*
G01X2473359Y-5644160D01*
G01X2472200Y-5644978D01*
G01X2471382Y-5647978D01*
G01X2470564Y-5651524D01*
G01X2469473Y-5654251D01*
G01X2468382Y-5656705D01*
G01X2467018Y-5659160D01*
G01X2465109Y-5661615D01*
G01X2463473Y-5663524D01*
G01X2461564Y-5665160D01*
G01X2458836Y-5667069D01*
G01X2456655Y-5668433D01*
G01X2454473Y-5669524D01*
G01X2451473Y-5670615D01*
G01X2447927Y-5671705D01*
G01X2445200Y-5672524D01*
G01X2440836Y-5673069D01*
G01X2435382Y-5673342D01*
G01X2428836Y-5673069D01*
G01X2425018Y-5672524D01*
G01X2422291Y-5671978D01*
G01X2420109Y-5671433D01*
G01X2417655Y-5670615D01*
G01X2415200Y-5669524D01*
G01X2412473Y-5668160D01*
G01X2410564Y-5666796D01*
G01X2408927Y-5665705D01*
G01X2407291Y-5664342D01*
G01X2406200Y-5662978D01*
G01X2404836Y-5661069D01*
G01X2403473Y-5658342D01*
G01X2402655Y-5656160D01*
G01X2402382Y-5651796D01*
G01X2402927Y-5646615D01*
G01X2404018Y-5643887D01*
G01X2405109Y-5641706D01*
G01X2406473Y-5640069D01*
G01X2407836Y-5638706D01*
G01X2409745Y-5637069D01*
G01X2411927Y-5635706D01*
G01X2415200Y-5634069D01*
G01X2417109Y-5633251D01*
G01X2419291Y-5632433D01*
G01X2427473Y-5629978D01*
G01X2431018Y-5629160D01*
G01X2433745Y-5628342D01*
G01X2436200Y-5627796D01*
G01X2439745Y-5626978D01*
G01X2442473Y-5626160D01*
G01X2444927Y-5625615D01*
G01X2448200Y-5624796D01*
G01X2450655Y-5623978D01*
G01X2453109Y-5623433D01*
G01X2455836Y-5622615D01*
G01X2461291Y-5620433D01*
G01X2463746Y-5619342D01*
G01X2466473Y-5617978D01*
G01X2468655Y-5616615D01*
G01X2470291Y-5615796D01*
G01X2471655Y-5614706D01*
G01X2473564Y-5613069D01*
G01X2476018Y-5610887D01*
G01X2477927Y-5608160D01*
G01X2479291Y-5606251D01*
G01X2480382Y-5604342D01*
G01X2481473Y-5601887D01*
G01X2482291Y-5599433D01*
G01X2482837Y-5597251D01*
G01X2483109Y-5591797D01*
G01X2482837Y-5586342D01*
G01X2482291Y-5583615D01*
G01X2481473Y-5580342D01*
G01X2480382Y-5577615D01*
G01X2479291Y-5575433D01*
G01X2477927Y-5573251D01*
G01X2476291Y-5570797D01*
G01X2474927Y-5568887D01*
G01X2472200Y-5566160D01*
G01X2470291Y-5564524D01*
G01X2467837Y-5562887D01*
G01X2465382Y-5561524D01*
G01X2463200Y-5560433D01*
G01X2460746Y-5559342D01*
G01X2455018Y-5557433D01*
G01X2450109Y-5556342D01*
G01X2445746Y-5555796D01*
G01X2438382Y-5555524D01*
G01X2431018Y-5555796D01*
G01X2426655Y-5556342D01*
G01X2423927Y-5556887D01*
G01X2420109Y-5557706D01*
G01X2416564Y-5558796D01*
G01X2413564Y-5559887D01*
G01X2409200Y-5562069D01*
G01X2406746Y-5563433D01*
G01X2404564Y-5564796D01*
G01X2402927Y-5566160D01*
G01X2399109Y-5569433D01*
G01X2398018Y-5570797D01*
G01X2396655Y-5572706D01*
G01X2395018Y-5575160D01*
G01X2393655Y-5577615D01*
G01X2392564Y-5580069D01*
G01X2391746Y-5582251D01*
G01X2390927Y-5585251D01*
G01X2390109Y-5587978D01*
G01X2389836Y-5590978D01*
G01X2390041Y-5592751D01*
G01X2390655Y-5593706D01*
G01X2394473Y-5594251D01*
G01X2398291Y-5594524D01*
G01X2402382Y-5594797D01*
G01X2404905Y-5594592D01*
G01X2405927Y-5593978D01*
G01X2406473Y-5592342D01*
G01X2407018Y-5589887D01*
G01X2407836Y-5587160D01*
G01X2408927Y-5584706D01*
G01X2410018Y-5582524D01*
G01X2411382Y-5580342D01*
G01X2413018Y-5578433D01*
G01X2414382Y-5577069D01*
G01X2416291Y-5575433D01*
G01X2418473Y-5574069D01*
G01X2422291Y-5572433D01*
G01X2424745Y-5571615D01*
G01X2427200Y-5571069D01*
G01X2432655Y-5570524D01*
G01X2436745Y-5570251D01*
G01X2440836Y-5570524D01*
G01X2446291Y-5571069D01*
G01X2449564Y-5571615D01*
G01X2453109Y-5572433D01*
G01X2455564Y-5573524D01*
G01X2458291Y-5574887D01*
G01X2460200Y-5576524D01*
G01X2462109Y-5578433D01*
G01X2464018Y-5580069D01*
G01X2465109Y-5581978D01*
G01X2466200Y-5584433D01*
G01X2466746Y-5588251D01*
G01X2466473Y-5592887D01*
G01X2465655Y-5595887D01*
G01X2464837Y-5597797D01*
G01X2462655Y-5600524D01*
G01X2461291Y-5601887D01*
G01X2459655Y-5602978D01*
G01X2457746Y-5604069D01*
G01X2455018Y-5605160D01*
G01X2452018Y-5606251D01*
G01X2448473Y-5607342D01*
G01X2444655Y-5608433D01*
G01X2441927Y-5609251D01*
G01X2434564Y-5610887D01*
G01X2431018Y-5611706D01*
G01X2424473Y-5613342D01*
G01X2421745Y-5614160D01*
G01X2419291Y-5614706D01*
G01X2416564Y-5615524D01*
G01X2411655Y-5617160D01*
G01X2409473Y-5617978D01*
G01X2407564Y-5618796D01*
G01X2405382Y-5619887D01*
G01X2402927Y-5621251D01*
G01X2400473Y-5622887D01*
G01X2397746Y-5624796D01*
G01X2395836Y-5626160D01*
G01X2394746Y-5627251D01*
G01X2391473Y-5631342D01*
G01X2390382Y-5632978D01*
G01X2389291Y-5634887D01*
G01X2387655Y-5638706D01*
G01X2386836Y-5641160D01*
G01X2386291Y-5643615D01*
G01X2386018Y-5649342D01*
G01X2362564Y-5649342D01*
G01X2362564Y-5622069D01*
G01X2362564Y-5622069D01*
G01X2362564Y-5557706D01*
G01X2333655Y-5557706D01*
G01X2302291Y-5557978D01*
G01X2297382Y-5558524D01*
G01X2294109Y-5559069D01*
G01X2292200Y-5559342D01*
G01X2290018Y-5559887D01*
G01X2287291Y-5560706D01*
G01X2284837Y-5561524D01*
G01X2279927Y-5563978D01*
G01X2277200Y-5565887D01*
G01X2275018Y-5567524D01*
G01X2273109Y-5569433D01*
G01X2271473Y-5571615D01*
G01X2270109Y-5573524D01*
G01X2268746Y-5575978D01*
G01X2267655Y-5578160D01*
G01X2266836Y-5580069D01*
G01X2266018Y-5582251D01*
G01X2265200Y-5584978D01*
G01X2264655Y-5587433D01*
G01X2264382Y-5593433D01*
G01X2187116Y-5593433D01*
G01X2186928Y-5590978D01*
G01X2187200Y-5587433D01*
G01X2187746Y-5584706D01*
G01X2188564Y-5582251D01*
G01X2190746Y-5578433D01*
G01X2194018Y-5574615D01*
G01X2195655Y-5573524D01*
G01X2197564Y-5572433D01*
G01X2200018Y-5571342D01*
G01X2202473Y-5570524D01*
G01X2206291Y-5570251D01*
G01X2211746Y-5570524D01*
G01X2215291Y-5571342D01*
G01X2218018Y-5572433D01*
G01X2220200Y-5573524D01*
G01X2221837Y-5574615D01*
G01X2223473Y-5575978D01*
G01X2224837Y-5577342D01*
G01X2226200Y-5578978D01*
G01X2227564Y-5581160D01*
G01X2228927Y-5583887D01*
G01X2230837Y-5589615D01*
G01X2231109Y-5591797D01*
G01X2231109Y-5593160D01*
G01X2233018Y-5592887D01*
G01X2235746Y-5592342D01*
G01X2241746Y-5591251D01*
G01X2243655Y-5590978D01*
G01X2245837Y-5590433D01*
G01X2246587Y-5589819D01*
G01X2246655Y-5589069D01*
G01X2246109Y-5586615D01*
G01X2245291Y-5583342D01*
G01X2244200Y-5580615D01*
G01X2243109Y-5578160D01*
G01X2242018Y-5575978D01*
G01X2240927Y-5574069D01*
G01X2239837Y-5572433D01*
G01X2238473Y-5570524D01*
G01X2236837Y-5568615D01*
G01X2233564Y-5565342D01*
G01X2230837Y-5563433D01*
G01X2228109Y-5561796D01*
G01X2225655Y-5560433D01*
G01X2222927Y-5559342D01*
G01X2220473Y-5558524D01*
G01X2215018Y-5557433D01*
G01X2209564Y-5557160D01*
G01X2203564Y-5557433D01*
G01X2200291Y-5557978D01*
G01X2196473Y-5558796D01*
G01X2193200Y-5559887D01*
G01X2190473Y-5560978D01*
G01X2188291Y-5562069D01*
G01X2186382Y-5563160D01*
G01X2184746Y-5564251D01*
G01X2182837Y-5565615D01*
G01X2180928Y-5567251D01*
G01X2178200Y-5569978D01*
G01X2176837Y-5571887D01*
G01X2175473Y-5574069D01*
G01X2174382Y-5575706D01*
G01X2173564Y-5577342D01*
G01X2171928Y-5581706D01*
G01X2171382Y-5583615D01*
G01X2171109Y-5585524D01*
G01X2170837Y-5587978D01*
G01X2170837Y-5591797D01*
G01X2171382Y-5595615D01*
G01X2172473Y-5599978D01*
G01X2173564Y-5602706D01*
G01X2175200Y-5605433D01*
G01X2176564Y-5607342D01*
G01X2177655Y-5608706D01*
G01X2180382Y-5611433D01*
G01X2182291Y-5613069D01*
G01X2184473Y-5614433D01*
G01X2186382Y-5615524D01*
G01X2187746Y-5616615D01*
G01X2187541Y-5617092D01*
G01X2183655Y-5618251D01*
G01X2181200Y-5619342D01*
G01X2179019Y-5620433D01*
G01X2177382Y-5621524D01*
G01X2176019Y-5622615D01*
G01X2174655Y-5623433D01*
G01X2173291Y-5624796D01*
G01X2171928Y-5626433D01*
G01X2170564Y-5627796D01*
G01X2167837Y-5632160D01*
G01X2166200Y-5635978D01*
G01X2165382Y-5638706D01*
G01X2164837Y-5641433D01*
G01X2164564Y-5647433D01*
G01X2127677Y-5647433D01*
G01X2126655Y-5646615D01*
G01X2125291Y-5645251D01*
G01X2121473Y-5641978D01*
G01X2111655Y-5633796D01*
G01X2110291Y-5632433D01*
G01X2107564Y-5630251D01*
G01X2106200Y-5628887D01*
G01X2103473Y-5626706D01*
G01X2093927Y-5617160D01*
G01X2091200Y-5613887D01*
G01X2089564Y-5611978D01*
G01X2087927Y-5609524D01*
G01X2086564Y-5607342D01*
G01X2085473Y-5605433D01*
G01X2084382Y-5603251D01*
G01X2083291Y-5600251D01*
G01X2082473Y-5597797D01*
G01X2082200Y-5592615D01*
G01X2082746Y-5587160D01*
G01X2083564Y-5584706D01*
G01X2084382Y-5582524D01*
G01X2085200Y-5580887D01*
G01X2086291Y-5579524D01*
G01X2087927Y-5577615D01*
G01X2089564Y-5575978D01*
G01X2090927Y-5574887D01*
G01X2092564Y-5573524D01*
G01X2094746Y-5572433D01*
G01X2097746Y-5571342D01*
G01X2100473Y-5570524D01*
G01X2105655Y-5570251D01*
G01X2110837Y-5570524D01*
G01X2112746Y-5570797D01*
G01X2114927Y-5571342D01*
G01X2117655Y-5572433D01*
G01X2120382Y-5573797D01*
G01X2122837Y-5575433D01*
G01X2125291Y-5577615D01*
G01X2126928Y-5579797D01*
G01X2128018Y-5581433D01*
G01X2129109Y-5583615D01*
G01X2130200Y-5586615D01*
G01X2131018Y-5589069D01*
G01X2131291Y-5592887D01*
G01X2131564Y-5595137D01*
G01X2132382Y-5595887D01*
G01X2134291Y-5595615D01*
G01X2139746Y-5595069D01*
G01X2141928Y-5594797D01*
G01X2145200Y-5594524D01*
G01X2147382Y-5593706D01*
G01X2147382Y-5592342D01*
G01X2146837Y-5589069D01*
G01X2146019Y-5584978D01*
G01X2144382Y-5580069D01*
G01X2143291Y-5577615D01*
G01X2142473Y-5575706D01*
G01X2141382Y-5574069D01*
G01X2138655Y-5570251D01*
G01X2134564Y-5566160D01*
G01X2132655Y-5564524D01*
G01X2130200Y-5562887D01*
G01X2127746Y-5561524D01*
G01X2125291Y-5560433D01*
G01X2122564Y-5559342D01*
G01X2119564Y-5558524D01*
G01X2117382Y-5557978D01*
G01X2113564Y-5557433D01*
G01X2107018Y-5557160D01*
G01X2100473Y-5557433D01*
G01X2097200Y-5557978D01*
G01X2092837Y-5558796D01*
G01X2090109Y-5559615D01*
G01X2088200Y-5560160D01*
G01X2086291Y-5560978D01*
G01X2084109Y-5562069D01*
G01X2081655Y-5563433D01*
G01X2079200Y-5565069D01*
G01X2077291Y-5566706D01*
G01X2074564Y-5569433D01*
G01X2072382Y-5572160D01*
G01X2071018Y-5574069D01*
G01X2069928Y-5575978D01*
G01X2069109Y-5577615D01*
G01X2068291Y-5579524D01*
G01X2067473Y-5581706D01*
G01X2066655Y-5584433D01*
G01X2066109Y-5586887D01*
G01X2065837Y-5591524D01*
G01X2066109Y-5596706D01*
G01X2066655Y-5599978D01*
G01X2067473Y-5603524D01*
G01X2068564Y-5606524D01*
G01X2069655Y-5609251D01*
G01X2070746Y-5611433D01*
G01X2071837Y-5613342D01*
G01X2073200Y-5615524D01*
G01X2074291Y-5617433D01*
G01X2075382Y-5618796D01*
G01X2078109Y-5622069D01*
G01X2080291Y-5624796D01*
G01X2088473Y-5632978D01*
G01X2091200Y-5635160D01*
G01X2093927Y-5637887D01*
G01X2096655Y-5640069D01*
G01X2098018Y-5641433D01*
G01X2109473Y-5651251D01*
G01X2112746Y-5653978D01*
G01X2114655Y-5655887D01*
G01X2116837Y-5657524D01*
G01X2124200Y-5664887D01*
G01X2126382Y-5667615D01*
G01X2127746Y-5670069D01*
G01X2128018Y-5671160D01*
G01X2065837Y-5671160D01*
G01X2065837Y-5671160D01*
G01X1992200Y-5671160D01*
G01X1992200Y-5622069D01*
G01X1992200Y-5622069D01*
G01X1992200Y-5557706D01*
G01X1965200Y-5557706D01*
G01X1935746Y-5557978D01*
G01X1931382Y-5558524D01*
G01X1928109Y-5559069D01*
G01X1925382Y-5559615D01*
G01X1921019Y-5560706D01*
G01X1918564Y-5561524D01*
G01X1915837Y-5562615D01*
G01X1912837Y-5563978D01*
G01X1910928Y-5565342D01*
G01X1909019Y-5566433D01*
G01X1907109Y-5567796D01*
G01X1904382Y-5569978D01*
G01X1901109Y-5573251D01*
G01X1898928Y-5575978D01*
G01X1897291Y-5578160D01*
G01X1895928Y-5580342D01*
G01X1894291Y-5583069D01*
G01X1892928Y-5585524D01*
G01X1891837Y-5587978D01*
G01X1890746Y-5590706D01*
G01X1889655Y-5593706D01*
G01X1888837Y-5596160D01*
G01X1887746Y-5600524D01*
G01X1886655Y-5606524D01*
G01X1886110Y-5611433D01*
G01X1885837Y-5620706D01*
G01X1867177Y-5620706D01*
G01X1867019Y-5615796D01*
G01X1866473Y-5610887D01*
G01X1865928Y-5607615D01*
G01X1865382Y-5604615D01*
G01X1864564Y-5600524D01*
G01X1863473Y-5596706D01*
G01X1862382Y-5593706D01*
G01X1861291Y-5590978D01*
G01X1860200Y-5588524D01*
G01X1857746Y-5583615D01*
G01X1856110Y-5581160D01*
G01X1855019Y-5579251D01*
G01X1851746Y-5575160D01*
G01X1845746Y-5569160D01*
G01X1843019Y-5566978D01*
G01X1840291Y-5565069D01*
G01X1838110Y-5563706D01*
G01X1834291Y-5561524D01*
G01X1832110Y-5560433D01*
G01X1829382Y-5559342D01*
G01X1826382Y-5558251D01*
G01X1823928Y-5557433D01*
G01X1822019Y-5557160D01*
G01X1819837Y-5556615D01*
G01X1817110Y-5556069D01*
G01X1814655Y-5555796D01*
G01X1806473Y-5555524D01*
G01X1798291Y-5555796D01*
G01X1794473Y-5556342D01*
G01X1787109Y-5557978D01*
G01X1784655Y-5558796D01*
G01X1780291Y-5560433D01*
G01X1775382Y-5562887D01*
G01X1771019Y-5565615D01*
G01X1769109Y-5566978D01*
G01X1767746Y-5567796D01*
G01X1766382Y-5568887D01*
G01X1764473Y-5570797D01*
G01X1762564Y-5572160D01*
G01X1761473Y-5573524D01*
G01X1760110Y-5575160D01*
G01X1758746Y-5576524D01*
G01X1757110Y-5578706D01*
G01X1755200Y-5581433D01*
G01X1753837Y-5583342D01*
G01X1752746Y-5585251D01*
G01X1750564Y-5589615D01*
G01X1749473Y-5592342D01*
G01X1748382Y-5595342D01*
G01X1747291Y-5598887D01*
G01X1746473Y-5601615D01*
G01X1745382Y-5606524D01*
G01X1744837Y-5610342D01*
G01X1744291Y-5616887D01*
G01X1744019Y-5621251D01*
G01X1719473Y-5621251D01*
G01X1719473Y-5557706D01*
G01X1702019Y-5557706D01*
G01X1681837Y-5557706D01*
G01X1579837Y-5557706D01*
G01X1515473Y-5557706D01*
G01X1488201Y-5557706D01*
G01X1459019Y-5557978D01*
G01X1454655Y-5558524D01*
G01X1451382Y-5559069D01*
G01X1448655Y-5559615D01*
G01X1445110Y-5560433D01*
G01X1442655Y-5561251D01*
G01X1440473Y-5562069D01*
G01X1436110Y-5564251D01*
G01X1433655Y-5565615D01*
G01X1431746Y-5566706D01*
G01X1427655Y-5569978D01*
G01X1424928Y-5572706D01*
G01X1423837Y-5574069D01*
G01X1422201Y-5575978D01*
G01X1420564Y-5578160D01*
G01X1419473Y-5579797D01*
G01X1418382Y-5581706D01*
G01X1417292Y-5583342D01*
G01X1416473Y-5584978D01*
G01X1415655Y-5586887D01*
G01X1414564Y-5589342D01*
G01X1413473Y-5592069D01*
G01X1411837Y-5597524D01*
G01X1411019Y-5600524D01*
G01X1410473Y-5603251D01*
G01X1409928Y-5607069D01*
G01X1409383Y-5611433D01*
G01X1409110Y-5620433D01*
G01X1385110Y-5620433D01*
G01X1385110Y-5557706D01*
G01X1291837Y-5557706D01*
G01X1291837Y-5572978D01*
G01X1368201Y-5572978D01*
G01X1368201Y-5612251D01*
G01X1296746Y-5612251D01*
G01X1296746Y-5627524D01*
G01X1368201Y-5627524D01*
G01X1368201Y-5671160D01*
G01X1289110Y-5671160D01*
G01X1234564Y-5671160D01*
G01X1236746Y-5665705D01*
G01X1237837Y-5662705D01*
G01X1240019Y-5657251D01*
G01X1241110Y-5654251D01*
G01X1243292Y-5648796D01*
G01X1244383Y-5645796D01*
G01X1246564Y-5640342D01*
G01X1247655Y-5637342D01*
G01X1249837Y-5631887D01*
G01X1250928Y-5628887D01*
G01X1253110Y-5623433D01*
G01X1254201Y-5620433D01*
G01X1256383Y-5614978D01*
G01X1257473Y-5611978D01*
G01X1259655Y-5606524D01*
G01X1260746Y-5603524D01*
G01X1261837Y-5600797D01*
G01X1263473Y-5596433D01*
G01X1265655Y-5590978D01*
G01X1267292Y-5586615D01*
G01X1270564Y-5578433D01*
G01X1271655Y-5575433D01*
G01X1272746Y-5572706D01*
G01X1273837Y-5569706D01*
G01X1277110Y-5561524D01*
G01X1277928Y-5559069D01*
G01X1278201Y-5557706D01*
G01X1270292Y-5557706D01*
G01X1261019Y-5557978D01*
G01X1259860Y-5558592D01*
G01X1259110Y-5559887D01*
G01X1258019Y-5563160D01*
G01X1255837Y-5569160D01*
G01X1254746Y-5572433D01*
G01X1253655Y-5575160D01*
G01X1252019Y-5580069D01*
G01X1250928Y-5582797D01*
G01X1249837Y-5586069D01*
G01X1247655Y-5592069D01*
G01X1246564Y-5595342D01*
G01X1245474Y-5598069D01*
G01X1243837Y-5602978D01*
G01X1242201Y-5607342D01*
G01X1241383Y-5609797D01*
G01X1239746Y-5614160D01*
G01X1238928Y-5616615D01*
G01X1237837Y-5619342D01*
G01X1236746Y-5622615D01*
G01X1234564Y-5628615D01*
G01X1233474Y-5631887D01*
G01X1232383Y-5634615D01*
G01X1230746Y-5639524D01*
G01X1229655Y-5642251D01*
G01X1228564Y-5645524D01*
G01X1226383Y-5651524D01*
G01X1221201Y-5667069D01*
G01X1220655Y-5669524D01*
G01X1220246Y-5670615D01*
G01X1219564Y-5670615D01*
G01X1218474Y-5668433D01*
G01X1217655Y-5665705D01*
G01X1213565Y-5653433D01*
G01X1207019Y-5635978D01*
G01X1206201Y-5633524D01*
G01X1204565Y-5629160D01*
G01X1203474Y-5626433D01*
G01X1201292Y-5620433D01*
G01X1200201Y-5617706D01*
G01X1199383Y-5615251D01*
G01X1192837Y-5597797D01*
G01X1192019Y-5595342D01*
G01X1190383Y-5590978D01*
G01X1189292Y-5588251D01*
G01X1187110Y-5582251D01*
G01X1186019Y-5579524D01*
G01X1185201Y-5577069D01*
G01X1179474Y-5561796D01*
G01X1178656Y-5559342D01*
G01X1178383Y-5557706D01*
G01X1170474Y-5557706D01*
G01X1161746Y-5557978D01*
G01X1161269Y-5558455D01*
G01X1146201Y-5558455D01*
G01X1146201Y-5557706D01*
G01X1138837Y-5557706D01*
G01X1130110Y-5557978D01*
G01X1128746Y-5558251D01*
G01X1128746Y-5620433D01*
G01X1127655Y-5619887D01*
G01X1126019Y-5618524D01*
G01X1066019Y-5558524D01*
G01X1062746Y-5557910D01*
G01X1054019Y-5557706D01*
G01X1045496Y-5557842D01*
G01X1042837Y-5558251D01*
G01X1054837Y-5570251D01*
G01X1057565Y-5572433D01*
G01X1071201Y-5586069D01*
G01X1073928Y-5588251D01*
G01X1086201Y-5600524D01*
G01X1089474Y-5603251D01*
G01X1094928Y-5608706D01*
G01X1095201Y-5610342D01*
G01X1094383Y-5611978D01*
G01X1091110Y-5616342D01*
G01X1090019Y-5617706D01*
G01X1088655Y-5619615D01*
G01X1086746Y-5622342D01*
G01X1081837Y-5628887D01*
G01X1079110Y-5632706D01*
G01X1075837Y-5637069D01*
G01X1073110Y-5640887D01*
G01X1069837Y-5645251D01*
G01X1068746Y-5646615D01*
G01X1067383Y-5648524D01*
G01X1065474Y-5651251D01*
G01X1060565Y-5657796D01*
G01X1057837Y-5661615D01*
G01X1054565Y-5665978D01*
G01X1053474Y-5667342D01*
G01X1052110Y-5669251D01*
G01X1050201Y-5671978D01*
G01X1045292Y-5678524D01*
G01X1042565Y-5682342D01*
G01X1041474Y-5683705D01*
G01X1040383Y-5685342D01*
G01X1039837Y-5686433D01*
G01X1022383Y-5686433D01*
G01X1022383Y-5622069D01*
G01X1022383Y-5622069D01*
G01X1022383Y-5557706D01*
G01X1005474Y-5557706D01*
G01X984746Y-5557706D01*
G01X882747Y-5557706D01*
G01X775444Y-5557706D01*
G01X774610Y-5557365D01*
G01X770656Y-5557160D01*
G01X765474Y-5557160D01*
G01X765474Y-5557160D01*
G01X731656Y-5557160D01*
G01X731656Y-5523887D01*
G01X2616200Y-5523887D01*
G01X2616200Y-5725160D01*
G01X731656Y-5725160D01*
G37*
G36*
G01X1479746Y-5572978D02*
G01X1498564Y-5572978D01*
G01X1498564Y-5621796D01*
G01X1498292Y-5670887D01*
G01X1481110Y-5671160D01*
G01X1463382Y-5670887D01*
G01X1460928Y-5670615D01*
G01X1457928Y-5670342D01*
G01X1455201Y-5669796D01*
G01X1450837Y-5668705D01*
G01X1448655Y-5667887D01*
G01X1446746Y-5667069D01*
G01X1443473Y-5665433D01*
G01X1441837Y-5664342D01*
G01X1440201Y-5662978D01*
G01X1438837Y-5661615D01*
G01X1437746Y-5660251D01*
G01X1436382Y-5658887D01*
G01X1435019Y-5656978D01*
G01X1433655Y-5654796D01*
G01X1432564Y-5652887D01*
G01X1431473Y-5650433D01*
G01X1430382Y-5647433D01*
G01X1429292Y-5644160D01*
G01X1428473Y-5641433D01*
G01X1427382Y-5635433D01*
G01X1426837Y-5629978D01*
G01X1426564Y-5622615D01*
G01X1426837Y-5613615D01*
G01X1427382Y-5608706D01*
G01X1427928Y-5605433D01*
G01X1428473Y-5602433D01*
G01X1429292Y-5599160D01*
G01X1430110Y-5596706D01*
G01X1430928Y-5594524D01*
G01X1433382Y-5589615D01*
G01X1434746Y-5587706D01*
G01X1435564Y-5586342D01*
G01X1436655Y-5584978D01*
G01X1438019Y-5583342D01*
G01X1439655Y-5581706D01*
G01X1441292Y-5580342D01*
G01X1443201Y-5578706D01*
G01X1445655Y-5577069D01*
G01X1447837Y-5575978D01*
G01X1450019Y-5575160D01*
G01X1452746Y-5574342D01*
G01X1455201Y-5573797D01*
G01X1460110Y-5573251D01*
G01X1479746Y-5572978D01*
G37*
G36*
G01X1819019Y-5672251D02*
G01X1816291Y-5673069D01*
G01X1814110Y-5673342D01*
G01X1812473Y-5673615D01*
G01X1806746Y-5673887D01*
G01X1799928Y-5673615D01*
G01X1796655Y-5673069D01*
G01X1793110Y-5672251D01*
G01X1789837Y-5671160D01*
G01X1787382Y-5670069D01*
G01X1785200Y-5668978D01*
G01X1782746Y-5667615D01*
G01X1780837Y-5666524D01*
G01X1779473Y-5665433D01*
G01X1776200Y-5662705D01*
G01X1774837Y-5661342D01*
G01X1772655Y-5658615D01*
G01X1771019Y-5656705D01*
G01X1769382Y-5654251D01*
G01X1768019Y-5651796D01*
G01X1766928Y-5649615D01*
G01X1765837Y-5647160D01*
G01X1763928Y-5641433D01*
G01X1762837Y-5636524D01*
G01X1762291Y-5632706D01*
G01X1761746Y-5623433D01*
G01X1761746Y-5622069D01*
G01X1762019Y-5617978D01*
G01X1762291Y-5613615D01*
G01X1762837Y-5609797D01*
G01X1763382Y-5607069D01*
G01X1764200Y-5603251D01*
G01X1765019Y-5600524D01*
G01X1765837Y-5598069D01*
G01X1766928Y-5595342D01*
G01X1768019Y-5592887D01*
G01X1769109Y-5590706D01*
G01X1770473Y-5588524D01*
G01X1771837Y-5586615D01*
G01X1772928Y-5584978D01*
G01X1774291Y-5583342D01*
G01X1777564Y-5580069D01*
G01X1781928Y-5576797D01*
G01X1784655Y-5575160D01*
G01X1787382Y-5573797D01*
G01X1790110Y-5572706D01*
G01X1792291Y-5571887D01*
G01X1795019Y-5571069D01*
G01X1797746Y-5570524D01*
G01X1804291Y-5569978D01*
G01X1805655Y-5569978D01*
G01X1808110Y-5570251D01*
G01X1811928Y-5570524D01*
G01X1814655Y-5571069D01*
G01X1816564Y-5571342D01*
G01X1818746Y-5571887D01*
G01X1821201Y-5572706D01*
G01X1823382Y-5573524D01*
G01X1828291Y-5575978D01*
G01X1830746Y-5577615D01*
G01X1832655Y-5578978D01*
G01X1835382Y-5581160D01*
G01X1839473Y-5585251D01*
G01X1841110Y-5587433D01*
G01X1842746Y-5589887D01*
G01X1843837Y-5591797D01*
G01X1844655Y-5593706D01*
G01X1846291Y-5598069D01*
G01X1847110Y-5600797D01*
G01X1847928Y-5603251D01*
G01X1849019Y-5609797D01*
G01X1849564Y-5615251D01*
G01X1849837Y-5622342D01*
G01X1849564Y-5629433D01*
G01X1849019Y-5634342D01*
G01X1847928Y-5639796D01*
G01X1847382Y-5641978D01*
G01X1846564Y-5644978D01*
G01X1845473Y-5647705D01*
G01X1844382Y-5650160D01*
G01X1843019Y-5652887D01*
G01X1841382Y-5655342D01*
G01X1840291Y-5657251D01*
G01X1839201Y-5658615D01*
G01X1833201Y-5664615D01*
G01X1831019Y-5666251D01*
G01X1829110Y-5667615D01*
G01X1826928Y-5668978D01*
G01X1825019Y-5670069D01*
G01X1822564Y-5671160D01*
G01X1819019Y-5672251D01*
G37*
G36*
G01X1956200Y-5572978D02*
G01X1975291Y-5572978D01*
G01X1975291Y-5621796D01*
G01X1975019Y-5670887D01*
G01X1957837Y-5671160D01*
G01X1940109Y-5670887D01*
G01X1938200Y-5670615D01*
G01X1934655Y-5670342D01*
G01X1930291Y-5669524D01*
G01X1926746Y-5668433D01*
G01X1924291Y-5667342D01*
G01X1922109Y-5666251D01*
G01X1919655Y-5664887D01*
G01X1917200Y-5663251D01*
G01X1915291Y-5661342D01*
G01X1913928Y-5659705D01*
G01X1912291Y-5657796D01*
G01X1910655Y-5655342D01*
G01X1909291Y-5652887D01*
G01X1908200Y-5650433D01*
G01X1907109Y-5647705D01*
G01X1906019Y-5644160D01*
G01X1905200Y-5641433D01*
G01X1904109Y-5635433D01*
G01X1903564Y-5629978D01*
G01X1903291Y-5622615D01*
G01X1903564Y-5613615D01*
G01X1904109Y-5608706D01*
G01X1904655Y-5605433D01*
G01X1905200Y-5602433D01*
G01X1906019Y-5599160D01*
G01X1906837Y-5596706D01*
G01X1907655Y-5594524D01*
G01X1909837Y-5590160D01*
G01X1911200Y-5587978D01*
G01X1912564Y-5586069D01*
G01X1914200Y-5584160D01*
G01X1915837Y-5581978D01*
G01X1918564Y-5579797D01*
G01X1920473Y-5578160D01*
G01X1922655Y-5576797D01*
G01X1924837Y-5575706D01*
G01X1927018Y-5574887D01*
G01X1931928Y-5573797D01*
G01X1936291Y-5573251D01*
G01X1956200Y-5572978D01*
G37*
G54D10*
G01X2161072Y-1077060D02*
G01X2147610Y-1090268D01*
G01X2214158Y-1077060D02*
G01X2161072Y-1077060D01*
G01X2214158Y-1077060D02*
G01X2227620Y-1090268D01*
G01X2227620Y-1090268D02*
G01X2227620Y-1116938D01*
G01X2227620Y-1116938D02*
G01X2214158Y-1130400D01*
G01X2214158Y-1130400D02*
G01X2161072Y-1130400D01*
G01X2147610Y-1116938D02*
G01X2161072Y-1130400D01*
G01X2147610Y-1090268D02*
G01X2147610Y-1116938D01*
G01X2214158Y-1210410D02*
G01X2147610Y-1210410D01*
G01X2227620Y-1196948D02*
G01X2214158Y-1210410D01*
G01X2227620Y-1170278D02*
G01X2227620Y-1196948D01*
G01X2214158Y-1157070D02*
G01X2227620Y-1170278D01*
G01X2214158Y-1157070D02*
G01X2147610Y-1157070D01*
G01X2227620Y-1263750D02*
G01X2147610Y-1263750D01*
G01X2147610Y-1237080D02*
G01X2147610Y-1290420D01*
G01X2187742Y-1317090D02*
G01X2187742Y-1370430D01*
G01X1081072Y-1047060D02*
G01X1067610Y-1060268D01*
G01X1134158Y-1047060D02*
G01X1081072Y-1047060D01*
G01X1134158Y-1047060D02*
G01X1147620Y-1060268D01*
G01X1147620Y-1060268D02*
G01X1147620Y-1086938D01*
G01X1147620Y-1086938D02*
G01X1134158Y-1100400D01*
G01X1134158Y-1100400D02*
G01X1081072Y-1100400D01*
G01X1067610Y-1086938D02*
G01X1081072Y-1100400D01*
G01X1067610Y-1060268D02*
G01X1067610Y-1086938D01*
G01X1134158Y-1180410D02*
G01X1067610Y-1180410D01*
G01X1147620Y-1166948D02*
G01X1134158Y-1180410D01*
G01X1147620Y-1140278D02*
G01X1147620Y-1166948D01*
G01X1134158Y-1127070D02*
G01X1147620Y-1140278D01*
G01X1134158Y-1127070D02*
G01X1067610Y-1127070D01*
G01X1147620Y-1233750D02*
G01X1067610Y-1233750D01*
G01X1067610Y-1207080D02*
G01X1067610Y-1260420D01*
G01X1107742Y-1287090D02*
G01X1107742Y-1313760D01*
G01X1107742Y-1313760D02*
G01X1107742Y-1340430D01*
G01X1134412Y-1313760D02*
G01X1107742Y-1313760D01*
G01X1107742Y-1313760D02*
G01X1081072Y-1313760D01*
G01X1137620Y-2280268D02*
G01X1057610Y-2280268D01*
G01X1057610Y-2267060D02*
G01X1057610Y-2280268D01*
G01X1057610Y-2280268D02*
G01X1057610Y-2293730D01*
G01X1137620Y-2267060D02*
G01X1137620Y-2280268D01*
G01X1137620Y-2280268D02*
G01X1137620Y-2293730D01*
G01X1137620Y-2386948D02*
G01X1057610Y-2386948D01*
G01X1057610Y-2333608D02*
G01X1137620Y-2386948D01*
G01X1137620Y-2333608D02*
G01X1057610Y-2333608D01*
G01X1097742Y-2413618D02*
G01X1097742Y-2440288D01*
G01X1097742Y-2440288D02*
G01X1097742Y-2466958D01*
G01X1124412Y-2440288D02*
G01X1097742Y-2440288D01*
G01X1097742Y-2440288D02*
G01X1071072Y-2440288D01*
G01X2217620Y-2310268D02*
G01X2137610Y-2310268D01*
G01X2137610Y-2297060D02*
G01X2137610Y-2310268D01*
G01X2137610Y-2310268D02*
G01X2137610Y-2323730D01*
G01X2217620Y-2297060D02*
G01X2217620Y-2310268D01*
G01X2217620Y-2310268D02*
G01X2217620Y-2323730D01*
G01X2217620Y-2416948D02*
G01X2137610Y-2416948D01*
G01X2137610Y-2363608D02*
G01X2217620Y-2416948D01*
G01X2217620Y-2363608D02*
G01X2137610Y-2363608D01*
G01X2177742Y-2443618D02*
G01X2177742Y-2496958D01*
G04 Text End*

G04 PolygonModel Start*
G01X1385320Y-2554360D02*
G01X835320Y-2554360D01*
G01X1385320Y-2844360D02*
G01X835320Y-2844360D01*
G01X835320Y-2554360D02*
G01X835320Y-2844360D01*
G01X1385320Y-2554360D02*
G01X1385320Y-2844360D01*
G01X2460320Y-694360D02*
G01X1910320Y-694360D01*
G01X2460320Y-984360D02*
G01X1910320Y-984360D01*
G01X1910320Y-694360D02*
G01X1910320Y-984360D01*
G01X2460320Y-694360D02*
G01X2460320Y-984360D01*
G01X2510320Y-664360D02*
G01X810320Y-664360D01*
G01X2510320Y-2874360D02*
G01X810320Y-2874360D01*
G01X810320Y-664360D02*
G01X810320Y-2874360D01*
G01X2510320Y-664360D02*
G01X2510320Y-2874360D01*
G01X2460320Y-2544360D02*
G01X1920320Y-2544360D01*
G01X2460320Y-2844360D02*
G01X1920320Y-2844360D01*
G01X1920320Y-2544360D02*
G01X1920320Y-2844360D01*
G01X2460320Y-2544360D02*
G01X2460320Y-2844360D01*
G01X1385320Y-694360D02*
G01X835320Y-694360D01*
G01X1385320Y-984360D02*
G01X835320Y-984360D01*
G01X835320Y-694360D02*
G01X835320Y-984360D01*
G01X1385320Y-694360D02*
G01X1385320Y-984360D01*

M02*

