G04 Layer: TopLayer*
G04 EasyEDA Pro v2.2.40.8, 2025-10-14 13:53:51*
G04 Gerber Generator version 0.3*
G04 Scale: 100 percent, Rotated: No, Reflected: No*
G04 Dimensions in millimeters*
G04 Leading zeros omitted, absolute positions, 4 integers and 5 decimals*
G04 Generated by one-click*
%FSLAX45Y45*%
%MOMM*%
%ADD10C,0.2032*%
%ADD11C,0.254*%
%ADD12C,1.8796*%
%ADD13C,2.0*%
%ADD14R,2.0X2.0*%
%ADD15O,1.5X1.8*%
%ADD16C,1.7*%
%ADD17R,1.5711X1.7*%
%ADD18R,1.5748X1.7*%
G75*


G04 Copper Start*
G36*
G01X1323541Y-40640D02*
G01X3241040Y-53631D01*
G01X3241040Y-5321300D01*
G01X61214Y-5321300D01*
G01X61214Y-5186680D01*
G01X255106Y-5186680D01*
G01X256942Y-5207659D01*
G01X262392Y-5228001D01*
G01X271292Y-5247087D01*
G01X283371Y-5264338D01*
G01X298262Y-5279229D01*
G01X315513Y-5291308D01*
G01X334599Y-5300208D01*
G01X354941Y-5305658D01*
G01X375920Y-5307494D01*
G01X396899Y-5305658D01*
G01X417241Y-5300208D01*
G01X436327Y-5291308D01*
G01X453578Y-5279229D01*
G01X468469Y-5264338D01*
G01X480548Y-5247087D01*
G01X489448Y-5228001D01*
G01X494898Y-5207659D01*
G01X496734Y-5186680D01*
G01X494898Y-5165701D01*
G01X492775Y-5157777D01*
G01X896376Y-5157777D01*
G01X898439Y-5179307D01*
G01X904050Y-5200196D01*
G01X913052Y-5219863D01*
G01X925194Y-5237762D01*
G01X940140Y-5253396D01*
G01X957475Y-5266331D01*
G01X976717Y-5276208D01*
G01X997332Y-5282752D01*
G01X1018748Y-5285782D01*
G01X1040370Y-5285214D01*
G01X1061597Y-5281063D01*
G01X1081839Y-5273445D01*
G01X1100536Y-5262570D01*
G01X1117168Y-5248742D01*
G01X1131272Y-5232345D01*
G01X1142457Y-5213832D01*
G01X1150413Y-5193720D01*
G01X1193013Y-5151120D01*
G01X1353566Y-5151120D01*
G01X1355538Y-5173658D01*
G01X1361394Y-5195512D01*
G01X1370955Y-5216017D01*
G01X1383932Y-5234550D01*
G01X1399930Y-5250548D01*
G01X1418463Y-5263525D01*
G01X1438968Y-5273086D01*
G01X1460822Y-5278942D01*
G01X1483360Y-5280914D01*
G01X1505898Y-5278942D01*
G01X1527752Y-5273086D01*
G01X1548257Y-5263525D01*
G01X1566790Y-5250548D01*
G01X1582788Y-5234550D01*
G01X1595765Y-5216017D01*
G01X1605326Y-5195512D01*
G01X1611182Y-5173658D01*
G01X1613154Y-5151120D01*
G01X1805686Y-5151120D01*
G01X1807658Y-5173658D01*
G01X1813514Y-5195512D01*
G01X1823075Y-5216017D01*
G01X1836052Y-5234550D01*
G01X1852050Y-5250548D01*
G01X1870583Y-5263525D01*
G01X1891088Y-5273086D01*
G01X1912942Y-5278942D01*
G01X1935480Y-5280914D01*
G01X1935480Y-5280914D01*
G01X1958018Y-5278942D01*
G01X1979872Y-5273086D01*
G01X2000377Y-5263525D01*
G01X2018910Y-5250548D01*
G01X2034908Y-5234550D01*
G01X2047885Y-5216017D01*
G01X2057446Y-5195512D01*
G01X2063302Y-5173658D01*
G01X2065274Y-5151120D01*
G01X2064830Y-5146040D01*
G01X2217166Y-5146040D01*
G01X2219138Y-5168578D01*
G01X2224994Y-5190432D01*
G01X2234555Y-5210937D01*
G01X2247532Y-5229470D01*
G01X2263530Y-5245468D01*
G01X2282063Y-5258445D01*
G01X2302568Y-5268006D01*
G01X2324422Y-5273862D01*
G01X2346960Y-5275834D01*
G01X2346960Y-5275834D01*
G01X2369498Y-5273862D01*
G01X2391352Y-5268006D01*
G01X2411857Y-5258445D01*
G01X2430390Y-5245468D01*
G01X2446388Y-5229470D01*
G01X2459365Y-5210937D01*
G01X2468926Y-5190432D01*
G01X2469932Y-5186680D01*
G01X2790026Y-5186680D01*
G01X2791862Y-5207659D01*
G01X2797312Y-5228001D01*
G01X2806212Y-5247087D01*
G01X2818291Y-5264338D01*
G01X2833182Y-5279229D01*
G01X2850433Y-5291308D01*
G01X2869519Y-5300208D01*
G01X2889861Y-5305658D01*
G01X2910840Y-5307494D01*
G01X2931819Y-5305658D01*
G01X2952161Y-5300208D01*
G01X2971247Y-5291308D01*
G01X2988498Y-5279229D01*
G01X3003389Y-5264338D01*
G01X3015468Y-5247087D01*
G01X3024368Y-5228001D01*
G01X3029818Y-5207659D01*
G01X3031654Y-5186680D01*
G01X3029818Y-5165701D01*
G01X3024368Y-5145359D01*
G01X3015468Y-5126273D01*
G01X3003389Y-5109022D01*
G01X2988498Y-5094131D01*
G01X2971247Y-5082052D01*
G01X2952161Y-5073152D01*
G01X2931819Y-5067702D01*
G01X2910840Y-5065866D01*
G01X2910840Y-5065866D01*
G01X2889861Y-5067702D01*
G01X2869519Y-5073152D01*
G01X2850433Y-5082052D01*
G01X2833182Y-5094131D01*
G01X2818291Y-5109022D01*
G01X2806212Y-5126273D01*
G01X2797312Y-5145359D01*
G01X2791862Y-5165701D01*
G01X2790026Y-5186680D01*
G01X2469932Y-5186680D01*
G01X2474782Y-5168578D01*
G01X2476754Y-5146040D01*
G01X2474782Y-5123502D01*
G01X2468926Y-5101648D01*
G01X2459365Y-5081143D01*
G01X2446388Y-5062610D01*
G01X2430390Y-5046612D01*
G01X2411857Y-5033635D01*
G01X2391352Y-5024074D01*
G01X2369498Y-5018218D01*
G01X2346960Y-5016246D01*
G01X2324422Y-5018218D01*
G01X2302568Y-5024074D01*
G01X2282063Y-5033635D01*
G01X2263530Y-5046612D01*
G01X2247532Y-5062610D01*
G01X2234555Y-5081143D01*
G01X2224994Y-5101648D01*
G01X2219138Y-5123502D01*
G01X2217166Y-5146040D01*
G01X2064830Y-5146040D01*
G01X2063302Y-5128582D01*
G01X2057446Y-5106728D01*
G01X2047885Y-5086223D01*
G01X2034908Y-5067690D01*
G01X2018910Y-5051692D01*
G01X2000377Y-5038715D01*
G01X1979872Y-5029154D01*
G01X1958018Y-5023298D01*
G01X1935480Y-5021326D01*
G01X1912942Y-5023298D01*
G01X1891088Y-5029154D01*
G01X1870583Y-5038715D01*
G01X1852050Y-5051692D01*
G01X1836052Y-5067690D01*
G01X1823075Y-5086223D01*
G01X1813514Y-5106728D01*
G01X1807658Y-5128582D01*
G01X1805686Y-5151120D01*
G01X1613154Y-5151120D01*
G01X1613154Y-5151120D01*
G01X1611182Y-5128582D01*
G01X1605326Y-5106728D01*
G01X1595765Y-5086223D01*
G01X1582788Y-5067690D01*
G01X1566790Y-5051692D01*
G01X1548257Y-5038715D01*
G01X1527752Y-5029154D01*
G01X1505898Y-5023298D01*
G01X1483360Y-5021326D01*
G01X1483360Y-5021326D01*
G01X1460822Y-5023298D01*
G01X1438968Y-5029154D01*
G01X1418463Y-5038715D01*
G01X1399930Y-5051692D01*
G01X1383932Y-5067690D01*
G01X1370955Y-5086223D01*
G01X1361394Y-5106728D01*
G01X1355538Y-5128582D01*
G01X1353566Y-5151120D01*
G01X1193013Y-5151120D01*
G01X1411453Y-4932680D01*
G01X2790026Y-4932680D01*
G01X2791862Y-4953659D01*
G01X2797312Y-4974001D01*
G01X2806212Y-4993087D01*
G01X2818291Y-5010338D01*
G01X2833182Y-5025229D01*
G01X2850433Y-5037308D01*
G01X2869519Y-5046208D01*
G01X2889861Y-5051658D01*
G01X2910840Y-5053494D01*
G01X2931819Y-5051658D01*
G01X2952161Y-5046208D01*
G01X2971247Y-5037308D01*
G01X2988498Y-5025229D01*
G01X3003389Y-5010338D01*
G01X3015468Y-4993087D01*
G01X3024368Y-4974001D01*
G01X3029818Y-4953659D01*
G01X3031654Y-4932680D01*
G01X3029818Y-4911701D01*
G01X3024368Y-4891359D01*
G01X3015468Y-4872273D01*
G01X3003389Y-4855022D01*
G01X2988498Y-4840131D01*
G01X2971247Y-4828052D01*
G01X2952161Y-4819152D01*
G01X2931819Y-4813702D01*
G01X2910840Y-4811866D01*
G01X2910840Y-4811866D01*
G01X2889861Y-4813702D01*
G01X2869519Y-4819152D01*
G01X2850433Y-4828052D01*
G01X2833182Y-4840131D01*
G01X2818291Y-4855022D01*
G01X2806212Y-4872273D01*
G01X2797312Y-4891359D01*
G01X2791862Y-4911701D01*
G01X2790026Y-4932680D01*
G01X1411453Y-4932680D01*
G01X1665453Y-4678680D01*
G01X2790026Y-4678680D01*
G01X2791862Y-4699659D01*
G01X2797312Y-4720001D01*
G01X2806212Y-4739087D01*
G01X2818291Y-4756338D01*
G01X2833182Y-4771229D01*
G01X2850433Y-4783308D01*
G01X2869519Y-4792208D01*
G01X2889861Y-4797658D01*
G01X2910840Y-4799494D01*
G01X2931819Y-4797658D01*
G01X2952161Y-4792208D01*
G01X2971247Y-4783308D01*
G01X2988498Y-4771229D01*
G01X3003389Y-4756338D01*
G01X3015468Y-4739087D01*
G01X3024368Y-4720001D01*
G01X3029818Y-4699659D01*
G01X3031654Y-4678680D01*
G01X3029818Y-4657701D01*
G01X3024368Y-4637359D01*
G01X3015468Y-4618273D01*
G01X3003389Y-4601022D01*
G01X2988498Y-4586131D01*
G01X2971247Y-4574052D01*
G01X2952161Y-4565152D01*
G01X2931819Y-4559702D01*
G01X2910840Y-4557866D01*
G01X2910840Y-4557866D01*
G01X2889861Y-4559702D01*
G01X2869519Y-4565152D01*
G01X2850433Y-4574052D01*
G01X2833182Y-4586131D01*
G01X2818291Y-4601022D01*
G01X2806212Y-4618273D01*
G01X2797312Y-4637359D01*
G01X2791862Y-4657701D01*
G01X2790026Y-4678680D01*
G01X1665453Y-4678680D01*
G01X1919453Y-4424680D01*
G01X2790026Y-4424680D01*
G01X2791862Y-4445659D01*
G01X2797312Y-4466001D01*
G01X2806212Y-4485087D01*
G01X2818291Y-4502338D01*
G01X2833182Y-4517229D01*
G01X2850433Y-4529308D01*
G01X2869519Y-4538208D01*
G01X2889861Y-4543658D01*
G01X2910840Y-4545494D01*
G01X2931819Y-4543658D01*
G01X2952161Y-4538208D01*
G01X2971247Y-4529308D01*
G01X2988498Y-4517229D01*
G01X3003389Y-4502338D01*
G01X3015468Y-4485087D01*
G01X3024368Y-4466001D01*
G01X3029818Y-4445659D01*
G01X3031654Y-4424680D01*
G01X3029818Y-4403701D01*
G01X3024368Y-4383359D01*
G01X3015468Y-4364273D01*
G01X3003389Y-4347022D01*
G01X2988498Y-4332131D01*
G01X2971247Y-4320052D01*
G01X2952161Y-4311152D01*
G01X2931819Y-4305702D01*
G01X2910840Y-4303866D01*
G01X2910840Y-4303866D01*
G01X2889861Y-4305702D01*
G01X2869519Y-4311152D01*
G01X2850433Y-4320052D01*
G01X2833182Y-4332131D01*
G01X2818291Y-4347022D01*
G01X2806212Y-4364273D01*
G01X2797312Y-4383359D01*
G01X2791862Y-4403701D01*
G01X2790026Y-4424680D01*
G01X1919453Y-4424680D01*
G01X2217203Y-4126929D01*
G01X2218548Y-4148928D01*
G01X2223595Y-4170382D01*
G01X2232199Y-4190673D01*
G01X2244112Y-4209216D01*
G01X2258991Y-4225476D01*
G01X2276407Y-4238984D01*
G01X2295856Y-4249350D01*
G01X2316780Y-4256276D01*
G01X2338573Y-4259563D01*
G01X2360609Y-4259114D01*
G01X2382251Y-4254944D01*
G01X2402875Y-4247172D01*
G01X2421887Y-4236023D01*
G01X2438738Y-4221818D01*
G01X2452943Y-4204967D01*
G01X2464092Y-4185955D01*
G01X2469848Y-4170680D01*
G01X2790026Y-4170680D01*
G01X2791862Y-4191659D01*
G01X2797312Y-4212001D01*
G01X2806212Y-4231087D01*
G01X2818291Y-4248338D01*
G01X2833182Y-4263229D01*
G01X2850433Y-4275308D01*
G01X2869519Y-4284208D01*
G01X2889861Y-4289658D01*
G01X2910840Y-4291494D01*
G01X2931819Y-4289658D01*
G01X2952161Y-4284208D01*
G01X2971247Y-4275308D01*
G01X2988498Y-4263229D01*
G01X3003389Y-4248338D01*
G01X3015468Y-4231087D01*
G01X3024368Y-4212001D01*
G01X3029818Y-4191659D01*
G01X3031654Y-4170680D01*
G01X3029818Y-4149701D01*
G01X3024368Y-4129359D01*
G01X3015468Y-4110273D01*
G01X3003389Y-4093022D01*
G01X2988498Y-4078131D01*
G01X2971247Y-4066052D01*
G01X2952161Y-4057152D01*
G01X2931819Y-4051702D01*
G01X2910840Y-4049866D01*
G01X2910840Y-4049866D01*
G01X2889861Y-4051702D01*
G01X2869519Y-4057152D01*
G01X2850433Y-4066052D01*
G01X2833182Y-4078131D01*
G01X2818291Y-4093022D01*
G01X2806212Y-4110273D01*
G01X2797312Y-4129359D01*
G01X2791862Y-4149701D01*
G01X2790026Y-4170680D01*
G01X2469848Y-4170680D01*
G01X2471864Y-4165331D01*
G01X2476034Y-4143689D01*
G01X2476483Y-4121653D01*
G01X2473196Y-4099860D01*
G01X2466270Y-4078936D01*
G01X2455904Y-4059487D01*
G01X2442396Y-4042071D01*
G01X2426136Y-4027192D01*
G01X2407593Y-4015279D01*
G01X2387302Y-4006675D01*
G01X2365848Y-4001628D01*
G01X2343849Y-4000283D01*
G01X2427453Y-3916680D01*
G01X2790026Y-3916680D01*
G01X2791862Y-3937659D01*
G01X2797312Y-3958001D01*
G01X2806212Y-3977087D01*
G01X2818291Y-3994338D01*
G01X2833182Y-4009229D01*
G01X2850433Y-4021308D01*
G01X2869519Y-4030208D01*
G01X2889861Y-4035658D01*
G01X2910840Y-4037494D01*
G01X2931819Y-4035658D01*
G01X2952161Y-4030208D01*
G01X2971247Y-4021308D01*
G01X2988498Y-4009229D01*
G01X3003389Y-3994338D01*
G01X3015468Y-3977087D01*
G01X3024368Y-3958001D01*
G01X3029818Y-3937659D01*
G01X3031654Y-3916680D01*
G01X3029818Y-3895701D01*
G01X3024368Y-3875359D01*
G01X3015468Y-3856273D01*
G01X3003389Y-3839022D01*
G01X2988498Y-3824131D01*
G01X2971247Y-3812052D01*
G01X2952161Y-3803152D01*
G01X2931819Y-3797702D01*
G01X2910840Y-3795866D01*
G01X2910840Y-3795866D01*
G01X2889861Y-3797702D01*
G01X2869519Y-3803152D01*
G01X2850433Y-3812052D01*
G01X2833182Y-3824131D01*
G01X2818291Y-3839022D01*
G01X2806212Y-3856273D01*
G01X2797312Y-3875359D01*
G01X2791862Y-3895701D01*
G01X2790026Y-3916680D01*
G01X2427453Y-3916680D01*
G01X2681453Y-3662680D01*
G01X2790026Y-3662680D01*
G01X2791862Y-3683659D01*
G01X2797312Y-3704001D01*
G01X2806212Y-3723087D01*
G01X2818291Y-3740338D01*
G01X2833182Y-3755229D01*
G01X2850433Y-3767308D01*
G01X2869519Y-3776208D01*
G01X2889861Y-3781658D01*
G01X2910840Y-3783494D01*
G01X2931819Y-3781658D01*
G01X2952161Y-3776208D01*
G01X2971247Y-3767308D01*
G01X2988498Y-3755229D01*
G01X3003389Y-3740338D01*
G01X3015468Y-3723087D01*
G01X3024368Y-3704001D01*
G01X3029818Y-3683659D01*
G01X3031654Y-3662680D01*
G01X3029818Y-3641701D01*
G01X3024368Y-3621359D01*
G01X3015468Y-3602273D01*
G01X3003389Y-3585022D01*
G01X2988498Y-3570131D01*
G01X2971247Y-3558052D01*
G01X2952161Y-3549152D01*
G01X2931819Y-3543702D01*
G01X2910840Y-3541866D01*
G01X2910840Y-3541866D01*
G01X2889861Y-3543702D01*
G01X2869519Y-3549152D01*
G01X2850433Y-3558052D01*
G01X2833182Y-3570131D01*
G01X2818291Y-3585022D01*
G01X2806212Y-3602273D01*
G01X2797312Y-3621359D01*
G01X2791862Y-3641701D01*
G01X2790026Y-3662680D01*
G01X2681453Y-3662680D01*
G01X2714005Y-3630128D01*
G01X2721714Y-3620080D01*
G01X2726561Y-3608380D01*
G01X2728214Y-3595823D01*
G01X2728214Y-3408680D01*
G01X2790026Y-3408680D01*
G01X2791862Y-3429659D01*
G01X2797312Y-3450001D01*
G01X2806212Y-3469087D01*
G01X2818291Y-3486338D01*
G01X2833182Y-3501229D01*
G01X2850433Y-3513308D01*
G01X2869519Y-3522208D01*
G01X2889861Y-3527658D01*
G01X2910840Y-3529494D01*
G01X2931819Y-3527658D01*
G01X2952161Y-3522208D01*
G01X2971247Y-3513308D01*
G01X2988498Y-3501229D01*
G01X3003389Y-3486338D01*
G01X3015468Y-3469087D01*
G01X3024368Y-3450001D01*
G01X3029818Y-3429659D01*
G01X3031654Y-3408680D01*
G01X3029818Y-3387701D01*
G01X3024368Y-3367359D01*
G01X3015468Y-3348273D01*
G01X3003389Y-3331022D01*
G01X2988498Y-3316131D01*
G01X2971247Y-3304052D01*
G01X2952161Y-3295152D01*
G01X2931819Y-3289702D01*
G01X2910840Y-3287866D01*
G01X2910840Y-3287866D01*
G01X2889861Y-3289702D01*
G01X2869519Y-3295152D01*
G01X2850433Y-3304052D01*
G01X2833182Y-3316131D01*
G01X2818291Y-3331022D01*
G01X2806212Y-3348273D01*
G01X2797312Y-3367359D01*
G01X2791862Y-3387701D01*
G01X2790026Y-3408680D01*
G01X2728214Y-3408680D01*
G01X2728214Y-3154680D01*
G01X2790026Y-3154680D01*
G01X2791862Y-3175659D01*
G01X2797312Y-3196001D01*
G01X2806212Y-3215087D01*
G01X2818291Y-3232338D01*
G01X2833182Y-3247229D01*
G01X2850433Y-3259308D01*
G01X2869519Y-3268208D01*
G01X2889861Y-3273658D01*
G01X2910840Y-3275494D01*
G01X2931819Y-3273658D01*
G01X2952161Y-3268208D01*
G01X2971247Y-3259308D01*
G01X2988498Y-3247229D01*
G01X3003389Y-3232338D01*
G01X3015468Y-3215087D01*
G01X3024368Y-3196001D01*
G01X3029818Y-3175659D01*
G01X3031654Y-3154680D01*
G01X3029818Y-3133701D01*
G01X3024368Y-3113359D01*
G01X3015468Y-3094273D01*
G01X3003389Y-3077022D01*
G01X2988498Y-3062131D01*
G01X2971247Y-3050052D01*
G01X2952161Y-3041152D01*
G01X2931819Y-3035702D01*
G01X2910840Y-3033866D01*
G01X2910840Y-3033866D01*
G01X2889861Y-3035702D01*
G01X2869519Y-3041152D01*
G01X2850433Y-3050052D01*
G01X2833182Y-3062131D01*
G01X2818291Y-3077022D01*
G01X2806212Y-3094273D01*
G01X2797312Y-3113359D01*
G01X2791862Y-3133701D01*
G01X2790026Y-3154680D01*
G01X2728214Y-3154680D01*
G01X2728214Y-2900680D01*
G01X2790026Y-2900680D01*
G01X2791862Y-2921659D01*
G01X2797312Y-2942001D01*
G01X2806212Y-2961087D01*
G01X2818291Y-2978338D01*
G01X2833182Y-2993229D01*
G01X2850433Y-3005308D01*
G01X2869519Y-3014208D01*
G01X2889861Y-3019658D01*
G01X2910840Y-3021494D01*
G01X2931819Y-3019658D01*
G01X2952161Y-3014208D01*
G01X2971247Y-3005308D01*
G01X2988498Y-2993229D01*
G01X3003389Y-2978338D01*
G01X3015468Y-2961087D01*
G01X3024368Y-2942001D01*
G01X3029818Y-2921659D01*
G01X3031654Y-2900680D01*
G01X3029818Y-2879701D01*
G01X3024368Y-2859359D01*
G01X3015468Y-2840273D01*
G01X3003389Y-2823022D01*
G01X2988498Y-2808131D01*
G01X2971247Y-2796052D01*
G01X2952161Y-2787152D01*
G01X2931819Y-2781702D01*
G01X2910840Y-2779866D01*
G01X2910840Y-2779866D01*
G01X2889861Y-2781702D01*
G01X2869519Y-2787152D01*
G01X2850433Y-2796052D01*
G01X2833182Y-2808131D01*
G01X2818291Y-2823022D01*
G01X2806212Y-2840273D01*
G01X2797312Y-2859359D01*
G01X2791862Y-2879701D01*
G01X2790026Y-2900680D01*
G01X2728214Y-2900680D01*
G01X2728214Y-2646680D01*
G01X2790026Y-2646680D01*
G01X2791862Y-2667659D01*
G01X2797312Y-2688001D01*
G01X2806212Y-2707087D01*
G01X2818291Y-2724338D01*
G01X2833182Y-2739229D01*
G01X2850433Y-2751308D01*
G01X2869519Y-2760208D01*
G01X2889861Y-2765658D01*
G01X2910840Y-2767494D01*
G01X2931819Y-2765658D01*
G01X2952161Y-2760208D01*
G01X2971247Y-2751308D01*
G01X2988498Y-2739229D01*
G01X3003389Y-2724338D01*
G01X3015468Y-2707087D01*
G01X3024368Y-2688001D01*
G01X3029818Y-2667659D01*
G01X3031654Y-2646680D01*
G01X3029818Y-2625701D01*
G01X3024368Y-2605359D01*
G01X3015468Y-2586273D01*
G01X3003389Y-2569022D01*
G01X2988498Y-2554131D01*
G01X2971247Y-2542052D01*
G01X2952161Y-2533152D01*
G01X2931819Y-2527702D01*
G01X2910840Y-2525866D01*
G01X2910840Y-2525866D01*
G01X2889861Y-2527702D01*
G01X2869519Y-2533152D01*
G01X2850433Y-2542052D01*
G01X2833182Y-2554131D01*
G01X2818291Y-2569022D01*
G01X2806212Y-2586273D01*
G01X2797312Y-2605359D01*
G01X2791862Y-2625701D01*
G01X2790026Y-2646680D01*
G01X2728214Y-2646680D01*
G01X2728214Y-2406878D01*
G01X2812274Y-2322818D01*
G01X2801622Y-2341032D01*
G01X2794302Y-2360822D01*
G01X2790537Y-2381583D01*
G01X2790441Y-2402682D01*
G01X2794017Y-2423477D01*
G01X2801157Y-2443332D01*
G01X2811642Y-2461642D01*
G01X2825153Y-2477849D01*
G01X2841278Y-2491458D01*
G01X2859524Y-2502054D01*
G01X2879335Y-2509314D01*
G01X2900108Y-2513016D01*
G01X2921208Y-2513048D01*
G01X2941991Y-2509409D01*
G01X2961825Y-2502209D01*
G01X2980103Y-2491668D01*
G01X2996269Y-2478108D01*
G01X3009828Y-2461942D01*
G01X3020369Y-2443664D01*
G01X3027569Y-2423830D01*
G01X3031208Y-2403047D01*
G01X3031176Y-2381947D01*
G01X3027474Y-2361175D01*
G01X3020214Y-2341363D01*
G01X3009617Y-2323117D01*
G01X2996008Y-2306993D01*
G01X2979802Y-2293482D01*
G01X2961491Y-2282997D01*
G01X2941636Y-2275857D01*
G01X2920842Y-2272281D01*
G01X2899742Y-2272377D01*
G01X2878981Y-2276143D01*
G01X2859192Y-2283463D01*
G01X2840978Y-2294114D01*
G01X2879684Y-2255407D01*
G01X2900071Y-2259013D01*
G01X2920774Y-2259085D01*
G01X2941185Y-2255621D01*
G01X2960705Y-2248723D01*
G01X2978760Y-2238594D01*
G01X2994822Y-2225531D01*
G01X3008417Y-2209917D01*
G01X3019147Y-2192212D01*
G01X3026696Y-2172934D01*
G01X3030843Y-2152651D01*
G01X3031467Y-2131957D01*
G01X3028548Y-2111461D01*
G01X3022172Y-2091764D01*
G01X3012528Y-2073445D01*
G01X2999897Y-2057042D01*
G01X2984651Y-2043035D01*
G01X2967238Y-2031838D01*
G01X2948168Y-2023777D01*
G01X2928003Y-2019091D01*
G01X2907333Y-2017917D01*
G01X2886766Y-2020289D01*
G01X2866907Y-2026137D01*
G01X2725449Y-1884680D01*
G01X2790026Y-1884680D01*
G01X2791862Y-1905659D01*
G01X2797312Y-1926001D01*
G01X2806212Y-1945087D01*
G01X2818291Y-1962338D01*
G01X2833182Y-1977229D01*
G01X2850433Y-1989308D01*
G01X2869519Y-1998208D01*
G01X2889861Y-2003658D01*
G01X2910840Y-2005494D01*
G01X2931819Y-2003658D01*
G01X2952161Y-1998208D01*
G01X2971247Y-1989308D01*
G01X2988498Y-1977229D01*
G01X3003389Y-1962338D01*
G01X3015468Y-1945087D01*
G01X3024368Y-1926001D01*
G01X3029818Y-1905659D01*
G01X3031654Y-1884680D01*
G01X3029818Y-1863701D01*
G01X3024368Y-1843359D01*
G01X3015468Y-1824273D01*
G01X3003389Y-1807022D01*
G01X2988498Y-1792131D01*
G01X2971247Y-1780052D01*
G01X2952161Y-1771152D01*
G01X2931819Y-1765702D01*
G01X2910840Y-1763866D01*
G01X2910840Y-1763866D01*
G01X2889861Y-1765702D01*
G01X2869519Y-1771152D01*
G01X2850433Y-1780052D01*
G01X2833182Y-1792131D01*
G01X2818291Y-1807022D01*
G01X2806212Y-1824273D01*
G01X2797312Y-1843359D01*
G01X2791862Y-1863701D01*
G01X2790026Y-1884680D01*
G01X2725449Y-1884680D01*
G01X2547539Y-1706769D01*
G01X2547539Y-1545680D01*
G01X2796286Y-1545680D01*
G01X2796286Y-1715680D01*
G01X2796286Y-1715680D01*
G01X2798039Y-1726747D01*
G01X2803126Y-1736731D01*
G01X2811049Y-1744654D01*
G01X2821033Y-1749741D01*
G01X2832100Y-1751494D01*
G01X2989580Y-1751494D01*
G01X3000647Y-1749741D01*
G01X3010631Y-1744654D01*
G01X3018554Y-1736731D01*
G01X3023641Y-1726747D01*
G01X3025394Y-1715680D01*
G01X3025394Y-1545680D01*
G01X3023641Y-1534613D01*
G01X3018554Y-1524629D01*
G01X3010631Y-1516706D01*
G01X3000647Y-1511619D01*
G01X2989580Y-1509866D01*
G01X2832100Y-1509866D01*
G01X2821033Y-1511619D01*
G01X2811049Y-1516706D01*
G01X2803126Y-1524629D01*
G01X2798039Y-1534613D01*
G01X2796286Y-1545680D01*
G01X2547539Y-1545680D01*
G01X2547539Y-504185D01*
G01X2545886Y-491628D01*
G01X2541039Y-479928D01*
G01X2533329Y-469880D01*
G01X2444449Y-381000D01*
G01X2790266Y-381000D01*
G01X2792118Y-403354D01*
G01X2797625Y-425099D01*
G01X2806635Y-445640D01*
G01X2818904Y-464419D01*
G01X2834096Y-480922D01*
G01X2851797Y-494699D01*
G01X2871524Y-505375D01*
G01X2892740Y-512658D01*
G01X2914865Y-516350D01*
G01X2937295Y-516350D01*
G01X2959420Y-512658D01*
G01X2980636Y-505375D01*
G01X3000363Y-494699D01*
G01X3018064Y-480922D01*
G01X3033256Y-464419D01*
G01X3045525Y-445640D01*
G01X3054535Y-425099D01*
G01X3060042Y-403354D01*
G01X3061894Y-381000D01*
G01X3060042Y-358646D01*
G01X3054535Y-336901D01*
G01X3045525Y-316360D01*
G01X3033256Y-297581D01*
G01X3018064Y-281078D01*
G01X3000363Y-267301D01*
G01X2980636Y-256625D01*
G01X2959420Y-249342D01*
G01X2937295Y-245650D01*
G01X2914865Y-245650D01*
G01X2892740Y-249342D01*
G01X2871524Y-256625D01*
G01X2851797Y-267301D01*
G01X2834096Y-281078D01*
G01X2818904Y-297581D01*
G01X2806635Y-316360D01*
G01X2797625Y-336901D01*
G01X2792118Y-358646D01*
G01X2790266Y-381000D01*
G01X2790266Y-381000D01*
G01X2444449Y-381000D01*
G01X2382155Y-318706D01*
G01X2402090Y-317939D01*
G01X2421565Y-313610D01*
G01X2439948Y-305859D01*
G01X2456643Y-294938D01*
G01X2471109Y-281201D01*
G01X2482878Y-265092D01*
G01X2491568Y-247134D01*
G01X2496897Y-227909D01*
G01X2498693Y-208040D01*
G01X2498693Y-178040D01*
G01X2496908Y-158229D01*
G01X2491610Y-139057D01*
G01X2482969Y-121140D01*
G01X2471265Y-105057D01*
G01X2456874Y-91325D01*
G01X2440260Y-80388D01*
G01X2421959Y-72597D01*
G01X2402559Y-68203D01*
G01X2382686Y-67348D01*
G01X2362981Y-70060D01*
G01X2344077Y-76251D01*
G01X2326586Y-85721D01*
G01X2311069Y-98166D01*
G01X2298027Y-113185D01*
G01X2287880Y-130293D01*
G01X2277223Y-112485D01*
G01X2263433Y-96976D01*
G01X2246993Y-84310D01*
G01X2228479Y-74931D01*
G01X2208542Y-69170D01*
G01X2187880Y-67226D01*
G01X2167218Y-69170D01*
G01X2147280Y-74931D01*
G01X2128767Y-84310D01*
G01X2112327Y-96976D01*
G01X2098536Y-112485D01*
G01X2087880Y-130293D01*
G01X2077224Y-112485D01*
G01X2063433Y-96976D01*
G01X2046993Y-84310D01*
G01X2028480Y-74931D01*
G01X2008542Y-69170D01*
G01X1987880Y-67226D01*
G01X1967218Y-69170D01*
G01X1947281Y-74931D01*
G01X1928767Y-84310D01*
G01X1912327Y-96976D01*
G01X1898537Y-112485D01*
G01X1887880Y-130293D01*
G01X1877733Y-113185D01*
G01X1864691Y-98166D01*
G01X1849174Y-85721D01*
G01X1831683Y-76251D01*
G01X1812779Y-70060D01*
G01X1793074Y-67348D01*
G01X1773201Y-68203D01*
G01X1753801Y-72597D01*
G01X1735500Y-80388D01*
G01X1718886Y-91325D01*
G01X1704495Y-105057D01*
G01X1692791Y-121140D01*
G01X1684150Y-139057D01*
G01X1678852Y-158229D01*
G01X1677067Y-178040D01*
G01X1677067Y-208040D01*
G01X1678921Y-228224D01*
G01X1684420Y-247733D01*
G01X1693381Y-265914D01*
G01X1705503Y-282159D01*
G01X1720382Y-295924D01*
G01X1737519Y-306748D01*
G01X1756340Y-314271D01*
G01X1776218Y-318238D01*
G01X1796485Y-318519D01*
G01X1791980Y-329857D01*
G01X1790446Y-341960D01*
G01X1790446Y-2885440D01*
G01X1792099Y-2897996D01*
G01X1796946Y-2909697D01*
G01X1804655Y-2919745D01*
G01X1988769Y-3103859D01*
G01X1988769Y-3103859D01*
G01X1981821Y-3125101D01*
G01X1978621Y-3147220D01*
G01X1979262Y-3169561D01*
G01X1983726Y-3191460D01*
G01X1991881Y-3212269D01*
G01X2003485Y-3231370D01*
G01X2018194Y-3248197D01*
G01X2035572Y-3262252D01*
G01X2055103Y-3273116D01*
G01X2076209Y-3280470D01*
G01X2098263Y-3284093D01*
G01X2120611Y-3283879D01*
G01X2142592Y-3279835D01*
G01X2163553Y-3272079D01*
G01X2182873Y-3260843D01*
G01X2199978Y-3246458D01*
G01X2214363Y-3229353D01*
G01X2225599Y-3210033D01*
G01X2233355Y-3189072D01*
G01X2237399Y-3167091D01*
G01X2237613Y-3144743D01*
G01X2233990Y-3122689D01*
G01X2226636Y-3101583D01*
G01X2215772Y-3082052D01*
G01X2201717Y-3064674D01*
G01X2184890Y-3049965D01*
G01X2165789Y-3038361D01*
G01X2144980Y-3030206D01*
G01X2123081Y-3025742D01*
G01X2100740Y-3025101D01*
G01X2078621Y-3028301D01*
G01X2057379Y-3035249D01*
G01X1887474Y-2865345D01*
G01X1887474Y-2698360D01*
G01X1924506Y-2698360D01*
G01X1926317Y-2720465D01*
G01X1931702Y-2741981D01*
G01X1940517Y-2762334D01*
G01X1952527Y-2780981D01*
G01X1967412Y-2797424D01*
G01X1984775Y-2811224D01*
G01X2004153Y-2822015D01*
G01X2025028Y-2829508D01*
G01X2046845Y-2833504D01*
G01X2069021Y-2833895D01*
G01X2090965Y-2830671D01*
G01X2112092Y-2823919D01*
G01X2131838Y-2813818D01*
G01X2149677Y-2800638D01*
G01X2165132Y-2784730D01*
G01X2177793Y-2766519D01*
G01X2187320Y-2746489D01*
G01X2196847Y-2766519D01*
G01X2209507Y-2784730D01*
G01X2224963Y-2800638D01*
G01X2242802Y-2813818D01*
G01X2262548Y-2823919D01*
G01X2283675Y-2830671D01*
G01X2305619Y-2833895D01*
G01X2327795Y-2833504D01*
G01X2349612Y-2829508D01*
G01X2370487Y-2822015D01*
G01X2389865Y-2811224D01*
G01X2407228Y-2797424D01*
G01X2422113Y-2780981D01*
G01X2434123Y-2762334D01*
G01X2442938Y-2741981D01*
G01X2448323Y-2720465D01*
G01X2450134Y-2698360D01*
G01X2450134Y-2698360D01*
G01X2448323Y-2676254D01*
G01X2442938Y-2654738D01*
G01X2434123Y-2634386D01*
G01X2422113Y-2615739D01*
G01X2407228Y-2599296D01*
G01X2389865Y-2585495D01*
G01X2370487Y-2574704D01*
G01X2349612Y-2567211D01*
G01X2327795Y-2563216D01*
G01X2305619Y-2562825D01*
G01X2283675Y-2566048D01*
G01X2262548Y-2572801D01*
G01X2242802Y-2582902D01*
G01X2224963Y-2596082D01*
G01X2209507Y-2611990D01*
G01X2196847Y-2630201D01*
G01X2187320Y-2650230D01*
G01X2177793Y-2630201D01*
G01X2165132Y-2611990D01*
G01X2149677Y-2596082D01*
G01X2131838Y-2582902D01*
G01X2112092Y-2572801D01*
G01X2090965Y-2566048D01*
G01X2069021Y-2562825D01*
G01X2046845Y-2563216D01*
G01X2025028Y-2567211D01*
G01X2004153Y-2574704D01*
G01X1984775Y-2585495D01*
G01X1967412Y-2599296D01*
G01X1952527Y-2615739D01*
G01X1940517Y-2634386D01*
G01X1931702Y-2654738D01*
G01X1926317Y-2676254D01*
G01X1924506Y-2698360D01*
G01X1887474Y-2698360D01*
G01X1887474Y-844360D01*
G01X1924506Y-844360D01*
G01X1926492Y-867503D01*
G01X1932393Y-889970D01*
G01X1942036Y-911102D01*
G01X1955140Y-930282D01*
G01X1971319Y-946948D01*
G01X1990102Y-960614D01*
G01X2010940Y-970879D01*
G01X2033221Y-977443D01*
G01X2056295Y-980114D01*
G01X2079487Y-978815D01*
G01X2102119Y-973582D01*
G01X2123527Y-964569D01*
G01X2143087Y-952040D01*
G01X2160226Y-936362D01*
G01X2174442Y-917992D01*
G01X2185320Y-897468D01*
G01X2196198Y-917992D01*
G01X2210414Y-936362D01*
G01X2227553Y-952040D01*
G01X2247113Y-964569D01*
G01X2268521Y-973582D01*
G01X2291153Y-978815D01*
G01X2314345Y-980114D01*
G01X2337419Y-977443D01*
G01X2359700Y-970879D01*
G01X2380538Y-960614D01*
G01X2399321Y-946948D01*
G01X2415500Y-930282D01*
G01X2428604Y-911102D01*
G01X2438247Y-889970D01*
G01X2444148Y-867503D01*
G01X2446134Y-844360D01*
G01X2446134Y-844360D01*
G01X2444148Y-821217D01*
G01X2438247Y-798750D01*
G01X2428604Y-777618D01*
G01X2415500Y-758438D01*
G01X2399321Y-741772D01*
G01X2380538Y-728106D01*
G01X2359700Y-717841D01*
G01X2337419Y-711277D01*
G01X2314345Y-708606D01*
G01X2291153Y-709905D01*
G01X2268521Y-715138D01*
G01X2247113Y-724151D01*
G01X2227553Y-736680D01*
G01X2210414Y-752358D01*
G01X2196198Y-770728D01*
G01X2185320Y-791252D01*
G01X2174442Y-770728D01*
G01X2160226Y-752358D01*
G01X2143087Y-736680D01*
G01X2123527Y-724151D01*
G01X2102119Y-715138D01*
G01X2079487Y-709905D01*
G01X2056295Y-708606D01*
G01X2033221Y-711277D01*
G01X2010940Y-717841D01*
G01X1990102Y-728106D01*
G01X1971319Y-741772D01*
G01X1955140Y-758438D01*
G01X1942036Y-777618D01*
G01X1932393Y-798750D01*
G01X1926492Y-821217D01*
G01X1924506Y-844360D01*
G01X1887474Y-844360D01*
G01X1887474Y-362055D01*
G01X1941055Y-308475D01*
G01X1959097Y-315050D01*
G01X1978004Y-318413D01*
G01X1997207Y-318461D01*
G01X2016130Y-315192D01*
G01X2034205Y-308706D01*
G01X2050889Y-299197D01*
G01X2065680Y-286950D01*
G01X2078135Y-272334D01*
G01X2087880Y-255787D01*
G01X2097625Y-272334D01*
G01X2110080Y-286950D01*
G01X2124871Y-299197D01*
G01X2141555Y-308706D01*
G01X2159630Y-315192D01*
G01X2178553Y-318461D01*
G01X2197756Y-318413D01*
G01X2216663Y-315050D01*
G01X2234705Y-308475D01*
G01X2450511Y-524280D01*
G01X2450511Y-1726865D01*
G01X2452164Y-1739421D01*
G01X2457010Y-1751122D01*
G01X2464720Y-1761169D01*
G01X2798297Y-2094747D01*
G01X2792485Y-2114432D01*
G01X2790088Y-2134817D01*
G01X2791177Y-2155313D01*
G01X2795719Y-2175330D01*
G01X2803585Y-2194288D01*
G01X2645395Y-2352479D01*
G01X2637686Y-2362527D01*
G01X2632839Y-2374227D01*
G01X2631186Y-2386783D01*
G01X2631186Y-3575728D01*
G01X2065101Y-4141813D01*
G01X2064277Y-4119061D01*
G01X2059489Y-4096804D01*
G01X2050887Y-4075725D01*
G01X2038733Y-4056474D01*
G01X2023403Y-4039642D01*
G01X2005368Y-4025748D01*
G01X1985182Y-4015219D01*
G01X1963467Y-4008379D01*
G01X1940891Y-4005439D01*
G01X1918149Y-4006488D01*
G01X1895939Y-4011495D01*
G01X1874947Y-4020306D01*
G01X1855817Y-4032649D01*
G01X1839137Y-4048145D01*
G01X1825422Y-4066317D01*
G01X1815094Y-4086606D01*
G01X1709196Y-4086606D01*
G01X1450390Y-3827801D01*
G01X1456614Y-3809501D01*
G01X1460050Y-3790479D01*
G01X1460623Y-3771158D01*
G01X1458321Y-3751966D01*
G01X1453194Y-3733329D01*
G01X1445356Y-3715660D01*
G01X1468297Y-3715861D01*
G01X1490916Y-3712020D01*
G01X1512505Y-3704256D01*
G01X1532389Y-3692813D01*
G01X1549949Y-3678047D01*
G01X1564634Y-3660420D01*
G01X1575986Y-3640483D01*
G01X1583650Y-3618859D01*
G01X1587387Y-3596223D01*
G01X1587252Y-3586063D01*
G01X1907653Y-3586063D01*
G01X1911390Y-3608699D01*
G01X1919054Y-3630323D01*
G01X1930406Y-3650260D01*
G01X1945091Y-3667887D01*
G01X1962651Y-3682653D01*
G01X1982535Y-3694096D01*
G01X2004124Y-3701860D01*
G01X2026743Y-3705701D01*
G01X2049684Y-3705500D01*
G01X2040881Y-3725973D01*
G01X2035710Y-3747649D01*
G01X2034323Y-3769890D01*
G01X2036760Y-3792041D01*
G01X2042951Y-3813449D01*
G01X2052713Y-3833481D01*
G01X2065757Y-3851549D01*
G01X2081700Y-3867119D01*
G01X2100072Y-3879733D01*
G01X2120330Y-3889018D01*
G01X2141878Y-3894700D01*
G01X2164080Y-3896613D01*
G01X2164080Y-3896613D01*
G01X2186282Y-3894700D01*
G01X2207830Y-3889018D01*
G01X2228088Y-3879733D01*
G01X2246460Y-3867119D01*
G01X2262403Y-3851549D01*
G01X2275447Y-3833481D01*
G01X2285209Y-3813449D01*
G01X2291400Y-3792041D01*
G01X2293837Y-3769890D01*
G01X2292450Y-3747649D01*
G01X2287279Y-3725973D01*
G01X2278476Y-3705500D01*
G01X2301417Y-3705701D01*
G01X2324036Y-3701860D01*
G01X2345625Y-3694096D01*
G01X2365509Y-3682653D01*
G01X2383069Y-3667887D01*
G01X2397754Y-3650260D01*
G01X2409106Y-3630323D01*
G01X2416770Y-3608699D01*
G01X2420507Y-3586063D01*
G01X2420201Y-3563122D01*
G01X2415860Y-3540594D01*
G01X2407620Y-3519182D01*
G01X2395740Y-3499556D01*
G01X2380589Y-3482328D01*
G01X2362641Y-3468036D01*
G01X2342458Y-3457128D01*
G01X2320669Y-3449944D01*
G01X2297956Y-3446708D01*
G01X2275028Y-3447523D01*
G01X2252602Y-3452361D01*
G01X2231378Y-3461072D01*
G01X2212019Y-3473384D01*
G01X2195130Y-3488913D01*
G01X2181239Y-3507172D01*
G01X2170780Y-3527592D01*
G01X2164080Y-3549534D01*
G01X2157380Y-3527592D01*
G01X2146921Y-3507172D01*
G01X2133030Y-3488913D01*
G01X2116141Y-3473384D01*
G01X2096782Y-3461072D01*
G01X2075558Y-3452361D01*
G01X2053132Y-3447523D01*
G01X2030204Y-3446708D01*
G01X2007491Y-3449944D01*
G01X1985702Y-3457128D01*
G01X1965519Y-3468036D01*
G01X1947571Y-3482328D01*
G01X1932420Y-3499556D01*
G01X1920540Y-3519182D01*
G01X1912300Y-3540594D01*
G01X1907959Y-3563122D01*
G01X1907653Y-3586063D01*
G01X1587252Y-3586063D01*
G01X1587081Y-3573282D01*
G01X1582740Y-3550754D01*
G01X1574500Y-3529342D01*
G01X1562620Y-3509716D01*
G01X1547469Y-3492488D01*
G01X1529521Y-3478196D01*
G01X1509338Y-3467288D01*
G01X1487549Y-3460104D01*
G01X1464836Y-3456868D01*
G01X1441908Y-3457683D01*
G01X1419482Y-3462521D01*
G01X1398258Y-3471232D01*
G01X1378899Y-3483544D01*
G01X1362010Y-3499073D01*
G01X1348119Y-3517332D01*
G01X1337660Y-3537752D01*
G01X1330960Y-3559694D01*
G01X1324260Y-3537752D01*
G01X1313801Y-3517332D01*
G01X1299910Y-3499073D01*
G01X1283021Y-3483544D01*
G01X1263662Y-3471232D01*
G01X1242438Y-3462521D01*
G01X1220012Y-3457683D01*
G01X1197084Y-3456868D01*
G01X1174371Y-3460104D01*
G01X1152582Y-3467288D01*
G01X1132399Y-3478196D01*
G01X1114451Y-3492488D01*
G01X1099300Y-3509716D01*
G01X1087420Y-3529342D01*
G01X1079180Y-3550754D01*
G01X1074839Y-3573282D01*
G01X1074533Y-3596223D01*
G01X1078270Y-3618859D01*
G01X1085934Y-3640483D01*
G01X1097286Y-3660420D01*
G01X1111971Y-3678047D01*
G01X1129531Y-3692813D01*
G01X1149415Y-3704256D01*
G01X1171004Y-3712020D01*
G01X1193623Y-3715861D01*
G01X1216564Y-3715660D01*
G01X1207592Y-3736648D01*
G01X1202434Y-3758883D01*
G01X1201251Y-3781677D01*
G01X1204080Y-3804326D01*
G01X1210832Y-3826129D01*
G01X1221299Y-3846413D01*
G01X1235158Y-3864549D01*
G01X1251979Y-3879977D01*
G01X1271243Y-3892220D01*
G01X1292354Y-3900899D01*
G01X1314658Y-3905746D01*
G01X1337467Y-3906610D01*
G01X1360074Y-3903466D01*
G01X1381781Y-3896410D01*
G01X1490917Y-4005546D01*
G01X1468570Y-4006171D01*
G01X1446660Y-4010623D01*
G01X1425840Y-4018767D01*
G01X1406726Y-4030364D01*
G01X1389886Y-4045069D01*
G01X1375820Y-4062446D01*
G01X1364944Y-4081978D01*
G01X1357581Y-4103088D01*
G01X1353950Y-4125148D01*
G01X1354158Y-4147503D01*
G01X1358200Y-4169492D01*
G01X1365955Y-4190460D01*
G01X1377193Y-4209787D01*
G01X1391582Y-4226898D01*
G01X1408693Y-4241287D01*
G01X1428020Y-4252525D01*
G01X1448988Y-4260280D01*
G01X1470977Y-4264322D01*
G01X1493332Y-4264530D01*
G01X1515392Y-4260899D01*
G01X1536502Y-4253536D01*
G01X1556034Y-4242660D01*
G01X1573411Y-4228594D01*
G01X1588116Y-4211754D01*
G01X1599713Y-4192640D01*
G01X1607857Y-4171820D01*
G01X1612309Y-4149910D01*
G01X1612934Y-4127563D01*
G01X1654796Y-4169425D01*
G01X1664843Y-4177134D01*
G01X1676544Y-4181981D01*
G01X1689100Y-4183634D01*
G01X1815094Y-4183634D01*
G01X1824021Y-4201628D01*
G01X1835617Y-4218029D01*
G01X1849606Y-4232445D01*
G01X1865651Y-4244529D01*
G01X1883368Y-4253993D01*
G01X1902334Y-4260610D01*
G01X1922093Y-4264222D01*
G01X1942173Y-4264741D01*
G01X1129390Y-5077524D01*
G01X1114892Y-5061474D01*
G01X1097930Y-5048054D01*
G01X1078974Y-5037637D01*
G01X1058552Y-5030513D01*
G01X1037231Y-5026879D01*
G01X1015602Y-5026836D01*
G01X994266Y-5030386D01*
G01X973816Y-5037429D01*
G01X954819Y-5047770D01*
G01X937804Y-5061123D01*
G01X923242Y-5077115D01*
G01X911538Y-5095304D01*
G01X903017Y-5115184D01*
G01X897916Y-5136203D01*
G01X896376Y-5157777D01*
G01X492775Y-5157777D01*
G01X489448Y-5145359D01*
G01X480548Y-5126273D01*
G01X468469Y-5109022D01*
G01X453578Y-5094131D01*
G01X436327Y-5082052D01*
G01X417241Y-5073152D01*
G01X396899Y-5067702D01*
G01X375920Y-5065866D01*
G01X375920Y-5065866D01*
G01X354941Y-5067702D01*
G01X334599Y-5073152D01*
G01X315513Y-5082052D01*
G01X298262Y-5094131D01*
G01X283371Y-5109022D01*
G01X271292Y-5126273D01*
G01X262392Y-5145359D01*
G01X256942Y-5165701D01*
G01X255106Y-5186680D01*
G01X61214Y-5186680D01*
G01X61214Y-4932680D01*
G01X255106Y-4932680D01*
G01X256942Y-4953659D01*
G01X262392Y-4974001D01*
G01X271292Y-4993087D01*
G01X283371Y-5010338D01*
G01X298262Y-5025229D01*
G01X315513Y-5037308D01*
G01X334599Y-5046208D01*
G01X354941Y-5051658D01*
G01X375920Y-5053494D01*
G01X396899Y-5051658D01*
G01X417241Y-5046208D01*
G01X436327Y-5037308D01*
G01X453578Y-5025229D01*
G01X468469Y-5010338D01*
G01X480548Y-4993087D01*
G01X489448Y-4974001D01*
G01X494898Y-4953659D01*
G01X496734Y-4932680D01*
G01X494898Y-4911701D01*
G01X489448Y-4891359D01*
G01X480548Y-4872273D01*
G01X468469Y-4855022D01*
G01X453578Y-4840131D01*
G01X436327Y-4828052D01*
G01X417241Y-4819152D01*
G01X396899Y-4813702D01*
G01X375920Y-4811866D01*
G01X375920Y-4811866D01*
G01X354941Y-4813702D01*
G01X334599Y-4819152D01*
G01X315513Y-4828052D01*
G01X298262Y-4840131D01*
G01X283371Y-4855022D01*
G01X271292Y-4872273D01*
G01X262392Y-4891359D01*
G01X256942Y-4911701D01*
G01X255106Y-4932680D01*
G01X61214Y-4932680D01*
G01X61214Y-4678680D01*
G01X255106Y-4678680D01*
G01X256942Y-4699659D01*
G01X262392Y-4720001D01*
G01X271292Y-4739087D01*
G01X283371Y-4756338D01*
G01X298262Y-4771229D01*
G01X315513Y-4783308D01*
G01X334599Y-4792208D01*
G01X354941Y-4797658D01*
G01X375920Y-4799494D01*
G01X396899Y-4797658D01*
G01X417241Y-4792208D01*
G01X436327Y-4783308D01*
G01X453578Y-4771229D01*
G01X468469Y-4756338D01*
G01X480548Y-4739087D01*
G01X489448Y-4720001D01*
G01X494898Y-4699659D01*
G01X496734Y-4678680D01*
G01X494898Y-4657701D01*
G01X489448Y-4637359D01*
G01X480548Y-4618273D01*
G01X468469Y-4601022D01*
G01X453578Y-4586131D01*
G01X436327Y-4574052D01*
G01X417241Y-4565152D01*
G01X396899Y-4559702D01*
G01X375920Y-4557866D01*
G01X375920Y-4557866D01*
G01X354941Y-4559702D01*
G01X334599Y-4565152D01*
G01X315513Y-4574052D01*
G01X298262Y-4586131D01*
G01X283371Y-4601022D01*
G01X271292Y-4618273D01*
G01X262392Y-4637359D01*
G01X256942Y-4657701D01*
G01X255106Y-4678680D01*
G01X61214Y-4678680D01*
G01X61214Y-4424680D01*
G01X255106Y-4424680D01*
G01X256942Y-4445659D01*
G01X262392Y-4466001D01*
G01X271292Y-4485087D01*
G01X283371Y-4502338D01*
G01X298262Y-4517229D01*
G01X315513Y-4529308D01*
G01X334599Y-4538208D01*
G01X354941Y-4543658D01*
G01X375920Y-4545494D01*
G01X396899Y-4543658D01*
G01X417241Y-4538208D01*
G01X436327Y-4529308D01*
G01X453578Y-4517229D01*
G01X468469Y-4502338D01*
G01X480548Y-4485087D01*
G01X489448Y-4466001D01*
G01X494898Y-4445659D01*
G01X496734Y-4424680D01*
G01X494898Y-4403701D01*
G01X489448Y-4383359D01*
G01X480548Y-4364273D01*
G01X468469Y-4347022D01*
G01X453578Y-4332131D01*
G01X436327Y-4320052D01*
G01X417241Y-4311152D01*
G01X396899Y-4305702D01*
G01X375920Y-4303866D01*
G01X375920Y-4303866D01*
G01X354941Y-4305702D01*
G01X334599Y-4311152D01*
G01X315513Y-4320052D01*
G01X298262Y-4332131D01*
G01X283371Y-4347022D01*
G01X271292Y-4364273D01*
G01X262392Y-4383359D01*
G01X256942Y-4403701D01*
G01X255106Y-4424680D01*
G01X61214Y-4424680D01*
G01X61214Y-4170680D01*
G01X255106Y-4170680D01*
G01X256942Y-4191659D01*
G01X262392Y-4212001D01*
G01X271292Y-4231087D01*
G01X283371Y-4248338D01*
G01X298262Y-4263229D01*
G01X315513Y-4275308D01*
G01X334599Y-4284208D01*
G01X354941Y-4289658D01*
G01X375920Y-4291494D01*
G01X396899Y-4289658D01*
G01X417241Y-4284208D01*
G01X436327Y-4275308D01*
G01X453578Y-4263229D01*
G01X468469Y-4248338D01*
G01X480548Y-4231087D01*
G01X489448Y-4212001D01*
G01X494898Y-4191659D01*
G01X496734Y-4170680D01*
G01X494898Y-4149701D01*
G01X492353Y-4140200D01*
G01X896366Y-4140200D01*
G01X898338Y-4162738D01*
G01X904194Y-4184592D01*
G01X913755Y-4205097D01*
G01X926732Y-4223630D01*
G01X942730Y-4239628D01*
G01X961263Y-4252605D01*
G01X981768Y-4262166D01*
G01X1003622Y-4268022D01*
G01X1026160Y-4269994D01*
G01X1048698Y-4268022D01*
G01X1070552Y-4262166D01*
G01X1091057Y-4252605D01*
G01X1109590Y-4239628D01*
G01X1125588Y-4223630D01*
G01X1138565Y-4205097D01*
G01X1148126Y-4184592D01*
G01X1153982Y-4162738D01*
G01X1155954Y-4140200D01*
G01X1153982Y-4117662D01*
G01X1148126Y-4095808D01*
G01X1138565Y-4075303D01*
G01X1125588Y-4056770D01*
G01X1109590Y-4040772D01*
G01X1091057Y-4027795D01*
G01X1070552Y-4018234D01*
G01X1048698Y-4012378D01*
G01X1026160Y-4010406D01*
G01X1026160Y-4010406D01*
G01X1003622Y-4012378D01*
G01X981768Y-4018234D01*
G01X961263Y-4027795D01*
G01X942730Y-4040772D01*
G01X926732Y-4056770D01*
G01X913755Y-4075303D01*
G01X904194Y-4095808D01*
G01X898338Y-4117662D01*
G01X896366Y-4140200D01*
G01X492353Y-4140200D01*
G01X489448Y-4129359D01*
G01X480548Y-4110273D01*
G01X468469Y-4093022D01*
G01X453578Y-4078131D01*
G01X436327Y-4066052D01*
G01X417241Y-4057152D01*
G01X396899Y-4051702D01*
G01X375920Y-4049866D01*
G01X375920Y-4049866D01*
G01X354941Y-4051702D01*
G01X334599Y-4057152D01*
G01X315513Y-4066052D01*
G01X298262Y-4078131D01*
G01X283371Y-4093022D01*
G01X271292Y-4110273D01*
G01X262392Y-4129359D01*
G01X256942Y-4149701D01*
G01X255106Y-4170680D01*
G01X61214Y-4170680D01*
G01X61214Y-3916680D01*
G01X255106Y-3916680D01*
G01X256942Y-3937659D01*
G01X262392Y-3958001D01*
G01X271292Y-3977087D01*
G01X283371Y-3994338D01*
G01X298262Y-4009229D01*
G01X315513Y-4021308D01*
G01X334599Y-4030208D01*
G01X354941Y-4035658D01*
G01X375920Y-4037494D01*
G01X396899Y-4035658D01*
G01X417241Y-4030208D01*
G01X436327Y-4021308D01*
G01X453578Y-4009229D01*
G01X468469Y-3994338D01*
G01X480548Y-3977087D01*
G01X489448Y-3958001D01*
G01X494898Y-3937659D01*
G01X496734Y-3916680D01*
G01X494898Y-3895701D01*
G01X489448Y-3875359D01*
G01X480548Y-3856273D01*
G01X468469Y-3839022D01*
G01X453578Y-3824131D01*
G01X436327Y-3812052D01*
G01X417241Y-3803152D01*
G01X396899Y-3797702D01*
G01X375920Y-3795866D01*
G01X375920Y-3795866D01*
G01X354941Y-3797702D01*
G01X334599Y-3803152D01*
G01X315513Y-3812052D01*
G01X298262Y-3824131D01*
G01X283371Y-3839022D01*
G01X271292Y-3856273D01*
G01X262392Y-3875359D01*
G01X256942Y-3895701D01*
G01X255106Y-3916680D01*
G01X61214Y-3916680D01*
G01X61214Y-3662680D01*
G01X255106Y-3662680D01*
G01X256942Y-3683659D01*
G01X262392Y-3704001D01*
G01X271292Y-3723087D01*
G01X283371Y-3740338D01*
G01X298262Y-3755229D01*
G01X315513Y-3767308D01*
G01X334599Y-3776208D01*
G01X354941Y-3781658D01*
G01X375920Y-3783494D01*
G01X396899Y-3781658D01*
G01X417241Y-3776208D01*
G01X436327Y-3767308D01*
G01X453578Y-3755229D01*
G01X468469Y-3740338D01*
G01X480548Y-3723087D01*
G01X489448Y-3704001D01*
G01X494898Y-3683659D01*
G01X496734Y-3662680D01*
G01X494898Y-3641701D01*
G01X489448Y-3621359D01*
G01X480548Y-3602273D01*
G01X468469Y-3585022D01*
G01X453578Y-3570131D01*
G01X436327Y-3558052D01*
G01X417241Y-3549152D01*
G01X396899Y-3543702D01*
G01X375920Y-3541866D01*
G01X375920Y-3541866D01*
G01X354941Y-3543702D01*
G01X334599Y-3549152D01*
G01X315513Y-3558052D01*
G01X298262Y-3570131D01*
G01X283371Y-3585022D01*
G01X271292Y-3602273D01*
G01X262392Y-3621359D01*
G01X256942Y-3641701D01*
G01X255106Y-3662680D01*
G01X61214Y-3662680D01*
G01X61214Y-3408680D01*
G01X255106Y-3408680D01*
G01X256942Y-3429659D01*
G01X262392Y-3450001D01*
G01X271292Y-3469087D01*
G01X283371Y-3486338D01*
G01X298262Y-3501229D01*
G01X315513Y-3513308D01*
G01X334599Y-3522208D01*
G01X354941Y-3527658D01*
G01X375920Y-3529494D01*
G01X396899Y-3527658D01*
G01X417241Y-3522208D01*
G01X436327Y-3513308D01*
G01X453578Y-3501229D01*
G01X468469Y-3486338D01*
G01X480548Y-3469087D01*
G01X489448Y-3450001D01*
G01X494898Y-3429659D01*
G01X496734Y-3408680D01*
G01X494898Y-3387701D01*
G01X489448Y-3367359D01*
G01X480548Y-3348273D01*
G01X468469Y-3331022D01*
G01X453578Y-3316131D01*
G01X436327Y-3304052D01*
G01X417241Y-3295152D01*
G01X396899Y-3289702D01*
G01X375920Y-3287866D01*
G01X375920Y-3287866D01*
G01X354941Y-3289702D01*
G01X334599Y-3295152D01*
G01X315513Y-3304052D01*
G01X298262Y-3316131D01*
G01X283371Y-3331022D01*
G01X271292Y-3348273D01*
G01X262392Y-3367359D01*
G01X256942Y-3387701D01*
G01X255106Y-3408680D01*
G01X61214Y-3408680D01*
G01X61214Y-3154680D01*
G01X255106Y-3154680D01*
G01X256942Y-3175659D01*
G01X262392Y-3196001D01*
G01X271292Y-3215087D01*
G01X283371Y-3232338D01*
G01X298262Y-3247229D01*
G01X315513Y-3259308D01*
G01X334599Y-3268208D01*
G01X354941Y-3273658D01*
G01X375920Y-3275494D01*
G01X396899Y-3273658D01*
G01X417241Y-3268208D01*
G01X436327Y-3259308D01*
G01X453578Y-3247229D01*
G01X468469Y-3232338D01*
G01X480548Y-3215087D01*
G01X489448Y-3196001D01*
G01X494898Y-3175659D01*
G01X496734Y-3154680D01*
G01X962406Y-3154680D01*
G01X964378Y-3177218D01*
G01X970234Y-3199072D01*
G01X979795Y-3219577D01*
G01X992772Y-3238110D01*
G01X1008770Y-3254108D01*
G01X1027303Y-3267085D01*
G01X1047808Y-3276646D01*
G01X1069662Y-3282502D01*
G01X1092200Y-3284474D01*
G01X1114738Y-3282502D01*
G01X1136592Y-3276646D01*
G01X1157097Y-3267085D01*
G01X1175630Y-3254108D01*
G01X1191628Y-3238110D01*
G01X1204605Y-3219577D01*
G01X1214166Y-3199072D01*
G01X1220022Y-3177218D01*
G01X1221994Y-3154680D01*
G01X1221994Y-3154680D01*
G01X1220022Y-3132142D01*
G01X1214166Y-3110288D01*
G01X1204605Y-3089783D01*
G01X1191628Y-3071250D01*
G01X1175630Y-3055252D01*
G01X1157097Y-3042275D01*
G01X1136592Y-3032714D01*
G01X1114738Y-3026858D01*
G01X1092200Y-3024886D01*
G01X1069662Y-3026858D01*
G01X1047808Y-3032714D01*
G01X1027303Y-3042275D01*
G01X1008770Y-3055252D01*
G01X992772Y-3071250D01*
G01X979795Y-3089783D01*
G01X970234Y-3110288D01*
G01X964378Y-3132142D01*
G01X962406Y-3154680D01*
G01X496734Y-3154680D01*
G01X496734Y-3154680D01*
G01X494898Y-3133701D01*
G01X489448Y-3113359D01*
G01X480548Y-3094273D01*
G01X468469Y-3077022D01*
G01X453578Y-3062131D01*
G01X436327Y-3050052D01*
G01X417241Y-3041152D01*
G01X396899Y-3035702D01*
G01X375920Y-3033866D01*
G01X375920Y-3033866D01*
G01X354941Y-3035702D01*
G01X334599Y-3041152D01*
G01X315513Y-3050052D01*
G01X298262Y-3062131D01*
G01X283371Y-3077022D01*
G01X271292Y-3094273D01*
G01X262392Y-3113359D01*
G01X256942Y-3133701D01*
G01X255106Y-3154680D01*
G01X61214Y-3154680D01*
G01X61214Y-2900680D01*
G01X255106Y-2900680D01*
G01X256942Y-2921659D01*
G01X262392Y-2942001D01*
G01X271292Y-2961087D01*
G01X283371Y-2978338D01*
G01X298262Y-2993229D01*
G01X315513Y-3005308D01*
G01X334599Y-3014208D01*
G01X354941Y-3019658D01*
G01X375920Y-3021494D01*
G01X396899Y-3019658D01*
G01X417241Y-3014208D01*
G01X436327Y-3005308D01*
G01X453578Y-2993229D01*
G01X468469Y-2978338D01*
G01X480548Y-2961087D01*
G01X489448Y-2942001D01*
G01X494898Y-2921659D01*
G01X496734Y-2900680D01*
G01X494898Y-2879701D01*
G01X489448Y-2859359D01*
G01X480548Y-2840273D01*
G01X468469Y-2823022D01*
G01X453578Y-2808131D01*
G01X436327Y-2796052D01*
G01X417241Y-2787152D01*
G01X396899Y-2781702D01*
G01X375920Y-2779866D01*
G01X375920Y-2779866D01*
G01X354941Y-2781702D01*
G01X334599Y-2787152D01*
G01X315513Y-2796052D01*
G01X298262Y-2808131D01*
G01X283371Y-2823022D01*
G01X271292Y-2840273D01*
G01X262392Y-2859359D01*
G01X256942Y-2879701D01*
G01X255106Y-2900680D01*
G01X61214Y-2900680D01*
G01X61214Y-2646680D01*
G01X255106Y-2646680D01*
G01X256942Y-2667659D01*
G01X262392Y-2688001D01*
G01X271292Y-2707087D01*
G01X283371Y-2724338D01*
G01X298262Y-2739229D01*
G01X315513Y-2751308D01*
G01X334599Y-2760208D01*
G01X354941Y-2765658D01*
G01X375920Y-2767494D01*
G01X396899Y-2765658D01*
G01X417241Y-2760208D01*
G01X436327Y-2751308D01*
G01X453578Y-2739229D01*
G01X468469Y-2724338D01*
G01X480548Y-2707087D01*
G01X489448Y-2688001D01*
G01X494898Y-2667659D01*
G01X496734Y-2646680D01*
G01X494898Y-2625701D01*
G01X489448Y-2605359D01*
G01X486518Y-2599077D01*
G01X849304Y-2599077D01*
G01X849304Y-2799077D01*
G01X851056Y-2810144D01*
G01X856143Y-2820128D01*
G01X864067Y-2828051D01*
G01X874050Y-2833138D01*
G01X885118Y-2834891D01*
G01X1085118Y-2834891D01*
G01X1094578Y-2833619D01*
G01X1103366Y-2829894D01*
G01X1110857Y-2823979D01*
G01X1116521Y-2816296D01*
G01X1122213Y-2823702D01*
G01X1129627Y-2829384D01*
G01X1138259Y-2832956D01*
G01X1147520Y-2834174D01*
G01X1347520Y-2834174D01*
G01X1358587Y-2832421D01*
G01X1368571Y-2827334D01*
G01X1376494Y-2819411D01*
G01X1381581Y-2809427D01*
G01X1383334Y-2798360D01*
G01X1383334Y-2598360D01*
G01X1381581Y-2587293D01*
G01X1376494Y-2577309D01*
G01X1368571Y-2569386D01*
G01X1358587Y-2564299D01*
G01X1347520Y-2562546D01*
G01X1147520Y-2562546D01*
G01X1138060Y-2563818D01*
G01X1129272Y-2567543D01*
G01X1121780Y-2573458D01*
G01X1116117Y-2581141D01*
G01X1110424Y-2573735D01*
G01X1103010Y-2568053D01*
G01X1094379Y-2564481D01*
G01X1085118Y-2563263D01*
G01X1085118Y-2563263D01*
G01X885118Y-2563263D01*
G01X874050Y-2565016D01*
G01X864067Y-2570103D01*
G01X856143Y-2578026D01*
G01X851056Y-2588010D01*
G01X849304Y-2599077D01*
G01X486518Y-2599077D01*
G01X480548Y-2586273D01*
G01X468469Y-2569022D01*
G01X453578Y-2554131D01*
G01X436327Y-2542052D01*
G01X417241Y-2533152D01*
G01X396899Y-2527702D01*
G01X375920Y-2525866D01*
G01X375920Y-2525866D01*
G01X354941Y-2527702D01*
G01X334599Y-2533152D01*
G01X315513Y-2542052D01*
G01X298262Y-2554131D01*
G01X283371Y-2569022D01*
G01X271292Y-2586273D01*
G01X262392Y-2605359D01*
G01X256942Y-2625701D01*
G01X255106Y-2646680D01*
G01X61214Y-2646680D01*
G01X61214Y-2392680D01*
G01X255106Y-2392680D01*
G01X256942Y-2413659D01*
G01X262392Y-2434001D01*
G01X271292Y-2453087D01*
G01X283371Y-2470338D01*
G01X298262Y-2485229D01*
G01X315513Y-2497308D01*
G01X334599Y-2506208D01*
G01X354941Y-2511658D01*
G01X375920Y-2513494D01*
G01X396899Y-2511658D01*
G01X417241Y-2506208D01*
G01X436327Y-2497308D01*
G01X453578Y-2485229D01*
G01X468469Y-2470338D01*
G01X480548Y-2453087D01*
G01X489448Y-2434001D01*
G01X494898Y-2413659D01*
G01X496734Y-2392680D01*
G01X494898Y-2371701D01*
G01X489448Y-2351359D01*
G01X480548Y-2332273D01*
G01X468469Y-2315022D01*
G01X453578Y-2300131D01*
G01X436327Y-2288052D01*
G01X417241Y-2279152D01*
G01X396899Y-2273702D01*
G01X375920Y-2271866D01*
G01X375920Y-2271866D01*
G01X354941Y-2273702D01*
G01X334599Y-2279152D01*
G01X315513Y-2288052D01*
G01X298262Y-2300131D01*
G01X283371Y-2315022D01*
G01X271292Y-2332273D01*
G01X262392Y-2351359D01*
G01X256942Y-2371701D01*
G01X255106Y-2392680D01*
G01X61214Y-2392680D01*
G01X61214Y-2138680D01*
G01X255106Y-2138680D01*
G01X256942Y-2159659D01*
G01X262392Y-2180001D01*
G01X271292Y-2199087D01*
G01X283371Y-2216338D01*
G01X298262Y-2231229D01*
G01X315513Y-2243308D01*
G01X334599Y-2252208D01*
G01X354941Y-2257658D01*
G01X375920Y-2259494D01*
G01X396899Y-2257658D01*
G01X417241Y-2252208D01*
G01X436327Y-2243308D01*
G01X453578Y-2231229D01*
G01X468469Y-2216338D01*
G01X480548Y-2199087D01*
G01X489448Y-2180001D01*
G01X494898Y-2159659D01*
G01X496734Y-2138680D01*
G01X494898Y-2117701D01*
G01X489448Y-2097359D01*
G01X480548Y-2078273D01*
G01X468469Y-2061022D01*
G01X453578Y-2046131D01*
G01X436327Y-2034052D01*
G01X417241Y-2025152D01*
G01X396899Y-2019702D01*
G01X375920Y-2017866D01*
G01X375920Y-2017866D01*
G01X354941Y-2019702D01*
G01X334599Y-2025152D01*
G01X315513Y-2034052D01*
G01X298262Y-2046131D01*
G01X283371Y-2061022D01*
G01X271292Y-2078273D01*
G01X262392Y-2097359D01*
G01X256942Y-2117701D01*
G01X255106Y-2138680D01*
G01X61214Y-2138680D01*
G01X61214Y-1884680D01*
G01X255106Y-1884680D01*
G01X256942Y-1905659D01*
G01X262392Y-1926001D01*
G01X271292Y-1945087D01*
G01X283371Y-1962338D01*
G01X298262Y-1977229D01*
G01X315513Y-1989308D01*
G01X334599Y-1998208D01*
G01X354941Y-2003658D01*
G01X375920Y-2005494D01*
G01X396899Y-2003658D01*
G01X417241Y-1998208D01*
G01X436327Y-1989308D01*
G01X453578Y-1977229D01*
G01X468469Y-1962338D01*
G01X480548Y-1945087D01*
G01X489448Y-1926001D01*
G01X494898Y-1905659D01*
G01X496734Y-1884680D01*
G01X494898Y-1863701D01*
G01X489448Y-1843359D01*
G01X480548Y-1824273D01*
G01X468469Y-1807022D01*
G01X453578Y-1792131D01*
G01X436327Y-1780052D01*
G01X417241Y-1771152D01*
G01X396899Y-1765702D01*
G01X375920Y-1763866D01*
G01X375920Y-1763866D01*
G01X354941Y-1765702D01*
G01X334599Y-1771152D01*
G01X315513Y-1780052D01*
G01X298262Y-1792131D01*
G01X283371Y-1807022D01*
G01X271292Y-1824273D01*
G01X262392Y-1843359D01*
G01X256942Y-1863701D01*
G01X255106Y-1884680D01*
G01X61214Y-1884680D01*
G01X61214Y-1715680D01*
G01X261366Y-1715680D01*
G01X263119Y-1726747D01*
G01X268206Y-1736731D01*
G01X276129Y-1744654D01*
G01X286113Y-1749741D01*
G01X297180Y-1751494D01*
G01X454660Y-1751494D01*
G01X465727Y-1749741D01*
G01X475711Y-1744654D01*
G01X483634Y-1736731D01*
G01X488721Y-1726747D01*
G01X490474Y-1715680D01*
G01X490474Y-1545680D01*
G01X488721Y-1534613D01*
G01X483634Y-1524629D01*
G01X475711Y-1516706D01*
G01X465727Y-1511619D01*
G01X454660Y-1509866D01*
G01X297180Y-1509866D01*
G01X286113Y-1511619D01*
G01X276129Y-1516706D01*
G01X268206Y-1524629D01*
G01X263119Y-1534613D01*
G01X261366Y-1545680D01*
G01X261366Y-1715680D01*
G01X261366Y-1715680D01*
G01X61214Y-1715680D01*
G01X61214Y-744360D01*
G01X857706Y-744360D01*
G01X857706Y-944360D01*
G01X859459Y-955427D01*
G01X864546Y-965411D01*
G01X872469Y-973334D01*
G01X882453Y-978421D01*
G01X893520Y-980174D01*
G01X1093520Y-980174D01*
G01X1103578Y-978733D01*
G01X1112826Y-974525D01*
G01X1120520Y-967890D01*
G01X1128214Y-974525D01*
G01X1137462Y-978733D01*
G01X1147520Y-980174D01*
G01X1347520Y-980174D01*
G01X1358587Y-978421D01*
G01X1368571Y-973334D01*
G01X1376494Y-965411D01*
G01X1381581Y-955427D01*
G01X1383334Y-944360D01*
G01X1383334Y-744360D01*
G01X1381581Y-733293D01*
G01X1376494Y-723309D01*
G01X1368571Y-715386D01*
G01X1358587Y-710299D01*
G01X1347520Y-708546D01*
G01X1147520Y-708546D01*
G01X1137462Y-709987D01*
G01X1128214Y-714195D01*
G01X1120520Y-720830D01*
G01X1112826Y-714195D01*
G01X1103578Y-709987D01*
G01X1093520Y-708546D01*
G01X1093520Y-708546D01*
G01X893520Y-708546D01*
G01X882453Y-710299D01*
G01X872469Y-715386D01*
G01X864546Y-723309D01*
G01X859459Y-733293D01*
G01X857706Y-744360D01*
G01X61214Y-744360D01*
G01X61214Y-381000D01*
G01X245186Y-381000D01*
G01X247038Y-403354D01*
G01X252545Y-425099D01*
G01X261555Y-445640D01*
G01X273824Y-464419D01*
G01X289016Y-480922D01*
G01X306717Y-494699D01*
G01X326444Y-505375D01*
G01X347660Y-512658D01*
G01X369785Y-516350D01*
G01X392215Y-516350D01*
G01X414340Y-512658D01*
G01X435556Y-505375D01*
G01X455283Y-494699D01*
G01X472984Y-480922D01*
G01X488176Y-464419D01*
G01X500445Y-445640D01*
G01X509455Y-425099D01*
G01X514962Y-403354D01*
G01X516814Y-381000D01*
G01X514962Y-358646D01*
G01X509455Y-336901D01*
G01X500445Y-316360D01*
G01X488176Y-297581D01*
G01X472984Y-281078D01*
G01X455283Y-267301D01*
G01X435556Y-256625D01*
G01X414340Y-249342D01*
G01X392215Y-245650D01*
G01X369785Y-245650D01*
G01X347660Y-249342D01*
G01X326444Y-256625D01*
G01X306717Y-267301D01*
G01X289016Y-281078D01*
G01X273824Y-297581D01*
G01X261555Y-316360D01*
G01X252545Y-336901D01*
G01X247038Y-358646D01*
G01X245186Y-381000D01*
G01X245186Y-381000D01*
G01X61214Y-381000D01*
G01X61214Y-40640D01*
G01X1323541Y-40640D01*
G37*
G54D10*
G01X1323541Y-40640D02*
G01X3241040Y-53631D01*
G01X3241040Y-5321300D01*
G01X61214Y-5321300D01*
G01X61214Y-40640D01*
G01X1323541Y-40640D01*
G01X245186Y-381000D02*
G03X516814Y-381000I135814J0D01*
G03X245186Y-381000I-135814J0D01*
G01X375920Y-4811866D02*
G03X375920Y-5053494I0J-120814D01*
G03X375920Y-4811866I0J120814D01*
G01X375920Y-5065866D02*
G03X375920Y-5307494I0J-120814D01*
G03X375920Y-5065866I0J120814D01*
G01X375920Y-4303866D02*
G03X375920Y-4545494I0J-120814D01*
G03X375920Y-4303866I0J120814D01*
G01X375920Y-4557866D02*
G03X375920Y-4799494I0J-120814D01*
G03X375920Y-4557866I0J120814D01*
G01X375920Y-3795866D02*
G03X375920Y-4037494I0J-120814D01*
G03X375920Y-3795866I0J120814D01*
G01X375920Y-4049866D02*
G03X375920Y-4291494I0J-120814D01*
G03X375920Y-4049866I0J120814D01*
G01X375920Y-3287866D02*
G03X375920Y-3529494I0J-120814D01*
G03X375920Y-3287866I0J120814D01*
G01X375920Y-3541866D02*
G03X375920Y-3783494I0J-120814D01*
G03X375920Y-3541866I0J120814D01*
G01X375920Y-3033866D02*
G03X375920Y-3275494I0J-120814D01*
G03X375920Y-3033866I0J120814D01*
G01X375920Y-2525866D02*
G03X375920Y-2767494I0J-120814D01*
G03X375920Y-2525866I0J120814D01*
G01X375920Y-2779866D02*
G03X375920Y-3021494I0J-120814D01*
G03X375920Y-2779866I0J120814D01*
G01X375920Y-2271866D02*
G03X375920Y-2513494I0J-120814D01*
G03X375920Y-2271866I0J120814D01*
G01X375920Y-1763866D02*
G03X375920Y-2005494I0J-120814D01*
G03X375920Y-1763866I0J120814D01*
G01X375920Y-2017866D02*
G03X375920Y-2259494I0J-120814D01*
G03X375920Y-2017866I0J120814D01*
G01X261366Y-1715680D02*
G03X297180Y-1751494I35814J0D01*
G01X454660Y-1751494D01*
G03X490474Y-1715680I0J35814D01*
G01X490474Y-1545680D01*
G03X454660Y-1509866I-35814J0D01*
G01X297180Y-1509866D01*
G03X261366Y-1545680I0J-35814D01*
G01X261366Y-1715680D01*
G01X1085118Y-2563263D02*
G01X885118Y-2563263D01*
G03X849304Y-2599077I0J-35814D01*
G01X849304Y-2799077D01*
G03X885118Y-2834891I35814J0D01*
G01X1085118Y-2834891D01*
G03X1116521Y-2816296I0J35814D01*
G03X1147520Y-2834174I30999J17936D01*
G01X1347520Y-2834174D01*
G03X1383334Y-2798360I0J35814D01*
G01X1383334Y-2598360D01*
G03X1347520Y-2562546I-35814J0D01*
G01X1147520Y-2562546D01*
G03X1116117Y-2581141I0J-35814D01*
G03X1085118Y-2563263I-30999J-17936D01*
G01X1093520Y-708546D02*
G01X893520Y-708546D01*
G03X857706Y-744360I0J-35814D01*
G01X857706Y-944360D01*
G03X893520Y-980174I35814J0D01*
G01X1093520Y-980174D01*
G03X1120520Y-967890I0J35814D01*
G03X1147520Y-980174I27000J23530D01*
G01X1347520Y-980174D01*
G03X1383334Y-944360I0J35814D01*
G01X1383334Y-744360D01*
G03X1347520Y-708546I-35814J0D01*
G01X1147520Y-708546D01*
G03X1120520Y-720830I0J-35814D01*
G03X1093520Y-708546I-27000J-23530D01*
G01X1988769Y-3103859D02*
G03X2199978Y-3246458I119431J-50821D01*
G03X2057379Y-3035249I-91778J91778D01*
G01X1887474Y-2865345D01*
G01X1887474Y-362055D01*
G01X1941055Y-308475D01*
G03X2087880Y-255787I46825J100435D01*
G03X2234705Y-308475I100000J47747D01*
G01X2450511Y-524280D01*
G01X2450511Y-1726865D01*
G03X2464720Y-1761169I48514J0D01*
G01X2798297Y-2094747D01*
G03X2803585Y-2194288I112543J-43933D01*
G01X2645395Y-2352479D01*
G03X2631186Y-2386783I34305J-34304D01*
G01X2631186Y-3575728D01*
G01X2065101Y-4141813D01*
G03X1963467Y-4008379I-129621J6693D01*
G03X1815094Y-4086606I-27987J-126741D01*
G01X1709196Y-4086606D01*
G01X1450390Y-3827801D01*
G03X1445356Y-3715660I-119430J50821D01*
G03X1562620Y-3509716I12604J129180D01*
G03X1330960Y-3559694I-104660J-76764D01*
G03X1099300Y-3509716I-127000J-26786D01*
G03X1216564Y-3715660I104660J-76764D01*
G03X1381781Y-3896410I114396J-61319D01*
G01X1490917Y-4005546D01*
G03X1391582Y-4226898I-7557J-129574D01*
G03X1612934Y-4127563I91778J91778D01*
G01X1654796Y-4169425D01*
G03X1689100Y-4183634I34305J34305D01*
G01X1815094Y-4183634D01*
G03X1942173Y-4264741I120386J48514D01*
G01X1129390Y-5077524D01*
G03X898439Y-5179307I-103230J-78676D01*
G03X1150413Y-5193720I127721J23107D01*
G01X2217203Y-4126929D01*
G03X2438738Y-4221818I129757J-3111D01*
G03X2343849Y-4000283I-91778J91778D01*
G01X2714005Y-3630128D01*
G03X2728214Y-3595823I-34305J34305D01*
G01X2728214Y-2406878D01*
G01X2812274Y-2322818D01*
G03X2996269Y-2478108I98566J-69862D01*
G03X2840978Y-2294114I-85429J85428D01*
G01X2879684Y-2255407D01*
G03X3031467Y-2131957I31156J116727D01*
G03X2866907Y-2026137I-120627J-6723D01*
G01X2547539Y-1706769D01*
G01X2547539Y-504185D01*
G03X2533329Y-469880I-48514J0D01*
G01X2382155Y-318706D01*
G03X2498693Y-208040I5725J110666D01*
G01X2498693Y-178040D01*
G03X2287880Y-130293I-110814J0D01*
G03X2087880Y-130293I-100000J-47747D01*
G03X1887880Y-130293I-100000J-47747D01*
G03X1677067Y-178040I-100000J-47747D01*
G01X1677067Y-208040D01*
G03X1796485Y-318519I110814J0D01*
G03X1790446Y-341960I42475J-23441D01*
G01X1790446Y-2885440D01*
G03X1804655Y-2919745I48514J0D01*
G01X1988769Y-3103859D01*
G01X1026160Y-4010406D02*
G03X1026160Y-4269994I0J-129794D01*
G03X1026160Y-4010406I0J129794D01*
G01X1221994Y-3154680D02*
G03X962406Y-3154680I-129794J0D01*
G03X1221994Y-3154680I129794J0D01*
G01X1483360Y-5021326D02*
G03X1483360Y-5280914I0J-129794D01*
G03X1483360Y-5021326I0J129794D01*
G01X1935480Y-5280914D02*
G03X1935480Y-5021326I0J129794D01*
G03X1935480Y-5280914I0J-129794D01*
G01X2164080Y-3896613D02*
G03X2278476Y-3705500I0J129794D01*
G03X2395740Y-3499556I12604J129180D01*
G03X2164080Y-3549534I-104660J-76764D01*
G03X1932420Y-3499556I-127000J-26786D01*
G03X2049684Y-3705500I104660J-76764D01*
G03X2164080Y-3896613I114396J-61319D01*
G01X2446134Y-844360D02*
G03X2185320Y-791252I-135814J0D01*
G03X1924506Y-844360I-125000J-53108D01*
G03X2185320Y-897468I135814J0D01*
G03X2446134Y-844360I125000J53108D01*
G01X2450134Y-2698360D02*
G03X2187320Y-2650230I-135814J0D01*
G03X1924506Y-2698360I-127000J-48130D01*
G03X2187320Y-2746489I135814J0D01*
G03X2450134Y-2698360I127000J48130D01*
G01X2346960Y-5275834D02*
G03X2346960Y-5016246I0J129794D01*
G03X2346960Y-5275834I0J-129794D01*
G01X2910840Y-4303866D02*
G03X2910840Y-4545494I0J-120814D01*
G03X2910840Y-4303866I0J120814D01*
G01X2910840Y-4557866D02*
G03X2910840Y-4799494I0J-120814D01*
G03X2910840Y-4557866I0J120814D01*
G01X2910840Y-4811866D02*
G03X2910840Y-5053494I0J-120814D01*
G03X2910840Y-4811866I0J120814D01*
G01X2910840Y-5065866D02*
G03X2910840Y-5307494I0J-120814D01*
G03X2910840Y-5065866I0J120814D01*
G01X2910840Y-3033866D02*
G03X2910840Y-3275494I0J-120814D01*
G03X2910840Y-3033866I0J120814D01*
G01X2910840Y-3287866D02*
G03X2910840Y-3529494I0J-120814D01*
G03X2910840Y-3287866I0J120814D01*
G01X2910840Y-3541866D02*
G03X2910840Y-3783494I0J-120814D01*
G03X2910840Y-3541866I0J120814D01*
G01X2910840Y-3795866D02*
G03X2910840Y-4037494I0J-120814D01*
G03X2910840Y-3795866I0J120814D01*
G01X2910840Y-4049866D02*
G03X2910840Y-4291494I0J-120814D01*
G03X2910840Y-4049866I0J120814D01*
G01X2910840Y-2525866D02*
G03X2910840Y-2767494I0J-120814D01*
G03X2910840Y-2525866I0J120814D01*
G01X2910840Y-2779866D02*
G03X2910840Y-3021494I0J-120814D01*
G03X2910840Y-2779866I0J120814D01*
G01X2910840Y-1763866D02*
G03X2910840Y-2005494I0J-120814D01*
G03X2910840Y-1763866I0J120814D01*
G01X2790266Y-381000D02*
G03X3061894Y-381000I135814J0D01*
G03X2790266Y-381000I-135814J0D01*
G01X2796286Y-1715680D02*
G03X2832100Y-1751494I35814J0D01*
G01X2989580Y-1751494D01*
G03X3025394Y-1715680I0J35814D01*
G01X3025394Y-1545680D01*
G03X2989580Y-1509866I-35814J0D01*
G01X2832100Y-1509866D01*
G03X2796286Y-1545680I0J-35814D01*
G01X2796286Y-1715680D01*
G54D11*
G01X1551686Y-3586480D02*
G01X1577594Y-3586480D01*
G01X1457960Y-3680206D02*
G01X1457960Y-3706114D01*
G01X1457960Y-3492754D02*
G01X1457960Y-3466846D01*
G01X1713135Y-193040D02*
G01X1687227Y-193040D01*
G01X1787881Y-282786D02*
G01X1787881Y-308694D01*
G01X1787881Y-103294D02*
G01X1787881Y-77386D01*
G01X2384806Y-3576320D02*
G01X2410714Y-3576320D01*
G01X2291080Y-3670046D02*
G01X2291080Y-3695954D01*
G01X2291080Y-3482594D02*
G01X2291080Y-3456686D01*
G01X2310320Y-744614D02*
G01X2310320Y-718706D01*
G01X2310320Y-944106D02*
G01X2310320Y-970014D01*
G01X2410066Y-844360D02*
G01X2435974Y-844360D01*
G01X2314320Y-2598614D02*
G01X2314320Y-2572706D01*
G01X2314320Y-2798106D02*
G01X2314320Y-2824014D01*
G01X2414066Y-2698360D02*
G01X2439974Y-2698360D01*
G01X2910840Y-1799934D02*
G01X2910840Y-1774026D01*
G01X2910840Y-1969426D02*
G01X2910840Y-1995334D01*
G01X2995586Y-1884680D02*
G01X3021494Y-1884680D01*
G01X2826094Y-1884680D02*
G01X2800186Y-1884680D01*
G04 Copper End*

G04 Pad Start*
G54D12*
G01X2346960Y-5146040D03*
G01X2346960Y-4130040D03*
G01X2108200Y-3154680D03*
G01X1092200Y-3154680D03*
G01X1026160Y-4140200D03*
G01X1026160Y-5156200D03*
G01X1483360Y-4135120D03*
G01X1483360Y-5151120D03*
G01X1935480Y-5151120D03*
G01X1935480Y-4135120D03*
G54D13*
G01X2310320Y-844360D03*
G01X2060320Y-844360D03*
G01X2060320Y-2698360D03*
G54D14*
G01X1247520Y-2698360D03*
G01X985118Y-2699077D03*
G54D13*
G01X2314320Y-2698360D03*
G54D14*
G01X1247520Y-844360D03*
G01X993520Y-844360D03*
G54D15*
G01X2387879Y-193040D03*
G01X2187880Y-193040D03*
G01X1987880Y-193040D03*
G01X1787881Y-193040D03*
G54D12*
G01X2037080Y-3576320D03*
G01X2164080Y-3766820D03*
G01X2291080Y-3576320D03*
G01X1203960Y-3586480D03*
G01X1330960Y-3776979D03*
G01X1457960Y-3586480D03*
G54D13*
G01X381000Y-381000D03*
G01X2926080Y-381000D03*
G01X381000Y-5588000D03*
G01X2921000Y-5588000D03*
G54D16*
G01X375920Y-5186680D03*
G01X375920Y-4932680D03*
G01X375920Y-4678680D03*
G01X375920Y-4424680D03*
G01X375920Y-4170680D03*
G01X375920Y-3916680D03*
G01X375920Y-3662680D03*
G01X375920Y-3408680D03*
G01X375920Y-3154680D03*
G01X375920Y-2900680D03*
G01X375920Y-2646680D03*
G01X375920Y-2392680D03*
G01X375920Y-2138680D03*
G01X375920Y-1884680D03*
G54D18*
G01X375920Y-1630680D03*
G54D16*
G01X2910840Y-5186680D03*
G01X2910840Y-4932680D03*
G01X2910840Y-4678680D03*
G01X2910840Y-4424680D03*
G01X2910840Y-4170680D03*
G01X2910840Y-3916680D03*
G01X2910840Y-3662680D03*
G01X2910840Y-3408680D03*
G01X2910840Y-3154680D03*
G01X2910840Y-2900680D03*
G01X2910840Y-2646680D03*
G01X2910840Y-2392680D03*
G01X2910840Y-2138680D03*
G01X2910840Y-1884680D03*
G54D18*
G01X2910840Y-1630680D03*
G04 Pad End*

G04 Track Start*
G54D11*
G01X1935480Y-4135120D02*
G01X1689100Y-4135120D01*
G01X1330960Y-3776980D01*
G01X2910840Y-2138680D02*
G01X2499025Y-1726865D01*
G01X2499025Y-504185D01*
G01X2187880Y-193040D01*
G01X2108200Y-3154680D02*
G01X1838960Y-2885440D01*
G01X1838960Y-341960D01*
G01X1987880Y-193040D01*
G01X998220Y-5184140D02*
G01X998220Y-5204460D01*
G01X1016681Y-5222921D01*
G01X1052602Y-5222921D01*
G01X2679700Y-3595823D01*
G01X2679700Y-2386783D01*
G01X2882900Y-2183582D01*
G01X2882900Y-2166620D01*
G01X1026160Y-5156200D02*
G01X998220Y-5184140D01*
G01X2882900Y-2166620D02*
G01X2910840Y-2138680D01*
G04 Track End*

M02*

