G04 Layer: DrillDrawingLayer*
G04 EasyEDA Pro v2.2.40.8, 2025-10-14 13:53:51*
G04 Gerber Generator version 0.3*
G04 Scale: 100 percent, Rotated: No, Reflected: No*
G04 Dimensions in millimeters*
G04 Leading zeros omitted, absolute positions, 4 integers and 5 decimals*
G04 Generated by one-click*
%FSLAX45Y45*%
%MOMM*%
%AMIconRect*4,1,4,0.2,-0.2,-0.2,-0.2,-0.2,0.2,0.2,0.2,0.2,-0.2,0*4,0,4,0.166667,-0.166667,0.166667,0.166667,-0.166667,0.166667,-0.166667,-0.166667,0.166667,-0.166667,0*%
%AMIconTriangle*4,1,3,-0.242567,0.171767,0.242567,0.171767,0,-0.2706,-0.242567,0.171767,0*4,0,3,-0.189767,0.1386,0,-0.1953,0.190167,0.1386,-0.189767,0.1386,0*%
%AMIconStar6*4,1,12,0.0862,0.1492,0.213233,0.123367,0.172367,0,0.213233,-0.1229,0.0862,-0.148733,0,-0.245767,-0.085767,-0.148733,-0.213267,-0.1229,-0.171933,0,-0.213267,0.1229,-0.085767,0.1492,0,0.245767,0.0862,0.1492,0*4,0,12,-0.000333,0.195333,-0.064333,0.122667,-0.169667,0.097667,-0.138333,-0.005333,-0.169667,-0.098,-0.064333,-0.122667,-0.000333,-0.195667,0.064333,-0.122667,0.169667,-0.098,0.138667,0.005,0.169667,0.098,0.064333,0.122333,-0.000333,0.195333,0*%
%AMIconStar4*4,1,8,-0.222667,0.222667,0,0.144667,0.222667,0.222667,0.144667,0,0.222667,-0.222667,0,-0.144667,-0.217433,-0.222667,-0.144667,0,-0.222667,0.222667,0*4,0,8,0.166667,-0.166667,0.108,0,0.166667,0.166667,0,0.108,-0.166667,0.166667,-0.108,0,-0.166667,-0.166667,0,-0.108,0.166667,-0.166667,0*%
%ADD10IconRect*%
%ADD11C,0.44X0.373333*%
%ADD12IconTriangle*%
%ADD13IconStar6*%
%ADD14IconStar4*%
G75*


G04 Drill Drawing Start*
G54D10*
G01X381000Y-5588000D03*
G01X381000Y-381000D03*
G01X2921000Y-5588000D03*
G01X2926080Y-381000D03*
G54D11*
G01X1203960Y-3586480D03*
G01X1330960Y-3776980D03*
G01X1457960Y-3586480D03*
G01X2037080Y-3576320D03*
G01X2164080Y-3766820D03*
G01X2291080Y-3576320D03*
G54D12*
G01X1026160Y-5156200D03*
G01X1026160Y-4140200D03*
G01X1092200Y-3154680D03*
G01X1483360Y-5151120D03*
G01X1483360Y-4135120D03*
G01X1935480Y-5151120D03*
G01X1935480Y-4135120D03*
G01X2108200Y-3154680D03*
G01X2346960Y-5146040D03*
G01X2346960Y-4130040D03*
G54D13*
G01X985118Y-2699077D03*
G01X993520Y-844360D03*
G01X1247520Y-844360D03*
G01X1247520Y-2698360D03*
G01X1787881Y-193040D03*
G01X1987880Y-193040D03*
G01X2060320Y-844360D03*
G01X2060320Y-2698360D03*
G01X2187880Y-193040D03*
G01X2310320Y-844360D03*
G01X2314320Y-2698360D03*
G01X2387879Y-193040D03*
G54D14*
G01X375920Y-2138680D03*
G01X375920Y-1884680D03*
G01X375920Y-2900680D03*
G01X375920Y-2646680D03*
G01X375920Y-1630680D03*
G01X375920Y-3662680D03*
G01X375920Y-3408680D03*
G01X375920Y-2392680D03*
G01X375920Y-4424680D03*
G01X375920Y-4170680D03*
G01X375920Y-3154680D03*
G01X375920Y-5186680D03*
G01X375920Y-4932680D03*
G01X375920Y-3916680D03*
G01X375920Y-4678680D03*
G01X2910840Y-5186680D03*
G01X2910840Y-4932680D03*
G01X2910840Y-4678680D03*
G01X2910840Y-4424680D03*
G01X2910840Y-4170680D03*
G01X2910840Y-3916680D03*
G01X2910840Y-3662680D03*
G01X2910840Y-3408680D03*
G01X2910840Y-3154680D03*
G01X2910840Y-2900680D03*
G01X2910840Y-2646680D03*
G01X2910840Y-2392680D03*
G01X2910840Y-2138680D03*
G01X2910840Y-1884680D03*
G01X2910840Y-1630680D03*
G04 Drill Drawing End*

M02*

