G04 Layer: BottomSolderMaskLayer*
G04 EasyEDA Pro v2.2.40.8, 2025-10-14 13:53:51*
G04 Gerber Generator version 0.3*
G04 Scale: 100 percent, Rotated: No, Reflected: No*
G04 Dimensions in millimeters*
G04 Leading zeros omitted, absolute positions, 4 integers and 5 decimals*
G04 Generated by one-click*
%FSLAX45Y45*%
%MOMM*%
%AMRoundRect*1,1,$1,$2,$3*1,1,$1,$4,$5*1,1,$1,0-$2,0-$3*1,1,$1,0-$4,0-$5*20,1,$1,$2,$3,$4,$5,0*20,1,$1,$4,$5,0-$2,0-$3,0*20,1,$1,0-$2,0-$3,0-$4,0-$5,0*20,1,$1,0-$4,0-$5,$2,$3,0*4,1,4,$2,$3,$4,$5,0-$2,0-$3,0-$4,0-$5,$2,$3,0*%
%ADD10C,1.9812*%
%ADD11C,2.1*%
%ADD12RoundRect,0.09545X-1.00227X-1.00227X-1.00227X1.00227*%
%ADD13O,1.6016X1.9016*%
%ADD14C,1.8796*%
%ADD15C,2.1016*%
%ADD16C,1.8098*%
%ADD17C,1.8016*%
%ADD18RoundRect,0.09579X-0.7903X-0.8529X-0.7903X0.8529*%
G75*


G04 Pad Start*
G54D10*
G01X2346960Y-5146040D03*
G01X2346960Y-4130040D03*
G01X2108200Y-3154680D03*
G01X1092200Y-3154680D03*
G01X1026160Y-4140200D03*
G01X1026160Y-5156200D03*
G01X1483360Y-4135120D03*
G01X1483360Y-5151120D03*
G01X1935480Y-5151120D03*
G01X1935480Y-4135120D03*
G54D11*
G01X2310320Y-844360D03*
G01X2060320Y-844360D03*
G01X2060320Y-2698360D03*
G54D12*
G01X1247520Y-2698360D03*
G01X985118Y-2699077D03*
G54D11*
G01X2314320Y-2698360D03*
G54D12*
G01X1247520Y-844360D03*
G01X993520Y-844360D03*
G54D13*
G01X2387879Y-193040D03*
G01X2187880Y-193040D03*
G01X1987880Y-193040D03*
G01X1787881Y-193040D03*
G54D14*
G01X2037080Y-3576320D03*
G01X2164080Y-3766820D03*
G01X2291080Y-3576320D03*
G01X1203960Y-3586480D03*
G01X1330960Y-3776979D03*
G01X1457960Y-3586480D03*
G54D15*
G01X381000Y-381000D03*
G01X2926080Y-381000D03*
G01X381000Y-5588000D03*
G01X2921000Y-5588000D03*
G54D17*
G01X375920Y-5186680D03*
G01X375920Y-4932680D03*
G01X375920Y-4678680D03*
G01X375920Y-4424680D03*
G01X375920Y-4170680D03*
G01X375920Y-3916680D03*
G01X375920Y-3662680D03*
G01X375920Y-3408680D03*
G01X375920Y-3154680D03*
G01X375920Y-2900680D03*
G01X375920Y-2646680D03*
G01X375920Y-2392680D03*
G01X375920Y-2138680D03*
G01X375920Y-1884680D03*
G54D18*
G01X375920Y-1630680D03*
G54D17*
G01X2910840Y-5186680D03*
G01X2910840Y-4932680D03*
G01X2910840Y-4678680D03*
G01X2910840Y-4424680D03*
G01X2910840Y-4170680D03*
G01X2910840Y-3916680D03*
G01X2910840Y-3662680D03*
G01X2910840Y-3408680D03*
G01X2910840Y-3154680D03*
G01X2910840Y-2900680D03*
G01X2910840Y-2646680D03*
G01X2910840Y-2392680D03*
G01X2910840Y-2138680D03*
G01X2910840Y-1884680D03*
G54D18*
G01X2910840Y-1630680D03*
G04 Pad End*

M02*

