G04 Layer: TopSilkscreenLayer*
G04 EasyEDA Pro v2.2.40.8, 2025-10-14 13:53:51*
G04 Gerber Generator version 0.3*
G04 Scale: 100 percent, Rotated: No, Reflected: No*
G04 Dimensions in millimeters*
G04 Leading zeros omitted, absolute positions, 4 integers and 5 decimals*
G04 Generated by one-click*
%FSLAX45Y45*%
%MOMM*%
%ADD10C,0.1524*%
%ADD11C,0.254*%
%ADD12C,0.2032*%
%ADD13C,0.203*%
%ADD14C,0.4468*%
G75*


G04 Text Start*
G54D10*
G01X1765300Y-682498D02*
G01X1758950Y-685546D01*
G01X1752854Y-691896D01*
G01X1749806Y-697992D01*
G01X1749806Y-710438D01*
G01X1752854Y-716534D01*
G01X1758950Y-722884D01*
G01X1765300Y-725932D01*
G01X1774444Y-728980D01*
G01X1789938Y-728980D01*
G01X1799336Y-725932D01*
G01X1805432Y-722884D01*
G01X1811782Y-716534D01*
G01X1814830Y-710438D01*
G01X1814830Y-697992D01*
G01X1811782Y-691896D01*
G01X1805432Y-685546D01*
G01X1799336Y-682498D01*
G01X1789938Y-682498D01*
G01X1789938Y-697992D02*
G01X1789938Y-682498D01*
G01X1749806Y-652272D02*
G01X1814830Y-652272D01*
G01X1749806Y-652272D02*
G01X1814830Y-609092D01*
G01X1749806Y-609092D02*
G01X1814830Y-609092D01*
G01X1749806Y-578866D02*
G01X1814830Y-578866D01*
G01X1749806Y-578866D02*
G01X1749806Y-557276D01*
G01X1752854Y-548132D01*
G01X1758950Y-541782D01*
G01X1765300Y-538734D01*
G01X1774444Y-535686D01*
G01X1789938Y-535686D01*
G01X1799336Y-538734D01*
G01X1805432Y-541782D01*
G01X1811782Y-548132D01*
G01X1814830Y-557276D01*
G01X1814830Y-578866D01*
G01X1963166Y-744220D02*
G01X2028190Y-744220D01*
G01X1963166Y-744220D02*
G01X1963166Y-716280D01*
G01X1966214Y-707136D01*
G01X1969262Y-704088D01*
G01X1975612Y-700786D01*
G01X1984756Y-700786D01*
G01X1990852Y-704088D01*
G01X1994154Y-707136D01*
G01X1997202Y-716280D01*
G01X1997202Y-744220D01*
G01X1963166Y-670560D02*
G01X2028190Y-655320D01*
G01X1963166Y-639826D02*
G01X2028190Y-655320D01*
G01X1963166Y-639826D02*
G01X2028190Y-624332D01*
G01X1963166Y-608838D02*
G01X2028190Y-624332D01*
G01X1963166Y-578612D02*
G01X2028190Y-578612D01*
G01X1963166Y-578612D02*
G01X2028190Y-553974D01*
G01X1963166Y-529082D02*
G01X2028190Y-553974D01*
G01X1963166Y-529082D02*
G01X2028190Y-529082D01*
G01X2166366Y-728980D02*
G01X2231390Y-728980D01*
G01X2166366Y-728980D02*
G01X2166366Y-701040D01*
G01X2169414Y-691896D01*
G01X2172462Y-688848D01*
G01X2178812Y-685546D01*
G01X2184908Y-685546D01*
G01X2191004Y-688848D01*
G01X2194052Y-691896D01*
G01X2197354Y-701040D01*
G01X2197354Y-728980D01*
G01X2197354Y-707390D02*
G01X2231390Y-685546D01*
G01X2166366Y-655320D02*
G01X2231390Y-655320D01*
G01X2166366Y-655320D02*
G01X2166366Y-627634D01*
G01X2169414Y-618236D01*
G01X2172462Y-615188D01*
G01X2178812Y-612140D01*
G01X2187956Y-612140D01*
G01X2194052Y-615188D01*
G01X2197354Y-618236D01*
G01X2200402Y-627634D01*
G01X2200402Y-655320D01*
G01X2166366Y-581914D02*
G01X2231390Y-581914D01*
G01X2166366Y-581914D02*
G01X2231390Y-557276D01*
G01X2166366Y-532384D02*
G01X2231390Y-557276D01*
G01X2166366Y-532384D02*
G01X2231390Y-532384D01*
G01X2387092Y-698500D02*
G01X2383790Y-692404D01*
G01X2374646Y-683006D01*
G01X2439670Y-683006D01*
G01X2374646Y-634238D02*
G01X2377694Y-643636D01*
G01X2387092Y-649732D01*
G01X2402332Y-652780D01*
G01X2411730Y-652780D01*
G01X2427224Y-649732D01*
G01X2436622Y-643636D01*
G01X2439670Y-634238D01*
G01X2439670Y-628142D01*
G01X2436622Y-618744D01*
G01X2427224Y-612648D01*
G01X2411730Y-609600D01*
G01X2402332Y-609600D01*
G01X2387092Y-612648D01*
G01X2377694Y-618744D01*
G01X2374646Y-628142D01*
G01X2374646Y-634238D01*
G01X2396236Y-579374D02*
G01X2439670Y-560832D01*
G01X2396236Y-542290D02*
G01X2439670Y-560832D01*
G36*
G01X622332Y-795404D02*
G01X622332Y-734616D01*
G01X630574Y-734616D01*
G01X636885Y-734809D01*
G01X639332Y-735389D01*
G01X640620Y-737192D01*
G01X657620Y-762692D01*
G01X661226Y-767844D01*
G01X699862Y-825798D01*
G01X700892Y-827601D01*
G01X701923Y-828631D01*
G01X702502Y-817040D01*
G01X702695Y-781753D01*
G01X702695Y-734616D01*
G01X718150Y-734616D01*
G01X718150Y-856192D01*
G01X710938Y-856192D01*
G01X702438Y-855934D01*
G01X701279Y-855419D01*
G01X700377Y-854389D01*
G01X671014Y-810343D01*
G01X668438Y-806737D01*
G01X640620Y-765010D01*
G01X639590Y-763207D01*
G01X638559Y-762177D01*
G01X637980Y-773768D01*
G01X637786Y-809056D01*
G01X637786Y-856192D01*
G01X622332Y-856192D01*
G01X622332Y-795404D01*
G37*
G36*
G01X227211Y-1048343D02*
G01X220256Y-1048086D01*
G01X214075Y-1047055D01*
G01X212271Y-1046798D01*
G01X209438Y-1046283D01*
G01X205832Y-1045252D01*
G01X202999Y-1044222D01*
G01X200681Y-1043192D01*
G01X198620Y-1042161D01*
G01X196817Y-1041131D01*
G01X195271Y-1040101D01*
G01X193468Y-1038813D01*
G01X191665Y-1037267D01*
G01X188574Y-1034176D01*
G01X187029Y-1032116D01*
G01X184453Y-1027995D01*
G01X182908Y-1024389D01*
G01X182135Y-1022071D01*
G01X181362Y-1019495D01*
G01X180590Y-1016661D01*
G01X180075Y-1014086D01*
G01X179559Y-1010480D01*
G01X179044Y-1005328D01*
G01X178787Y-964631D01*
G01X178787Y-924707D01*
G01X194756Y-924707D01*
G01X194756Y-963086D01*
G01X195014Y-1002237D01*
G01X195529Y-1007904D01*
G01X196044Y-1011510D01*
G01X196559Y-1014086D01*
G01X197332Y-1016919D01*
G01X198362Y-1019237D01*
G01X199650Y-1021813D01*
G01X200938Y-1023616D01*
G01X202483Y-1025419D01*
G01X204802Y-1027737D01*
G01X207378Y-1029540D01*
G01X209696Y-1030828D01*
G01X213817Y-1032374D01*
G01X216650Y-1033146D01*
G01X219226Y-1033661D01*
G01X224893Y-1033919D01*
G01X230559Y-1033661D01*
G01X232362Y-1033404D01*
G01X234681Y-1033146D01*
G01X237256Y-1032631D01*
G01X240090Y-1031858D01*
G01X243181Y-1030828D01*
G01X245499Y-1029798D01*
G01X247044Y-1028768D01*
G01X248332Y-1027737D01*
G01X250135Y-1026192D01*
G01X251938Y-1024389D01*
G01X253226Y-1022328D01*
G01X254514Y-1020010D01*
G01X256059Y-1015374D01*
G01X256832Y-1012540D01*
G01X257347Y-1009964D01*
G01X257862Y-1005843D01*
G01X258120Y-964889D01*
G01X258120Y-924707D01*
G01X274605Y-924707D01*
G01X274605Y-960252D01*
G01X274347Y-996571D01*
G01X273832Y-1006358D01*
G01X273575Y-1008162D01*
G01X273317Y-1010480D01*
G01X272802Y-1013570D01*
G01X271771Y-1018722D01*
G01X270999Y-1021555D01*
G01X270226Y-1023616D01*
G01X269453Y-1025419D01*
G01X268423Y-1027480D01*
G01X267135Y-1029798D01*
G01X265847Y-1031858D01*
G01X263272Y-1034949D01*
G01X261983Y-1036237D01*
G01X260696Y-1037267D01*
G01X258893Y-1039071D01*
G01X256317Y-1040873D01*
G01X253999Y-1042419D01*
G01X251680Y-1043707D01*
G01X249105Y-1044737D01*
G01X246272Y-1045768D01*
G01X243953Y-1046540D01*
G01X238287Y-1047570D01*
G01X234165Y-1048086D01*
G01X227211Y-1048343D01*
G37*
G36*
G01X346984Y-1048343D02*
G01X340287Y-1048086D01*
G01X338741Y-1047828D01*
G01X336681Y-1047570D01*
G01X334877Y-1047313D01*
G01X332559Y-1047055D01*
G01X330499Y-1046540D01*
G01X328180Y-1046025D01*
G01X325090Y-1045252D01*
G01X321999Y-1044222D01*
G01X319681Y-1043192D01*
G01X315044Y-1040873D01*
G01X309893Y-1037267D01*
G01X308090Y-1035722D01*
G01X305514Y-1033146D01*
G01X304484Y-1031858D01*
G01X301908Y-1028252D01*
G01X300877Y-1026449D01*
G01X299847Y-1024389D01*
G01X298817Y-1022071D01*
G01X297787Y-1019495D01*
G01X297014Y-1016919D01*
G01X296499Y-1014601D01*
G01X295983Y-1010480D01*
G01X295726Y-1008677D01*
G01X295919Y-1007839D01*
G01X296499Y-1007389D01*
G01X298044Y-1006874D01*
G01X304226Y-1006358D01*
G01X307832Y-1006101D01*
G01X310021Y-1006294D01*
G01X310923Y-1006874D01*
G01X311438Y-1008419D01*
G01X311953Y-1010737D01*
G01X312726Y-1013828D01*
G01X313756Y-1016661D01*
G01X315044Y-1019237D01*
G01X317620Y-1022843D01*
G01X319165Y-1024646D01*
G01X323287Y-1027737D01*
G01X324832Y-1028768D01*
G01X326893Y-1029798D01*
G01X329211Y-1030828D01*
G01X331786Y-1031858D01*
G01X334620Y-1032631D01*
G01X336681Y-1033146D01*
G01X340802Y-1033661D01*
G01X345696Y-1033919D01*
G01X352135Y-1033661D01*
G01X355741Y-1033146D01*
G01X358317Y-1032631D01*
G01X361150Y-1031858D01*
G01X363984Y-1030828D01*
G01X366559Y-1029540D01*
G01X369135Y-1027995D01*
G01X370938Y-1026449D01*
G01X373514Y-1023873D01*
G01X374802Y-1021813D01*
G01X376089Y-1018980D01*
G01X376862Y-1016661D01*
G01X377120Y-1014343D01*
G01X376862Y-1010995D01*
G01X376089Y-1007646D01*
G01X374802Y-1004813D01*
G01X373514Y-1003010D01*
G01X372483Y-1001722D01*
G01X369908Y-999661D01*
G01X368105Y-998374D01*
G01X366044Y-997343D01*
G01X362438Y-995798D01*
G01X360120Y-995025D01*
G01X357544Y-994252D01*
G01X351877Y-992707D01*
G01X349302Y-991934D01*
G01X346984Y-991419D01*
G01X344408Y-990904D01*
G01X341574Y-990131D01*
G01X333332Y-988071D01*
G01X328180Y-986525D01*
G01X323544Y-984980D01*
G01X320968Y-983949D01*
G01X318650Y-982919D01*
G01X316847Y-981889D01*
G01X314529Y-980601D01*
G01X312726Y-979313D01*
G01X311180Y-978283D01*
G01X309635Y-976995D01*
G01X307059Y-974419D01*
G01X306029Y-973131D01*
G01X304741Y-971328D01*
G01X303453Y-969268D01*
G01X302680Y-967464D01*
G01X301908Y-965404D01*
G01X301135Y-962571D01*
G01X300620Y-959995D01*
G01X300362Y-957161D01*
G01X300620Y-953298D01*
G01X301135Y-950722D01*
G01X301393Y-948919D01*
G01X301908Y-946858D01*
G01X302938Y-944283D01*
G01X304226Y-941449D01*
G01X305514Y-939389D01*
G01X306544Y-937843D01*
G01X307832Y-936040D01*
G01X309120Y-934495D01*
G01X310408Y-933464D01*
G01X311696Y-932177D01*
G01X313499Y-930631D01*
G01X315302Y-929343D01*
G01X317105Y-928313D01*
G01X321741Y-926252D01*
G01X324574Y-925222D01*
G01X326893Y-924449D01*
G01X332044Y-923419D01*
G01X335650Y-922904D01*
G01X342605Y-922646D01*
G01X349559Y-922904D01*
G01X351620Y-923161D01*
G01X354196Y-923419D01*
G01X356256Y-923934D01*
G01X359089Y-924449D01*
G01X362180Y-925222D01*
G01X366302Y-926767D01*
G01X368620Y-927798D01*
G01X370680Y-928828D01*
G01X372741Y-930116D01*
G01X375059Y-931662D01*
G01X376862Y-932949D01*
G01X380726Y-936813D01*
G01X382271Y-938874D01*
G01X383817Y-941192D01*
G01X384847Y-942995D01*
G01X385877Y-945055D01*
G01X386908Y-947631D01*
G01X387680Y-949692D01*
G01X388196Y-952525D01*
G01X388711Y-955874D01*
G01X388711Y-957934D01*
G01X387680Y-958965D01*
G01X380468Y-959480D01*
G01X376605Y-959737D01*
G01X373514Y-959737D01*
G01X373256Y-958192D01*
G01X372483Y-954843D01*
G01X371453Y-951752D01*
G01X370423Y-949434D01*
G01X369392Y-947631D01*
G01X368362Y-946086D01*
G01X366302Y-943510D01*
G01X364499Y-941965D01*
G01X362438Y-940677D01*
G01X360377Y-939646D01*
G01X358059Y-938616D01*
G01X355741Y-937843D01*
G01X353681Y-937328D01*
G01X348529Y-936813D01*
G01X344665Y-936555D01*
G01X340802Y-936813D01*
G01X335650Y-937328D01*
G01X333847Y-937586D01*
G01X331014Y-938101D01*
G01X327665Y-939131D01*
G01X325090Y-940419D01*
G01X323029Y-941707D01*
G01X321483Y-942995D01*
G01X320196Y-944283D01*
G01X318650Y-946086D01*
G01X317362Y-948146D01*
G01X316590Y-950464D01*
G01X316074Y-952783D01*
G01X315817Y-954843D01*
G01X316332Y-957934D01*
G01X317105Y-960510D01*
G01X317877Y-962313D01*
G01X318908Y-963858D01*
G01X319938Y-965146D01*
G01X321741Y-966692D01*
G01X323802Y-967980D01*
G01X326120Y-969010D01*
G01X328696Y-970040D01*
G01X333332Y-971586D01*
G01X335908Y-972358D01*
G01X338999Y-973131D01*
G01X341832Y-973904D01*
G01X343893Y-974419D01*
G01X346468Y-974934D01*
G01X350074Y-975707D01*
G01X352650Y-976480D01*
G01X354968Y-976995D01*
G01X358059Y-977767D01*
G01X360377Y-978540D01*
G01X362438Y-979055D01*
G01X365271Y-979828D01*
G01X367847Y-980858D01*
G01X370165Y-981631D01*
G01X372483Y-982661D01*
G01X374802Y-983949D01*
G01X377377Y-985237D01*
G01X380983Y-987813D01*
G01X382787Y-989358D01*
G01X385362Y-991934D01*
G01X386908Y-993995D01*
G01X389484Y-997859D01*
G01X390256Y-999661D01*
G01X391029Y-1001722D01*
G01X391802Y-1004298D01*
G01X392317Y-1006874D01*
G01X392574Y-1010222D01*
G01X392317Y-1014601D01*
G01X391802Y-1017692D01*
G01X391286Y-1020267D01*
G01X390514Y-1022843D01*
G01X389484Y-1025419D01*
G01X388196Y-1027995D01*
G01X386908Y-1030055D01*
G01X385877Y-1031601D01*
G01X383817Y-1034176D01*
G01X379953Y-1038040D01*
G01X378665Y-1039071D01*
G01X376862Y-1040358D01*
G01X374802Y-1041646D01*
G01X370680Y-1043707D01*
G01X368362Y-1044737D01*
G01X362953Y-1046540D01*
G01X357802Y-1047570D01*
G01X354196Y-1048086D01*
G01X346984Y-1048343D01*
G37*
G36*
G01X440741Y-1046283D02*
G01X413953Y-1046025D01*
G01X413800Y-1010737D01*
G01X430180Y-1010737D01*
G01X430438Y-1031601D01*
G01X449499Y-1031858D01*
G01X469074Y-1031601D01*
G01X471650Y-1031086D01*
G01X474999Y-1030313D01*
G01X477832Y-1029283D01*
G01X481438Y-1027480D01*
G01X482726Y-1026449D01*
G01X484014Y-1025162D01*
G01X485559Y-1023358D01*
G01X486847Y-1021298D01*
G01X487877Y-1018980D01*
G01X488650Y-1016661D01*
G01X488908Y-1012025D01*
G01X488650Y-1006874D01*
G01X488135Y-1004813D01*
G01X487620Y-1003010D01*
G01X486590Y-1000692D01*
G01X485302Y-998889D01*
G01X483756Y-997086D01*
G01X481438Y-994768D01*
G01X478862Y-993222D01*
G01X476544Y-992192D01*
G01X473711Y-991419D01*
G01X471135Y-990904D01*
G01X466499Y-990389D01*
G01X447953Y-990131D01*
G01X430180Y-990131D01*
G01X430180Y-1010737D01*
G01X430180Y-1010737D01*
G01X413800Y-1010737D01*
G01X413696Y-986525D01*
G01X413821Y-957161D01*
G01X430180Y-957161D01*
G01X430438Y-975449D01*
G01X446665Y-975707D01*
G01X463408Y-975449D01*
G01X466241Y-975192D01*
G01X470105Y-974677D01*
G01X473453Y-973646D01*
G01X477059Y-971843D01*
G01X478605Y-970813D01*
G01X479893Y-969525D01*
G01X481438Y-967722D01*
G01X482726Y-965404D01*
G01X483499Y-962828D01*
G01X484014Y-959480D01*
G01X484014Y-956904D01*
G01X483756Y-954843D01*
G01X483241Y-952010D01*
G01X482211Y-949177D01*
G01X481180Y-947116D01*
G01X480150Y-945571D01*
G01X477574Y-942995D01*
G01X475771Y-941707D01*
G01X472938Y-940677D01*
G01X470620Y-939904D01*
G01X466499Y-939389D01*
G01X447953Y-939131D01*
G01X430180Y-939131D01*
G01X430180Y-957161D01*
G01X430180Y-957161D01*
G01X413821Y-957161D01*
G01X413953Y-925995D01*
G01X414211Y-924707D01*
G01X439711Y-924707D01*
G01X465983Y-924965D01*
G01X471135Y-925480D01*
G01X473968Y-925995D01*
G01X477059Y-926767D01*
G01X479377Y-927540D01*
G01X481438Y-928313D01*
G01X486074Y-930631D01*
G01X487877Y-931919D01*
G01X489165Y-932949D01*
G01X493544Y-937328D01*
G01X495089Y-939646D01*
G01X496120Y-941449D01*
G01X497150Y-943510D01*
G01X498180Y-945828D01*
G01X498953Y-948146D01*
G01X499468Y-950207D01*
G01X499726Y-954586D01*
G01X499468Y-959480D01*
G01X498953Y-962055D01*
G01X498180Y-964889D01*
G01X497150Y-967207D01*
G01X496120Y-969268D01*
G01X495089Y-971070D01*
G01X493802Y-972874D01*
G01X492256Y-974677D01*
G01X490968Y-975964D01*
G01X487877Y-978540D01*
G01X486074Y-979828D01*
G01X484014Y-980858D01*
G01X483627Y-981374D01*
G01X484014Y-981889D01*
G01X487620Y-983434D01*
G01X491741Y-985495D01*
G01X493287Y-986525D01*
G01X494574Y-987555D01*
G01X495862Y-988328D01*
G01X497408Y-989874D01*
G01X500499Y-993480D01*
G01X501786Y-995283D01*
G01X502559Y-996828D01*
G01X503332Y-998631D01*
G01X504362Y-1001207D01*
G01X505135Y-1003783D01*
G01X505650Y-1007904D01*
G01X505908Y-1010480D01*
G01X505650Y-1013055D01*
G01X505135Y-1017177D01*
G01X504620Y-1019495D01*
G01X503847Y-1022586D01*
G01X502817Y-1025162D01*
G01X501786Y-1027480D01*
G01X500499Y-1029798D01*
G01X498953Y-1032116D01*
G01X497665Y-1033919D01*
G01X496635Y-1035207D01*
G01X494832Y-1037010D01*
G01X492256Y-1038813D01*
G01X490453Y-1040101D01*
G01X488650Y-1041131D01*
G01X486332Y-1042161D01*
G01X481696Y-1043707D01*
G01X479120Y-1044480D01*
G01X476802Y-1044995D01*
G01X473196Y-1045510D01*
G01X468044Y-1046025D01*
G01X440741Y-1046283D01*
G37*
G36*
G01X520332Y-1002237D02*
G01X520332Y-994768D01*
G01X566180Y-994768D01*
G01X566180Y-1009707D01*
G01X520332Y-1009707D01*
G01X520332Y-1002237D01*
G37*
G36*
G01X636756Y-1048343D02*
G01X630317Y-1048086D01*
G01X627226Y-1047570D01*
G01X623620Y-1047055D01*
G01X621044Y-1046540D01*
G01X616923Y-1045510D01*
G01X614347Y-1044737D01*
G01X611771Y-1043707D01*
G01X607650Y-1041646D01*
G01X605332Y-1040358D01*
G01X603529Y-1039328D01*
G01X602241Y-1038298D01*
G01X598635Y-1035207D01*
G01X595544Y-1032116D01*
G01X593483Y-1029540D01*
G01X591680Y-1026964D01*
G01X590393Y-1025162D01*
G01X589362Y-1023358D01*
G01X587302Y-1019237D01*
G01X586271Y-1016919D01*
G01X585241Y-1014343D01*
G01X584211Y-1011252D01*
G01X583180Y-1007904D01*
G01X582408Y-1005328D01*
G01X581377Y-1000692D01*
G01X580347Y-993480D01*
G01X580090Y-985752D01*
G01X580347Y-976995D01*
G01X580862Y-972874D01*
G01X581377Y-969783D01*
G01X581892Y-967207D01*
G01X582665Y-963601D01*
G01X583696Y-960252D01*
G01X584726Y-957419D01*
G01X585756Y-954843D01*
G01X589104Y-948146D01*
G01X590650Y-945828D01*
G01X591680Y-944025D01*
G01X592711Y-942737D01*
G01X595801Y-939131D01*
G01X598377Y-936555D01*
G01X599665Y-935525D01*
G01X601468Y-933980D01*
G01X604044Y-932177D01*
G01X606620Y-930631D01*
G01X608680Y-929343D01*
G01X610741Y-928313D01*
G01X613059Y-927283D01*
G01X615635Y-926252D01*
G01X621044Y-924449D01*
G01X626196Y-923419D01*
G01X630317Y-922904D01*
G01X635726Y-922646D01*
G01X642680Y-922904D01*
G01X646802Y-923419D01*
G01X649893Y-923934D01*
G01X652983Y-924707D01*
G01X656332Y-925737D01*
G01X658907Y-926767D01*
G01X661226Y-927798D01*
G01X663286Y-928828D01*
G01X665347Y-930116D01*
G01X667923Y-931919D01*
G01X669983Y-933464D01*
G01X672559Y-935525D01*
G01X675135Y-938616D01*
G01X676423Y-939904D01*
G01X677711Y-941707D01*
G01X679256Y-944025D01*
G01X680544Y-945828D01*
G01X681574Y-947631D01*
G01X682604Y-949949D01*
G01X684150Y-954070D01*
G01X684923Y-956389D01*
G01X684794Y-957483D01*
G01X683892Y-958192D01*
G01X681832Y-958965D01*
G01X679256Y-959480D01*
G01X675650Y-960252D01*
G01X673074Y-961025D01*
G01X671014Y-961283D01*
G01X669919Y-961025D01*
G01X669210Y-960252D01*
G01X668180Y-957934D01*
G01X667150Y-955358D01*
G01X665862Y-952783D01*
G01X664317Y-950207D01*
G01X663029Y-948404D01*
G01X661998Y-946858D01*
G01X660711Y-945313D01*
G01X659423Y-944025D01*
G01X657620Y-942480D01*
G01X655301Y-940934D01*
G01X653499Y-939904D01*
G01X651953Y-939131D01*
G01X649635Y-938101D01*
G01X646802Y-937328D01*
G01X644741Y-936813D01*
G01X638559Y-936298D01*
G01X637014Y-936298D01*
G01X633923Y-936555D01*
G01X629802Y-936813D01*
G01X627226Y-937328D01*
G01X624908Y-937843D01*
G01X622332Y-938616D01*
G01X619756Y-939646D01*
G01X615120Y-941965D01*
G01X613574Y-942995D01*
G01X609968Y-946086D01*
G01X606877Y-949177D01*
G01X605332Y-951237D01*
G01X604044Y-953298D01*
G01X602498Y-955874D01*
G01X601468Y-958192D01*
G01X600696Y-959995D01*
G01X599923Y-962055D01*
G01X599150Y-964889D01*
G01X598377Y-967207D01*
G01X597347Y-972874D01*
G01X596832Y-976995D01*
G01X596574Y-984207D01*
G01X596832Y-991419D01*
G01X597347Y-995540D01*
G01X597862Y-999146D01*
G01X598377Y-1001722D01*
G01X599150Y-1005328D01*
G01X600180Y-1008677D01*
G01X601211Y-1011510D01*
G01X602241Y-1014086D01*
G01X603271Y-1016146D01*
G01X604302Y-1017949D01*
G01X605332Y-1019495D01*
G01X606104Y-1020783D01*
G01X607135Y-1022071D01*
G01X610999Y-1025934D01*
G01X612802Y-1027480D01*
G01X615120Y-1029025D01*
G01X617438Y-1030313D01*
G01X619499Y-1031343D01*
G01X621559Y-1032116D01*
G01X623877Y-1032889D01*
G01X626711Y-1033661D01*
G01X629286Y-1034176D01*
G01X634953Y-1034434D01*
G01X641650Y-1034176D01*
G01X644226Y-1033661D01*
G01X646286Y-1033146D01*
G01X648862Y-1032374D01*
G01X651438Y-1031343D01*
G01X654014Y-1030055D01*
G01X656332Y-1028510D01*
G01X658135Y-1027480D01*
G01X659423Y-1026449D01*
G01X660711Y-1025162D01*
G01X664832Y-1020010D01*
G01X666120Y-1018207D01*
G01X668180Y-1014086D01*
G01X669210Y-1011510D01*
G01X670241Y-1008677D01*
G01X671014Y-1006358D01*
G01X671271Y-1004556D01*
G01X671658Y-1003911D01*
G01X672817Y-1004040D01*
G01X675135Y-1004813D01*
G01X677453Y-1005328D01*
G01X680802Y-1006101D01*
G01X683377Y-1006874D01*
G01X685695Y-1007389D01*
G01X686790Y-1007839D01*
G01X686983Y-1008677D01*
G01X686468Y-1010480D01*
G01X685953Y-1012540D01*
G01X685180Y-1014859D01*
G01X684408Y-1016919D01*
G01X683635Y-1018722D01*
G01X681317Y-1023358D01*
G01X679771Y-1025934D01*
G01X678226Y-1028252D01*
G01X676423Y-1030570D01*
G01X674877Y-1032631D01*
G01X671014Y-1036495D01*
G01X668438Y-1038555D01*
G01X666635Y-1039843D01*
G01X662514Y-1042419D01*
G01X659938Y-1043707D01*
G01X657620Y-1044737D01*
G01X655301Y-1045510D01*
G01X652726Y-1046283D01*
G01X649893Y-1047055D01*
G01X647317Y-1047570D01*
G01X643196Y-1048086D01*
G01X636756Y-1048343D01*
G37*
G36*
G01X274090Y-1236373D02*
G01X265590Y-1235858D01*
G01X264302Y-1230707D01*
G01X263529Y-1228389D01*
G01X263014Y-1225813D01*
G01X262241Y-1222979D01*
G01X261468Y-1220404D01*
G01X260696Y-1217055D01*
G01X259923Y-1214480D01*
G01X258635Y-1209328D01*
G01X257862Y-1206752D01*
G01X256575Y-1201601D01*
G01X255802Y-1199025D01*
G01X255287Y-1196449D01*
G01X254514Y-1193616D01*
G01X253741Y-1191040D01*
G01X252969Y-1187949D01*
G01X252196Y-1185631D01*
G01X251680Y-1183055D01*
G01X250908Y-1180222D01*
G01X250135Y-1177646D01*
G01X249362Y-1174298D01*
G01X248332Y-1170692D01*
G01X247559Y-1168116D01*
G01X247044Y-1165798D01*
G01X246272Y-1162707D01*
G01X245499Y-1160389D01*
G01X244984Y-1157813D01*
G01X244211Y-1154980D01*
G01X243438Y-1152404D01*
G01X242665Y-1149055D01*
G01X241635Y-1145449D01*
G01X240862Y-1142873D01*
G01X240347Y-1140555D01*
G01X239575Y-1137464D01*
G01X238802Y-1135146D01*
G01X238287Y-1132570D01*
G01X237514Y-1129737D01*
G01X236741Y-1127161D01*
G01X235968Y-1123813D01*
G01X234938Y-1120207D01*
G01X234165Y-1117631D01*
G01X233908Y-1115828D01*
G01X235646Y-1115055D01*
G01X240862Y-1114798D01*
G01X249105Y-1115055D01*
G01X250135Y-1115635D01*
G01X250650Y-1116858D01*
G01X251423Y-1120207D01*
G01X252711Y-1125358D01*
G01X253226Y-1127934D01*
G01X253999Y-1131540D01*
G01X254771Y-1134116D01*
G01X255287Y-1136692D01*
G01X256059Y-1140298D01*
G01X257347Y-1145449D01*
G01X257862Y-1148025D01*
G01X258635Y-1151631D01*
G01X259408Y-1154207D01*
G01X259923Y-1156783D01*
G01X260696Y-1160389D01*
G01X261468Y-1162964D01*
G01X261983Y-1165540D01*
G01X262756Y-1169146D01*
G01X264044Y-1174298D01*
G01X264559Y-1176873D01*
G01X265332Y-1180479D01*
G01X266105Y-1183055D01*
G01X266620Y-1185631D01*
G01X267393Y-1189237D01*
G01X268680Y-1194388D01*
G01X269711Y-1199025D01*
G01X270226Y-1201601D01*
G01X270999Y-1205207D01*
G01X271771Y-1208298D01*
G01X272286Y-1211389D01*
G01X272802Y-1213964D01*
G01X273059Y-1215767D01*
G01X273575Y-1217055D01*
G01X274347Y-1216540D01*
G01X275893Y-1211389D01*
G01X276408Y-1208813D01*
G01X277181Y-1205207D01*
G01X277953Y-1202631D01*
G01X278468Y-1200313D01*
G01X279241Y-1196964D01*
G01X284393Y-1178934D01*
G01X285165Y-1176358D01*
G01X285680Y-1174298D01*
G01X286453Y-1171464D01*
G01X287226Y-1169146D01*
G01X287741Y-1167086D01*
G01X288514Y-1164252D01*
G01X289286Y-1161934D01*
G01X290574Y-1156783D01*
G01X294696Y-1142358D01*
G01X295468Y-1139783D01*
G01X295983Y-1137722D01*
G01X296756Y-1134889D01*
G01X297529Y-1132570D01*
G01X298044Y-1130510D01*
G01X298817Y-1127676D01*
G01X299590Y-1125358D01*
G01X300877Y-1120207D01*
G01X302423Y-1114798D01*
G01X311438Y-1114798D01*
G01X321226Y-1115055D01*
G01X321934Y-1115699D01*
G01X322514Y-1117116D01*
G01X327665Y-1135146D01*
G01X328438Y-1137722D01*
G01X328953Y-1139783D01*
G01X329726Y-1142616D01*
G01X330499Y-1144934D01*
G01X331014Y-1146995D01*
G01X331786Y-1149828D01*
G01X332559Y-1152146D01*
G01X333075Y-1154207D01*
G01X333847Y-1157040D01*
G01X334620Y-1159358D01*
G01X335908Y-1164510D01*
G01X340029Y-1178934D01*
G01X340802Y-1181510D01*
G01X342089Y-1186661D01*
G01X342862Y-1189237D01*
G01X343378Y-1191813D01*
G01X344150Y-1195419D01*
G01X344923Y-1197995D01*
G01X346984Y-1208298D01*
G01X348014Y-1214480D01*
G01X348271Y-1216283D01*
G01X348786Y-1217570D01*
G01X349237Y-1217248D01*
G01X349559Y-1215767D01*
G01X350332Y-1211904D01*
G01X351620Y-1206752D01*
G01X352135Y-1204176D01*
G01X352908Y-1200570D01*
G01X353681Y-1197995D01*
G01X354196Y-1195677D01*
G01X354968Y-1192328D01*
G01X355741Y-1189752D01*
G01X356256Y-1187434D01*
G01X357029Y-1184085D01*
G01X359347Y-1174813D01*
G01X359862Y-1172495D01*
G01X360635Y-1169146D01*
G01X361408Y-1166570D01*
G01X361923Y-1164252D01*
G01X362695Y-1160904D01*
G01X363984Y-1155752D01*
G01X364499Y-1153434D01*
G01X365271Y-1150086D01*
G01X366044Y-1147510D01*
G01X366559Y-1145192D01*
G01X367332Y-1141843D01*
G01X368105Y-1139267D01*
G01X368620Y-1136692D01*
G01X369392Y-1133086D01*
G01X370165Y-1130510D01*
G01X370680Y-1128192D01*
G01X371453Y-1124843D01*
G01X372226Y-1122267D01*
G01X372741Y-1119949D01*
G01X373514Y-1116601D01*
G01X374029Y-1114798D01*
G01X382014Y-1114798D01*
G01X387938Y-1114927D01*
G01X389741Y-1115313D01*
G01X389226Y-1117373D01*
G01X388453Y-1119949D01*
G01X382271Y-1142616D01*
G01X381499Y-1145192D01*
G01X380726Y-1148283D01*
G01X379953Y-1150601D01*
G01X378665Y-1155752D01*
G01X377635Y-1159358D01*
G01X376862Y-1161934D01*
G01X375574Y-1167086D01*
G01X374544Y-1170692D01*
G01X373771Y-1173267D01*
G01X372483Y-1178419D01*
G01X370423Y-1185631D01*
G01X369650Y-1188207D01*
G01X369135Y-1190267D01*
G01X368362Y-1193101D01*
G01X367590Y-1195419D01*
G01X367074Y-1197995D01*
G01X364756Y-1206495D01*
G01X363984Y-1209070D01*
G01X363211Y-1212161D01*
G01X362438Y-1214480D01*
G01X361150Y-1219631D01*
G01X360120Y-1223237D01*
G01X359347Y-1225813D01*
G01X358059Y-1230964D01*
G01X356514Y-1236373D01*
G01X349044Y-1236373D01*
G01X343313Y-1236116D01*
G01X341059Y-1235343D01*
G01X340029Y-1232510D01*
G01X338999Y-1228904D01*
G01X338226Y-1226328D01*
G01X337711Y-1224010D01*
G01X336938Y-1221434D01*
G01X335393Y-1215767D01*
G01X334620Y-1213192D01*
G01X333847Y-1210101D01*
G01X333075Y-1207783D01*
G01X331786Y-1202631D01*
G01X329726Y-1195419D01*
G01X328953Y-1192843D01*
G01X327665Y-1187692D01*
G01X325605Y-1180479D01*
G01X324832Y-1177904D01*
G01X324317Y-1175586D01*
G01X323544Y-1173010D01*
G01X321999Y-1167343D01*
G01X321226Y-1164768D01*
G01X320453Y-1161677D01*
G01X319681Y-1159358D01*
G01X318393Y-1154207D01*
G01X316332Y-1146995D01*
G01X315559Y-1144419D01*
G01X314271Y-1139267D01*
G01X313241Y-1135661D01*
G01X312468Y-1133086D01*
G01X312211Y-1131283D01*
G01X312082Y-1130574D01*
G01X311696Y-1130510D01*
G01X310923Y-1131540D01*
G01X310408Y-1133858D01*
G01X309635Y-1137207D01*
G01X308862Y-1139783D01*
G01X308347Y-1142101D01*
G01X307574Y-1145192D01*
G01X306802Y-1147510D01*
G01X305514Y-1152661D01*
G01X303453Y-1159873D01*
G01X302680Y-1162449D01*
G01X302165Y-1164510D01*
G01X301393Y-1167343D01*
G01X300620Y-1169661D01*
G01X300105Y-1171980D01*
G01X299332Y-1174555D01*
G01X297787Y-1180222D01*
G01X297014Y-1182798D01*
G01X296241Y-1185889D01*
G01X295468Y-1188207D01*
G01X294953Y-1190525D01*
G01X294181Y-1193101D01*
G01X292635Y-1198767D01*
G01X291862Y-1201343D01*
G01X291090Y-1204434D01*
G01X290317Y-1206752D01*
G01X289029Y-1211904D01*
G01X285938Y-1222722D01*
G01X285165Y-1225298D01*
G01X284650Y-1227358D01*
G01X283878Y-1230192D01*
G01X283105Y-1232510D01*
G01X282589Y-1234828D01*
G01X282332Y-1236373D01*
G01X274090Y-1236373D01*
G37*
G36*
G01X131393Y-1175586D02*
G01X131393Y-1150601D01*
G01X147362Y-1150601D01*
G01X147620Y-1172237D01*
G01X165650Y-1172495D01*
G01X184196Y-1172237D01*
G01X185999Y-1171980D01*
G01X188317Y-1171722D01*
G01X190893Y-1171207D01*
G01X193726Y-1170434D01*
G01X196559Y-1169404D01*
G01X199135Y-1168116D01*
G01X200938Y-1166570D01*
G01X203514Y-1163995D01*
G01X204802Y-1161934D01*
G01X206090Y-1159358D01*
G01X206862Y-1157298D01*
G01X207378Y-1153692D01*
G01X207635Y-1151631D01*
G01X207378Y-1149570D01*
G01X207120Y-1147767D01*
G01X206862Y-1145449D01*
G01X206347Y-1143389D01*
G01X205832Y-1141586D01*
G01X204802Y-1139267D01*
G01X203514Y-1137464D01*
G01X202483Y-1135919D01*
G01X201196Y-1134373D01*
G01X199135Y-1132828D01*
G01X196559Y-1131283D01*
G01X194241Y-1130252D01*
G01X191923Y-1129737D01*
G01X189862Y-1129480D01*
G01X168226Y-1129222D01*
G01X147362Y-1129222D01*
G01X147362Y-1150601D01*
G01X147362Y-1150601D01*
G01X131393Y-1150601D01*
G01X131393Y-1114798D01*
G01X159211Y-1114798D01*
G01X187802Y-1115055D01*
G01X189862Y-1115313D01*
G01X192953Y-1115571D01*
G01X195529Y-1116086D01*
G01X197332Y-1116343D01*
G01X199908Y-1116858D01*
G01X202999Y-1117889D01*
G01X205832Y-1118919D01*
G01X208408Y-1120207D01*
G01X210726Y-1121752D01*
G01X212529Y-1123040D01*
G01X216393Y-1126904D01*
G01X217681Y-1128707D01*
G01X218968Y-1130767D01*
G01X220256Y-1133086D01*
G01X221544Y-1135661D01*
G01X222574Y-1138752D01*
G01X223347Y-1141328D01*
G01X223862Y-1144934D01*
G01X224120Y-1148540D01*
G01X223862Y-1153176D01*
G01X223347Y-1156783D01*
G01X222832Y-1159358D01*
G01X222317Y-1161677D01*
G01X221544Y-1163995D01*
G01X219999Y-1167601D01*
G01X218968Y-1169404D01*
G01X217423Y-1171722D01*
G01X215620Y-1174298D01*
G01X214075Y-1176101D01*
G01X212787Y-1177389D01*
G01X210984Y-1178934D01*
G01X209180Y-1180222D01*
G01X207378Y-1181252D01*
G01X205317Y-1182283D01*
G01X202999Y-1183313D01*
G01X199650Y-1184343D01*
G01X197075Y-1185116D01*
G01X190893Y-1186146D01*
G01X184711Y-1186661D01*
G01X165650Y-1186919D01*
G01X147362Y-1186919D01*
G01X147362Y-1236373D01*
G01X131393Y-1236373D01*
G01X131393Y-1175586D01*
G37*
G36*
G01X404423Y-1175586D02*
G01X404423Y-1114798D01*
G01X428635Y-1114798D01*
G01X430180Y-1118661D01*
G01X431211Y-1121495D01*
G01X461862Y-1213449D01*
G01X462377Y-1215510D01*
G01X463408Y-1217055D01*
G01X464052Y-1216926D01*
G01X464438Y-1216025D01*
G01X471393Y-1195161D01*
G01X472423Y-1192586D01*
G01X476544Y-1180222D01*
G01X478605Y-1174555D01*
G01X482726Y-1162192D01*
G01X483756Y-1159616D01*
G01X488392Y-1145707D01*
G01X489423Y-1143131D01*
G01X493544Y-1130767D01*
G01X495605Y-1125101D01*
G01X497665Y-1118919D01*
G01X498695Y-1116086D01*
G01X499211Y-1114798D01*
G01X520847Y-1114798D01*
G01X520847Y-1236373D01*
G01X505392Y-1236373D01*
G01X505392Y-1186919D01*
G01X505135Y-1136692D01*
G01X504813Y-1136305D01*
G01X504362Y-1136692D01*
G01X503590Y-1138752D01*
G01X502817Y-1141070D01*
G01X501271Y-1145192D01*
G01X498180Y-1154465D01*
G01X497150Y-1157040D01*
G01X494059Y-1166313D01*
G01X493029Y-1168889D01*
G01X489938Y-1178161D01*
G01X488908Y-1180737D01*
G01X485817Y-1190010D01*
G01X483756Y-1195677D01*
G01X481696Y-1201858D01*
G01X479635Y-1207525D01*
G01X476544Y-1216798D01*
G01X475514Y-1219373D01*
G01X472423Y-1228646D01*
G01X470877Y-1232767D01*
G01X470105Y-1235086D01*
G01X469847Y-1236373D01*
G01X462893Y-1236373D01*
G01X455423Y-1235858D01*
G01X454393Y-1233798D01*
G01X453362Y-1230707D01*
G01X452332Y-1228131D01*
G01X444605Y-1204949D01*
G01X443574Y-1202373D01*
G01X435332Y-1177646D01*
G01X434302Y-1175071D01*
G01X426574Y-1151889D01*
G01X425029Y-1147767D01*
G01X421165Y-1136177D01*
G01X420393Y-1134631D01*
G01X420006Y-1147188D01*
G01X419877Y-1185374D01*
G01X419877Y-1236373D01*
G01X404423Y-1236373D01*
G01X404423Y-1175586D01*
G37*
G36*
G01X646029Y-1236373D02*
G01X638559Y-1236116D01*
G01X638301Y-1198510D01*
G01X638559Y-1160389D01*
G01X638559Y-1159101D01*
G01X638301Y-1156010D01*
G01X638559Y-1152661D01*
G01X638559Y-1151374D01*
G01X638301Y-1148798D01*
G01X638559Y-1145964D01*
G01X638559Y-1144419D01*
G01X638044Y-1142873D01*
G01X637722Y-1142423D01*
G01X637271Y-1142616D01*
G01X635983Y-1143389D01*
G01X634695Y-1144419D01*
G01X632893Y-1145964D01*
G01X629286Y-1148540D01*
G01X627226Y-1149828D01*
G01X625423Y-1150858D01*
G01X623362Y-1152146D01*
G01X616408Y-1156010D01*
G01X613832Y-1157040D01*
G01X611771Y-1158071D01*
G01X609711Y-1158586D01*
G01X608423Y-1158586D01*
G01X608423Y-1156010D01*
G01X608680Y-1152661D01*
G01X608680Y-1151374D01*
G01X608423Y-1148025D01*
G01X608616Y-1145771D01*
G01X609195Y-1144677D01*
G01X610741Y-1143646D01*
G01X615377Y-1141328D01*
G01X617953Y-1139783D01*
G01X622589Y-1136692D01*
G01X624392Y-1135404D01*
G01X625680Y-1134631D01*
G01X629544Y-1131540D01*
G01X637786Y-1123298D01*
G01X639332Y-1121237D01*
G01X640362Y-1119949D01*
G01X641650Y-1118146D01*
G01X643968Y-1114282D01*
G01X653241Y-1114282D01*
G01X653241Y-1236373D01*
G01X646029Y-1236373D01*
G37*
G36*
G01X538877Y-1192328D02*
G01X538877Y-1184858D01*
G01X584726Y-1184858D01*
G01X584726Y-1199798D01*
G01X538877Y-1199798D01*
G01X538877Y-1192328D01*
G37*
G36*
G01X731029Y-1238434D02*
G01X726393Y-1238177D01*
G01X724074Y-1237661D01*
G01X720468Y-1236889D01*
G01X717635Y-1235858D01*
G01X715317Y-1234828D01*
G01X713256Y-1233798D01*
G01X711195Y-1232510D01*
G01X709392Y-1231222D01*
G01X708105Y-1230192D01*
G01X704241Y-1226328D01*
G01X703211Y-1225040D01*
G01X701923Y-1223237D01*
G01X700635Y-1221177D01*
G01X698574Y-1217055D01*
G01X697029Y-1213449D01*
G01X696256Y-1211131D01*
G01X694711Y-1205980D01*
G01X694195Y-1203661D01*
G01X693165Y-1197995D01*
G01X692650Y-1193873D01*
G01X692135Y-1187692D01*
G01X691877Y-1176616D01*
G01X691895Y-1175843D01*
G01X707332Y-1175843D01*
G01X707589Y-1189752D01*
G01X708105Y-1195419D01*
G01X708877Y-1200828D01*
G01X709392Y-1203661D01*
G01X710165Y-1206237D01*
G01X710680Y-1208555D01*
G01X711453Y-1210873D01*
G01X712226Y-1212676D01*
G01X712999Y-1214222D01*
G01X714029Y-1216025D01*
G01X715317Y-1217828D01*
G01X716347Y-1219116D01*
G01X717892Y-1220919D01*
G01X719953Y-1222464D01*
G01X722014Y-1223752D01*
G01X724332Y-1225040D01*
G01X726393Y-1225555D01*
G01X726393Y-1225555D01*
G01X727680Y-1225813D01*
G01X731029Y-1226070D01*
G01X735923Y-1225555D01*
G01X739014Y-1224525D01*
G01X741332Y-1223237D01*
G01X743135Y-1222207D01*
G01X744423Y-1221177D01*
G01X746999Y-1218601D01*
G01X748029Y-1217313D01*
G01X749059Y-1215767D01*
G01X750347Y-1213449D01*
G01X751377Y-1211131D01*
G01X752150Y-1209070D01*
G01X752923Y-1206752D01*
G01X753438Y-1204692D01*
G01X754468Y-1199025D01*
G01X754983Y-1194388D01*
G01X755498Y-1187692D01*
G01X755756Y-1177131D01*
G01X755498Y-1166570D01*
G01X754983Y-1159358D01*
G01X754468Y-1155237D01*
G01X753953Y-1151631D01*
G01X753438Y-1149055D01*
G01X752665Y-1145707D01*
G01X751120Y-1141070D01*
G01X749832Y-1138237D01*
G01X748286Y-1135919D01*
G01X746999Y-1134116D01*
G01X744423Y-1131540D01*
G01X742620Y-1129995D01*
G01X740559Y-1128707D01*
G01X738241Y-1127676D01*
G01X735923Y-1126904D01*
G01X732317Y-1126646D01*
G01X727680Y-1126904D01*
G01X724332Y-1127676D01*
G01X722014Y-1128707D01*
G01X719953Y-1129995D01*
G01X718150Y-1131540D01*
G01X715574Y-1134116D01*
G01X714286Y-1135919D01*
G01X712999Y-1138237D01*
G01X711968Y-1140298D01*
G01X711195Y-1142358D01*
G01X710423Y-1145192D01*
G01X709650Y-1147510D01*
G01X708620Y-1152661D01*
G01X708105Y-1156267D01*
G01X707589Y-1161934D01*
G01X707332Y-1175843D01*
G01X691895Y-1175843D01*
G01X692135Y-1165540D01*
G01X692392Y-1163479D01*
G01X692650Y-1159873D01*
G01X693165Y-1155752D01*
G01X693680Y-1152661D01*
G01X694711Y-1147510D01*
G01X695741Y-1143389D01*
G01X696514Y-1141070D01*
G01X697544Y-1138495D01*
G01X698574Y-1136177D01*
G01X700635Y-1132055D01*
G01X701923Y-1129995D01*
G01X703726Y-1127419D01*
G01X705271Y-1125358D01*
G01X709135Y-1121495D01*
G01X710423Y-1120464D01*
G01X713514Y-1118404D01*
G01X715317Y-1117373D01*
G01X717892Y-1116343D01*
G01X719953Y-1115571D01*
G01X724589Y-1114540D01*
G01X729483Y-1114282D01*
G01X735923Y-1114540D01*
G01X739014Y-1115055D01*
G01X741589Y-1115571D01*
G01X744423Y-1116343D01*
G01X746741Y-1117373D01*
G01X749317Y-1118661D01*
G01X751635Y-1120207D01*
G01X753953Y-1122010D01*
G01X756013Y-1123555D01*
G01X757302Y-1124843D01*
G01X760392Y-1128964D01*
G01X762968Y-1133086D01*
G01X763998Y-1135146D01*
G01X765029Y-1137464D01*
G01X766574Y-1141586D01*
G01X767347Y-1143904D01*
G01X768120Y-1146737D01*
G01X768892Y-1149055D01*
G01X769923Y-1155237D01*
G01X770438Y-1159873D01*
G01X770953Y-1168116D01*
G01X771211Y-1175328D01*
G01X770953Y-1182540D01*
G01X770438Y-1190782D01*
G01X770180Y-1192586D01*
G01X769923Y-1195419D01*
G01X769407Y-1199025D01*
G01X768377Y-1204176D01*
G01X767605Y-1207525D01*
G01X766059Y-1212161D01*
G01X765029Y-1214995D01*
G01X761680Y-1221692D01*
G01X760392Y-1223495D01*
G01X759362Y-1225040D01*
G01X758074Y-1226586D01*
G01X756013Y-1229161D01*
G01X754726Y-1230192D01*
G01X752923Y-1231737D01*
G01X750347Y-1233540D01*
G01X748286Y-1234828D01*
G01X746483Y-1235601D01*
G01X744423Y-1236373D01*
G01X741847Y-1237146D01*
G01X739529Y-1237661D01*
G01X735923Y-1238177D01*
G01X731029Y-1238434D01*
G37*
G36*
G01X816608Y-1236116D02*
G01X814483Y-1235343D01*
G01X810620Y-1225040D01*
G01X809847Y-1223237D01*
G01X809074Y-1221177D01*
G01X808301Y-1218858D01*
G01X806241Y-1213707D01*
G01X804695Y-1209586D01*
G01X803665Y-1207010D01*
G01X801604Y-1201343D01*
G01X799544Y-1196192D01*
G01X797483Y-1190525D01*
G01X795423Y-1185374D01*
G01X793362Y-1179707D01*
G01X791301Y-1174555D01*
G01X789241Y-1168889D01*
G01X787180Y-1163737D01*
G01X785120Y-1158071D01*
G01X784089Y-1155495D01*
G01X781771Y-1149313D01*
G01X781514Y-1148283D01*
G01X789241Y-1148283D01*
G01X795165Y-1148540D01*
G01X797483Y-1149313D01*
G01X798514Y-1151889D01*
G01X802635Y-1163222D01*
G01X803665Y-1166313D01*
G01X804695Y-1168889D01*
G01X806241Y-1173525D01*
G01X807271Y-1176101D01*
G01X808301Y-1179192D01*
G01X809332Y-1181767D01*
G01X810877Y-1186404D01*
G01X811907Y-1188980D01*
G01X812938Y-1192070D01*
G01X813968Y-1194646D01*
G01X815513Y-1199283D01*
G01X817059Y-1203404D01*
G01X818604Y-1208040D01*
G01X820150Y-1213192D01*
G01X820923Y-1216025D01*
G01X821245Y-1217313D01*
G01X821695Y-1217570D01*
G01X822726Y-1215767D01*
G01X825816Y-1206495D01*
G01X840241Y-1166828D01*
G01X841271Y-1164252D01*
G01X842044Y-1161934D01*
G01X843589Y-1157813D01*
G01X844362Y-1155495D01*
G01X845392Y-1152919D01*
G01X846938Y-1148283D01*
G01X854407Y-1148283D01*
G01X861877Y-1148798D01*
G01X861362Y-1150343D01*
G01X859817Y-1154465D01*
G01X858786Y-1157040D01*
G01X856726Y-1162707D01*
G01X855695Y-1165283D01*
G01X854150Y-1169404D01*
G01X853120Y-1171980D01*
G01X851059Y-1177646D01*
G01X850029Y-1180222D01*
G01X848483Y-1184343D01*
G01X847453Y-1186919D01*
G01X845392Y-1192586D01*
G01X844362Y-1195161D01*
G01X841271Y-1203404D01*
G01X840241Y-1205980D01*
G01X838180Y-1211646D01*
G01X837150Y-1214222D01*
G01X835604Y-1218343D01*
G01X834574Y-1220919D01*
G01X832513Y-1226586D01*
G01X831483Y-1229161D01*
G01X829165Y-1235343D01*
G01X827233Y-1236116D01*
G01X821953Y-1236373D01*
G01X816608Y-1236116D01*
G37*
G36*
G01X131393Y-795404D02*
G01X131393Y-734616D01*
G01X219484Y-734616D01*
G01X219484Y-749040D01*
G01X147878Y-749040D01*
G01X147878Y-786131D01*
G01X214847Y-786131D01*
G01X214847Y-800555D01*
G01X147878Y-800555D01*
G01X147878Y-841768D01*
G01X222574Y-841768D01*
G01X222574Y-856192D01*
G01X131393Y-856192D01*
G01X131393Y-795404D01*
G37*
G36*
G01X296756Y-858253D02*
G01X290317Y-857995D01*
G01X287226Y-857480D01*
G01X283620Y-856964D01*
G01X281044Y-856449D01*
G01X276923Y-855419D01*
G01X274347Y-854646D01*
G01X271771Y-853616D01*
G01X267650Y-851556D01*
G01X265332Y-850268D01*
G01X263529Y-849237D01*
G01X262241Y-848207D01*
G01X258635Y-845116D01*
G01X255544Y-842025D01*
G01X253484Y-839449D01*
G01X251680Y-836874D01*
G01X250393Y-835071D01*
G01X249362Y-833268D01*
G01X247302Y-829146D01*
G01X246272Y-826828D01*
G01X245241Y-824252D01*
G01X244211Y-821162D01*
G01X243181Y-817813D01*
G01X242408Y-815237D01*
G01X241377Y-810601D01*
G01X240347Y-803389D01*
G01X240090Y-795662D01*
G01X240347Y-786904D01*
G01X240862Y-782783D01*
G01X241377Y-779692D01*
G01X241893Y-777116D01*
G01X242665Y-773510D01*
G01X243696Y-770162D01*
G01X244726Y-767328D01*
G01X245756Y-764753D01*
G01X249105Y-758056D01*
G01X250650Y-755737D01*
G01X251680Y-753934D01*
G01X252711Y-752646D01*
G01X255802Y-749040D01*
G01X258377Y-746465D01*
G01X259665Y-745434D01*
G01X261468Y-743889D01*
G01X264044Y-742086D01*
G01X266620Y-740540D01*
G01X268680Y-739253D01*
G01X270741Y-738222D01*
G01X273059Y-737192D01*
G01X275635Y-736162D01*
G01X281044Y-734358D01*
G01X286196Y-733328D01*
G01X290317Y-732813D01*
G01X295726Y-732556D01*
G01X302680Y-732813D01*
G01X306802Y-733328D01*
G01X309893Y-733843D01*
G01X312984Y-734616D01*
G01X316332Y-735646D01*
G01X318908Y-736677D01*
G01X321226Y-737707D01*
G01X323287Y-738737D01*
G01X325347Y-740025D01*
G01X327923Y-741828D01*
G01X329984Y-743374D01*
G01X332559Y-745434D01*
G01X335135Y-748525D01*
G01X336423Y-749813D01*
G01X337711Y-751616D01*
G01X339256Y-753934D01*
G01X340544Y-755737D01*
G01X341574Y-757540D01*
G01X342605Y-759859D01*
G01X344150Y-763980D01*
G01X344923Y-766298D01*
G01X344794Y-767393D01*
G01X343893Y-768101D01*
G01X341832Y-768874D01*
G01X339256Y-769389D01*
G01X335650Y-770162D01*
G01X333075Y-770934D01*
G01X331014Y-771192D01*
G01X329919Y-770934D01*
G01X329211Y-770162D01*
G01X328180Y-767844D01*
G01X327150Y-765268D01*
G01X325862Y-762692D01*
G01X324317Y-760116D01*
G01X323029Y-758313D01*
G01X321999Y-756768D01*
G01X320711Y-755222D01*
G01X319423Y-753934D01*
G01X317620Y-752389D01*
G01X315302Y-750843D01*
G01X313499Y-749813D01*
G01X311953Y-749040D01*
G01X309635Y-748010D01*
G01X306802Y-747237D01*
G01X304741Y-746722D01*
G01X298559Y-746207D01*
G01X297014Y-746207D01*
G01X293923Y-746465D01*
G01X289802Y-746722D01*
G01X287226Y-747237D01*
G01X284908Y-747752D01*
G01X282332Y-748525D01*
G01X279756Y-749556D01*
G01X275120Y-751874D01*
G01X273575Y-752904D01*
G01X269968Y-755995D01*
G01X266878Y-759086D01*
G01X265332Y-761147D01*
G01X264044Y-763207D01*
G01X262499Y-765783D01*
G01X261468Y-768101D01*
G01X260696Y-769904D01*
G01X259923Y-771965D01*
G01X259150Y-774798D01*
G01X258377Y-777116D01*
G01X257347Y-782783D01*
G01X256832Y-786904D01*
G01X256575Y-794116D01*
G01X256832Y-801328D01*
G01X257347Y-805449D01*
G01X257862Y-809056D01*
G01X258377Y-811631D01*
G01X259150Y-815237D01*
G01X260181Y-818586D01*
G01X261211Y-821419D01*
G01X262241Y-823995D01*
G01X263272Y-826055D01*
G01X264302Y-827859D01*
G01X265332Y-829404D01*
G01X266105Y-830692D01*
G01X267135Y-831980D01*
G01X270999Y-835843D01*
G01X272802Y-837389D01*
G01X275120Y-838934D01*
G01X277438Y-840222D01*
G01X279499Y-841253D01*
G01X281559Y-842025D01*
G01X283878Y-842798D01*
G01X286711Y-843571D01*
G01X289286Y-844086D01*
G01X294953Y-844343D01*
G01X301650Y-844086D01*
G01X304226Y-843571D01*
G01X306287Y-843055D01*
G01X308862Y-842283D01*
G01X311438Y-841253D01*
G01X314014Y-839965D01*
G01X316332Y-838419D01*
G01X318135Y-837389D01*
G01X319423Y-836358D01*
G01X320711Y-835071D01*
G01X324832Y-829919D01*
G01X326120Y-828116D01*
G01X328180Y-823995D01*
G01X329211Y-821419D01*
G01X330241Y-818586D01*
G01X331014Y-816268D01*
G01X331271Y-814465D01*
G01X331658Y-813821D01*
G01X332817Y-813949D01*
G01X335135Y-814722D01*
G01X337453Y-815237D01*
G01X340802Y-816010D01*
G01X343378Y-816783D01*
G01X345696Y-817298D01*
G01X346790Y-817749D01*
G01X346984Y-818586D01*
G01X346468Y-820389D01*
G01X345953Y-822449D01*
G01X345180Y-824768D01*
G01X344408Y-826828D01*
G01X343635Y-828631D01*
G01X341317Y-833268D01*
G01X339771Y-835843D01*
G01X338226Y-838162D01*
G01X336423Y-840480D01*
G01X334877Y-842540D01*
G01X331014Y-846404D01*
G01X328438Y-848465D01*
G01X326635Y-849752D01*
G01X322514Y-852328D01*
G01X319938Y-853616D01*
G01X317620Y-854646D01*
G01X315302Y-855419D01*
G01X312726Y-856192D01*
G01X309893Y-856964D01*
G01X307317Y-857480D01*
G01X303196Y-857995D01*
G01X296756Y-858253D01*
G37*
G36*
G01X415241Y-795404D02*
G01X415241Y-734616D01*
G01X497665Y-734616D01*
G01X497665Y-749040D01*
G01X431726Y-749040D01*
G01X431726Y-786646D01*
G01X488392Y-786646D01*
G01X488392Y-801071D01*
G01X431726Y-801071D01*
G01X431726Y-856192D01*
G01X415241Y-856192D01*
G01X415241Y-795404D01*
G37*
G36*
G01X497794Y-856063D02*
G01X495862Y-855677D01*
G01X496635Y-854131D01*
G01X497665Y-851556D01*
G01X499726Y-845889D01*
G01X501786Y-840737D01*
G01X502817Y-837904D01*
G01X503847Y-835328D01*
G01X504877Y-832495D01*
G01X506938Y-827343D01*
G01X507968Y-824510D01*
G01X508998Y-821934D01*
G01X510029Y-819101D01*
G01X512089Y-813949D01*
G01X513120Y-811116D01*
G01X514150Y-808540D01*
G01X515180Y-805707D01*
G01X515696Y-804419D01*
G01X531408Y-804419D01*
G01X531408Y-805965D01*
G01X551756Y-806222D01*
G01X566760Y-806029D01*
G01X571589Y-805449D01*
G01X570817Y-803131D01*
G01X568756Y-797464D01*
G01X567726Y-794889D01*
G01X561544Y-778404D01*
G01X560514Y-775828D01*
G01X558453Y-770162D01*
G01X557423Y-767586D01*
G01X555877Y-762949D01*
G01X554332Y-758828D01*
G01X552787Y-754192D01*
G01X551241Y-749040D01*
G01X550790Y-748397D01*
G01X550468Y-748525D01*
G01X549953Y-749813D01*
G01X549696Y-751616D01*
G01X549180Y-753677D01*
G01X548408Y-756252D01*
G01X547635Y-759343D01*
G01X546862Y-761662D01*
G01X546347Y-763722D01*
G01X544029Y-770677D01*
G01X536302Y-791283D01*
G01X535271Y-793858D01*
G01X533211Y-799525D01*
G01X532180Y-802101D01*
G01X531408Y-804419D01*
G01X531408Y-804419D01*
G01X515696Y-804419D01*
G01X517241Y-800555D01*
G01X518271Y-797722D01*
G01X519301Y-795146D01*
G01X520332Y-792313D01*
G01X522392Y-787161D01*
G01X524453Y-781495D01*
G01X526514Y-776343D01*
G01X527544Y-773510D01*
G01X528574Y-770934D01*
G01X529605Y-768101D01*
G01X531665Y-762949D01*
G01X532695Y-760116D01*
G01X533726Y-757540D01*
G01X534756Y-754707D01*
G01X536817Y-749556D01*
G01X537847Y-746722D01*
G01X538877Y-744146D01*
G01X539908Y-741313D01*
G01X541968Y-736162D01*
G01X542483Y-734616D01*
G01X550983Y-734616D01*
G01X557487Y-734809D01*
G01X559999Y-735389D01*
G01X561029Y-737449D01*
G01X562059Y-740025D01*
G01X563090Y-742343D01*
G01X565150Y-747495D01*
G01X565923Y-749556D01*
G01X566696Y-751359D01*
G01X567726Y-753677D01*
G01X568756Y-756252D01*
G01X569529Y-758313D01*
G01X570302Y-760116D01*
G01X571332Y-762434D01*
G01X574423Y-770162D01*
G01X575453Y-772480D01*
G01X579574Y-782783D01*
G01X580605Y-785101D01*
G01X582665Y-790252D01*
G01X583438Y-792313D01*
G01X584211Y-794116D01*
G01X585241Y-796434D01*
G01X588332Y-804161D01*
G01X589362Y-806480D01*
G01X593483Y-816783D01*
G01X594514Y-819101D01*
G01X596574Y-824252D01*
G01X597347Y-826313D01*
G01X598120Y-828116D01*
G01X599150Y-830434D01*
G01X602241Y-838162D01*
G01X603271Y-840480D01*
G01X607392Y-850783D01*
G01X608423Y-853101D01*
G01X609195Y-855162D01*
G01X609453Y-856192D01*
G01X600438Y-856192D01*
G01X593548Y-855934D01*
G01X590908Y-855162D01*
G01X589877Y-852843D01*
G01X588847Y-850268D01*
G01X587817Y-847434D01*
G01X585756Y-842283D01*
G01X584726Y-839449D01*
G01X583696Y-836874D01*
G01X582665Y-834040D01*
G01X580605Y-828889D01*
G01X579574Y-826055D01*
G01X578544Y-823480D01*
G01X577514Y-820646D01*
G01X576999Y-819101D01*
G01X552271Y-819101D01*
G01X526771Y-819359D01*
G01X525483Y-820904D01*
G01X513120Y-854904D01*
G01X512605Y-856192D01*
G01X504105Y-856192D01*
G01X497794Y-856063D01*
G37*
G36*
G01X2600270Y-784316D02*
G01X2600270Y-784127D01*
G01X2612012Y-784127D01*
G01X2612202Y-818218D01*
G01X2624133Y-818407D01*
G01X2636444Y-818218D01*
G01X2640232Y-817839D01*
G01X2642126Y-817460D01*
G01X2644588Y-816892D01*
G01X2646671Y-816134D01*
G01X2648376Y-815377D01*
G01X2650080Y-814430D01*
G01X2651406Y-813483D01*
G01X2652353Y-812725D01*
G01X2655194Y-809885D01*
G01X2656141Y-808559D01*
G01X2657088Y-807044D01*
G01X2657845Y-805718D01*
G01X2658414Y-804392D01*
G01X2658982Y-802877D01*
G01X2659739Y-800794D01*
G01X2660497Y-798142D01*
G01X2661065Y-795491D01*
G01X2661444Y-793597D01*
G01X2661823Y-789430D01*
G01X2662012Y-784127D01*
G01X2661823Y-778824D01*
G01X2661633Y-777119D01*
G01X2661444Y-775036D01*
G01X2661065Y-772763D01*
G01X2660686Y-770869D01*
G01X2660308Y-769165D01*
G01X2659739Y-767271D01*
G01X2659171Y-765756D01*
G01X2658603Y-764430D01*
G01X2657845Y-762915D01*
G01X2656898Y-761210D01*
G01X2655952Y-759885D01*
G01X2655194Y-758938D01*
G01X2654058Y-757612D01*
G01X2651785Y-755339D01*
G01X2650459Y-754203D01*
G01X2648755Y-753066D01*
G01X2647239Y-752309D01*
G01X2645724Y-751741D01*
G01X2643830Y-751172D01*
G01X2642126Y-750794D01*
G01X2638717Y-750415D01*
G01X2625080Y-750225D01*
G01X2612012Y-750225D01*
G01X2612012Y-784127D01*
G01X2612012Y-784127D01*
G01X2600270Y-784127D01*
G01X2600270Y-739619D01*
G01X2619398Y-739619D01*
G01X2639096Y-739809D01*
G01X2640421Y-739998D01*
G01X2642504Y-740188D01*
G01X2644777Y-740566D01*
G01X2646671Y-740945D01*
G01X2649702Y-741703D01*
G01X2651595Y-742271D01*
G01X2656520Y-744733D01*
G01X2657845Y-745680D01*
G01X2658792Y-746248D01*
G01X2661633Y-748521D01*
G01X2662580Y-749468D01*
G01X2664096Y-751362D01*
G01X2665042Y-752309D01*
G01X2665989Y-753634D01*
G01X2667126Y-755339D01*
G01X2668073Y-756854D01*
G01X2669588Y-759885D01*
G01X2670724Y-762536D01*
G01X2671292Y-764051D01*
G01X2671861Y-766135D01*
G01X2672429Y-767839D01*
G01X2673186Y-771248D01*
G01X2673565Y-773900D01*
G01X2673944Y-776930D01*
G01X2674133Y-782612D01*
G01X2673944Y-789430D01*
G01X2673565Y-792839D01*
G01X2673186Y-795112D01*
G01X2672997Y-796437D01*
G01X2672618Y-798521D01*
G01X2672050Y-800415D01*
G01X2671671Y-801930D01*
G01X2670535Y-805339D01*
G01X2669967Y-806854D01*
G01X2668830Y-809506D01*
G01X2666558Y-813483D01*
G01X2665800Y-814619D01*
G01X2665232Y-815566D01*
G01X2664474Y-816513D01*
G01X2663149Y-817839D01*
G01X2662012Y-819354D01*
G01X2661065Y-820301D01*
G01X2658224Y-822574D01*
G01X2657088Y-823332D01*
G01X2655573Y-824278D01*
G01X2653868Y-825225D01*
G01X2651974Y-825983D01*
G01X2649702Y-826741D01*
G01X2647808Y-827309D01*
G01X2644399Y-828066D01*
G01X2641747Y-828445D01*
G01X2637959Y-828824D01*
G01X2618830Y-829013D01*
G01X2600270Y-829013D01*
G01X2600270Y-784316D01*
G37*
G36*
G01X2872050Y-855150D02*
G01X2866368Y-854960D01*
G01X2864853Y-854581D01*
G01X2862391Y-854013D01*
G01X2858982Y-852877D01*
G01X2856899Y-851930D01*
G01X2855004Y-850794D01*
G01X2853679Y-849847D01*
G01X2852732Y-849278D01*
G01X2851785Y-848331D01*
G01X2849891Y-846059D01*
G01X2849133Y-844923D01*
G01X2848565Y-843786D01*
G01X2847997Y-842271D01*
G01X2847429Y-840187D01*
G01X2847050Y-838294D01*
G01X2846861Y-836210D01*
G01X2846861Y-834695D01*
G01X2847808Y-834695D01*
G01X2852353Y-835263D01*
G01X2855004Y-835642D01*
G01X2856520Y-835832D01*
G01X2857277Y-836021D01*
G01X2857656Y-836589D01*
G01X2858224Y-838483D01*
G01X2858982Y-840187D01*
G01X2859740Y-841513D01*
G01X2861065Y-843028D01*
G01X2862770Y-844165D01*
G01X2864285Y-844923D01*
G01X2865989Y-845490D01*
G01X2867505Y-845869D01*
G01X2871671Y-846248D01*
G01X2872618Y-846248D01*
G01X2874133Y-846059D01*
G01X2876595Y-845869D01*
G01X2878868Y-845490D01*
G01X2880952Y-844923D01*
G01X2882467Y-844165D01*
G01X2883793Y-843407D01*
G01X2885118Y-842460D01*
G01X2886065Y-841513D01*
G01X2887580Y-839619D01*
G01X2888527Y-838294D01*
G01X2889285Y-836589D01*
G01X2889853Y-834695D01*
G01X2890232Y-832991D01*
G01X2890611Y-826930D01*
G01X2890800Y-823710D01*
G01X2890658Y-821769D01*
G01X2890232Y-821248D01*
G01X2889285Y-822006D01*
G01X2888338Y-822953D01*
G01X2886444Y-824468D01*
G01X2885118Y-825415D01*
G01X2883603Y-826362D01*
G01X2882088Y-827119D01*
G01X2878679Y-828256D01*
G01X2876974Y-828635D01*
G01X2875459Y-828824D01*
G01X2872997Y-829013D01*
G01X2870535Y-828824D01*
G01X2869209Y-828635D01*
G01X2867505Y-828445D01*
G01X2865989Y-828066D01*
G01X2864285Y-827688D01*
G01X2862391Y-827119D01*
G01X2860686Y-826362D01*
G01X2858792Y-825415D01*
G01X2857467Y-824468D01*
G01X2856330Y-823710D01*
G01X2855194Y-822763D01*
G01X2853300Y-820869D01*
G01X2851027Y-818029D01*
G01X2850270Y-816892D01*
G01X2848755Y-814241D01*
G01X2847997Y-812725D01*
G01X2847239Y-810831D01*
G01X2845914Y-806854D01*
G01X2845156Y-803066D01*
G01X2844777Y-798900D01*
G01X2844588Y-797195D01*
G01X2844777Y-795491D01*
G01X2844809Y-795112D01*
G01X2855952Y-795112D01*
G01X2856141Y-798900D01*
G01X2856520Y-802309D01*
G01X2856709Y-803635D01*
G01X2857088Y-805718D01*
G01X2857845Y-808180D01*
G01X2858603Y-810074D01*
G01X2859361Y-811589D01*
G01X2860497Y-813294D01*
G01X2861633Y-814809D01*
G01X2862580Y-815756D01*
G01X2863527Y-816513D01*
G01X2865800Y-818029D01*
G01X2866936Y-818597D01*
G01X2868451Y-819165D01*
G01X2870156Y-819544D01*
G01X2870156Y-819544D01*
G01X2871292Y-819733D01*
G01X2872997Y-819922D01*
G01X2875838Y-819733D01*
G01X2877732Y-819354D01*
G01X2879247Y-818975D01*
G01X2880573Y-818407D01*
G01X2881898Y-817650D01*
G01X2883793Y-816513D01*
G01X2885308Y-815377D01*
G01X2886255Y-814430D01*
G01X2887012Y-813483D01*
G01X2887770Y-812347D01*
G01X2888717Y-810642D01*
G01X2889474Y-808938D01*
G01X2890042Y-807422D01*
G01X2890611Y-805528D01*
G01X2890989Y-803824D01*
G01X2891368Y-800794D01*
G01X2891558Y-796816D01*
G01X2891368Y-792081D01*
G01X2890989Y-789051D01*
G01X2890421Y-786021D01*
G01X2889664Y-783748D01*
G01X2888148Y-780718D01*
G01X2887012Y-778824D01*
G01X2885876Y-777309D01*
G01X2884550Y-775983D01*
G01X2883035Y-774847D01*
G01X2882088Y-774089D01*
G01X2880762Y-773332D01*
G01X2878679Y-772574D01*
G01X2876974Y-772006D01*
G01X2874702Y-771816D01*
G01X2871671Y-772006D01*
G01X2869777Y-772384D01*
G01X2868262Y-772763D01*
G01X2866936Y-773332D01*
G01X2864285Y-774847D01*
G01X2861633Y-777119D01*
G01X2860497Y-778445D01*
G01X2859361Y-780150D01*
G01X2858603Y-781475D01*
G01X2858035Y-782801D01*
G01X2857467Y-784316D01*
G01X2856899Y-786210D01*
G01X2856520Y-787915D01*
G01X2856141Y-791324D01*
G01X2855952Y-795112D01*
G01X2844809Y-795112D01*
G01X2844967Y-793218D01*
G01X2845156Y-790566D01*
G01X2845535Y-788294D01*
G01X2845914Y-786400D01*
G01X2846293Y-784695D01*
G01X2846861Y-782612D01*
G01X2847618Y-780528D01*
G01X2848376Y-778824D01*
G01X2849891Y-775794D01*
G01X2850838Y-774279D01*
G01X2851785Y-772953D01*
G01X2854058Y-770112D01*
G01X2855004Y-769165D01*
G01X2857845Y-766892D01*
G01X2860497Y-765377D01*
G01X2861823Y-764809D01*
G01X2865232Y-763673D01*
G01X2866747Y-763294D01*
G01X2869777Y-762915D01*
G01X2872239Y-762725D01*
G01X2874702Y-762915D01*
G01X2877353Y-763294D01*
G01X2879057Y-763673D01*
G01X2880952Y-764241D01*
G01X2882467Y-764809D01*
G01X2884171Y-765566D01*
G01X2886065Y-766892D01*
G01X2887580Y-767839D01*
G01X2888527Y-768597D01*
G01X2891179Y-771248D01*
G01X2891463Y-770491D01*
G01X2891558Y-767839D01*
G01X2891558Y-764241D01*
G01X2901785Y-764241D01*
G01X2901785Y-795301D01*
G01X2901595Y-826930D01*
G01X2901217Y-831097D01*
G01X2900459Y-835642D01*
G01X2900080Y-837536D01*
G01X2899512Y-839619D01*
G01X2898755Y-841324D01*
G01X2897429Y-843975D01*
G01X2896671Y-844923D01*
G01X2894399Y-847574D01*
G01X2893451Y-848521D01*
G01X2892126Y-849657D01*
G01X2890800Y-850604D01*
G01X2889474Y-851362D01*
G01X2886444Y-852877D01*
G01X2884929Y-853445D01*
G01X2883414Y-853824D01*
G01X2881709Y-854392D01*
G01X2879815Y-854771D01*
G01X2878111Y-854960D01*
G01X2872050Y-855150D01*
G37*
G36*
G01X3098565Y-855150D02*
G01X3094588Y-854771D01*
G01X3092694Y-854203D01*
G01X3091842Y-853824D01*
G01X3091558Y-853066D01*
G01X3090990Y-848521D01*
G01X3090800Y-847195D01*
G01X3090611Y-845112D01*
G01X3090421Y-843786D01*
G01X3091179Y-843975D01*
G01X3092505Y-844354D01*
G01X3095724Y-844544D01*
G01X3099701Y-844354D01*
G01X3101785Y-843786D01*
G01X3103489Y-842839D01*
G01X3104815Y-841703D01*
G01X3105762Y-840756D01*
G01X3106709Y-839430D01*
G01X3107467Y-837725D01*
G01X3108603Y-834695D01*
G01X3109361Y-832801D01*
G01X3110118Y-830529D01*
G01X3110307Y-828824D01*
G01X3109929Y-827498D01*
G01X3109361Y-825983D01*
G01X3108603Y-824089D01*
G01X3107845Y-822006D01*
G01X3107088Y-820112D01*
G01X3105573Y-815945D01*
G01X3104815Y-814051D01*
G01X3104058Y-811968D01*
G01X3103300Y-810074D01*
G01X3102164Y-807044D01*
G01X3101406Y-805150D01*
G01X3099891Y-800983D01*
G01X3099133Y-799089D01*
G01X3097997Y-796059D01*
G01X3097239Y-794165D01*
G01X3095724Y-789998D01*
G01X3094967Y-788104D01*
G01X3090990Y-777498D01*
G01X3090421Y-776172D01*
G01X3087012Y-767081D01*
G01X3086444Y-765377D01*
G01X3086255Y-764241D01*
G01X3091936Y-764241D01*
G01X3096293Y-764430D01*
G01X3097997Y-764998D01*
G01X3098755Y-766703D01*
G01X3099512Y-768786D01*
G01X3100270Y-771059D01*
G01X3101027Y-772953D01*
G01X3102164Y-776362D01*
G01X3102921Y-778256D01*
G01X3103679Y-780528D01*
G01X3104436Y-782423D01*
G01X3105573Y-785831D01*
G01X3106330Y-787726D01*
G01X3107088Y-789998D01*
G01X3107845Y-791892D01*
G01X3108982Y-795301D01*
G01X3109740Y-797195D01*
G01X3110497Y-799468D01*
G01X3111255Y-801362D01*
G01X3113527Y-808180D01*
G01X3115232Y-813862D01*
G01X3115516Y-814762D01*
G01X3115989Y-815188D01*
G01X3116463Y-815093D01*
G01X3116747Y-814430D01*
G01X3117315Y-812157D01*
G01X3118073Y-809506D01*
G01X3118830Y-807044D01*
G01X3120346Y-802877D01*
G01X3121103Y-800604D01*
G01X3122618Y-796437D01*
G01X3123376Y-794544D01*
G01X3123944Y-792839D01*
G01X3125080Y-789809D01*
G01X3125649Y-788104D01*
G01X3126406Y-786210D01*
G01X3129436Y-777877D01*
G01X3130194Y-775983D01*
G01X3130762Y-774279D01*
G01X3131898Y-771248D01*
G01X3132467Y-769544D01*
G01X3134171Y-764998D01*
G01X3135639Y-764430D01*
G01X3139664Y-764241D01*
G01X3144967Y-764430D01*
G01X3144777Y-765566D01*
G01X3130005Y-804960D01*
G01X3129436Y-806665D01*
G01X3126595Y-814241D01*
G01X3126027Y-815566D01*
G01X3125459Y-817082D01*
G01X3124891Y-818786D01*
G01X3121482Y-827877D01*
G01X3120724Y-829771D01*
G01X3119209Y-833938D01*
G01X3118451Y-835832D01*
G01X3117883Y-837347D01*
G01X3117315Y-838672D01*
G01X3115800Y-842082D01*
G01X3114285Y-845112D01*
G01X3113527Y-846438D01*
G01X3112770Y-847574D01*
G01X3112202Y-848521D01*
G01X3111444Y-849468D01*
G01X3109171Y-851741D01*
G01X3107277Y-853066D01*
G01X3105573Y-854013D01*
G01X3103868Y-854581D01*
G01X3102353Y-854960D01*
G01X3098565Y-855150D01*
G37*
G36*
G01X2918452Y-796627D02*
G01X2918452Y-764241D01*
G01X2928300Y-764241D01*
G01X2928300Y-768597D01*
G01X2928442Y-771769D01*
G01X2928868Y-772574D01*
G01X2930762Y-770301D01*
G01X2933035Y-768029D01*
G01X2934550Y-766892D01*
G01X2935686Y-766135D01*
G01X2937202Y-765377D01*
G01X2938906Y-764619D01*
G01X2940989Y-763862D01*
G01X2942883Y-763294D01*
G01X2945535Y-762915D01*
G01X2947997Y-762725D01*
G01X2951596Y-762915D01*
G01X2953868Y-763294D01*
G01X2955573Y-763673D01*
G01X2957845Y-764241D01*
G01X2959929Y-764998D01*
G01X2961823Y-765945D01*
G01X2963717Y-767081D01*
G01X2965042Y-768218D01*
G01X2965989Y-769165D01*
G01X2967126Y-770491D01*
G01X2968073Y-772006D01*
G01X2968830Y-773521D01*
G01X2969588Y-775225D01*
G01X2970156Y-776930D01*
G01X2970535Y-778445D01*
G01X2970914Y-781854D01*
G01X2971103Y-805718D01*
G01X2971103Y-829013D01*
G01X2960118Y-829013D01*
G01X2960118Y-807612D01*
G01X2959929Y-785642D01*
G01X2959739Y-783938D01*
G01X2959361Y-781475D01*
G01X2958603Y-779203D01*
G01X2957656Y-777498D01*
G01X2956709Y-776172D01*
G01X2955762Y-775225D01*
G01X2954815Y-774468D01*
G01X2953489Y-773710D01*
G01X2951406Y-772953D01*
G01X2949701Y-772384D01*
G01X2947618Y-772195D01*
G01X2945535Y-772384D01*
G01X2944020Y-772574D01*
G01X2941747Y-772953D01*
G01X2939474Y-773710D01*
G01X2937959Y-774468D01*
G01X2936444Y-775415D01*
G01X2935118Y-776362D01*
G01X2934171Y-777119D01*
G01X2933224Y-778066D01*
G01X2932277Y-779392D01*
G01X2931520Y-780907D01*
G01X2930951Y-782233D01*
G01X2930383Y-783938D01*
G01X2930005Y-785642D01*
G01X2929626Y-788294D01*
G01X2929436Y-808938D01*
G01X2929436Y-829013D01*
G01X2918452Y-829013D01*
G01X2918452Y-796627D01*
G37*
G36*
G01X3050838Y-830529D02*
G01X3047807Y-830339D01*
G01X3046671Y-829960D01*
G01X3044777Y-829581D01*
G01X3042883Y-829013D01*
G01X3038717Y-826930D01*
G01X3037770Y-826173D01*
G01X3035497Y-824278D01*
G01X3033982Y-822385D01*
G01X3033224Y-821627D01*
G01X3032940Y-822432D01*
G01X3032845Y-825225D01*
G01X3032845Y-829013D01*
G01X3022618Y-829013D01*
G01X3022618Y-796059D01*
G01X3032845Y-796059D01*
G01X3033035Y-802688D01*
G01X3033414Y-805339D01*
G01X3033982Y-808180D01*
G01X3034739Y-810453D01*
G01X3035497Y-812157D01*
G01X3036444Y-813672D01*
G01X3037391Y-814998D01*
G01X3038149Y-815945D01*
G01X3040611Y-818407D01*
G01X3041936Y-819354D01*
G01X3043452Y-820112D01*
G01X3044967Y-820680D01*
G01X3046671Y-821059D01*
G01X3046671Y-821059D01*
G01X3047807Y-821248D01*
G01X3049891Y-821438D01*
G01X3053111Y-821059D01*
G01X3055383Y-820301D01*
G01X3057088Y-819544D01*
G01X3058603Y-818597D01*
G01X3059929Y-817650D01*
G01X3061823Y-815756D01*
G01X3063338Y-813862D01*
G01X3064285Y-812536D01*
G01X3065042Y-811021D01*
G01X3065611Y-809506D01*
G01X3066179Y-807801D01*
G01X3066747Y-805718D01*
G01X3067126Y-803824D01*
G01X3067505Y-800415D01*
G01X3067694Y-797006D01*
G01X3067505Y-793597D01*
G01X3067315Y-791892D01*
G01X3067126Y-789809D01*
G01X3066368Y-786021D01*
G01X3065800Y-783938D01*
G01X3065042Y-781854D01*
G01X3064285Y-780339D01*
G01X3063527Y-779013D01*
G01X3062580Y-777877D01*
G01X3061065Y-775983D01*
G01X3060118Y-775225D01*
G01X3057467Y-773332D01*
G01X3056141Y-772763D01*
G01X3054436Y-772195D01*
G01X3051406Y-771816D01*
G01X3047807Y-772006D01*
G01X3045535Y-772574D01*
G01X3043830Y-773332D01*
G01X3041179Y-774847D01*
G01X3040042Y-775794D01*
G01X3037770Y-778066D01*
G01X3036444Y-779960D01*
G01X3035497Y-781475D01*
G01X3034739Y-783180D01*
G01X3033414Y-787157D01*
G01X3033035Y-789809D01*
G01X3032845Y-796059D01*
G01X3022618Y-796059D01*
G01X3022618Y-739619D01*
G01X3033603Y-739619D01*
G01X3033603Y-754582D01*
G01X3033793Y-770112D01*
G01X3034029Y-770443D01*
G01X3034361Y-770301D01*
G01X3035308Y-769544D01*
G01X3036255Y-768597D01*
G01X3038527Y-766703D01*
G01X3039853Y-765756D01*
G01X3041368Y-764998D01*
G01X3042694Y-764430D01*
G01X3044209Y-763862D01*
G01X3046103Y-763294D01*
G01X3047807Y-762915D01*
G01X3050270Y-762725D01*
G01X3053489Y-762915D01*
G01X3056520Y-763294D01*
G01X3058982Y-763862D01*
G01X3060686Y-764430D01*
G01X3062202Y-764998D01*
G01X3063717Y-765756D01*
G01X3065421Y-766703D01*
G01X3066747Y-767460D01*
G01X3067694Y-768218D01*
G01X3069020Y-769354D01*
G01X3070156Y-770491D01*
G01X3070914Y-771438D01*
G01X3072050Y-772763D01*
G01X3072997Y-774089D01*
G01X3073755Y-775225D01*
G01X3074512Y-776551D01*
G01X3075270Y-778066D01*
G01X3076027Y-779960D01*
G01X3076785Y-782044D01*
G01X3077353Y-783748D01*
G01X3078111Y-787157D01*
G01X3078489Y-789809D01*
G01X3078679Y-795301D01*
G01X3078489Y-800794D01*
G01X3078300Y-802119D01*
G01X3078111Y-803824D01*
G01X3077732Y-805718D01*
G01X3077353Y-807233D01*
G01X3076974Y-809127D01*
G01X3076406Y-811021D01*
G01X3075270Y-814051D01*
G01X3074512Y-815566D01*
G01X3073565Y-817271D01*
G01X3072618Y-818786D01*
G01X3069777Y-822195D01*
G01X3068830Y-823142D01*
G01X3066936Y-824657D01*
G01X3065611Y-825794D01*
G01X3063906Y-826930D01*
G01X3062202Y-827877D01*
G01X3060497Y-828635D01*
G01X3058982Y-829203D01*
G01X3057656Y-829581D01*
G01X3053868Y-830339D01*
G01X3050838Y-830529D01*
G37*
G36*
G01X2704058Y-924089D02*
G01X2704058Y-903256D01*
G01X2715800Y-903256D01*
G01X2715989Y-916703D01*
G01X2727921Y-916892D01*
G01X2740232Y-916703D01*
G01X2742315Y-916513D01*
G01X2745156Y-916134D01*
G01X2747618Y-915377D01*
G01X2749323Y-914619D01*
G01X2750649Y-913862D01*
G01X2751785Y-912915D01*
G01X2752732Y-911968D01*
G01X2753679Y-910831D01*
G01X2754436Y-909506D01*
G01X2755005Y-907990D01*
G01X2755383Y-906475D01*
G01X2755573Y-904582D01*
G01X2755383Y-901930D01*
G01X2755005Y-900036D01*
G01X2754626Y-898521D01*
G01X2754057Y-897006D01*
G01X2753111Y-895491D01*
G01X2752164Y-894165D01*
G01X2751406Y-893407D01*
G01X2750459Y-892650D01*
G01X2749323Y-891892D01*
G01X2747618Y-891135D01*
G01X2745914Y-890566D01*
G01X2742883Y-890188D01*
G01X2729058Y-889998D01*
G01X2715800Y-889998D01*
G01X2715800Y-903256D01*
G01X2715800Y-903256D01*
G01X2704058Y-903256D01*
G01X2704058Y-879392D01*
G01X2722997Y-879392D01*
G01X2742505Y-879582D01*
G01X2744020Y-879771D01*
G01X2745914Y-879960D01*
G01X2747808Y-880339D01*
G01X2750838Y-881097D01*
G01X2752542Y-881665D01*
G01X2754057Y-882233D01*
G01X2755194Y-882801D01*
G01X2757845Y-884316D01*
G01X2760686Y-886589D01*
G01X2761633Y-887536D01*
G01X2762580Y-888862D01*
G01X2763717Y-890566D01*
G01X2764664Y-892081D01*
G01X2765800Y-894733D01*
G01X2766368Y-896248D01*
G01X2766747Y-897763D01*
G01X2766936Y-899089D01*
G01X2767126Y-900794D01*
G01X2767126Y-902309D01*
G01X2766936Y-903635D01*
G01X2766747Y-905339D01*
G01X2766368Y-907233D01*
G01X2765800Y-909127D01*
G01X2765042Y-911021D01*
G01X2764096Y-912726D01*
G01X2762959Y-914430D01*
G01X2761823Y-915756D01*
G01X2759550Y-918029D01*
G01X2758035Y-919165D01*
G01X2756520Y-920112D01*
G01X2755383Y-921059D01*
G01X2755525Y-921437D01*
G01X2756330Y-921816D01*
G01X2758035Y-922574D01*
G01X2761444Y-924278D01*
G01X2764096Y-926172D01*
G01X2765232Y-927309D01*
G01X2765989Y-928256D01*
G01X2767315Y-929581D01*
G01X2768451Y-931286D01*
G01X2769209Y-932612D01*
G01X2769777Y-933938D01*
G01X2770345Y-935453D01*
G01X2770914Y-937536D01*
G01X2771292Y-939430D01*
G01X2771482Y-942271D01*
G01X2771292Y-945491D01*
G01X2770914Y-947763D01*
G01X2770345Y-950415D01*
G01X2769588Y-952688D01*
G01X2768073Y-955718D01*
G01X2767126Y-957422D01*
G01X2766179Y-958938D01*
G01X2765232Y-960074D01*
G01X2763338Y-961968D01*
G01X2762391Y-962725D01*
G01X2761065Y-963672D01*
G01X2759550Y-964619D01*
G01X2758035Y-965377D01*
G01X2756141Y-966135D01*
G01X2753868Y-966892D01*
G01X2751974Y-967460D01*
G01X2747808Y-968218D01*
G01X2743641Y-968597D01*
G01X2723565Y-968786D01*
G01X2704058Y-968786D01*
G01X2704058Y-942650D01*
G01X2715800Y-942650D01*
G01X2715989Y-957991D01*
G01X2730004Y-958180D01*
G01X2744398Y-957991D01*
G01X2745724Y-957801D01*
G01X2747618Y-957422D01*
G01X2749323Y-956854D01*
G01X2750649Y-956476D01*
G01X2751785Y-955907D01*
G01X2753111Y-955150D01*
G01X2754436Y-954203D01*
G01X2756330Y-952309D01*
G01X2757088Y-951362D01*
G01X2757845Y-949847D01*
G01X2758603Y-947953D01*
G01X2758982Y-946438D01*
G01X2759171Y-945112D01*
G01X2759360Y-943597D01*
G01X2759171Y-941703D01*
G01X2758793Y-939430D01*
G01X2758224Y-937347D01*
G01X2757467Y-935642D01*
G01X2756330Y-933748D01*
G01X2755194Y-932233D01*
G01X2754247Y-931286D01*
G01X2752921Y-930339D01*
G01X2751406Y-929581D01*
G01X2750080Y-929013D01*
G01X2747997Y-928445D01*
G01X2745914Y-928066D01*
G01X2742505Y-927688D01*
G01X2728868Y-927498D01*
G01X2715800Y-927498D01*
G01X2715800Y-942650D01*
G01X2715800Y-942650D01*
G01X2704058Y-942650D01*
G01X2704058Y-924089D01*
G37*
G36*
G01X2841558Y-924089D02*
G01X2841558Y-879392D01*
G01X2852542Y-879392D01*
G01X2852542Y-968786D01*
G01X2841558Y-968786D01*
G01X2841558Y-924089D01*
G37*
G36*
G01X2786633Y-936400D02*
G01X2786633Y-904013D01*
G01X2797618Y-904013D01*
G01X2797618Y-968786D01*
G01X2786633Y-968786D01*
G01X2786633Y-936400D01*
G37*
G36*
G01X2813906Y-924089D02*
G01X2813906Y-879392D01*
G01X2824891Y-879392D01*
G01X2824891Y-968786D01*
G01X2813906Y-968786D01*
G01X2813906Y-924089D01*
G37*
G36*
G01X2786633Y-885642D02*
G01X2786633Y-879392D01*
G01X2797618Y-879392D01*
G01X2797618Y-891892D01*
G01X2786633Y-891892D01*
G01X2786633Y-885642D01*
G37*
G36*
G01X2889285Y-970301D02*
G01X2884929Y-970112D01*
G01X2883414Y-969733D01*
G01X2881520Y-969354D01*
G01X2879436Y-968786D01*
G01X2877921Y-968218D01*
G01X2876595Y-967650D01*
G01X2875080Y-966703D01*
G01X2873754Y-965756D01*
G01X2872618Y-964998D01*
G01X2871482Y-964051D01*
G01X2869209Y-961210D01*
G01X2868451Y-959884D01*
G01X2867694Y-958369D01*
G01X2867126Y-957044D01*
G01X2866558Y-955529D01*
G01X2865989Y-953445D01*
G01X2865611Y-951551D01*
G01X2865232Y-948521D01*
G01X2865043Y-946248D01*
G01X2865232Y-943975D01*
G01X2865989Y-943218D01*
G01X2871292Y-942460D01*
G01X2874323Y-942082D01*
G01X2875270Y-942082D01*
G01X2875838Y-942839D01*
G01X2876027Y-944354D01*
G01X2876217Y-946627D01*
G01X2876595Y-948521D01*
G01X2876974Y-950225D01*
G01X2877542Y-952119D01*
G01X2878300Y-953824D01*
G01X2879247Y-955529D01*
G01X2880194Y-956665D01*
G01X2881141Y-957422D01*
G01X2882277Y-958180D01*
G01X2883603Y-958748D01*
G01X2885118Y-959316D01*
G01X2888338Y-959695D01*
G01X2891368Y-959506D01*
G01X2893073Y-959127D01*
G01X2895156Y-958559D01*
G01X2896482Y-957801D01*
G01X2897808Y-956854D01*
G01X2899512Y-955339D01*
G01X2900459Y-953824D01*
G01X2901027Y-952688D01*
G01X2901595Y-950983D01*
G01X2901974Y-949278D01*
G01X2902353Y-945112D01*
G01X2902542Y-911968D01*
G01X2902542Y-879392D01*
G01X2914285Y-879392D01*
G01X2914285Y-911968D01*
G01X2914096Y-945112D01*
G01X2913906Y-946438D01*
G01X2913717Y-948521D01*
G01X2913338Y-951173D01*
G01X2912770Y-953824D01*
G01X2912012Y-956286D01*
G01X2911255Y-957991D01*
G01X2910497Y-959506D01*
G01X2909739Y-960832D01*
G01X2907467Y-963672D01*
G01X2906141Y-964998D01*
G01X2903300Y-966892D01*
G01X2901974Y-967650D01*
G01X2900080Y-968407D01*
G01X2897808Y-969165D01*
G01X2895156Y-969733D01*
G01X2893262Y-970112D01*
G01X2889285Y-970301D01*
G37*
G36*
G01X2953489Y-970301D02*
G01X2950270Y-969923D01*
G01X2948186Y-969354D01*
G01X2946482Y-968975D01*
G01X2944588Y-968407D01*
G01X2942883Y-967650D01*
G01X2940989Y-966703D01*
G01X2939285Y-965566D01*
G01X2937959Y-964619D01*
G01X2936633Y-963294D01*
G01X2935497Y-961589D01*
G01X2934550Y-959884D01*
G01X2933792Y-958180D01*
G01X2933224Y-956665D01*
G01X2932656Y-954392D01*
G01X2932277Y-952309D01*
G01X2932088Y-927877D01*
G01X2932088Y-904013D01*
G01X2943073Y-904013D01*
G01X2943073Y-925794D01*
G01X2943262Y-948142D01*
G01X2943452Y-949847D01*
G01X2943830Y-952119D01*
G01X2944588Y-954013D01*
G01X2945345Y-955529D01*
G01X2946293Y-956665D01*
G01X2947239Y-957612D01*
G01X2948376Y-958559D01*
G01X2950080Y-959506D01*
G01X2952164Y-960263D01*
G01X2953868Y-960642D01*
G01X2956141Y-960832D01*
G01X2958414Y-960642D01*
G01X2960308Y-960263D01*
G01X2962391Y-959695D01*
G01X2964095Y-958938D01*
G01X2965611Y-958180D01*
G01X2966936Y-957422D01*
G01X2968073Y-956476D01*
G01X2969020Y-955529D01*
G01X2970156Y-954203D01*
G01X2971103Y-952877D01*
G01X2971671Y-951741D01*
G01X2972239Y-950225D01*
G01X2972808Y-947953D01*
G01X2973186Y-945869D01*
G01X2973376Y-925604D01*
G01X2973565Y-904960D01*
G01X2973755Y-904013D01*
G01X2984361Y-904013D01*
G01X2984361Y-968786D01*
G01X2974891Y-968786D01*
G01X2974891Y-964241D01*
G01X2974749Y-960879D01*
G01X2974323Y-959884D01*
G01X2973376Y-960832D01*
G01X2972429Y-961968D01*
G01X2969588Y-964809D01*
G01X2968262Y-965945D01*
G01X2966368Y-967082D01*
G01X2964474Y-968028D01*
G01X2962770Y-968786D01*
G01X2960876Y-969354D01*
G01X2959171Y-969733D01*
G01X2955762Y-970112D01*
G01X2953489Y-970301D01*
G37*
G36*
G01X3020866Y-968597D02*
G01X3019399Y-968028D01*
G01X3018830Y-966513D01*
G01X3018073Y-964619D01*
G01X3016558Y-960453D01*
G01X3015042Y-956665D01*
G01X3013527Y-952498D01*
G01X3012770Y-950604D01*
G01X3011633Y-947574D01*
G01X3010876Y-945680D01*
G01X3009361Y-941513D01*
G01X3007845Y-937725D01*
G01X3006330Y-933559D01*
G01X3004815Y-929771D01*
G01X3003300Y-925604D01*
G01X3001785Y-921816D01*
G01X3000270Y-917650D01*
G01X2999512Y-915756D01*
G01X2996671Y-908180D01*
G01X2996103Y-906854D01*
G01X2995535Y-905150D01*
G01X2995346Y-904013D01*
G01X3000459Y-904013D01*
G01X3006141Y-904203D01*
G01X3007088Y-905150D01*
G01X3007845Y-907044D01*
G01X3008603Y-909316D01*
G01X3009361Y-911210D01*
G01X3010497Y-914619D01*
G01X3011255Y-916513D01*
G01X3012012Y-918786D01*
G01X3012770Y-920680D01*
G01X3013906Y-924089D01*
G01X3014664Y-925983D01*
G01X3015421Y-928256D01*
G01X3018451Y-936589D01*
G01X3019209Y-938862D01*
G01X3019967Y-940756D01*
G01X3023376Y-950983D01*
G01X3023944Y-952877D01*
G01X3024512Y-954392D01*
G01X3024891Y-954534D01*
G01X3025270Y-954203D01*
G01X3025838Y-952688D01*
G01X3026406Y-950604D01*
G01X3027164Y-948332D01*
G01X3027921Y-946438D01*
G01X3029058Y-943029D01*
G01X3029815Y-941134D01*
G01X3040421Y-911968D01*
G01X3041179Y-910074D01*
G01X3041747Y-908369D01*
G01X3042315Y-906854D01*
G01X3042883Y-905150D01*
G01X3043073Y-904013D01*
G01X3054436Y-904013D01*
G01X3054058Y-905150D01*
G01X3053300Y-907044D01*
G01X3052164Y-910074D01*
G01X3051406Y-911968D01*
G01X3049891Y-916134D01*
G01X3049133Y-918029D01*
G01X3047997Y-921059D01*
G01X3047240Y-922953D01*
G01X3045724Y-927119D01*
G01X3044967Y-929013D01*
G01X3042694Y-935074D01*
G01X3041936Y-936968D01*
G01X3040421Y-941134D01*
G01X3039664Y-943029D01*
G01X3038527Y-946059D01*
G01X3037770Y-947953D01*
G01X3036255Y-952119D01*
G01X3035497Y-954013D01*
G01X3030952Y-966135D01*
G01X3030383Y-967839D01*
G01X3030194Y-968786D01*
G01X3024891Y-968786D01*
G01X3020866Y-968597D01*
G37*
G36*
G01X2715989Y-830529D02*
G01X2713338Y-830339D01*
G01X2712012Y-830150D01*
G01X2710308Y-829960D01*
G01X2708414Y-829581D01*
G01X2705951Y-829013D01*
G01X2703868Y-828256D01*
G01X2701974Y-827498D01*
G01X2700459Y-826741D01*
G01X2699133Y-825983D01*
G01X2697997Y-825225D01*
G01X2697050Y-824657D01*
G01X2696103Y-823900D01*
G01X2692315Y-820112D01*
G01X2691368Y-818786D01*
G01X2690421Y-817271D01*
G01X2688906Y-814619D01*
G01X2688149Y-812915D01*
G01X2687391Y-810831D01*
G01X2686823Y-809127D01*
G01X2686065Y-805718D01*
G01X2685686Y-802688D01*
G01X2685497Y-798332D01*
G01X2685686Y-792839D01*
G01X2686065Y-789809D01*
G01X2686255Y-788672D01*
G01X2697618Y-788672D01*
G01X2697808Y-790188D01*
G01X2715232Y-790377D01*
G01X2733035Y-790188D01*
G01X2733414Y-789904D01*
G01X2733414Y-789430D01*
G01X2733035Y-786778D01*
G01X2732656Y-785074D01*
G01X2732088Y-783180D01*
G01X2731520Y-781665D01*
G01X2730952Y-780339D01*
G01X2730383Y-779203D01*
G01X2729626Y-778256D01*
G01X2726596Y-775225D01*
G01X2724891Y-774089D01*
G01X2723565Y-773332D01*
G01X2721861Y-772574D01*
G01X2720156Y-772006D01*
G01X2716558Y-771816D01*
G01X2712580Y-772006D01*
G01X2709550Y-772763D01*
G01X2708035Y-773332D01*
G01X2706709Y-774089D01*
G01X2705004Y-775225D01*
G01X2703489Y-776362D01*
G01X2702164Y-777687D01*
G01X2701027Y-779203D01*
G01X2700270Y-780339D01*
G01X2699512Y-781854D01*
G01X2698755Y-783559D01*
G01X2698186Y-785263D01*
G01X2697808Y-786778D01*
G01X2697618Y-788672D01*
G01X2697618Y-788672D01*
G01X2686255Y-788672D01*
G01X2686444Y-787536D01*
G01X2686823Y-786021D01*
G01X2687202Y-784316D01*
G01X2687770Y-782233D01*
G01X2688527Y-780339D01*
G01X2690042Y-777309D01*
G01X2690989Y-775604D01*
G01X2691936Y-774279D01*
G01X2693452Y-772384D01*
G01X2696671Y-769165D01*
G01X2698186Y-768029D01*
G01X2699512Y-767081D01*
G01X2701217Y-766135D01*
G01X2702732Y-765377D01*
G01X2704436Y-764619D01*
G01X2706899Y-763862D01*
G01X2708792Y-763294D01*
G01X2711444Y-762915D01*
G01X2714664Y-762725D01*
G01X2718641Y-762915D01*
G01X2721293Y-763294D01*
G01X2723944Y-763862D01*
G01X2726406Y-764619D01*
G01X2728111Y-765377D01*
G01X2732277Y-767460D01*
G01X2735118Y-769733D01*
G01X2737391Y-772006D01*
G01X2738906Y-773900D01*
G01X2740232Y-775794D01*
G01X2741179Y-777309D01*
G01X2742315Y-779960D01*
G01X2742883Y-781475D01*
G01X2743451Y-783180D01*
G01X2744020Y-785074D01*
G01X2744398Y-786778D01*
G01X2744777Y-789430D01*
G01X2745156Y-794733D01*
G01X2745346Y-796059D01*
G01X2745156Y-798142D01*
G01X2744967Y-799468D01*
G01X2721482Y-799468D01*
G01X2697429Y-799657D01*
G01X2697050Y-800225D01*
G01X2697050Y-801551D01*
G01X2697429Y-804203D01*
G01X2698186Y-807233D01*
G01X2698755Y-808938D01*
G01X2699512Y-810642D01*
G01X2700459Y-812536D01*
G01X2702353Y-815188D01*
G01X2703868Y-816892D01*
G01X2705383Y-818029D01*
G01X2706330Y-818786D01*
G01X2707656Y-819544D01*
G01X2709361Y-820301D01*
G01X2711255Y-820869D01*
G01X2712959Y-821248D01*
G01X2715989Y-821438D01*
G01X2719020Y-821248D01*
G01X2720535Y-821059D01*
G01X2722050Y-820680D01*
G01X2723376Y-820112D01*
G01X2724512Y-819544D01*
G01X2725838Y-818786D01*
G01X2727164Y-817839D01*
G01X2728300Y-816892D01*
G01X2729626Y-815566D01*
G01X2730762Y-813862D01*
G01X2731709Y-812347D01*
G01X2732467Y-810831D01*
G01X2733224Y-809127D01*
G01X2733650Y-808464D01*
G01X2734171Y-808369D01*
G01X2740989Y-809127D01*
G01X2743073Y-809316D01*
G01X2744588Y-809695D01*
G01X2744209Y-811210D01*
G01X2743451Y-813294D01*
G01X2742694Y-814998D01*
G01X2741936Y-816513D01*
G01X2740989Y-818218D01*
G01X2740043Y-819544D01*
G01X2737770Y-822385D01*
G01X2736444Y-823710D01*
G01X2733414Y-825983D01*
G01X2731520Y-827119D01*
G01X2730004Y-827877D01*
G01X2728489Y-828445D01*
G01X2726785Y-829013D01*
G01X2724701Y-829581D01*
G01X2722808Y-829960D01*
G01X2719020Y-830339D01*
G01X2715989Y-830529D01*
G37*
G36*
G01X2780952Y-830529D02*
G01X2777542Y-830339D01*
G01X2775459Y-829960D01*
G01X2773186Y-829581D01*
G01X2771292Y-829203D01*
G01X2769209Y-828635D01*
G01X2767504Y-827877D01*
G01X2765989Y-827119D01*
G01X2764285Y-826173D01*
G01X2762959Y-825225D01*
G01X2761065Y-823710D01*
G01X2759739Y-822385D01*
G01X2758603Y-820869D01*
G01X2757656Y-819354D01*
G01X2756709Y-817650D01*
G01X2755952Y-815945D01*
G01X2755194Y-813672D01*
G01X2754626Y-811779D01*
G01X2754436Y-810453D01*
G01X2754673Y-809837D01*
G01X2755383Y-809506D01*
G01X2757277Y-809127D01*
G01X2759929Y-808748D01*
G01X2762201Y-808369D01*
G01X2763906Y-808180D01*
G01X2764806Y-808369D01*
G01X2765232Y-808938D01*
G01X2765800Y-810831D01*
G01X2766558Y-812915D01*
G01X2767504Y-814809D01*
G01X2768451Y-816134D01*
G01X2769209Y-817082D01*
G01X2770156Y-818029D01*
G01X2771292Y-818786D01*
G01X2774323Y-820301D01*
G01X2776406Y-820869D01*
G01X2778489Y-821248D01*
G01X2781898Y-821438D01*
G01X2785686Y-821248D01*
G01X2787580Y-820869D01*
G01X2789474Y-820301D01*
G01X2791179Y-819544D01*
G01X2792504Y-818786D01*
G01X2793641Y-818029D01*
G01X2794588Y-817082D01*
G01X2795345Y-816134D01*
G01X2796103Y-814619D01*
G01X2796671Y-812915D01*
G01X2796861Y-811400D01*
G01X2796671Y-809885D01*
G01X2796103Y-808369D01*
G01X2795345Y-807044D01*
G01X2794588Y-806097D01*
G01X2793452Y-805150D01*
G01X2791936Y-804392D01*
G01X2790042Y-803635D01*
G01X2787580Y-802877D01*
G01X2784929Y-802119D01*
G01X2783035Y-801551D01*
G01X2781141Y-801172D01*
G01X2779058Y-800604D01*
G01X2777164Y-800036D01*
G01X2774891Y-799468D01*
G01X2773186Y-798900D01*
G01X2771671Y-798521D01*
G01X2767126Y-796816D01*
G01X2762959Y-794733D01*
G01X2762012Y-793975D01*
G01X2759739Y-791703D01*
G01X2758603Y-790188D01*
G01X2757845Y-789051D01*
G01X2757088Y-787347D01*
G01X2756520Y-785642D01*
G01X2756141Y-782612D01*
G01X2756141Y-780718D01*
G01X2756520Y-778066D01*
G01X2757088Y-775983D01*
G01X2757845Y-774279D01*
G01X2758603Y-772763D01*
G01X2759550Y-771248D01*
G01X2760686Y-769922D01*
G01X2762580Y-768029D01*
G01X2764096Y-766892D01*
G01X2765989Y-765756D01*
G01X2767694Y-764998D01*
G01X2769209Y-764430D01*
G01X2771292Y-763862D01*
G01X2773186Y-763294D01*
G01X2776217Y-762915D01*
G01X2779436Y-762725D01*
G01X2783414Y-762915D01*
G01X2786444Y-763294D01*
G01X2789474Y-763862D01*
G01X2791368Y-764430D01*
G01X2793073Y-764998D01*
G01X2794967Y-765756D01*
G01X2796482Y-766513D01*
G01X2797997Y-767460D01*
G01X2799323Y-768407D01*
G01X2800459Y-769354D01*
G01X2801785Y-770869D01*
G01X2802921Y-772574D01*
G01X2803679Y-774089D01*
G01X2804815Y-777119D01*
G01X2805383Y-779203D01*
G01X2805289Y-780292D01*
G01X2804626Y-780907D01*
G01X2801974Y-781475D01*
G01X2796671Y-782233D01*
G01X2795345Y-782186D01*
G01X2794777Y-781665D01*
G01X2794209Y-779771D01*
G01X2793452Y-778066D01*
G01X2792883Y-776930D01*
G01X2792126Y-775983D01*
G01X2791179Y-775036D01*
G01X2790042Y-774089D01*
G01X2788338Y-773142D01*
G01X2786444Y-772384D01*
G01X2784929Y-772006D01*
G01X2780952Y-771816D01*
G01X2776974Y-772006D01*
G01X2775649Y-772195D01*
G01X2773755Y-772574D01*
G01X2770914Y-773521D01*
G01X2769967Y-774279D01*
G01X2768073Y-776172D01*
G01X2767315Y-777309D01*
G01X2766747Y-779203D01*
G01X2766936Y-781665D01*
G01X2767883Y-783748D01*
G01X2769020Y-785074D01*
G01X2769967Y-785831D01*
G01X2771292Y-786589D01*
G01X2773376Y-787347D01*
G01X2775838Y-788104D01*
G01X2777732Y-788672D01*
G01X2779436Y-789051D01*
G01X2781330Y-789619D01*
G01X2785497Y-790756D01*
G01X2787201Y-791324D01*
G01X2789285Y-791892D01*
G01X2790989Y-792460D01*
G01X2792504Y-792839D01*
G01X2794209Y-793407D01*
G01X2796103Y-794165D01*
G01X2798186Y-794922D01*
G01X2800080Y-795869D01*
G01X2801785Y-797006D01*
G01X2803111Y-797953D01*
G01X2804058Y-798900D01*
G01X2805194Y-800415D01*
G01X2806330Y-802119D01*
G01X2807088Y-804013D01*
G01X2807656Y-805718D01*
G01X2808035Y-809127D01*
G01X2808035Y-810074D01*
G01X2807846Y-811589D01*
G01X2807467Y-814051D01*
G01X2806709Y-816513D01*
G01X2805762Y-818597D01*
G01X2804815Y-820112D01*
G01X2804058Y-821248D01*
G01X2802543Y-823142D01*
G01X2801217Y-824468D01*
G01X2799323Y-825794D01*
G01X2797807Y-826741D01*
G01X2796292Y-827498D01*
G01X2794588Y-828256D01*
G01X2792883Y-828824D01*
G01X2790611Y-829392D01*
G01X2788717Y-829960D01*
G01X2784171Y-830339D01*
G01X2780952Y-830529D01*
G37*
G36*
G01X2821103Y-796627D02*
G01X2821103Y-764241D01*
G01X2832088Y-764241D01*
G01X2832088Y-829013D01*
G01X2821103Y-829013D01*
G01X2821103Y-796627D01*
G37*
G36*
G01X2821103Y-745869D02*
G01X2821103Y-739619D01*
G01X2832088Y-739619D01*
G01X2832088Y-752119D01*
G01X2821103Y-752119D01*
G01X2821103Y-745869D01*
G37*
G36*
G01X1936338Y-1857501D02*
G01X1936338Y-1802957D01*
G01X1942810Y-1802957D01*
G01X1950437Y-1803188D01*
G01X1951477Y-1803650D01*
G01X1952286Y-1804575D01*
G01X1957833Y-1812895D01*
G01X1961068Y-1817517D01*
G01X1965228Y-1823758D01*
G01X1966384Y-1825607D01*
G01X1967309Y-1826993D01*
G01X1968464Y-1828611D01*
G01X2005906Y-1884774D01*
G01X2006830Y-1886392D01*
G01X2007755Y-1887316D01*
G01X2008275Y-1876916D01*
G01X2008448Y-1845252D01*
G01X2008448Y-1802957D01*
G01X2022315Y-1802957D01*
G01X2022315Y-1912046D01*
G01X2015844Y-1912046D01*
G01X2008217Y-1911815D01*
G01X2007177Y-1911353D01*
G01X2006368Y-1910428D01*
G01X1970313Y-1856346D01*
G01X1968002Y-1853110D01*
G01X1952748Y-1830229D01*
G01X1951823Y-1828611D01*
G01X1950899Y-1827687D01*
G01X1950379Y-1838087D01*
G01X1950206Y-1869751D01*
G01X1950206Y-1912046D01*
G01X1936338Y-1912046D01*
G01X1936338Y-1857501D01*
G37*
G36*
G01X1835107Y-1857501D02*
G01X1835107Y-1802957D01*
G01X1914151Y-1802957D01*
G01X1914151Y-1815899D01*
G01X1849437Y-1815899D01*
G01X1849437Y-1849181D01*
G01X1909991Y-1849181D01*
G01X1909991Y-1862124D01*
G01X1849437Y-1862124D01*
G01X1849437Y-1899103D01*
G01X1916462Y-1899103D01*
G01X1916462Y-1912046D01*
G01X1835107Y-1912046D01*
G01X1835107Y-1857501D01*
G37*
G36*
G01X1787496Y-1898872D02*
G01X1787496Y-1885698D01*
G01X1739886Y-1885698D01*
G01X1739886Y-1879920D01*
G01X1740059Y-1875298D01*
G01X1740579Y-1872986D01*
G01X1740909Y-1872524D01*
G01X1753984Y-1872524D01*
G01X1753984Y-1873449D01*
G01X1770856Y-1873680D01*
G01X1787496Y-1873680D01*
G01X1787496Y-1849412D01*
G01X1787381Y-1831269D01*
G01X1787034Y-1825375D01*
G01X1785647Y-1826762D01*
G01X1780794Y-1833696D01*
G01X1779407Y-1835776D01*
G01X1777096Y-1839012D01*
G01X1775709Y-1841092D01*
G01X1769238Y-1850337D01*
G01X1767851Y-1852417D01*
G01X1765540Y-1855653D01*
G01X1764153Y-1857733D01*
G01X1761842Y-1860968D01*
G01X1760455Y-1863048D01*
G01X1758144Y-1866284D01*
G01X1756757Y-1868364D01*
G01X1755139Y-1870675D01*
G01X1753984Y-1872524D01*
G01X1753984Y-1872524D01*
G01X1740909Y-1872524D01*
G01X1742890Y-1869751D01*
G01X1749362Y-1860506D01*
G01X1751673Y-1857270D01*
G01X1754908Y-1852648D01*
G01X1757219Y-1849412D01*
G01X1763691Y-1840167D01*
G01X1766002Y-1836932D01*
G01X1769238Y-1832309D01*
G01X1771549Y-1829073D01*
G01X1778020Y-1819829D01*
G01X1780332Y-1816593D01*
G01X1783567Y-1811971D01*
G01X1785879Y-1808735D01*
G01X1789114Y-1804112D01*
G01X1789808Y-1802957D01*
G01X1800901Y-1802957D01*
G01X1800901Y-1873680D01*
G01X1815693Y-1873680D01*
G01X1815693Y-1885698D01*
G01X1800901Y-1885698D01*
G01X1800901Y-1912046D01*
G01X1787496Y-1912046D01*
G01X1787496Y-1898872D01*
G37*
G36*
G01X1695510Y-1913895D02*
G01X1690657Y-1913664D01*
G01X1688345Y-1913202D01*
G01X1685572Y-1912739D01*
G01X1683723Y-1912277D01*
G01X1681643Y-1911584D01*
G01X1679794Y-1910890D01*
G01X1678176Y-1910197D01*
G01X1676327Y-1909272D01*
G01X1674709Y-1908348D01*
G01X1671474Y-1906037D01*
G01X1670318Y-1905112D01*
G01X1666851Y-1901646D01*
G01X1665927Y-1900490D01*
G01X1664771Y-1898872D01*
G01X1663615Y-1897023D01*
G01X1662691Y-1895174D01*
G01X1661767Y-1893094D01*
G01X1660842Y-1890552D01*
G01X1660149Y-1888240D01*
G01X1659686Y-1885005D01*
G01X1659455Y-1881538D01*
G01X1659578Y-1879689D01*
G01X1673323Y-1879689D01*
G01X1673554Y-1883618D01*
G01X1674016Y-1885929D01*
G01X1674709Y-1888472D01*
G01X1675634Y-1890552D01*
G01X1676789Y-1892863D01*
G01X1677945Y-1894481D01*
G01X1678638Y-1895636D01*
G01X1679563Y-1896792D01*
G01X1680719Y-1897716D01*
G01X1682336Y-1898872D01*
G01X1684647Y-1900259D01*
G01X1686728Y-1901183D01*
G01X1688577Y-1901877D01*
G01X1690657Y-1902339D01*
G01X1690657Y-1902339D01*
G01X1692043Y-1902570D01*
G01X1695279Y-1902801D01*
G01X1698977Y-1902570D01*
G01X1701288Y-1902108D01*
G01X1703830Y-1901414D01*
G01X1705910Y-1900490D01*
G01X1707760Y-1899566D01*
G01X1709146Y-1898641D01*
G01X1711458Y-1896792D01*
G01X1712613Y-1895636D01*
G01X1714000Y-1893787D01*
G01X1715386Y-1891476D01*
G01X1716311Y-1889396D01*
G01X1717004Y-1887316D01*
G01X1717467Y-1885467D01*
G01X1717698Y-1881769D01*
G01X1717467Y-1878071D01*
G01X1717004Y-1875760D01*
G01X1716311Y-1872755D01*
G01X1715386Y-1870675D01*
G01X1714231Y-1868826D01*
G01X1713075Y-1867209D01*
G01X1710302Y-1863973D01*
G01X1709146Y-1863048D01*
G01X1707528Y-1861893D01*
G01X1705448Y-1860737D01*
G01X1702906Y-1859813D01*
G01X1700826Y-1859119D01*
G01X1696204Y-1858657D01*
G01X1695048Y-1858657D01*
G01X1692968Y-1858888D01*
G01X1690657Y-1859119D01*
G01X1688808Y-1859581D01*
G01X1686728Y-1860275D01*
G01X1684647Y-1861199D01*
G01X1682799Y-1862124D01*
G01X1681412Y-1863048D01*
G01X1677945Y-1866515D01*
G01X1676789Y-1868133D01*
G01X1675634Y-1869982D01*
G01X1674709Y-1871831D01*
G01X1674016Y-1873911D01*
G01X1673554Y-1875760D01*
G01X1673323Y-1879689D01*
G01X1659578Y-1879689D01*
G01X1659686Y-1878071D01*
G01X1659917Y-1875991D01*
G01X1660380Y-1872986D01*
G01X1661073Y-1870675D01*
G01X1661767Y-1868595D01*
G01X1662922Y-1866053D01*
G01X1664078Y-1864204D01*
G01X1665002Y-1862586D01*
G01X1666158Y-1861199D01*
G01X1668931Y-1858426D01*
G01X1670780Y-1857039D01*
G01X1672167Y-1856115D01*
G01X1674016Y-1855190D01*
G01X1676096Y-1854266D01*
G01X1678176Y-1853572D01*
G01X1679563Y-1852879D01*
G01X1679505Y-1852474D01*
G01X1676789Y-1851261D01*
G01X1674940Y-1850105D01*
G01X1673554Y-1849412D01*
G01X1672398Y-1848488D01*
G01X1671011Y-1847332D01*
G01X1669162Y-1845714D01*
G01X1667776Y-1843865D01*
G01X1666851Y-1842479D01*
G01X1666158Y-1841092D01*
G01X1665464Y-1839474D01*
G01X1664771Y-1837394D01*
G01X1664309Y-1835545D01*
G01X1664078Y-1831154D01*
G01X1664155Y-1829536D01*
G01X1677483Y-1829536D01*
G01X1677714Y-1831385D01*
G01X1678176Y-1834158D01*
G01X1678869Y-1836932D01*
G01X1679794Y-1838781D01*
G01X1680719Y-1840399D01*
G01X1681412Y-1841554D01*
G01X1682799Y-1843172D01*
G01X1684647Y-1844559D01*
G01X1686034Y-1845483D01*
G01X1687883Y-1846408D01*
G01X1689732Y-1847101D01*
G01X1691812Y-1847332D01*
G01X1691812Y-1847332D01*
G01X1693430Y-1847563D01*
G01X1694817Y-1847794D01*
G01X1697128Y-1847563D01*
G01X1699901Y-1847101D01*
G01X1702675Y-1846408D01*
G01X1705910Y-1844559D01*
G01X1707528Y-1843403D01*
G01X1708684Y-1842247D01*
G01X1710071Y-1840629D01*
G01X1711226Y-1838781D01*
G01X1711920Y-1837163D01*
G01X1712613Y-1835314D01*
G01X1713075Y-1831847D01*
G01X1712844Y-1827687D01*
G01X1712151Y-1825144D01*
G01X1711226Y-1823064D01*
G01X1710071Y-1820984D01*
G01X1708915Y-1819366D01*
G01X1707297Y-1817749D01*
G01X1705448Y-1816362D01*
G01X1704062Y-1815437D01*
G01X1702213Y-1814744D01*
G01X1700132Y-1814051D01*
G01X1695972Y-1813588D01*
G01X1691119Y-1814051D01*
G01X1688808Y-1814744D01*
G01X1686959Y-1815437D01*
G01X1684647Y-1816824D01*
G01X1682799Y-1818211D01*
G01X1681181Y-1819829D01*
G01X1679794Y-1821909D01*
G01X1678869Y-1823527D01*
G01X1678176Y-1825607D01*
G01X1677714Y-1827687D01*
G01X1677483Y-1829536D01*
G01X1664155Y-1829536D01*
G01X1664309Y-1826300D01*
G01X1664771Y-1824451D01*
G01X1665233Y-1822371D01*
G01X1665927Y-1820291D01*
G01X1668007Y-1816131D01*
G01X1669162Y-1814513D01*
G01X1669856Y-1813357D01*
G01X1670780Y-1812202D01*
G01X1673554Y-1809428D01*
G01X1675403Y-1808273D01*
G01X1676558Y-1807348D01*
G01X1678176Y-1806193D01*
G01X1680256Y-1805268D01*
G01X1682567Y-1804344D01*
G01X1684647Y-1803650D01*
G01X1689270Y-1802726D01*
G01X1694586Y-1802495D01*
G01X1699901Y-1802726D01*
G01X1701519Y-1802957D01*
G01X1704062Y-1803419D01*
G01X1706373Y-1804112D01*
G01X1707991Y-1804575D01*
G01X1709840Y-1805268D01*
G01X1711689Y-1806193D01*
G01X1713769Y-1807348D01*
G01X1715386Y-1808504D01*
G01X1718853Y-1811277D01*
G01X1720009Y-1812433D01*
G01X1721858Y-1814744D01*
G01X1724169Y-1818442D01*
G01X1724862Y-1820060D01*
G01X1725556Y-1821909D01*
G01X1726249Y-1824451D01*
G01X1726712Y-1826762D01*
G01X1726943Y-1830229D01*
G01X1726712Y-1833696D01*
G01X1726480Y-1835314D01*
G01X1726018Y-1837163D01*
G01X1725325Y-1839243D01*
G01X1724631Y-1841092D01*
G01X1723707Y-1842710D01*
G01X1722782Y-1844096D01*
G01X1721627Y-1845714D01*
G01X1720009Y-1847332D01*
G01X1717236Y-1849643D01*
G01X1715386Y-1850799D01*
G01X1713538Y-1851723D01*
G01X1711920Y-1852417D01*
G01X1711631Y-1852879D01*
G01X1712151Y-1853341D01*
G01X1714000Y-1854266D01*
G01X1716080Y-1855190D01*
G01X1719316Y-1857039D01*
G01X1720934Y-1858195D01*
G01X1722551Y-1859581D01*
G01X1723938Y-1860968D01*
G01X1724862Y-1862124D01*
G01X1726018Y-1863279D01*
G01X1727174Y-1865128D01*
G01X1728329Y-1866746D01*
G01X1729023Y-1868364D01*
G01X1729716Y-1870213D01*
G01X1730410Y-1872293D01*
G01X1730872Y-1874373D01*
G01X1731103Y-1875991D01*
G01X1731334Y-1878996D01*
G01X1731334Y-1881769D01*
G01X1731103Y-1883387D01*
G01X1730872Y-1885929D01*
G01X1730410Y-1888240D01*
G01X1729947Y-1890321D01*
G01X1729254Y-1892632D01*
G01X1728329Y-1894712D01*
G01X1727405Y-1896561D01*
G01X1726480Y-1898179D01*
G01X1725556Y-1899566D01*
G01X1722782Y-1903032D01*
G01X1720471Y-1905344D01*
G01X1718853Y-1906730D01*
G01X1716542Y-1908348D01*
G01X1714231Y-1909735D01*
G01X1712382Y-1910659D01*
G01X1710533Y-1911353D01*
G01X1708453Y-1912046D01*
G01X1706142Y-1912739D01*
G01X1704062Y-1913202D01*
G01X1700826Y-1913664D01*
G01X1695510Y-1913895D01*
G37*
G36*
G01X1307458Y-2084462D02*
G01X1301449Y-2084231D01*
G01X1300062Y-2084000D01*
G01X1298213Y-2083769D01*
G01X1294977Y-2083307D01*
G01X1288737Y-2081920D01*
G01X1286426Y-2081227D01*
G01X1284577Y-2080533D01*
G01X1282959Y-2079840D01*
G01X1279261Y-2077991D01*
G01X1277874Y-2077067D01*
G01X1276719Y-2076142D01*
G01X1275332Y-2075217D01*
G01X1273945Y-2074062D01*
G01X1272790Y-2072906D01*
G01X1271403Y-2071751D01*
G01X1269785Y-2069902D01*
G01X1267936Y-2067591D01*
G01X1266549Y-2065279D01*
G01X1264700Y-2061581D01*
G01X1263776Y-2059270D01*
G01X1263083Y-2057421D01*
G01X1262158Y-2053261D01*
G01X1261927Y-2050256D01*
G01X1262100Y-2048465D01*
G01X1262620Y-2047714D01*
G01X1264007Y-2047252D01*
G01X1269092Y-2046790D01*
G01X1272327Y-2046558D01*
G01X1274350Y-2046790D01*
G01X1275332Y-2047483D01*
G01X1276025Y-2050025D01*
G01X1276719Y-2053030D01*
G01X1277643Y-2055341D01*
G01X1278568Y-2057421D01*
G01X1279723Y-2059501D01*
G01X1281341Y-2061581D01*
G01X1282728Y-2063199D01*
G01X1284346Y-2064586D01*
G01X1286657Y-2066204D01*
G01X1288506Y-2067359D01*
G01X1290355Y-2068284D01*
G01X1292897Y-2069208D01*
G01X1295902Y-2070133D01*
G01X1298213Y-2070826D01*
G01X1301911Y-2071288D01*
G01X1306533Y-2071519D01*
G01X1312080Y-2071288D01*
G01X1315316Y-2070826D01*
G01X1317627Y-2070364D01*
G01X1319476Y-2069902D01*
G01X1321556Y-2069208D01*
G01X1323636Y-2068284D01*
G01X1325948Y-2067128D01*
G01X1327565Y-2065973D01*
G01X1328952Y-2065048D01*
G01X1330339Y-2063893D01*
G01X1331263Y-2062737D01*
G01X1332419Y-2061119D01*
G01X1333574Y-2058808D01*
G01X1334268Y-2056959D01*
G01X1334499Y-2053261D01*
G01X1334037Y-2048870D01*
G01X1333112Y-2046558D01*
G01X1332188Y-2044710D01*
G01X1331032Y-2043323D01*
G01X1329876Y-2042167D01*
G01X1328259Y-2040780D01*
G01X1326410Y-2039625D01*
G01X1323636Y-2038238D01*
G01X1322018Y-2037545D01*
G01X1320169Y-2036851D01*
G01X1313236Y-2034771D01*
G01X1310231Y-2034078D01*
G01X1307920Y-2033385D01*
G01X1305840Y-2032922D01*
G01X1302835Y-2032229D01*
G01X1300524Y-2031536D01*
G01X1298444Y-2031073D01*
G01X1295671Y-2030380D01*
G01X1293591Y-2029687D01*
G01X1291510Y-2029224D01*
G01X1289199Y-2028531D01*
G01X1284577Y-2026682D01*
G01X1282497Y-2025758D01*
G01X1280185Y-2024602D01*
G01X1278337Y-2023446D01*
G01X1276950Y-2022753D01*
G01X1275794Y-2021828D01*
G01X1274176Y-2020442D01*
G01X1272096Y-2018593D01*
G01X1270478Y-2016282D01*
G01X1269323Y-2014664D01*
G01X1268398Y-2013046D01*
G01X1267474Y-2010966D01*
G01X1266781Y-2008886D01*
G01X1266318Y-2007037D01*
G01X1266087Y-2002414D01*
G01X1266318Y-1997792D01*
G01X1266781Y-1995481D01*
G01X1267474Y-1992707D01*
G01X1268398Y-1990396D01*
G01X1269323Y-1988547D01*
G01X1270478Y-1986698D01*
G01X1271865Y-1984618D01*
G01X1273021Y-1983000D01*
G01X1275332Y-1980689D01*
G01X1276950Y-1979302D01*
G01X1279030Y-1977915D01*
G01X1281110Y-1976760D01*
G01X1282959Y-1975835D01*
G01X1285039Y-1974911D01*
G01X1289893Y-1973293D01*
G01X1294053Y-1972369D01*
G01X1297751Y-1971906D01*
G01X1303991Y-1971675D01*
G01X1310231Y-1971906D01*
G01X1313929Y-1972369D01*
G01X1316240Y-1972831D01*
G01X1319476Y-1973524D01*
G01X1322481Y-1974449D01*
G01X1325023Y-1975373D01*
G01X1328721Y-1977222D01*
G01X1330801Y-1978378D01*
G01X1332650Y-1979533D01*
G01X1334037Y-1980689D01*
G01X1337272Y-1983463D01*
G01X1338197Y-1984618D01*
G01X1339352Y-1986236D01*
G01X1340739Y-1988316D01*
G01X1341895Y-1990396D01*
G01X1342819Y-1992476D01*
G01X1343513Y-1994325D01*
G01X1344206Y-1996867D01*
G01X1344899Y-1999179D01*
G01X1345130Y-2001721D01*
G01X1344957Y-2003223D01*
G01X1344437Y-2004032D01*
G01X1341202Y-2004494D01*
G01X1337966Y-2004726D01*
G01X1334499Y-2004957D01*
G01X1332361Y-2004783D01*
G01X1331494Y-2004263D01*
G01X1331032Y-2002877D01*
G01X1330570Y-2000797D01*
G01X1329876Y-1998485D01*
G01X1328952Y-1996405D01*
G01X1328028Y-1994556D01*
G01X1326872Y-1992707D01*
G01X1325485Y-1991089D01*
G01X1324330Y-1989934D01*
G01X1322712Y-1988547D01*
G01X1320863Y-1987391D01*
G01X1317627Y-1986005D01*
G01X1315547Y-1985311D01*
G01X1313467Y-1984849D01*
G01X1308844Y-1984387D01*
G01X1305378Y-1984156D01*
G01X1301911Y-1984387D01*
G01X1297288Y-1984849D01*
G01X1294515Y-1985311D01*
G01X1291510Y-1986005D01*
G01X1289430Y-1986929D01*
G01X1287119Y-1988085D01*
G01X1285501Y-1989472D01*
G01X1283883Y-1991089D01*
G01X1282266Y-1992476D01*
G01X1281341Y-1994094D01*
G01X1280417Y-1996174D01*
G01X1279954Y-1999410D01*
G01X1280185Y-2003339D01*
G01X1280879Y-2005881D01*
G01X1281572Y-2007499D01*
G01X1283421Y-2009810D01*
G01X1284577Y-2010966D01*
G01X1285963Y-2011890D01*
G01X1287581Y-2012815D01*
G01X1289893Y-2013739D01*
G01X1292435Y-2014664D01*
G01X1295439Y-2015588D01*
G01X1298675Y-2016513D01*
G01X1300986Y-2017206D01*
G01X1307227Y-2018593D01*
G01X1310231Y-2019286D01*
G01X1315778Y-2020673D01*
G01X1318089Y-2021366D01*
G01X1320169Y-2021828D01*
G01X1322481Y-2022522D01*
G01X1326641Y-2023909D01*
G01X1328490Y-2024602D01*
G01X1330108Y-2025295D01*
G01X1331957Y-2026220D01*
G01X1334037Y-2027375D01*
G01X1336117Y-2028762D01*
G01X1338428Y-2030380D01*
G01X1340046Y-2031536D01*
G01X1340970Y-2032460D01*
G01X1343744Y-2035927D01*
G01X1344668Y-2037314D01*
G01X1345593Y-2038932D01*
G01X1346980Y-2042167D01*
G01X1347673Y-2044247D01*
G01X1348135Y-2046327D01*
G01X1348366Y-2051181D01*
G01X1348135Y-2056034D01*
G01X1347673Y-2058346D01*
G01X1346980Y-2060888D01*
G01X1346055Y-2063199D01*
G01X1344899Y-2065742D01*
G01X1343744Y-2067591D01*
G01X1342819Y-2068977D01*
G01X1340046Y-2072675D01*
G01X1338428Y-2074293D01*
G01X1336579Y-2075680D01*
G01X1335423Y-2076604D01*
G01X1334037Y-2077529D01*
G01X1329183Y-2080302D01*
G01X1325485Y-2081689D01*
G01X1323174Y-2082382D01*
G01X1320632Y-2083076D01*
G01X1318783Y-2083538D01*
G01X1313929Y-2084231D01*
G01X1307458Y-2084462D01*
G37*
G36*
G01X1368705Y-2028069D02*
G01X1368705Y-1973524D01*
G01X1447748Y-1973524D01*
G01X1447748Y-1978840D01*
G01X1447517Y-1985311D01*
G01X1447286Y-1986467D01*
G01X1383034Y-1986467D01*
G01X1383034Y-2019748D01*
G01X1443588Y-2019748D01*
G01X1443588Y-2032691D01*
G01X1383034Y-2032691D01*
G01X1383034Y-2069671D01*
G01X1450060Y-2069671D01*
G01X1450060Y-2082613D01*
G01X1368705Y-2082613D01*
G01X1368705Y-2028069D01*
G37*
G36*
G01X1497670Y-2034540D02*
G01X1497670Y-1986467D01*
G01X1462078Y-1986467D01*
G01X1462078Y-1973524D01*
G01X1548517Y-1973524D01*
G01X1548517Y-1986467D01*
G01X1512462Y-1986467D01*
G01X1512462Y-2082613D01*
G01X1497670Y-2082613D01*
G01X1497670Y-2034540D01*
G37*
G36*
G01X1628023Y-2034540D02*
G01X1628023Y-1986467D01*
G01X1591968Y-1986467D01*
G01X1591968Y-1973524D01*
G01X1678407Y-1973524D01*
G01X1678407Y-1986467D01*
G01X1642352Y-1986467D01*
G01X1642352Y-2082613D01*
G01X1628023Y-2082613D01*
G01X1628023Y-2034540D01*
G37*
G36*
G01X1738499Y-2084462D02*
G01X1733183Y-2084231D01*
G01X1727636Y-2083307D01*
G01X1725325Y-2082845D01*
G01X1722320Y-2082151D01*
G01X1719547Y-2081227D01*
G01X1717467Y-2080302D01*
G01X1715849Y-2079609D01*
G01X1713769Y-2078684D01*
G01X1709146Y-2075911D01*
G01X1707528Y-2074755D01*
G01X1704062Y-2071982D01*
G01X1698284Y-2066204D01*
G01X1695972Y-2062968D01*
G01X1695048Y-2061581D01*
G01X1693199Y-2058346D01*
G01X1692274Y-2056497D01*
G01X1691350Y-2054417D01*
G01X1690657Y-2052568D01*
G01X1689963Y-2050950D01*
G01X1689270Y-2049101D01*
G01X1688577Y-2046558D01*
G01X1687883Y-2044478D01*
G01X1686959Y-2039856D01*
G01X1686497Y-2036620D01*
G01X1686265Y-2030149D01*
G01X1686320Y-2028300D01*
G01X1701057Y-2028300D01*
G01X1701288Y-2034771D01*
G01X1701519Y-2036620D01*
G01X1701750Y-2038932D01*
G01X1702213Y-2041243D01*
G01X1702675Y-2043092D01*
G01X1703137Y-2045172D01*
G01X1703830Y-2047483D01*
G01X1704524Y-2049332D01*
G01X1705217Y-2050950D01*
G01X1706142Y-2052799D01*
G01X1707297Y-2054879D01*
G01X1708684Y-2056959D01*
G01X1709840Y-2058577D01*
G01X1712613Y-2061812D01*
G01X1713769Y-2062737D01*
G01X1714924Y-2063893D01*
G01X1716542Y-2065279D01*
G01X1718622Y-2066666D01*
G01X1720471Y-2067822D01*
G01X1722089Y-2068746D01*
G01X1724169Y-2069671D01*
G01X1727174Y-2070595D01*
G01X1729485Y-2071288D01*
G01X1731334Y-2071519D01*
G01X1731334Y-2071519D01*
G01X1732721Y-2071751D01*
G01X1737805Y-2071982D01*
G01X1743352Y-2071751D01*
G01X1744970Y-2071519D01*
G01X1747281Y-2071057D01*
G01X1749362Y-2070364D01*
G01X1751210Y-2069902D01*
G01X1753059Y-2069208D01*
G01X1757219Y-2067128D01*
G01X1759300Y-2065742D01*
G01X1761380Y-2064124D01*
G01X1763229Y-2062737D01*
G01X1764847Y-2061119D01*
G01X1766695Y-2058808D01*
G01X1768082Y-2056959D01*
G01X1770393Y-2053261D01*
G01X1771318Y-2051412D01*
G01X1772242Y-2049101D01*
G01X1773167Y-2046558D01*
G01X1773860Y-2044478D01*
G01X1774785Y-2039856D01*
G01X1775247Y-2036620D01*
G01X1775478Y-2029456D01*
G01X1775247Y-2021366D01*
G01X1774785Y-2017668D01*
G01X1774091Y-2013970D01*
G01X1773398Y-2011659D01*
G01X1772936Y-2009810D01*
G01X1772242Y-2007730D01*
G01X1771318Y-2005419D01*
G01X1770393Y-2003339D01*
G01X1768544Y-2000103D01*
G01X1767620Y-1998716D01*
G01X1766695Y-1997561D01*
G01X1766002Y-1996405D01*
G01X1765077Y-1995250D01*
G01X1762304Y-1992476D01*
G01X1758606Y-1989703D01*
G01X1756295Y-1988316D01*
G01X1753984Y-1987160D01*
G01X1751673Y-1986236D01*
G01X1749824Y-1985543D01*
G01X1747512Y-1984849D01*
G01X1745201Y-1984387D01*
G01X1739654Y-1983925D01*
G01X1738499Y-1983925D01*
G01X1735956Y-1984156D01*
G01X1732721Y-1984387D01*
G01X1730872Y-1984849D01*
G01X1729254Y-1985080D01*
G01X1727405Y-1985543D01*
G01X1725325Y-1986236D01*
G01X1723476Y-1986929D01*
G01X1719316Y-1989009D01*
G01X1717236Y-1990396D01*
G01X1715618Y-1991321D01*
G01X1714462Y-1992245D01*
G01X1710071Y-1996636D01*
G01X1708684Y-1998254D01*
G01X1707297Y-2000334D01*
G01X1706142Y-2002414D01*
G01X1705217Y-2004494D01*
G01X1704293Y-2006806D01*
G01X1703368Y-2009810D01*
G01X1702675Y-2012121D01*
G01X1701750Y-2017206D01*
G01X1701288Y-2021828D01*
G01X1701057Y-2028300D01*
G01X1686320Y-2028300D01*
G01X1686497Y-2022291D01*
G01X1686959Y-2018130D01*
G01X1687421Y-2015357D01*
G01X1688345Y-2010735D01*
G01X1688808Y-2008886D01*
G01X1689501Y-2006343D01*
G01X1690425Y-2003801D01*
G01X1691350Y-2001490D01*
G01X1694354Y-1995481D01*
G01X1695741Y-1993401D01*
G01X1696666Y-1991783D01*
G01X1697590Y-1990627D01*
G01X1699901Y-1987854D01*
G01X1704986Y-1982769D01*
G01X1706835Y-1981382D01*
G01X1708453Y-1980227D01*
G01X1710533Y-1978840D01*
G01X1712382Y-1977684D01*
G01X1716080Y-1975835D01*
G01X1717698Y-1975142D01*
G01X1719547Y-1974449D01*
G01X1721627Y-1973755D01*
G01X1724400Y-1973062D01*
G01X1726712Y-1972369D01*
G01X1730410Y-1971906D01*
G01X1737574Y-1971675D01*
G01X1744739Y-1971906D01*
G01X1747975Y-1972369D01*
G01X1754215Y-1973755D01*
G01X1756295Y-1974449D01*
G01X1759993Y-1975835D01*
G01X1764153Y-1977915D01*
G01X1766464Y-1979302D01*
G01X1768544Y-1980689D01*
G01X1770162Y-1981845D01*
G01X1772473Y-1983694D01*
G01X1778251Y-1989472D01*
G01X1779176Y-1990627D01*
G01X1780332Y-1992245D01*
G01X1781487Y-1994094D01*
G01X1782412Y-1995712D01*
G01X1783567Y-1997561D01*
G01X1784492Y-1999410D01*
G01X1785879Y-2002645D01*
G01X1787265Y-2006343D01*
G01X1787959Y-2008655D01*
G01X1788652Y-2010735D01*
G01X1789577Y-2015357D01*
G01X1790039Y-2018593D01*
G01X1790501Y-2025526D01*
G01X1790732Y-2027375D01*
G01X1790501Y-2029224D01*
G01X1790270Y-2031998D01*
G01X1790039Y-2036158D01*
G01X1789577Y-2039394D01*
G01X1788652Y-2044016D01*
G01X1787727Y-2047714D01*
G01X1787034Y-2050256D01*
G01X1786110Y-2052568D01*
G01X1784261Y-2056728D01*
G01X1783336Y-2058577D01*
G01X1782181Y-2060657D01*
G01X1781025Y-2062506D01*
G01X1780101Y-2063893D01*
G01X1779176Y-2065048D01*
G01X1778251Y-2066435D01*
G01X1777096Y-2067822D01*
G01X1772011Y-2072906D01*
G01X1770162Y-2074293D01*
G01X1768544Y-2075449D01*
G01X1766464Y-2076835D01*
G01X1764615Y-2077991D01*
G01X1762766Y-2078915D01*
G01X1760686Y-2079840D01*
G01X1758837Y-2080533D01*
G01X1757219Y-2081227D01*
G01X1755139Y-2081920D01*
G01X1752828Y-2082613D01*
G01X1750286Y-2083307D01*
G01X1747975Y-2083769D01*
G01X1743814Y-2084231D01*
G01X1738499Y-2084462D01*
G37*
G36*
G01X1880869Y-2084462D02*
G01X1876478Y-2084231D01*
G01X1874167Y-2083769D01*
G01X1871393Y-2083307D01*
G01X1869544Y-2082845D01*
G01X1867464Y-2082151D01*
G01X1865153Y-2081227D01*
G01X1863073Y-2080302D01*
G01X1861455Y-2079378D01*
G01X1860068Y-2078453D01*
G01X1858450Y-2077297D01*
G01X1856833Y-2075911D01*
G01X1853828Y-2072906D01*
G01X1852441Y-2071288D01*
G01X1851055Y-2069208D01*
G01X1849899Y-2067359D01*
G01X1848975Y-2065510D01*
G01X1847588Y-2061812D01*
G01X1846894Y-2059270D01*
G01X1846432Y-2056959D01*
G01X1846201Y-2055110D01*
G01X1846548Y-2054243D01*
G01X1847588Y-2053954D01*
G01X1849668Y-2053723D01*
G01X1854753Y-2053261D01*
G01X1857757Y-2053030D01*
G01X1860068Y-2053030D01*
G01X1860531Y-2054417D01*
G01X1861224Y-2056959D01*
G01X1861917Y-2059270D01*
G01X1862842Y-2061581D01*
G01X1864460Y-2064817D01*
G01X1865384Y-2065973D01*
G01X1866540Y-2067128D01*
G01X1867464Y-2068284D01*
G01X1868851Y-2069439D01*
G01X1870700Y-2070595D01*
G01X1872318Y-2071519D01*
G01X1874398Y-2072444D01*
G01X1876478Y-2073137D01*
G01X1880176Y-2073369D01*
G01X1884798Y-2073137D01*
G01X1887803Y-2072444D01*
G01X1890345Y-2071519D01*
G01X1891963Y-2070595D01*
G01X1893350Y-2069902D01*
G01X1894737Y-2068977D01*
G01X1898203Y-2065510D01*
G01X1899359Y-2064124D01*
G01X1900515Y-2062275D01*
G01X1901670Y-2060195D01*
G01X1902595Y-2058115D01*
G01X1903288Y-2055803D01*
G01X1903750Y-2053723D01*
G01X1904213Y-2050025D01*
G01X1904444Y-2047252D01*
G01X1904213Y-2044478D01*
G01X1903750Y-2041243D01*
G01X1903288Y-2038932D01*
G01X1902595Y-2036389D01*
G01X1901670Y-2034309D01*
G01X1900746Y-2032460D01*
G01X1899590Y-2030611D01*
G01X1898203Y-2028993D01*
G01X1897048Y-2027838D01*
G01X1895430Y-2026451D01*
G01X1893812Y-2025295D01*
G01X1892194Y-2024371D01*
G01X1890114Y-2023446D01*
G01X1887572Y-2022753D01*
G01X1885261Y-2022291D01*
G01X1881794Y-2022060D01*
G01X1878327Y-2022291D01*
G01X1875091Y-2022753D01*
G01X1873011Y-2023446D01*
G01X1870469Y-2024371D01*
G01X1868389Y-2025526D01*
G01X1866771Y-2026451D01*
G01X1865615Y-2027375D01*
G01X1862842Y-2030149D01*
G01X1861455Y-2031998D01*
G01X1860877Y-2032460D01*
G01X1860068Y-2032460D01*
G01X1857064Y-2031998D01*
G01X1853366Y-2031536D01*
G01X1850130Y-2031073D01*
G01X1848975Y-2030669D01*
G01X1848744Y-2029918D01*
G01X1849206Y-2028300D01*
G01X1849668Y-2025989D01*
G01X1850130Y-2023215D01*
G01X1850592Y-2020904D01*
G01X1851055Y-2018130D01*
G01X1851979Y-2013508D01*
G01X1852441Y-2010735D01*
G01X1853828Y-2003801D01*
G01X1854290Y-2001028D01*
G01X1854753Y-1998716D01*
G01X1855677Y-1993632D01*
G01X1857064Y-1986698D01*
G01X1857526Y-1983925D01*
G01X1858450Y-1979302D01*
G01X1858913Y-1976529D01*
G01X1859144Y-1974911D01*
G01X1913226Y-1974911D01*
G01X1913226Y-1987854D01*
G01X1891501Y-1987854D01*
G01X1875149Y-1988085D01*
G01X1869544Y-1988778D01*
G01X1869082Y-1990396D01*
G01X1864460Y-2013508D01*
G01X1864229Y-2015357D01*
G01X1864402Y-2016166D01*
G01X1864922Y-2016282D01*
G01X1866540Y-2015357D01*
G01X1868620Y-2014202D01*
G01X1870469Y-2013277D01*
G01X1872318Y-2012584D01*
G01X1874398Y-2011890D01*
G01X1876709Y-2011197D01*
G01X1878789Y-2010735D01*
G01X1884105Y-2010504D01*
G01X1889421Y-2010735D01*
G01X1894043Y-2011659D01*
G01X1896123Y-2012352D01*
G01X1898666Y-2013277D01*
G01X1900515Y-2014202D01*
G01X1902132Y-2015126D01*
G01X1904906Y-2016975D01*
G01X1907679Y-2019286D01*
G01X1909528Y-2020904D01*
G01X1911377Y-2023215D01*
G01X1912764Y-2025064D01*
G01X1913689Y-2026451D01*
G01X1915537Y-2030149D01*
G01X1916231Y-2031998D01*
G01X1916924Y-2034078D01*
G01X1917617Y-2036620D01*
G01X1918080Y-2038932D01*
G01X1918311Y-2044247D01*
G01X1918080Y-2050950D01*
G01X1917617Y-2053723D01*
G01X1917387Y-2055341D01*
G01X1916924Y-2057190D01*
G01X1915537Y-2061350D01*
G01X1914613Y-2063430D01*
G01X1913457Y-2065742D01*
G01X1912071Y-2068053D01*
G01X1910915Y-2069671D01*
G01X1908142Y-2073137D01*
G01X1904675Y-2076604D01*
G01X1901439Y-2078915D01*
G01X1900052Y-2079840D01*
G01X1898203Y-2080764D01*
G01X1896123Y-2081689D01*
G01X1894274Y-2082382D01*
G01X1891732Y-2083076D01*
G01X1889421Y-2083769D01*
G01X1885723Y-2084231D01*
G01X1880869Y-2084462D01*
G37*
G36*
G01X1967771Y-2082613D02*
G01X1967078Y-2080995D01*
G01X1965922Y-2078453D01*
G01X1963148Y-2071057D01*
G01X1962224Y-2068977D01*
G01X1961299Y-2066435D01*
G01X1959450Y-2061812D01*
G01X1958526Y-2059270D01*
G01X1956677Y-2054648D01*
G01X1955753Y-2052106D01*
G01X1953904Y-2047483D01*
G01X1952979Y-2044941D01*
G01X1951130Y-2040318D01*
G01X1950206Y-2037776D01*
G01X1948357Y-2033154D01*
G01X1947432Y-2030611D01*
G01X1945583Y-2025989D01*
G01X1944659Y-2023446D01*
G01X1943734Y-2021135D01*
G01X1942348Y-2017437D01*
G01X1939574Y-2010504D01*
G01X1938650Y-2007961D01*
G01X1936801Y-2003339D01*
G01X1935876Y-2000797D01*
G01X1934027Y-1996174D01*
G01X1933103Y-1993632D01*
G01X1931254Y-1989009D01*
G01X1930329Y-1986467D01*
G01X1928480Y-1981845D01*
G01X1927556Y-1979302D01*
G01X1925245Y-1973524D01*
G01X1932872Y-1973524D01*
G01X1938765Y-1973755D01*
G01X1941192Y-1974449D01*
G01X1942117Y-1976529D01*
G01X1942810Y-1978609D01*
G01X1943734Y-1980920D01*
G01X1944659Y-1983694D01*
G01X1946508Y-1988778D01*
G01X1947432Y-1991552D01*
G01X1948357Y-1993863D01*
G01X1949743Y-1998023D01*
G01X1950668Y-2000334D01*
G01X1951592Y-2003108D01*
G01X1953441Y-2008192D01*
G01X1954366Y-2010966D01*
G01X1955290Y-2013277D01*
G01X1956677Y-2017437D01*
G01X1957602Y-2019748D01*
G01X1958526Y-2022522D01*
G01X1960375Y-2027606D01*
G01X1961299Y-2030380D01*
G01X1962224Y-2032691D01*
G01X1963611Y-2036851D01*
G01X1964997Y-2040549D01*
G01X1965691Y-2042630D01*
G01X1967078Y-2046327D01*
G01X1967771Y-2048408D01*
G01X1968695Y-2050719D01*
G01X1974011Y-2066666D01*
G01X1974473Y-2068515D01*
G01X1974762Y-2069324D01*
G01X1975167Y-2069439D01*
G01X1976091Y-2067591D01*
G01X1977016Y-2064586D01*
G01X1979789Y-2056266D01*
G01X1981638Y-2051181D01*
G01X1982563Y-2048870D01*
G01X1983256Y-2046790D01*
G01X1988803Y-2031998D01*
G01X1989496Y-2029918D01*
G01X1992270Y-2022522D01*
G01X1993194Y-2020211D01*
G01X1995043Y-2015126D01*
G01X1995968Y-2012815D01*
G01X1996661Y-2010735D01*
G01X2002208Y-1995943D01*
G01X2002901Y-1993863D01*
G01X2004288Y-1990165D01*
G01X2005212Y-1987854D01*
G01X2007062Y-1982769D01*
G01X2007986Y-1980458D01*
G01X2008679Y-1978378D01*
G01X2010066Y-1974680D01*
G01X2010297Y-1973524D01*
G01X2017462Y-1973524D01*
G01X2024627Y-1973987D01*
G01X2024164Y-1975604D01*
G01X2023240Y-1978147D01*
G01X2019542Y-1987391D01*
G01X2018618Y-1989934D01*
G01X2015844Y-1996867D01*
G01X2014920Y-1999410D01*
G01X2011222Y-2008655D01*
G01X2010297Y-2011197D01*
G01X2007524Y-2018130D01*
G01X2006599Y-2020673D01*
G01X2002901Y-2029918D01*
G01X2001977Y-2032460D01*
G01X1999203Y-2039394D01*
G01X1998279Y-2041936D01*
G01X1994581Y-2051181D01*
G01X1993656Y-2053723D01*
G01X1989958Y-2062968D01*
G01X1989034Y-2065510D01*
G01X1986260Y-2072444D01*
G01X1984180Y-2077991D01*
G01X1983487Y-2079609D01*
G01X1982794Y-2081458D01*
G01X1982563Y-2082613D01*
G01X1967771Y-2082613D01*
G37*
G36*
G01X1299368Y-2255030D02*
G01X1296826Y-2254799D01*
G01X1294746Y-2254337D01*
G01X1291279Y-2253643D01*
G01X1288737Y-2252719D01*
G01X1286426Y-2251794D01*
G01X1283883Y-2250639D01*
G01X1280648Y-2248327D01*
G01X1279030Y-2246941D01*
G01X1278105Y-2245785D01*
G01X1277181Y-2244398D01*
G01X1276257Y-2242780D01*
G01X1274870Y-2239545D01*
G01X1274176Y-2237465D01*
G01X1273714Y-2235385D01*
G01X1273252Y-2231687D01*
G01X1273021Y-2202565D01*
G01X1273021Y-2174137D01*
G01X1286426Y-2174137D01*
G01X1286426Y-2200254D01*
G01X1286657Y-2227064D01*
G01X1286888Y-2228913D01*
G01X1287119Y-2231224D01*
G01X1287813Y-2233767D01*
G01X1288737Y-2235847D01*
G01X1289430Y-2237233D01*
G01X1290355Y-2238389D01*
G01X1291510Y-2239545D01*
G01X1292897Y-2240700D01*
G01X1294977Y-2241856D01*
G01X1297520Y-2242780D01*
G01X1299600Y-2243243D01*
G01X1301911Y-2243474D01*
G01X1305146Y-2243243D01*
G01X1307458Y-2242780D01*
G01X1309538Y-2242318D01*
G01X1311387Y-2241625D01*
G01X1314160Y-2240238D01*
G01X1315547Y-2239313D01*
G01X1316934Y-2238158D01*
G01X1319245Y-2235847D01*
G01X1320400Y-2234229D01*
G01X1321325Y-2232380D01*
G01X1322018Y-2230531D01*
G01X1322712Y-2228220D01*
G01X1323174Y-2226140D01*
G01X1323636Y-2220131D01*
G01X1323867Y-2196787D01*
G01X1323867Y-2174137D01*
G01X1337272Y-2174137D01*
G01X1337272Y-2253181D01*
G01X1325254Y-2253181D01*
G01X1325254Y-2247865D01*
G01X1324792Y-2242318D01*
G01X1324098Y-2242780D01*
G01X1323174Y-2243936D01*
G01X1322018Y-2245323D01*
G01X1320400Y-2247172D01*
G01X1318089Y-2249021D01*
G01X1315778Y-2250639D01*
G01X1313929Y-2251794D01*
G01X1312311Y-2252487D01*
G01X1310462Y-2253181D01*
G01X1308151Y-2253874D01*
G01X1306071Y-2254337D01*
G01X1302373Y-2254799D01*
G01X1299368Y-2255030D01*
G37*
G36*
G01X1036988Y-2284902D02*
G01X1035428Y-2284382D01*
G01X1034504Y-2282995D01*
G01X1031037Y-2278142D01*
G01X1029650Y-2276062D01*
G01X1028263Y-2273750D01*
G01X1027108Y-2272133D01*
G01X1024334Y-2267279D01*
G01X1020637Y-2259883D01*
G01X1017863Y-2253643D01*
G01X1016014Y-2249021D01*
G01X1013934Y-2242780D01*
G01X1013241Y-2240007D01*
G01X1012547Y-2237696D01*
G01X1011623Y-2233535D01*
G01X1010698Y-2227989D01*
G01X1010236Y-2223828D01*
G01X1010005Y-2214352D01*
G01X1010236Y-2204876D01*
G01X1011161Y-2197481D01*
G01X1011623Y-2194938D01*
G01X1012316Y-2191472D01*
G01X1013703Y-2185925D01*
G01X1014627Y-2182920D01*
G01X1016014Y-2178760D01*
G01X1016939Y-2176218D01*
G01X1017863Y-2173906D01*
G01X1019712Y-2169746D01*
G01X1024334Y-2160501D01*
G01X1026183Y-2157266D01*
G01X1027339Y-2155416D01*
G01X1028726Y-2153105D01*
G01X1032886Y-2146865D01*
G01X1034041Y-2145247D01*
G01X1034966Y-2144092D01*
G01X1035659Y-2142936D01*
G01X1037046Y-2142416D01*
G01X1040744Y-2142243D01*
G01X1045598Y-2142243D01*
G01X1045135Y-2143167D01*
G01X1044211Y-2144554D01*
G01X1043286Y-2146172D01*
G01X1038664Y-2154492D01*
G01X1037739Y-2156341D01*
G01X1035890Y-2159577D01*
G01X1034504Y-2162812D01*
G01X1033579Y-2164661D01*
G01X1032655Y-2166973D01*
G01X1031730Y-2169053D01*
G01X1031037Y-2171133D01*
G01X1030343Y-2172982D01*
G01X1029650Y-2175062D01*
G01X1028957Y-2177373D01*
G01X1028263Y-2179453D01*
G01X1027570Y-2182227D01*
G01X1026877Y-2184538D01*
G01X1025952Y-2188698D01*
G01X1025028Y-2193783D01*
G01X1024565Y-2197018D01*
G01X1024103Y-2201641D01*
G01X1023641Y-2209037D01*
G01X1023410Y-2212503D01*
G01X1023641Y-2215970D01*
G01X1023872Y-2219206D01*
G01X1024103Y-2223828D01*
G01X1024565Y-2227989D01*
G01X1025028Y-2231687D01*
G01X1026415Y-2238620D01*
G01X1026877Y-2240700D01*
G01X1027570Y-2243705D01*
G01X1028495Y-2246941D01*
G01X1029188Y-2249252D01*
G01X1031730Y-2256879D01*
G01X1032655Y-2259190D01*
G01X1033579Y-2261270D01*
G01X1034504Y-2263581D01*
G01X1036353Y-2267741D01*
G01X1041206Y-2277448D01*
G01X1042362Y-2279298D01*
G01X1045135Y-2284151D01*
G01X1045598Y-2285076D01*
G01X1040744Y-2285076D01*
G01X1036988Y-2284902D01*
G37*
G36*
G01X1061314Y-2213659D02*
G01X1061314Y-2174137D01*
G01X1073332Y-2174137D01*
G01X1073332Y-2179222D01*
G01X1073505Y-2182978D01*
G01X1074025Y-2184076D01*
G01X1075181Y-2182920D01*
G01X1076337Y-2181533D01*
G01X1079110Y-2178760D01*
G01X1080959Y-2177373D01*
G01X1084657Y-2175062D01*
G01X1086737Y-2174137D01*
G01X1088817Y-2173444D01*
G01X1093440Y-2172520D01*
G01X1096675Y-2172288D01*
G01X1100373Y-2172520D01*
G01X1103147Y-2172982D01*
G01X1106382Y-2173675D01*
G01X1108925Y-2174600D01*
G01X1111005Y-2175755D01*
G01X1113085Y-2177142D01*
G01X1114703Y-2178298D01*
G01X1115858Y-2179453D01*
G01X1117014Y-2181071D01*
G01X1118169Y-2182920D01*
G01X1119094Y-2184769D01*
G01X1119614Y-2185347D01*
G01X1120250Y-2185231D01*
G01X1121405Y-2184076D01*
G01X1123254Y-2181764D01*
G01X1126721Y-2178298D01*
G01X1128339Y-2177142D01*
G01X1130188Y-2175986D01*
G01X1131806Y-2175062D01*
G01X1133423Y-2174368D01*
G01X1135273Y-2173675D01*
G01X1137815Y-2172982D01*
G01X1140126Y-2172520D01*
G01X1143593Y-2172288D01*
G01X1147060Y-2172520D01*
G01X1149833Y-2172982D01*
G01X1153300Y-2173675D01*
G01X1155842Y-2174600D01*
G01X1158153Y-2175755D01*
G01X1159771Y-2176911D01*
G01X1160927Y-2177835D01*
G01X1162314Y-2178991D01*
G01X1163932Y-2180840D01*
G01X1165318Y-2182920D01*
G01X1166243Y-2185000D01*
G01X1167167Y-2187774D01*
G01X1167861Y-2190085D01*
G01X1168323Y-2193783D01*
G01X1168554Y-2223828D01*
G01X1168554Y-2253181D01*
G01X1155149Y-2253181D01*
G01X1155149Y-2225909D01*
G01X1154918Y-2197018D01*
G01X1154456Y-2194245D01*
G01X1153762Y-2191703D01*
G01X1152607Y-2189160D01*
G01X1150758Y-2187080D01*
G01X1148677Y-2185694D01*
G01X1146366Y-2184769D01*
G01X1144286Y-2184076D01*
G01X1142206Y-2183844D01*
G01X1140126Y-2184076D01*
G01X1136890Y-2184538D01*
G01X1134810Y-2185000D01*
G01X1132730Y-2185694D01*
G01X1131112Y-2186618D01*
G01X1129726Y-2187542D01*
G01X1128570Y-2188467D01*
G01X1127183Y-2189622D01*
G01X1126028Y-2191009D01*
G01X1124872Y-2192627D01*
G01X1123947Y-2194476D01*
G01X1123254Y-2196325D01*
G01X1122561Y-2198636D01*
G01X1122099Y-2200716D01*
G01X1121867Y-2227295D01*
G01X1121867Y-2253181D01*
G01X1108462Y-2253181D01*
G01X1108462Y-2226602D01*
G01X1108231Y-2199330D01*
G01X1107769Y-2195632D01*
G01X1107307Y-2193552D01*
G01X1106613Y-2191240D01*
G01X1105689Y-2189391D01*
G01X1104765Y-2188005D01*
G01X1103840Y-2187080D01*
G01X1102684Y-2186156D01*
G01X1101298Y-2185231D01*
G01X1099218Y-2184538D01*
G01X1097138Y-2184076D01*
G01X1095520Y-2183844D01*
G01X1093440Y-2184076D01*
G01X1090204Y-2184538D01*
G01X1087430Y-2185231D01*
G01X1083732Y-2187080D01*
G01X1082346Y-2188005D01*
G01X1081190Y-2188929D01*
G01X1080266Y-2189854D01*
G01X1079341Y-2191009D01*
G01X1078186Y-2192858D01*
G01X1077030Y-2195169D01*
G01X1076337Y-2197018D01*
G01X1075412Y-2201179D01*
G01X1074950Y-2205801D01*
G01X1074719Y-2229837D01*
G01X1074719Y-2253181D01*
G01X1061314Y-2253181D01*
G01X1061314Y-2213659D01*
G37*
G36*
G01X1219863Y-2255030D02*
G01X1216627Y-2254799D01*
G01X1214547Y-2254337D01*
G01X1209925Y-2253412D01*
G01X1206920Y-2252719D01*
G01X1204840Y-2251794D01*
G01X1200680Y-2249714D01*
G01X1198600Y-2248327D01*
G01X1196520Y-2246709D01*
G01X1194671Y-2245323D01*
G01X1190510Y-2240469D01*
G01X1189355Y-2238851D01*
G01X1187275Y-2234691D01*
G01X1185888Y-2230993D01*
G01X1185195Y-2228682D01*
G01X1184501Y-2225677D01*
G01X1184039Y-2223366D01*
G01X1183346Y-2214352D01*
G01X1183506Y-2212272D01*
G01X1197213Y-2212272D01*
G01X1197444Y-2217819D01*
G01X1197906Y-2221979D01*
G01X1198600Y-2225677D01*
G01X1199524Y-2228682D01*
G01X1200449Y-2230762D01*
G01X1201373Y-2232611D01*
G01X1202298Y-2234229D01*
G01X1202991Y-2235385D01*
G01X1203916Y-2236540D01*
G01X1206689Y-2239313D01*
G01X1210156Y-2241625D01*
G01X1212005Y-2242549D01*
G01X1214085Y-2243243D01*
G01X1215934Y-2243474D01*
G01X1215934Y-2243474D01*
G01X1217320Y-2243705D01*
G01X1219401Y-2243936D01*
G01X1223330Y-2243705D01*
G01X1226796Y-2243011D01*
G01X1229339Y-2242087D01*
G01X1231650Y-2240931D01*
G01X1233961Y-2239313D01*
G01X1235810Y-2237927D01*
G01X1236966Y-2236771D01*
G01X1238353Y-2234922D01*
G01X1239739Y-2232842D01*
G01X1240664Y-2230993D01*
G01X1242050Y-2227295D01*
G01X1242744Y-2224753D01*
G01X1243206Y-2222442D01*
G01X1243668Y-2217819D01*
G01X1243899Y-2213890D01*
G01X1243668Y-2209961D01*
G01X1243437Y-2208343D01*
G01X1243206Y-2205801D01*
G01X1242744Y-2203490D01*
G01X1242281Y-2201410D01*
G01X1241588Y-2198867D01*
G01X1240664Y-2196556D01*
G01X1239508Y-2194245D01*
G01X1237197Y-2191009D01*
G01X1235348Y-2188929D01*
G01X1233499Y-2187542D01*
G01X1232343Y-2186618D01*
G01X1230726Y-2185694D01*
G01X1228645Y-2184769D01*
G01X1226565Y-2184076D01*
G01X1224716Y-2183613D01*
G01X1221250Y-2183382D01*
G01X1217783Y-2183613D01*
G01X1215240Y-2184076D01*
G01X1212467Y-2184769D01*
G01X1210618Y-2185694D01*
G01X1209000Y-2186618D01*
G01X1207151Y-2187774D01*
G01X1205533Y-2189160D01*
G01X1204378Y-2190316D01*
G01X1202529Y-2192627D01*
G01X1201373Y-2194245D01*
G01X1200449Y-2196094D01*
G01X1199755Y-2197712D01*
G01X1199062Y-2199561D01*
G01X1198369Y-2201872D01*
G01X1197906Y-2203952D01*
G01X1197444Y-2208112D01*
G01X1197213Y-2212272D01*
G01X1183506Y-2212272D01*
G01X1183577Y-2211348D01*
G01X1184039Y-2205801D01*
G01X1184501Y-2202565D01*
G01X1184964Y-2200485D01*
G01X1185657Y-2197481D01*
G01X1186581Y-2194707D01*
G01X1187506Y-2192396D01*
G01X1188662Y-2190085D01*
G01X1190048Y-2187774D01*
G01X1191204Y-2186156D01*
G01X1193977Y-2182689D01*
G01X1195595Y-2181071D01*
G01X1197444Y-2179684D01*
G01X1199062Y-2178529D01*
G01X1200911Y-2177373D01*
G01X1202529Y-2176449D01*
G01X1204378Y-2175524D01*
G01X1206689Y-2174600D01*
G01X1208538Y-2173906D01*
G01X1212698Y-2172982D01*
G01X1215934Y-2172520D01*
G01X1219401Y-2172288D01*
G01X1224254Y-2172520D01*
G01X1227490Y-2172982D01*
G01X1229801Y-2173444D01*
G01X1232575Y-2174137D01*
G01X1235348Y-2175062D01*
G01X1239046Y-2176911D01*
G01X1241126Y-2178066D01*
G01X1242744Y-2179222D01*
G01X1245055Y-2181071D01*
G01X1248522Y-2184538D01*
G01X1250371Y-2186849D01*
G01X1251526Y-2188467D01*
G01X1252682Y-2190547D01*
G01X1253607Y-2192396D01*
G01X1254531Y-2194476D01*
G01X1256149Y-2199330D01*
G01X1257073Y-2204414D01*
G01X1257536Y-2211348D01*
G01X1257536Y-2212735D01*
G01X1257305Y-2215970D01*
G01X1257073Y-2220593D01*
G01X1256611Y-2223828D01*
G01X1256149Y-2226602D01*
G01X1255455Y-2229837D01*
G01X1254531Y-2232611D01*
G01X1253607Y-2234922D01*
G01X1252682Y-2236771D01*
G01X1251757Y-2238389D01*
G01X1250833Y-2239776D01*
G01X1250140Y-2240931D01*
G01X1249215Y-2242087D01*
G01X1244131Y-2247172D01*
G01X1241819Y-2248789D01*
G01X1240201Y-2249945D01*
G01X1238353Y-2250870D01*
G01X1236272Y-2251794D01*
G01X1234655Y-2252487D01*
G01X1232806Y-2253181D01*
G01X1230263Y-2253874D01*
G01X1227952Y-2254337D01*
G01X1223330Y-2254799D01*
G01X1219863Y-2255030D01*
G37*
G36*
G01X1358073Y-2213659D02*
G01X1358073Y-2174137D01*
G01X1370091Y-2174137D01*
G01X1370091Y-2179453D01*
G01X1370265Y-2183324D01*
G01X1370785Y-2184307D01*
G01X1371941Y-2183151D01*
G01X1373789Y-2180840D01*
G01X1375407Y-2179222D01*
G01X1377256Y-2177835D01*
G01X1378874Y-2176680D01*
G01X1380954Y-2175524D01*
G01X1383034Y-2174600D01*
G01X1385577Y-2173675D01*
G01X1387888Y-2172982D01*
G01X1391124Y-2172520D01*
G01X1394359Y-2172288D01*
G01X1398519Y-2172520D01*
G01X1401293Y-2172982D01*
G01X1403142Y-2173444D01*
G01X1405222Y-2173906D01*
G01X1407533Y-2174600D01*
G01X1409613Y-2175524D01*
G01X1411462Y-2176449D01*
G01X1413080Y-2177373D01*
G01X1414467Y-2178529D01*
G01X1416778Y-2180840D01*
G01X1417934Y-2182458D01*
G01X1419089Y-2184307D01*
G01X1420014Y-2186156D01*
G01X1420938Y-2188698D01*
G01X1421632Y-2191009D01*
G01X1422094Y-2194707D01*
G01X1422325Y-2224291D01*
G01X1422325Y-2253181D01*
G01X1408920Y-2253181D01*
G01X1408920Y-2226833D01*
G01X1408689Y-2199330D01*
G01X1408227Y-2196556D01*
G01X1407533Y-2193552D01*
G01X1406609Y-2191472D01*
G01X1405453Y-2189622D01*
G01X1403604Y-2187542D01*
G01X1401524Y-2186156D01*
G01X1399906Y-2185231D01*
G01X1398057Y-2184538D01*
G01X1396208Y-2184076D01*
G01X1393897Y-2183844D01*
G01X1391586Y-2184076D01*
G01X1389506Y-2184307D01*
G01X1386501Y-2184769D01*
G01X1383728Y-2185694D01*
G01X1381417Y-2186849D01*
G01X1379105Y-2188467D01*
G01X1377256Y-2189854D01*
G01X1376101Y-2191009D01*
G01X1374945Y-2192627D01*
G01X1374021Y-2194476D01*
G01X1373327Y-2196325D01*
G01X1372634Y-2198636D01*
G01X1372172Y-2200716D01*
G01X1371709Y-2204414D01*
G01X1371478Y-2229144D01*
G01X1371478Y-2253181D01*
G01X1358073Y-2253181D01*
G01X1358073Y-2213659D01*
G37*
G36*
G01X1612769Y-2213659D02*
G01X1612769Y-2174137D01*
G01X1624787Y-2174137D01*
G01X1624787Y-2178991D01*
G01X1625249Y-2184076D01*
G01X1625712Y-2184018D01*
G01X1626174Y-2183382D01*
G01X1627329Y-2181996D01*
G01X1630796Y-2178529D01*
G01X1632183Y-2177373D01*
G01X1633570Y-2176449D01*
G01X1635187Y-2175524D01*
G01X1637499Y-2174600D01*
G01X1640041Y-2173675D01*
G01X1642121Y-2172982D01*
G01X1645357Y-2172520D01*
G01X1649055Y-2172288D01*
G01X1652753Y-2172520D01*
G01X1655989Y-2172982D01*
G01X1657837Y-2173444D01*
G01X1660380Y-2174137D01*
G01X1662922Y-2175062D01*
G01X1664771Y-2175986D01*
G01X1666389Y-2176680D01*
G01X1667776Y-2177604D01*
G01X1670549Y-2179915D01*
G01X1671936Y-2181764D01*
G01X1673091Y-2183613D01*
G01X1674478Y-2186387D01*
G01X1675171Y-2188005D01*
G01X1675865Y-2190547D01*
G01X1676327Y-2192858D01*
G01X1676789Y-2200716D01*
G01X1677021Y-2227295D01*
G01X1677021Y-2253181D01*
G01X1663615Y-2253181D01*
G01X1663615Y-2228913D01*
G01X1663384Y-2203952D01*
G01X1662922Y-2197943D01*
G01X1662460Y-2195632D01*
G01X1661767Y-2192858D01*
G01X1660611Y-2190547D01*
G01X1658993Y-2188698D01*
G01X1657606Y-2187311D01*
G01X1655989Y-2186156D01*
G01X1654139Y-2185231D01*
G01X1652291Y-2184538D01*
G01X1650441Y-2184076D01*
G01X1648130Y-2183844D01*
G01X1645819Y-2184076D01*
G01X1642583Y-2184538D01*
G01X1640272Y-2185000D01*
G01X1637961Y-2185694D01*
G01X1636343Y-2186618D01*
G01X1634494Y-2187774D01*
G01X1632876Y-2188698D01*
G01X1631258Y-2190085D01*
G01X1629872Y-2191934D01*
G01X1628947Y-2193320D01*
G01X1628254Y-2194938D01*
G01X1627561Y-2196787D01*
G01X1626867Y-2199330D01*
G01X1626405Y-2201641D01*
G01X1626174Y-2226602D01*
G01X1625943Y-2252025D01*
G01X1625712Y-2253181D01*
G01X1612769Y-2253181D01*
G01X1612769Y-2213659D01*
G37*
G36*
G01X1464389Y-2254105D02*
G01X1457918Y-2253643D01*
G01X1455838Y-2252950D01*
G01X1454220Y-2252487D01*
G01X1452371Y-2251563D01*
G01X1450753Y-2250407D01*
G01X1449366Y-2249252D01*
G01X1448210Y-2247865D01*
G01X1447286Y-2246478D01*
G01X1446593Y-2244629D01*
G01X1446130Y-2242780D01*
G01X1445668Y-2239082D01*
G01X1445437Y-2211348D01*
G01X1445437Y-2184307D01*
G01X1435730Y-2184307D01*
G01X1435730Y-2174137D01*
G01X1445437Y-2174137D01*
G01X1445437Y-2164430D01*
G01X1445668Y-2156977D01*
G01X1446362Y-2154030D01*
G01X1448442Y-2152643D01*
G01X1450753Y-2151256D01*
G01X1456300Y-2147790D01*
G01X1457918Y-2146865D01*
G01X1458842Y-2146403D01*
G01X1458842Y-2174137D01*
G01X1472247Y-2174137D01*
G01X1472247Y-2184307D01*
G01X1458842Y-2184307D01*
G01X1458842Y-2209730D01*
G01X1459073Y-2235847D01*
G01X1459536Y-2237927D01*
G01X1460460Y-2239776D01*
G01X1462309Y-2240931D01*
G01X1463869Y-2241451D01*
G01X1466238Y-2241625D01*
G01X1469705Y-2241394D01*
G01X1471323Y-2241163D01*
G01X1472074Y-2241567D01*
G01X1472478Y-2242780D01*
G01X1472940Y-2245092D01*
G01X1473865Y-2250639D01*
G01X1474096Y-2252256D01*
G01X1473692Y-2253008D01*
G01X1472478Y-2253412D01*
G01X1470167Y-2253874D01*
G01X1464389Y-2254105D01*
G37*
G36*
G01X1553833Y-2255030D02*
G01X1550828Y-2254799D01*
G01X1549211Y-2254337D01*
G01X1545050Y-2253412D01*
G01X1543433Y-2252950D01*
G01X1541815Y-2252256D01*
G01X1536730Y-2249714D01*
G01X1535574Y-2248789D01*
G01X1532801Y-2246016D01*
G01X1531414Y-2243936D01*
G01X1530490Y-2242318D01*
G01X1529796Y-2240700D01*
G01X1529103Y-2238851D01*
G01X1528410Y-2236540D01*
G01X1527947Y-2234460D01*
G01X1527485Y-2227989D01*
G01X1527254Y-2200716D01*
G01X1527254Y-2174137D01*
G01X1540659Y-2174137D01*
G01X1540659Y-2198174D01*
G01X1540890Y-2222904D01*
G01X1541121Y-2226140D01*
G01X1541352Y-2229837D01*
G01X1541815Y-2232149D01*
G01X1542508Y-2234460D01*
G01X1543433Y-2236309D01*
G01X1544357Y-2237696D01*
G01X1545513Y-2239082D01*
G01X1546899Y-2240238D01*
G01X1548055Y-2241163D01*
G01X1549442Y-2241856D01*
G01X1551059Y-2242549D01*
G01X1552677Y-2243011D01*
G01X1554295Y-2243243D01*
G01X1556375Y-2243474D01*
G01X1559842Y-2243243D01*
G01X1563309Y-2242549D01*
G01X1565851Y-2241625D01*
G01X1567700Y-2240700D01*
G01X1569549Y-2239545D01*
G01X1571167Y-2238389D01*
G01X1572322Y-2237465D01*
G01X1574172Y-2235153D01*
G01X1575327Y-2233535D01*
G01X1576252Y-2231455D01*
G01X1576945Y-2229144D01*
G01X1577407Y-2227064D01*
G01X1577870Y-2223366D01*
G01X1578101Y-2198405D01*
G01X1578101Y-2174137D01*
G01X1591506Y-2174137D01*
G01X1591506Y-2253181D01*
G01X1579487Y-2253181D01*
G01X1579487Y-2247865D01*
G01X1579314Y-2243936D01*
G01X1578794Y-2242780D01*
G01X1577407Y-2244167D01*
G01X1576020Y-2245785D01*
G01X1573709Y-2248096D01*
G01X1571860Y-2249483D01*
G01X1569780Y-2250870D01*
G01X1568162Y-2251794D01*
G01X1564927Y-2253181D01*
G01X1562847Y-2253874D01*
G01X1560767Y-2254337D01*
G01X1556606Y-2254799D01*
G01X1553833Y-2255030D01*
G37*
G36*
G01X1726480Y-2255030D02*
G01X1721858Y-2254568D01*
G01X1719778Y-2253874D01*
G01X1717698Y-2253412D01*
G01X1715386Y-2252719D01*
G01X1713306Y-2251794D01*
G01X1711458Y-2250870D01*
G01X1709840Y-2249945D01*
G01X1707760Y-2248558D01*
G01X1705910Y-2247172D01*
G01X1701982Y-2243243D01*
G01X1700595Y-2241394D01*
G01X1699439Y-2239776D01*
G01X1698284Y-2237696D01*
G01X1697359Y-2236078D01*
G01X1696666Y-2234691D01*
G01X1695972Y-2232842D01*
G01X1695048Y-2230531D01*
G01X1694354Y-2228451D01*
G01X1693430Y-2224291D01*
G01X1692968Y-2221055D01*
G01X1692737Y-2214583D01*
G01X1692787Y-2212966D01*
G01X1706142Y-2212966D01*
G01X1706373Y-2215508D01*
G01X1706835Y-2221055D01*
G01X1707297Y-2223828D01*
G01X1707991Y-2226833D01*
G01X1708684Y-2228913D01*
G01X1709377Y-2230762D01*
G01X1710302Y-2232611D01*
G01X1711458Y-2234691D01*
G01X1712613Y-2236309D01*
G01X1716080Y-2239776D01*
G01X1717698Y-2240931D01*
G01X1719778Y-2242087D01*
G01X1721858Y-2243011D01*
G01X1723707Y-2243474D01*
G01X1723707Y-2243474D01*
G01X1724862Y-2243705D01*
G01X1727636Y-2243936D01*
G01X1731796Y-2243474D01*
G01X1734801Y-2242549D01*
G01X1737343Y-2241394D01*
G01X1738961Y-2240238D01*
G01X1741272Y-2238389D01*
G01X1742197Y-2237465D01*
G01X1743583Y-2235847D01*
G01X1744970Y-2233767D01*
G01X1745895Y-2232149D01*
G01X1746588Y-2230300D01*
G01X1747281Y-2228220D01*
G01X1747975Y-2225677D01*
G01X1748437Y-2223366D01*
G01X1748668Y-2220824D01*
G01X1748899Y-2216895D01*
G01X1748899Y-2214121D01*
G01X1748668Y-2211117D01*
G01X1748437Y-2207188D01*
G01X1747975Y-2203952D01*
G01X1747281Y-2200716D01*
G01X1746357Y-2197943D01*
G01X1745432Y-2195632D01*
G01X1743814Y-2192396D01*
G01X1742890Y-2191240D01*
G01X1738730Y-2187080D01*
G01X1737574Y-2186156D01*
G01X1735956Y-2185231D01*
G01X1733414Y-2184307D01*
G01X1731334Y-2183613D01*
G01X1728098Y-2183382D01*
G01X1724862Y-2183613D01*
G01X1723245Y-2183844D01*
G01X1721396Y-2184307D01*
G01X1719316Y-2185231D01*
G01X1717467Y-2186156D01*
G01X1716080Y-2187080D01*
G01X1713769Y-2188929D01*
G01X1712613Y-2190085D01*
G01X1711458Y-2191703D01*
G01X1710302Y-2193552D01*
G01X1709377Y-2195401D01*
G01X1707991Y-2199098D01*
G01X1707297Y-2201872D01*
G01X1706835Y-2204414D01*
G01X1706373Y-2210423D01*
G01X1706142Y-2212966D01*
G01X1692787Y-2212966D01*
G01X1692968Y-2207188D01*
G01X1693430Y-2203952D01*
G01X1694354Y-2199330D01*
G01X1695048Y-2196787D01*
G01X1696435Y-2192627D01*
G01X1697359Y-2190547D01*
G01X1698515Y-2188236D01*
G01X1701750Y-2183613D01*
G01X1703137Y-2181996D01*
G01X1705448Y-2179684D01*
G01X1707297Y-2178298D01*
G01X1709377Y-2176911D01*
G01X1711226Y-2175755D01*
G01X1713306Y-2174831D01*
G01X1715156Y-2174137D01*
G01X1717236Y-2173444D01*
G01X1719316Y-2172982D01*
G01X1722551Y-2172520D01*
G01X1724631Y-2172288D01*
G01X1728098Y-2172520D01*
G01X1730872Y-2172982D01*
G01X1733183Y-2173444D01*
G01X1735725Y-2174137D01*
G01X1737805Y-2175062D01*
G01X1740116Y-2176218D01*
G01X1741734Y-2177373D01*
G01X1742890Y-2178066D01*
G01X1744046Y-2178991D01*
G01X1747281Y-2182227D01*
G01X1747628Y-2177604D01*
G01X1747744Y-2163275D01*
G01X1747744Y-2144092D01*
G01X1761149Y-2144092D01*
G01X1761149Y-2253181D01*
G01X1748668Y-2253181D01*
G01X1748668Y-2244861D01*
G01X1747744Y-2245323D01*
G01X1746357Y-2246247D01*
G01X1745432Y-2247403D01*
G01X1743814Y-2249021D01*
G01X1741966Y-2250407D01*
G01X1740810Y-2251332D01*
G01X1739192Y-2252256D01*
G01X1736881Y-2253181D01*
G01X1735032Y-2253874D01*
G01X1730410Y-2254799D01*
G01X1726480Y-2255030D01*
G37*
G36*
G01X1815000Y-2255030D02*
G01X1811764Y-2254799D01*
G01X1810146Y-2254568D01*
G01X1808066Y-2254337D01*
G01X1803906Y-2253412D01*
G01X1802057Y-2252950D01*
G01X1800208Y-2252256D01*
G01X1798590Y-2251563D01*
G01X1796510Y-2250639D01*
G01X1792812Y-2248327D01*
G01X1791194Y-2247172D01*
G01X1790039Y-2246247D01*
G01X1786572Y-2242780D01*
G01X1785185Y-2240931D01*
G01X1783798Y-2238851D01*
G01X1781949Y-2235616D01*
G01X1781025Y-2233535D01*
G01X1780101Y-2230993D01*
G01X1779407Y-2228913D01*
G01X1778483Y-2224291D01*
G01X1778020Y-2220593D01*
G01X1777789Y-2214815D01*
G01X1778020Y-2209037D01*
G01X1778251Y-2207419D01*
G01X1778483Y-2205339D01*
G01X1778714Y-2203952D01*
G01X1792581Y-2203952D01*
G01X1792812Y-2205801D01*
G01X1814075Y-2206032D01*
G01X1835801Y-2205801D01*
G01X1836263Y-2205454D01*
G01X1836263Y-2204876D01*
G01X1835801Y-2201641D01*
G01X1835338Y-2199561D01*
G01X1834645Y-2197249D01*
G01X1833952Y-2195401D01*
G01X1833258Y-2193783D01*
G01X1832565Y-2192396D01*
G01X1831640Y-2191240D01*
G01X1828636Y-2188236D01*
G01X1827018Y-2186849D01*
G01X1824707Y-2185462D01*
G01X1822165Y-2184307D01*
G01X1820084Y-2183613D01*
G01X1815693Y-2183382D01*
G01X1810840Y-2183613D01*
G01X1807142Y-2184538D01*
G01X1805293Y-2185231D01*
G01X1803675Y-2186156D01*
G01X1801595Y-2187542D01*
G01X1799746Y-2188929D01*
G01X1798128Y-2190547D01*
G01X1796741Y-2192396D01*
G01X1795817Y-2193783D01*
G01X1794892Y-2195632D01*
G01X1793968Y-2197712D01*
G01X1793274Y-2199792D01*
G01X1792812Y-2201641D01*
G01X1792581Y-2203952D01*
G01X1792581Y-2203952D01*
G01X1778714Y-2203952D01*
G01X1778945Y-2202565D01*
G01X1779638Y-2199330D01*
G01X1780563Y-2196325D01*
G01X1781487Y-2193783D01*
G01X1783336Y-2190085D01*
G01X1784492Y-2188005D01*
G01X1785647Y-2186387D01*
G01X1787496Y-2184076D01*
G01X1791425Y-2180146D01*
G01X1793274Y-2178760D01*
G01X1794892Y-2177604D01*
G01X1796972Y-2176449D01*
G01X1798821Y-2175524D01*
G01X1800901Y-2174600D01*
G01X1803906Y-2173675D01*
G01X1806217Y-2172982D01*
G01X1809453Y-2172520D01*
G01X1813382Y-2172288D01*
G01X1818235Y-2172520D01*
G01X1821471Y-2172982D01*
G01X1824707Y-2173675D01*
G01X1827711Y-2174600D01*
G01X1829792Y-2175524D01*
G01X1834876Y-2178066D01*
G01X1838343Y-2180840D01*
G01X1841116Y-2183613D01*
G01X1842965Y-2185925D01*
G01X1844583Y-2188236D01*
G01X1845739Y-2190085D01*
G01X1846663Y-2191934D01*
G01X1847588Y-2194476D01*
G01X1849206Y-2199330D01*
G01X1850130Y-2204414D01*
G01X1850592Y-2210886D01*
G01X1850824Y-2213197D01*
G01X1850592Y-2215970D01*
G01X1850361Y-2217126D01*
G01X1821702Y-2217126D01*
G01X1792350Y-2217357D01*
G01X1791888Y-2218050D01*
G01X1791888Y-2219668D01*
G01X1792350Y-2222904D01*
G01X1793274Y-2226602D01*
G01X1793968Y-2228682D01*
G01X1794892Y-2230762D01*
G01X1796510Y-2233998D01*
G01X1797435Y-2235153D01*
G01X1798590Y-2236540D01*
G01X1800208Y-2238389D01*
G01X1802057Y-2239776D01*
G01X1803213Y-2240700D01*
G01X1804831Y-2241625D01*
G01X1806911Y-2242549D01*
G01X1809222Y-2243243D01*
G01X1811302Y-2243705D01*
G01X1815000Y-2243936D01*
G01X1818698Y-2243705D01*
G01X1820547Y-2243474D01*
G01X1822396Y-2243011D01*
G01X1825631Y-2241625D01*
G01X1827249Y-2240700D01*
G01X1830023Y-2238389D01*
G01X1831640Y-2236771D01*
G01X1833027Y-2234691D01*
G01X1834183Y-2232842D01*
G01X1835107Y-2230993D01*
G01X1836032Y-2228913D01*
G01X1836552Y-2228104D01*
G01X1837187Y-2227989D01*
G01X1845508Y-2228913D01*
G01X1848050Y-2229144D01*
G01X1849899Y-2229607D01*
G01X1849437Y-2231455D01*
G01X1848512Y-2233998D01*
G01X1847588Y-2236078D01*
G01X1846663Y-2237927D01*
G01X1845508Y-2240007D01*
G01X1844352Y-2241625D01*
G01X1841579Y-2245092D01*
G01X1839961Y-2246709D01*
G01X1836263Y-2249483D01*
G01X1833952Y-2250870D01*
G01X1832103Y-2251794D01*
G01X1830254Y-2252487D01*
G01X1828174Y-2253181D01*
G01X1825631Y-2253874D01*
G01X1823320Y-2254337D01*
G01X1818698Y-2254799D01*
G01X1815000Y-2255030D01*
G37*
G36*
G01X1917849Y-2213659D02*
G01X1917849Y-2174137D01*
G01X1929867Y-2174137D01*
G01X1929867Y-2179453D01*
G01X1930040Y-2183324D01*
G01X1930560Y-2184307D01*
G01X1931716Y-2183151D01*
G01X1933565Y-2180840D01*
G01X1935183Y-2179222D01*
G01X1937032Y-2177835D01*
G01X1938650Y-2176680D01*
G01X1940730Y-2175524D01*
G01X1942810Y-2174600D01*
G01X1945352Y-2173675D01*
G01X1947663Y-2172982D01*
G01X1950899Y-2172520D01*
G01X1954135Y-2172288D01*
G01X1958295Y-2172520D01*
G01X1961068Y-2172982D01*
G01X1962917Y-2173444D01*
G01X1964997Y-2173906D01*
G01X1967309Y-2174600D01*
G01X1969389Y-2175524D01*
G01X1972624Y-2177142D01*
G01X1973780Y-2178066D01*
G01X1976554Y-2180840D01*
G01X1978865Y-2184307D01*
G01X1979789Y-2186156D01*
G01X1981407Y-2191009D01*
G01X1981869Y-2195169D01*
G01X1982100Y-2224522D01*
G01X1982100Y-2253181D01*
G01X1968695Y-2253181D01*
G01X1968695Y-2227295D01*
G01X1968464Y-2199792D01*
G01X1968002Y-2196556D01*
G01X1967309Y-2193552D01*
G01X1966153Y-2191009D01*
G01X1964997Y-2189391D01*
G01X1964073Y-2188236D01*
G01X1962455Y-2186849D01*
G01X1960606Y-2185694D01*
G01X1958295Y-2184769D01*
G01X1955984Y-2184076D01*
G01X1953441Y-2183844D01*
G01X1950899Y-2184076D01*
G01X1949050Y-2184307D01*
G01X1946277Y-2184769D01*
G01X1943503Y-2185694D01*
G01X1941654Y-2186618D01*
G01X1939805Y-2187774D01*
G01X1938187Y-2188929D01*
G01X1937032Y-2189854D01*
G01X1935876Y-2191009D01*
G01X1934721Y-2192627D01*
G01X1933796Y-2194476D01*
G01X1933103Y-2196325D01*
G01X1932409Y-2198405D01*
G01X1931947Y-2200254D01*
G01X1931485Y-2203952D01*
G01X1931254Y-2228913D01*
G01X1931254Y-2253181D01*
G01X1917849Y-2253181D01*
G01X1917849Y-2213659D01*
G37*
G36*
G01X1867002Y-2213659D02*
G01X1867002Y-2174137D01*
G01X1879020Y-2174137D01*
G01X1879020Y-2179453D01*
G01X1879136Y-2183382D01*
G01X1879483Y-2184538D01*
G01X1880638Y-2183382D01*
G01X1882025Y-2181302D01*
G01X1884336Y-2178066D01*
G01X1886185Y-2175986D01*
G01X1888265Y-2174600D01*
G01X1889883Y-2173675D01*
G01X1891501Y-2172982D01*
G01X1893119Y-2172520D01*
G01X1895661Y-2172288D01*
G01X1898203Y-2172520D01*
G01X1900746Y-2172982D01*
G01X1903288Y-2173675D01*
G01X1905137Y-2174368D01*
G01X1907217Y-2175293D01*
G01X1909066Y-2176218D01*
G01X1909644Y-2176622D01*
G01X1909528Y-2177373D01*
G01X1908142Y-2181071D01*
G01X1906293Y-2185694D01*
G01X1905599Y-2187774D01*
G01X1905195Y-2188525D01*
G01X1904444Y-2188467D01*
G01X1902595Y-2187542D01*
G01X1900515Y-2186849D01*
G01X1898666Y-2186387D01*
G01X1895892Y-2186156D01*
G01X1892194Y-2186618D01*
G01X1889883Y-2187542D01*
G01X1888034Y-2188467D01*
G01X1885954Y-2190085D01*
G01X1884567Y-2191934D01*
G01X1883643Y-2193320D01*
G01X1882949Y-2194938D01*
G01X1882256Y-2196787D01*
G01X1881563Y-2199330D01*
G01X1881100Y-2201641D01*
G01X1880638Y-2204876D01*
G01X1880407Y-2229375D01*
G01X1880407Y-2253181D01*
G01X1867002Y-2253181D01*
G01X1867002Y-2213659D01*
G37*
G36*
G01X2035489Y-2255030D02*
G01X2032254Y-2254799D01*
G01X2030636Y-2254568D01*
G01X2028556Y-2254337D01*
G01X2026245Y-2253874D01*
G01X2023240Y-2253181D01*
G01X2020698Y-2252256D01*
G01X2018386Y-2251332D01*
G01X2016075Y-2250176D01*
G01X2014226Y-2249021D01*
G01X2012840Y-2248096D01*
G01X2010528Y-2246247D01*
G01X2006599Y-2242318D01*
G01X2004981Y-2240007D01*
G01X2003595Y-2237696D01*
G01X2002439Y-2235616D01*
G01X2001515Y-2233535D01*
G01X2000590Y-2230993D01*
G01X1999897Y-2228913D01*
G01X1998972Y-2224753D01*
G01X1998510Y-2221055D01*
G01X1998279Y-2215046D01*
G01X1998510Y-2209037D01*
G01X1998972Y-2204876D01*
G01X1999203Y-2203721D01*
G01X2013071Y-2203721D01*
G01X2013302Y-2205801D01*
G01X2034565Y-2206032D01*
G01X2056290Y-2205801D01*
G01X2056753Y-2205454D01*
G01X2056753Y-2204876D01*
G01X2056521Y-2203027D01*
G01X2056059Y-2200254D01*
G01X2055135Y-2197249D01*
G01X2054210Y-2194938D01*
G01X2053055Y-2192858D01*
G01X2051899Y-2191240D01*
G01X2050512Y-2189622D01*
G01X2048432Y-2187542D01*
G01X2046352Y-2186156D01*
G01X2044734Y-2185231D01*
G01X2042654Y-2184307D01*
G01X2040574Y-2183613D01*
G01X2036183Y-2183382D01*
G01X2031329Y-2183613D01*
G01X2027631Y-2184538D01*
G01X2025320Y-2185462D01*
G01X2023471Y-2186618D01*
G01X2022084Y-2187542D01*
G01X2019773Y-2189391D01*
G01X2018618Y-2190547D01*
G01X2017693Y-2191703D01*
G01X2016769Y-2193089D01*
G01X2015844Y-2194707D01*
G01X2014920Y-2196556D01*
G01X2013995Y-2199098D01*
G01X2013302Y-2201179D01*
G01X2013071Y-2203721D01*
G01X2013071Y-2203721D01*
G01X1999203Y-2203721D01*
G01X1999434Y-2202565D01*
G01X2000128Y-2199330D01*
G01X2000821Y-2197018D01*
G01X2001515Y-2194938D01*
G01X2002439Y-2192858D01*
G01X2004519Y-2188698D01*
G01X2005675Y-2187080D01*
G01X2006368Y-2185925D01*
G01X2007293Y-2184769D01*
G01X2011684Y-2180378D01*
G01X2013302Y-2178991D01*
G01X2015382Y-2177604D01*
G01X2017462Y-2176449D01*
G01X2019311Y-2175524D01*
G01X2021391Y-2174600D01*
G01X2024395Y-2173675D01*
G01X2026707Y-2172982D01*
G01X2029942Y-2172520D01*
G01X2033871Y-2172288D01*
G01X2038725Y-2172520D01*
G01X2041961Y-2172982D01*
G01X2045196Y-2173675D01*
G01X2048201Y-2174600D01*
G01X2050281Y-2175524D01*
G01X2055366Y-2178066D01*
G01X2058833Y-2180840D01*
G01X2061144Y-2183151D01*
G01X2062068Y-2184307D01*
G01X2063455Y-2185925D01*
G01X2065073Y-2188236D01*
G01X2066229Y-2190085D01*
G01X2067615Y-2193320D01*
G01X2068309Y-2195169D01*
G01X2069002Y-2197249D01*
G01X2069695Y-2199561D01*
G01X2070157Y-2201641D01*
G01X2070620Y-2204876D01*
G01X2070851Y-2208112D01*
G01X2071082Y-2211810D01*
G01X2071082Y-2215046D01*
G01X2070851Y-2217126D01*
G01X2042192Y-2217126D01*
G01X2012840Y-2217357D01*
G01X2012377Y-2218050D01*
G01X2012377Y-2219668D01*
G01X2012840Y-2222904D01*
G01X2013764Y-2226602D01*
G01X2014457Y-2228682D01*
G01X2015382Y-2230762D01*
G01X2016537Y-2233073D01*
G01X2018849Y-2236309D01*
G01X2020698Y-2238389D01*
G01X2022547Y-2239776D01*
G01X2023702Y-2240700D01*
G01X2025320Y-2241625D01*
G01X2027400Y-2242549D01*
G01X2029711Y-2243243D01*
G01X2031791Y-2243705D01*
G01X2035489Y-2243936D01*
G01X2039187Y-2243705D01*
G01X2041036Y-2243474D01*
G01X2042885Y-2243011D01*
G01X2044503Y-2242318D01*
G01X2047277Y-2240931D01*
G01X2048663Y-2240007D01*
G01X2050281Y-2238389D01*
G01X2051899Y-2237002D01*
G01X2053055Y-2235385D01*
G01X2054441Y-2233073D01*
G01X2055597Y-2230993D01*
G01X2056521Y-2228913D01*
G01X2057041Y-2228104D01*
G01X2057677Y-2227989D01*
G01X2065997Y-2228913D01*
G01X2067615Y-2229144D01*
G01X2069695Y-2229375D01*
G01X2070446Y-2229722D01*
G01X2070389Y-2230300D01*
G01X2069002Y-2233998D01*
G01X2068077Y-2235847D01*
G01X2067153Y-2237927D01*
G01X2065997Y-2240007D01*
G01X2064842Y-2241625D01*
G01X2063455Y-2243243D01*
G01X2062068Y-2245092D01*
G01X2060451Y-2246709D01*
G01X2056753Y-2249483D01*
G01X2054441Y-2250870D01*
G01X2052592Y-2251794D01*
G01X2050743Y-2252487D01*
G01X2048663Y-2253181D01*
G01X2046121Y-2253874D01*
G01X2043810Y-2254337D01*
G01X2039187Y-2254799D01*
G01X2035489Y-2255030D01*
G37*
G36*
G01X2110373Y-2255030D02*
G01X2106212Y-2254799D01*
G01X2101590Y-2253874D01*
G01X2097892Y-2252950D01*
G01X2096043Y-2252256D01*
G01X2094194Y-2251332D01*
G01X2092576Y-2250407D01*
G01X2091190Y-2249483D01*
G01X2089803Y-2248327D01*
G01X2087492Y-2246016D01*
G01X2086336Y-2244398D01*
G01X2085180Y-2242318D01*
G01X2084256Y-2240238D01*
G01X2083563Y-2237696D01*
G01X2083100Y-2235385D01*
G01X2082869Y-2233304D01*
G01X2083100Y-2231224D01*
G01X2083274Y-2229837D01*
G01X2097430Y-2229837D01*
G01X2097430Y-2233073D01*
G01X2098123Y-2236078D01*
G01X2099279Y-2238389D01*
G01X2100434Y-2240007D01*
G01X2101590Y-2241163D01*
G01X2102746Y-2242087D01*
G01X2104132Y-2242780D01*
G01X2105750Y-2243474D01*
G01X2107599Y-2243936D01*
G01X2107599Y-2243936D01*
G01X2108986Y-2244167D01*
G01X2111759Y-2244398D01*
G01X2116382Y-2244167D01*
G01X2119618Y-2243705D01*
G01X2122160Y-2243011D01*
G01X2124702Y-2242087D01*
G01X2126551Y-2241163D01*
G01X2128169Y-2240238D01*
G01X2129556Y-2239313D01*
G01X2132791Y-2236540D01*
G01X2134640Y-2234229D01*
G01X2135565Y-2232611D01*
G01X2136489Y-2230531D01*
G01X2137183Y-2227989D01*
G01X2137645Y-2225677D01*
G01X2137876Y-2219206D01*
G01X2137703Y-2214930D01*
G01X2137183Y-2213659D01*
G01X2135565Y-2214352D01*
G01X2133485Y-2215046D01*
G01X2130711Y-2215739D01*
G01X2128400Y-2216433D01*
G01X2123315Y-2217357D01*
G01X2112222Y-2219206D01*
G01X2109910Y-2219668D01*
G01X2106906Y-2220362D01*
G01X2104363Y-2221286D01*
G01X2102283Y-2222442D01*
G01X2100666Y-2223597D01*
G01X2099279Y-2225215D01*
G01X2098123Y-2227295D01*
G01X2097430Y-2229837D01*
G01X2083274Y-2229837D01*
G01X2083331Y-2229375D01*
G01X2083794Y-2226833D01*
G01X2084487Y-2224753D01*
G01X2085180Y-2222904D01*
G01X2086336Y-2220824D01*
G01X2087723Y-2218744D01*
G01X2089109Y-2217126D01*
G01X2091421Y-2214815D01*
G01X2093038Y-2213659D01*
G01X2094888Y-2212503D01*
G01X2096736Y-2211579D01*
G01X2098816Y-2210655D01*
G01X2100666Y-2209961D01*
G01X2104826Y-2209037D01*
G01X2109910Y-2208112D01*
G01X2113608Y-2207650D01*
G01X2115226Y-2207419D01*
G01X2117306Y-2207188D01*
G01X2120542Y-2206725D01*
G01X2126089Y-2205801D01*
G01X2129787Y-2205107D01*
G01X2134409Y-2203952D01*
G01X2136489Y-2203490D01*
G01X2137529Y-2203085D01*
G01X2137876Y-2202334D01*
G01X2138107Y-2200716D01*
G01X2138107Y-2199561D01*
G01X2137876Y-2197943D01*
G01X2137645Y-2195169D01*
G01X2136952Y-2192165D01*
G01X2136027Y-2190085D01*
G01X2135103Y-2188698D01*
G01X2133947Y-2187542D01*
G01X2132329Y-2186387D01*
G01X2130480Y-2185462D01*
G01X2128862Y-2184769D01*
G01X2126782Y-2184076D01*
G01X2124702Y-2183613D01*
G01X2120542Y-2183382D01*
G01X2114995Y-2183613D01*
G01X2111759Y-2184076D01*
G01X2109217Y-2184769D01*
G01X2106906Y-2185694D01*
G01X2104132Y-2187542D01*
G01X2102514Y-2189160D01*
G01X2101128Y-2191240D01*
G01X2100203Y-2193089D01*
G01X2099510Y-2194707D01*
G01X2098816Y-2196787D01*
G01X2098412Y-2197827D01*
G01X2097661Y-2198174D01*
G01X2096043Y-2197943D01*
G01X2086798Y-2196787D01*
G01X2085643Y-2196556D01*
G01X2085874Y-2194707D01*
G01X2086567Y-2192165D01*
G01X2087260Y-2190316D01*
G01X2087954Y-2188698D01*
G01X2088878Y-2186849D01*
G01X2089803Y-2185231D01*
G01X2090958Y-2183613D01*
G01X2092345Y-2181996D01*
G01X2095118Y-2179222D01*
G01X2097199Y-2177835D01*
G01X2099279Y-2176680D01*
G01X2101821Y-2175524D01*
G01X2106675Y-2173906D01*
G01X2111297Y-2172982D01*
G01X2115920Y-2172520D01*
G01X2120773Y-2172288D01*
G01X2125627Y-2172520D01*
G01X2129787Y-2172982D01*
G01X2132329Y-2173444D01*
G01X2135103Y-2174137D01*
G01X2137183Y-2174831D01*
G01X2139032Y-2175524D01*
G01X2143192Y-2177604D01*
G01X2144810Y-2178991D01*
G01X2147121Y-2181302D01*
G01X2148045Y-2182458D01*
G01X2148970Y-2184076D01*
G01X2149894Y-2186156D01*
G01X2150588Y-2188467D01*
G01X2151050Y-2190547D01*
G01X2151512Y-2197481D01*
G01X2151974Y-2238620D01*
G01X2152437Y-2243243D01*
G01X2152899Y-2245323D01*
G01X2153592Y-2248096D01*
G01X2154517Y-2250407D01*
G01X2155210Y-2252256D01*
G01X2155441Y-2253181D01*
G01X2148739Y-2253181D01*
G01X2143596Y-2252950D01*
G01X2141574Y-2252256D01*
G01X2140650Y-2250407D01*
G01X2139956Y-2248327D01*
G01X2139494Y-2246478D01*
G01X2139263Y-2244861D01*
G01X2139089Y-2244225D01*
G01X2138570Y-2244167D01*
G01X2137414Y-2244861D01*
G01X2136258Y-2245785D01*
G01X2134640Y-2246941D01*
G01X2130480Y-2249714D01*
G01X2128400Y-2250870D01*
G01X2126320Y-2251794D01*
G01X2124240Y-2252487D01*
G01X2122391Y-2253181D01*
G01X2120080Y-2253874D01*
G01X2117768Y-2254337D01*
G01X2114070Y-2254799D01*
G01X2110373Y-2255030D01*
G37*
G36*
G01X2214608Y-2198636D02*
G01X2214608Y-2144092D01*
G01X2228013Y-2144092D01*
G01X2228013Y-2163275D01*
G01X2228187Y-2177604D01*
G01X2228707Y-2182227D01*
G01X2229862Y-2181302D01*
G01X2231018Y-2180146D01*
G01X2233329Y-2178298D01*
G01X2234947Y-2177142D01*
G01X2236796Y-2175986D01*
G01X2238414Y-2175062D01*
G01X2240263Y-2174368D01*
G01X2242343Y-2173675D01*
G01X2244885Y-2172982D01*
G01X2247196Y-2172520D01*
G01X2250432Y-2172288D01*
G01X2255054Y-2172520D01*
G01X2258290Y-2172982D01*
G01X2260139Y-2173444D01*
G01X2262219Y-2173906D01*
G01X2264299Y-2174600D01*
G01X2269384Y-2177142D01*
G01X2270540Y-2178066D01*
G01X2273544Y-2181071D01*
G01X2274700Y-2182458D01*
G01X2275855Y-2184307D01*
G01X2276780Y-2186387D01*
G01X2277473Y-2188467D01*
G01X2278167Y-2191240D01*
G01X2278629Y-2193783D01*
G01X2279091Y-2200716D01*
G01X2279322Y-2227295D01*
G01X2279322Y-2253181D01*
G01X2265917Y-2253181D01*
G01X2265917Y-2227526D01*
G01X2265686Y-2201179D01*
G01X2265224Y-2197018D01*
G01X2264762Y-2195169D01*
G01X2264068Y-2192858D01*
G01X2262450Y-2189622D01*
G01X2261064Y-2188005D01*
G01X2259215Y-2186618D01*
G01X2257828Y-2185694D01*
G01X2255748Y-2184769D01*
G01X2253668Y-2184076D01*
G01X2250894Y-2183844D01*
G01X2246734Y-2184076D01*
G01X2243036Y-2184769D01*
G01X2240725Y-2185694D01*
G01X2239107Y-2186387D01*
G01X2237720Y-2187080D01*
G01X2236334Y-2188005D01*
G01X2234947Y-2189160D01*
G01X2232636Y-2191472D01*
G01X2231711Y-2192627D01*
G01X2230787Y-2194245D01*
G01X2229862Y-2196325D01*
G01X2229169Y-2198636D01*
G01X2228707Y-2200716D01*
G01X2228244Y-2205801D01*
G01X2228013Y-2229837D01*
G01X2228013Y-2253181D01*
G01X2214608Y-2253181D01*
G01X2214608Y-2198636D01*
G37*
G36*
G01X2193807Y-2254105D02*
G01X2187567Y-2253874D01*
G01X2185487Y-2253181D01*
G01X2183407Y-2252256D01*
G01X2181558Y-2251332D01*
G01X2179709Y-2250176D01*
G01X2177860Y-2248327D01*
G01X2176704Y-2246478D01*
G01X2176011Y-2244629D01*
G01X2175549Y-2242780D01*
G01X2175087Y-2239082D01*
G01X2174855Y-2211348D01*
G01X2174855Y-2184307D01*
G01X2165148Y-2184307D01*
G01X2165148Y-2174137D01*
G01X2174855Y-2174137D01*
G01X2174855Y-2164430D01*
G01X2175087Y-2156977D01*
G01X2175780Y-2154030D01*
G01X2177860Y-2152643D01*
G01X2179709Y-2151488D01*
G01X2181327Y-2150563D01*
G01X2183407Y-2149407D01*
G01X2185487Y-2148021D01*
G01X2187336Y-2146865D01*
G01X2188261Y-2146403D01*
G01X2188261Y-2174137D01*
G01X2201665Y-2174137D01*
G01X2201665Y-2184307D01*
G01X2188261Y-2184307D01*
G01X2188261Y-2209961D01*
G01X2188491Y-2236309D01*
G01X2188954Y-2238158D01*
G01X2189878Y-2239776D01*
G01X2191727Y-2240931D01*
G01X2193287Y-2241451D01*
G01X2195656Y-2241625D01*
G01X2199123Y-2241394D01*
G01X2200741Y-2241163D01*
G01X2201492Y-2241567D01*
G01X2201897Y-2242780D01*
G01X2202359Y-2245092D01*
G01X2203283Y-2250639D01*
G01X2203515Y-2252256D01*
G01X2203110Y-2253008D01*
G01X2201897Y-2253412D01*
G01X2199585Y-2253874D01*
G01X2193807Y-2254105D01*
G37*
G36*
G01X2298736Y-2285076D02*
G01X2299430Y-2284151D01*
G01X2300585Y-2282302D01*
G01X2301510Y-2280915D01*
G01X2302434Y-2279298D01*
G01X2304745Y-2275137D01*
G01X2308443Y-2267741D01*
G01X2310292Y-2263581D01*
G01X2311217Y-2261270D01*
G01X2312141Y-2259190D01*
G01X2312835Y-2257110D01*
G01X2314221Y-2253412D01*
G01X2314915Y-2251332D01*
G01X2316301Y-2246709D01*
G01X2317688Y-2241625D01*
G01X2318382Y-2238851D01*
G01X2319768Y-2231224D01*
G01X2320231Y-2227064D01*
G01X2320693Y-2223366D01*
G01X2320924Y-2214583D01*
G01X2320693Y-2205801D01*
G01X2320462Y-2203259D01*
G01X2320231Y-2200254D01*
G01X2319306Y-2193783D01*
G01X2317919Y-2186849D01*
G01X2317457Y-2185000D01*
G01X2316995Y-2182689D01*
G01X2316301Y-2180146D01*
G01X2314915Y-2175524D01*
G01X2313528Y-2171364D01*
G01X2312835Y-2169515D01*
G01X2312141Y-2167897D01*
G01X2310292Y-2163737D01*
G01X2305670Y-2154492D01*
G01X2303359Y-2150332D01*
G01X2301510Y-2147096D01*
G01X2300354Y-2145016D01*
G01X2299430Y-2143167D01*
G01X2299199Y-2142243D01*
G01X2303821Y-2142243D01*
G01X2307403Y-2142416D01*
G01X2308906Y-2142936D01*
G01X2310292Y-2144785D01*
G01X2311910Y-2147096D01*
G01X2314221Y-2150332D01*
G01X2317688Y-2155879D01*
G01X2321386Y-2162350D01*
G01X2325084Y-2169746D01*
G01X2327164Y-2174600D01*
G01X2329244Y-2180146D01*
G01X2329938Y-2182227D01*
G01X2330631Y-2184769D01*
G01X2331556Y-2187774D01*
G01X2332249Y-2190547D01*
G01X2332711Y-2192858D01*
G01X2333173Y-2194707D01*
G01X2333636Y-2197943D01*
G01X2334098Y-2201641D01*
G01X2334560Y-2207188D01*
G01X2334791Y-2213428D01*
G01X2334560Y-2219668D01*
G01X2334329Y-2221979D01*
G01X2334098Y-2224753D01*
G01X2333636Y-2227989D01*
G01X2333173Y-2230762D01*
G01X2332942Y-2232380D01*
G01X2332480Y-2234922D01*
G01X2331093Y-2240469D01*
G01X2330169Y-2243474D01*
G01X2328320Y-2249021D01*
G01X2327395Y-2251332D01*
G01X2326702Y-2253181D01*
G01X2326009Y-2254799D01*
G01X2325084Y-2256648D01*
G01X2323235Y-2260808D01*
G01X2321386Y-2264506D01*
G01X2319075Y-2268666D01*
G01X2318151Y-2270515D01*
G01X2316995Y-2272364D01*
G01X2314221Y-2276986D01*
G01X2312604Y-2279298D01*
G01X2311217Y-2281146D01*
G01X2308906Y-2284382D01*
G01X2307346Y-2284902D01*
G01X2303590Y-2285076D01*
G01X2298736Y-2285076D01*
G37*
G36*
G01X1266087Y-1857501D02*
G01X1266087Y-1802957D01*
G01X1276950Y-1802957D01*
G01X1285155Y-1803130D01*
G01X1288044Y-1803650D01*
G01X1288737Y-1805268D01*
G01X1317858Y-1892632D01*
G01X1318320Y-1894481D01*
G01X1318494Y-1895116D01*
G01X1319014Y-1895174D01*
G01X1319592Y-1894654D01*
G01X1319938Y-1893556D01*
G01X1320632Y-1891245D01*
G01X1323405Y-1882925D01*
G01X1324330Y-1880614D01*
G01X1328028Y-1869520D01*
G01X1329876Y-1864435D01*
G01X1333574Y-1853341D01*
G01X1334499Y-1851030D01*
G01X1338659Y-1838549D01*
G01X1339584Y-1836238D01*
G01X1343282Y-1825144D01*
G01X1345130Y-1820060D01*
G01X1348828Y-1808966D01*
G01X1349753Y-1806655D01*
G01X1350446Y-1804344D01*
G01X1350678Y-1802957D01*
G01X1359460Y-1802957D01*
G01X1369398Y-1803188D01*
G01X1370554Y-1803419D01*
G01X1370554Y-1809890D01*
G01X1370323Y-1818673D01*
G01X1370323Y-1821678D01*
G01X1370554Y-1849643D01*
G01X1370323Y-1878302D01*
G01X1370323Y-1880151D01*
G01X1370554Y-1887547D01*
G01X1370323Y-1895174D01*
G01X1370323Y-1896330D01*
G01X1370554Y-1903263D01*
G01X1370323Y-1910890D01*
G01X1370091Y-1912046D01*
G01X1356224Y-1912046D01*
G01X1356224Y-1867902D01*
G01X1355762Y-1823527D01*
G01X1355300Y-1823700D01*
G01X1354838Y-1824682D01*
G01X1352064Y-1833003D01*
G01X1351140Y-1835314D01*
G01X1348366Y-1843634D01*
G01X1347442Y-1845945D01*
G01X1344668Y-1854266D01*
G01X1342819Y-1859350D01*
G01X1340970Y-1864897D01*
G01X1339121Y-1869982D01*
G01X1336348Y-1878302D01*
G01X1335423Y-1880614D01*
G01X1332650Y-1888934D01*
G01X1331263Y-1892632D01*
G01X1329183Y-1898872D01*
G01X1327796Y-1902570D01*
G01X1325023Y-1910890D01*
G01X1324792Y-1912046D01*
G01X1318320Y-1912046D01*
G01X1313351Y-1911815D01*
G01X1311387Y-1911122D01*
G01X1310462Y-1908810D01*
G01X1305840Y-1894943D01*
G01X1303991Y-1889858D01*
G01X1297520Y-1870444D01*
G01X1296595Y-1868133D01*
G01X1289661Y-1847332D01*
G01X1288737Y-1845021D01*
G01X1281341Y-1822833D01*
G01X1280417Y-1821215D01*
G01X1280070Y-1832425D01*
G01X1279954Y-1866515D01*
G01X1279954Y-1912046D01*
G01X1266087Y-1912046D01*
G01X1266087Y-1857501D01*
G37*
G36*
G01X1393666Y-1857501D02*
G01X1393666Y-1835083D01*
G01X1407995Y-1835083D01*
G01X1408227Y-1854497D01*
G01X1423712Y-1854728D01*
G01X1441046Y-1854497D01*
G01X1445206Y-1854035D01*
G01X1448673Y-1853341D01*
G01X1450984Y-1852417D01*
G01X1453064Y-1851492D01*
G01X1455144Y-1850337D01*
G01X1456762Y-1849181D01*
G01X1458611Y-1846870D01*
G01X1459767Y-1845252D01*
G01X1460691Y-1843172D01*
G01X1461384Y-1841092D01*
G01X1461847Y-1839243D01*
G01X1462078Y-1835776D01*
G01X1461847Y-1832309D01*
G01X1461384Y-1829767D01*
G01X1460691Y-1827225D01*
G01X1458611Y-1823064D01*
G01X1457224Y-1821447D01*
G01X1456069Y-1820291D01*
G01X1454682Y-1819135D01*
G01X1453295Y-1818211D01*
G01X1451908Y-1817517D01*
G01X1450060Y-1816824D01*
G01X1448210Y-1816362D01*
G01X1446593Y-1816131D01*
G01X1426947Y-1815899D01*
G01X1407995Y-1815899D01*
G01X1407995Y-1835083D01*
G01X1407995Y-1835083D01*
G01X1393666Y-1835083D01*
G01X1393666Y-1802957D01*
G01X1418165Y-1802957D01*
G01X1444744Y-1803188D01*
G01X1448904Y-1803650D01*
G01X1451677Y-1804112D01*
G01X1453295Y-1804344D01*
G01X1455144Y-1804806D01*
G01X1457455Y-1805499D01*
G01X1459536Y-1806193D01*
G01X1463233Y-1808041D01*
G01X1464620Y-1808966D01*
G01X1465776Y-1809890D01*
G01X1467394Y-1811046D01*
G01X1468780Y-1812433D01*
G01X1469705Y-1813588D01*
G01X1471092Y-1815206D01*
G01X1472478Y-1817286D01*
G01X1473634Y-1819366D01*
G01X1474558Y-1821447D01*
G01X1475945Y-1825607D01*
G01X1476407Y-1827456D01*
G01X1476638Y-1829073D01*
G01X1476870Y-1833927D01*
G01X1476638Y-1838781D01*
G01X1476407Y-1840399D01*
G01X1475945Y-1842941D01*
G01X1475021Y-1845945D01*
G01X1474096Y-1848488D01*
G01X1473172Y-1850337D01*
G01X1472478Y-1851955D01*
G01X1469705Y-1856115D01*
G01X1466238Y-1859581D01*
G01X1464620Y-1860968D01*
G01X1462540Y-1862355D01*
G01X1460460Y-1863511D01*
G01X1457918Y-1864435D01*
G01X1454913Y-1865360D01*
G01X1452602Y-1866053D01*
G01X1447517Y-1866977D01*
G01X1441970Y-1867440D01*
G01X1424636Y-1867671D01*
G01X1407995Y-1867671D01*
G01X1407995Y-1912046D01*
G01X1393666Y-1912046D01*
G01X1393666Y-1857501D01*
G37*
G36*
G01X1527254Y-1912046D02*
G01X1527254Y-1870213D01*
G01X1527023Y-1827687D01*
G01X1526734Y-1827282D01*
G01X1526329Y-1827456D01*
G01X1522863Y-1830229D01*
G01X1521014Y-1831616D01*
G01X1518703Y-1833234D01*
G01X1516391Y-1834620D01*
G01X1514311Y-1836007D01*
G01X1512231Y-1837163D01*
G01X1509920Y-1838318D01*
G01X1508071Y-1839474D01*
G01X1501831Y-1842247D01*
G01X1500444Y-1842710D01*
G01X1500444Y-1836469D01*
G01X1500906Y-1829767D01*
G01X1502062Y-1828842D01*
G01X1506222Y-1826762D01*
G01X1508071Y-1825607D01*
G01X1509689Y-1824682D01*
G01X1511075Y-1823758D01*
G01X1514311Y-1821447D01*
G01X1515467Y-1820753D01*
G01X1516622Y-1819829D01*
G01X1519858Y-1817055D01*
G01X1526792Y-1810121D01*
G01X1528179Y-1808273D01*
G01X1529796Y-1805961D01*
G01X1531876Y-1802495D01*
G01X1540659Y-1802495D01*
G01X1540659Y-1856115D01*
G01X1540428Y-1910890D01*
G01X1540197Y-1912046D01*
G01X1527254Y-1912046D01*
G37*
G36*
G01X1609533Y-1913895D02*
G01X1605142Y-1913664D01*
G01X1603062Y-1913202D01*
G01X1600519Y-1912739D01*
G01X1598439Y-1912277D01*
G01X1596128Y-1911584D01*
G01X1593817Y-1910659D01*
G01X1591737Y-1909735D01*
G01X1590119Y-1908810D01*
G01X1588732Y-1907886D01*
G01X1587114Y-1906730D01*
G01X1585496Y-1905344D01*
G01X1581798Y-1901646D01*
G01X1580412Y-1899796D01*
G01X1579487Y-1898410D01*
G01X1578563Y-1896792D01*
G01X1577638Y-1894943D01*
G01X1576252Y-1891245D01*
G01X1575558Y-1888703D01*
G01X1575096Y-1886392D01*
G01X1574865Y-1884542D01*
G01X1575211Y-1883676D01*
G01X1576252Y-1883387D01*
G01X1578332Y-1883156D01*
G01X1583416Y-1882694D01*
G01X1585496Y-1882462D01*
G01X1588039Y-1882694D01*
G01X1588963Y-1883271D01*
G01X1589426Y-1884542D01*
G01X1590119Y-1887547D01*
G01X1591043Y-1890090D01*
G01X1591968Y-1892170D01*
G01X1592892Y-1893787D01*
G01X1593817Y-1894943D01*
G01X1594741Y-1896330D01*
G01X1595897Y-1897716D01*
G01X1597515Y-1898872D01*
G01X1599364Y-1900028D01*
G01X1600982Y-1900952D01*
G01X1603062Y-1901877D01*
G01X1605142Y-1902570D01*
G01X1608840Y-1902801D01*
G01X1613462Y-1902570D01*
G01X1616467Y-1901877D01*
G01X1619009Y-1900952D01*
G01X1620627Y-1900028D01*
G01X1622014Y-1899334D01*
G01X1623400Y-1898410D01*
G01X1626867Y-1894943D01*
G01X1628023Y-1893556D01*
G01X1629178Y-1891707D01*
G01X1630334Y-1889627D01*
G01X1631258Y-1887547D01*
G01X1631952Y-1885236D01*
G01X1632414Y-1883156D01*
G01X1633107Y-1877609D01*
G01X1632876Y-1874373D01*
G01X1632414Y-1870675D01*
G01X1631952Y-1868364D01*
G01X1631489Y-1866515D01*
G01X1630796Y-1864666D01*
G01X1629872Y-1862817D01*
G01X1628947Y-1861199D01*
G01X1628023Y-1859813D01*
G01X1626867Y-1858426D01*
G01X1625712Y-1857270D01*
G01X1624094Y-1855884D01*
G01X1622476Y-1854728D01*
G01X1620858Y-1853803D01*
G01X1618778Y-1852879D01*
G01X1616236Y-1852186D01*
G01X1613924Y-1851723D01*
G01X1610458Y-1851492D01*
G01X1606991Y-1851723D01*
G01X1605142Y-1851955D01*
G01X1602831Y-1852417D01*
G01X1600288Y-1853341D01*
G01X1597746Y-1854497D01*
G01X1595666Y-1855884D01*
G01X1594048Y-1857039D01*
G01X1591737Y-1859350D01*
G01X1590350Y-1860968D01*
G01X1589599Y-1861777D01*
G01X1588732Y-1861893D01*
G01X1585728Y-1861431D01*
G01X1582030Y-1860968D01*
G01X1578794Y-1860506D01*
G01X1577638Y-1860102D01*
G01X1577407Y-1859350D01*
G01X1577870Y-1857733D01*
G01X1578332Y-1855421D01*
G01X1578794Y-1852648D01*
G01X1579256Y-1850337D01*
G01X1579718Y-1847563D01*
G01X1580181Y-1845252D01*
G01X1581105Y-1840167D01*
G01X1582492Y-1833234D01*
G01X1582954Y-1830460D01*
G01X1583879Y-1825838D01*
G01X1584341Y-1823064D01*
G01X1585265Y-1818442D01*
G01X1585728Y-1815669D01*
G01X1587114Y-1808735D01*
G01X1587576Y-1805961D01*
G01X1587808Y-1804344D01*
G01X1641890Y-1804344D01*
G01X1641890Y-1817286D01*
G01X1620165Y-1817286D01*
G01X1603813Y-1817517D01*
G01X1598208Y-1818211D01*
G01X1597746Y-1819829D01*
G01X1593124Y-1842941D01*
G01X1592892Y-1844790D01*
G01X1593066Y-1845599D01*
G01X1593586Y-1845714D01*
G01X1595204Y-1844790D01*
G01X1597284Y-1843634D01*
G01X1599133Y-1842710D01*
G01X1600982Y-1842016D01*
G01X1603062Y-1841323D01*
G01X1605373Y-1840629D01*
G01X1607453Y-1840167D01*
G01X1612769Y-1839936D01*
G01X1618085Y-1840167D01*
G01X1622707Y-1841092D01*
G01X1624787Y-1841785D01*
G01X1627329Y-1842710D01*
G01X1629178Y-1843634D01*
G01X1630796Y-1844559D01*
G01X1633570Y-1846408D01*
G01X1636343Y-1848719D01*
G01X1638192Y-1850337D01*
G01X1640041Y-1852648D01*
G01X1641428Y-1854497D01*
G01X1642352Y-1855884D01*
G01X1644201Y-1859581D01*
G01X1644895Y-1861431D01*
G01X1645588Y-1863511D01*
G01X1646281Y-1866053D01*
G01X1646743Y-1868364D01*
G01X1646975Y-1873680D01*
G01X1646743Y-1880382D01*
G01X1646281Y-1883156D01*
G01X1645819Y-1885467D01*
G01X1645126Y-1888009D01*
G01X1644432Y-1890090D01*
G01X1643739Y-1891938D01*
G01X1642815Y-1893787D01*
G01X1641659Y-1895868D01*
G01X1640272Y-1897948D01*
G01X1638654Y-1900259D01*
G01X1637268Y-1902108D01*
G01X1633339Y-1906037D01*
G01X1631489Y-1907192D01*
G01X1630334Y-1908117D01*
G01X1628716Y-1909272D01*
G01X1626867Y-1910197D01*
G01X1623632Y-1911584D01*
G01X1621320Y-1912277D01*
G01X1618778Y-1912970D01*
G01X1616467Y-1913433D01*
G01X1614387Y-1913664D01*
G01X1609533Y-1913895D01*
G37*
G01X907288Y-169926D02*
G01X907288Y-219456D01*
G01X904240Y-228600D01*
G01X901192Y-231902D01*
G01X894842Y-234950D01*
G01X888746Y-234950D01*
G01X882396Y-231902D01*
G01X879348Y-228600D01*
G01X876300Y-219456D01*
G01X876300Y-213106D01*
G01X980694Y-179070D02*
G01X974598Y-172974D01*
G01X965200Y-169926D01*
G01X952754Y-169926D01*
G01X943610Y-172974D01*
G01X937514Y-179070D01*
G01X937514Y-185420D01*
G01X940562Y-191516D01*
G01X943610Y-194564D01*
G01X949706Y-197612D01*
G01X968248Y-203962D01*
G01X974598Y-207010D01*
G01X977646Y-210058D01*
G01X980694Y-216408D01*
G01X980694Y-225552D01*
G01X974598Y-231902D01*
G01X965200Y-234950D01*
G01X952754Y-234950D01*
G01X943610Y-231902D01*
G01X937514Y-225552D01*
G01X1032510Y-169926D02*
G01X1032510Y-234950D01*
G01X1010920Y-169926D02*
G01X1054100Y-169926D01*
G01X1084326Y-207010D02*
G01X1139952Y-207010D01*
G01X1170178Y-169926D02*
G01X1170178Y-234950D01*
G01X1170178Y-169926D02*
G01X1197864Y-169926D01*
G01X1207262Y-172974D01*
G01X1210310Y-176022D01*
G01X1213358Y-182372D01*
G01X1213358Y-191516D01*
G01X1210310Y-197612D01*
G01X1207262Y-200914D01*
G01X1197864Y-203962D01*
G01X1170178Y-203962D01*
G01X1243584Y-169926D02*
G01X1243584Y-234950D01*
G01X1286764Y-169926D02*
G01X1286764Y-234950D01*
G01X1243584Y-200914D02*
G01X1286764Y-200914D01*
G01X1320038Y-185420D02*
G01X1320038Y-182372D01*
G01X1323086Y-176022D01*
G01X1326134Y-172974D01*
G01X1332230Y-169926D01*
G01X1344676Y-169926D01*
G01X1351026Y-172974D01*
G01X1354074Y-176022D01*
G01X1357122Y-182372D01*
G01X1357122Y-188468D01*
G01X1354074Y-194564D01*
G01X1347724Y-203962D01*
G01X1316990Y-234950D01*
G01X1360170Y-234950D01*
G01X1393444Y-219456D02*
G01X1390396Y-222504D01*
G01X1393444Y-225552D01*
G01X1396492Y-222504D01*
G01X1393444Y-219456D01*
G01X1445260Y-169926D02*
G01X1435862Y-172974D01*
G01X1429766Y-182372D01*
G01X1426718Y-197612D01*
G01X1426718Y-207010D01*
G01X1429766Y-222504D01*
G01X1435862Y-231902D01*
G01X1445260Y-234950D01*
G01X1451356Y-234950D01*
G01X1460754Y-231902D01*
G01X1466850Y-222504D01*
G01X1469898Y-207010D01*
G01X1469898Y-197612D01*
G01X1466850Y-182372D01*
G01X1460754Y-172974D01*
G01X1451356Y-169926D01*
G01X1445260Y-169926D01*
G36*
G01X1881454Y-5757349D02*
G01X1877363Y-5757076D01*
G01X1875727Y-5756804D01*
G01X1873545Y-5756258D01*
G01X1871363Y-5755167D01*
G01X1868636Y-5753531D01*
G01X1866454Y-5751076D01*
G01X1865091Y-5748622D01*
G01X1864272Y-5746167D01*
G01X1863727Y-5743440D01*
G01X1863727Y-5740167D01*
G01X1864818Y-5736895D01*
G01X1866181Y-5734440D01*
G01X1867545Y-5732804D01*
G01X1869454Y-5731440D01*
G01X1871909Y-5730076D01*
G01X1874909Y-5728986D01*
G01X1878454Y-5728167D01*
G01X1881181Y-5727622D01*
G01X1891000Y-5725986D01*
G01X1894818Y-5725440D01*
G01X1897545Y-5724895D01*
G01X1900818Y-5724076D01*
G01X1904363Y-5723258D01*
G01X1909818Y-5721622D01*
G01X1911454Y-5721349D01*
G01X1911454Y-5727895D01*
G01X1911181Y-5735258D01*
G01X1910636Y-5737986D01*
G01X1909818Y-5740986D01*
G01X1909000Y-5742895D01*
G01X1907909Y-5744804D01*
G01X1906545Y-5746713D01*
G01X1905454Y-5748076D01*
G01X1904363Y-5749167D01*
G01X1901636Y-5751349D01*
G01X1899727Y-5752713D01*
G01X1897000Y-5754076D01*
G01X1894545Y-5755167D01*
G01X1892090Y-5755985D01*
G01X1889909Y-5756531D01*
G01X1886090Y-5757076D01*
G01X1881454Y-5757349D01*
G37*
G36*
G01X1328091Y-5714804D02*
G01X1307364Y-5714531D01*
G01X1307364Y-5712895D01*
G01X1308182Y-5710440D01*
G01X1319636Y-5679895D01*
G01X1321273Y-5674986D01*
G01X1322364Y-5672258D01*
G01X1324545Y-5665167D01*
G01X1325364Y-5661895D01*
G01X1325909Y-5659440D01*
G01X1326455Y-5657258D01*
G01X1327273Y-5654531D01*
G01X1327750Y-5653713D01*
G01X1328091Y-5653985D01*
G01X1333273Y-5669531D01*
G01X1335455Y-5675531D01*
G01X1336545Y-5678258D01*
G01X1349636Y-5713167D01*
G01X1349841Y-5714054D01*
G01X1349364Y-5714531D01*
G01X1328091Y-5714804D01*
G37*
G36*
G01X1589363Y-5712076D02*
G01X1564272Y-5711804D01*
G01X1564000Y-5709622D01*
G01X1564272Y-5706895D01*
G01X1564818Y-5704713D01*
G01X1565636Y-5702258D01*
G01X1566727Y-5699804D01*
G01X1567818Y-5697622D01*
G01X1568909Y-5695986D01*
G01X1570545Y-5693804D01*
G01X1572454Y-5691895D01*
G01X1574636Y-5690258D01*
G01X1577091Y-5688622D01*
G01X1579000Y-5687531D01*
G01X1581182Y-5686713D01*
G01X1585545Y-5685622D01*
G01X1591273Y-5685349D01*
G01X1596454Y-5685622D01*
G01X1598909Y-5686440D01*
G01X1601363Y-5687531D01*
G01X1603273Y-5688622D01*
G01X1605727Y-5690258D01*
G01X1610091Y-5694622D01*
G01X1611182Y-5695986D01*
G01X1612000Y-5697622D01*
G01X1612818Y-5699531D01*
G01X1613636Y-5701713D01*
G01X1614454Y-5704440D01*
G01X1615000Y-5706895D01*
G01X1615545Y-5710713D01*
G01X1615545Y-5711395D01*
G01X1615000Y-5711804D01*
G01X1589363Y-5712076D01*
G37*
G36*
G01X1940909Y-5806440D02*
G01X1270000Y-5806440D01*
G01X1270000Y-5767167D01*
G01X1270545Y-5767167D01*
G01X1279000Y-5767713D01*
G01X1287455Y-5767713D01*
G01X1288000Y-5766076D01*
G01X1301091Y-5730076D01*
G01X1301636Y-5728440D01*
G01X1328636Y-5728440D01*
G01X1348954Y-5728713D01*
G01X1355909Y-5729531D01*
G01X1358364Y-5736076D01*
G01X1359454Y-5738804D01*
G01X1360545Y-5741804D01*
G01X1361636Y-5744531D01*
G01X1362727Y-5747531D01*
G01X1364909Y-5752985D01*
G01X1366000Y-5755985D01*
G01X1367091Y-5758713D01*
G01X1368182Y-5761713D01*
G01X1369273Y-5764440D01*
G01X1370364Y-5766622D01*
G01X1373159Y-5767440D01*
G01X1380454Y-5767713D01*
G01X1390000Y-5767713D01*
G01X1389454Y-5766076D01*
G01X1388363Y-5763349D01*
G01X1387273Y-5760895D01*
G01X1382909Y-5749985D01*
G01X1381818Y-5747531D01*
G01X1378545Y-5739349D01*
G01X1377454Y-5736895D01*
G01X1376636Y-5734986D01*
G01X1375818Y-5732804D01*
G01X1373636Y-5727349D01*
G01X1372545Y-5724895D01*
G01X1371018Y-5721076D01*
G01X1401454Y-5721076D01*
G01X1401454Y-5767713D01*
G01X1417273Y-5767713D01*
G01X1417273Y-5740440D01*
G01X1417545Y-5712349D01*
G01X1418091Y-5706349D01*
G01X1418636Y-5703622D01*
G01X1419454Y-5700895D01*
G01X1421091Y-5697077D01*
G01X1422454Y-5694895D01*
G01X1424091Y-5692986D01*
G01X1427909Y-5690258D01*
G01X1429545Y-5689167D01*
G01X1431727Y-5688077D01*
G01X1434727Y-5687258D01*
G01X1437182Y-5686713D01*
G01X1441000Y-5686167D01*
G01X1443727Y-5685895D01*
G01X1446455Y-5686167D01*
G01X1448636Y-5686713D01*
G01X1450818Y-5687531D01*
G01X1453000Y-5688622D01*
G01X1454909Y-5689986D01*
G01X1456273Y-5691349D01*
G01X1457909Y-5693258D01*
G01X1459273Y-5695440D01*
G01X1460091Y-5697622D01*
G01X1460636Y-5699804D01*
G01X1461182Y-5703077D01*
G01X1461455Y-5736622D01*
G01X1461455Y-5767713D01*
G01X1477273Y-5767713D01*
G01X1477273Y-5732804D01*
G01X1477000Y-5697077D01*
G01X1476455Y-5694349D01*
G01X1475636Y-5691349D01*
G01X1474818Y-5689167D01*
G01X1474000Y-5687258D01*
G01X1472909Y-5685349D01*
G01X1471273Y-5682895D01*
G01X1469636Y-5680986D01*
G01X1466909Y-5678804D01*
G01X1465000Y-5677440D01*
G01X1462273Y-5676076D01*
G01X1459818Y-5674986D01*
G01X1458000Y-5674440D01*
G01X1493091Y-5674440D01*
G01X1493091Y-5686440D01*
G01X1504545Y-5686440D01*
G01X1504545Y-5716986D01*
G01X1504818Y-5748349D01*
G01X1505364Y-5754349D01*
G01X1505909Y-5756804D01*
G01X1506727Y-5759258D01*
G01X1507818Y-5761167D01*
G01X1509182Y-5762804D01*
G01X1510545Y-5764167D01*
G01X1512454Y-5765531D01*
G01X1514636Y-5766622D01*
G01X1517363Y-5767713D01*
G01X1517363Y-5767713D01*
G01X1520091Y-5768531D01*
G01X1526909Y-5768804D01*
G01X1533727Y-5768531D01*
G01X1536454Y-5767985D01*
G01X1537886Y-5767440D01*
G01X1538363Y-5766349D01*
G01X1538091Y-5764167D01*
G01X1537545Y-5760349D01*
G01X1537000Y-5757076D01*
G01X1536591Y-5755099D01*
G01X1535909Y-5754076D01*
G01X1533182Y-5753804D01*
G01X1528545Y-5754076D01*
G01X1524454Y-5753258D01*
G01X1522273Y-5751349D01*
G01X1521182Y-5748895D01*
G01X1520636Y-5746167D01*
G01X1520432Y-5723258D01*
G01X1546545Y-5723258D01*
G01X1546818Y-5729258D01*
G01X1547363Y-5733622D01*
G01X1548454Y-5739076D01*
G01X1549272Y-5741531D01*
G01X1550363Y-5744531D01*
G01X1551454Y-5746985D01*
G01X1553636Y-5750804D01*
G01X1555000Y-5752985D01*
G01X1556363Y-5754895D01*
G01X1561818Y-5760349D01*
G01X1563182Y-5761440D01*
G01X1564545Y-5762258D01*
G01X1566182Y-5763349D01*
G01X1568091Y-5764440D01*
G01X1570272Y-5765531D01*
G01X1573000Y-5766622D01*
G01X1576000Y-5767713D01*
G01X1579545Y-5768531D01*
G01X1582272Y-5769076D01*
G01X1584727Y-5769349D01*
G01X1584727Y-5769349D01*
G01X1586636Y-5769622D01*
G01X1590454Y-5769895D01*
G01X1594818Y-5769622D01*
G01X1600273Y-5769076D01*
G01X1603000Y-5768531D01*
G01X1606000Y-5767713D01*
G01X1608454Y-5766895D01*
G01X1610636Y-5766076D01*
G01X1612818Y-5764985D01*
G01X1615545Y-5763349D01*
G01X1619909Y-5760076D01*
G01X1621818Y-5758167D01*
G01X1625091Y-5754076D01*
G01X1626454Y-5752167D01*
G01X1627818Y-5749713D01*
G01X1628909Y-5747531D01*
G01X1630000Y-5745076D01*
G01X1631091Y-5742076D01*
G01X1631636Y-5739895D01*
G01X1629454Y-5739349D01*
G01X1626454Y-5739076D01*
G01X1616636Y-5737986D01*
G01X1615886Y-5738122D01*
G01X1615273Y-5739076D01*
G01X1614182Y-5741531D01*
G01X1613091Y-5743713D01*
G01X1611727Y-5745895D01*
G01X1610091Y-5748349D01*
G01X1608182Y-5750258D01*
G01X1606545Y-5751622D01*
G01X1604636Y-5752985D01*
G01X1602727Y-5754076D01*
G01X1601091Y-5754895D01*
G01X1599182Y-5755713D01*
G01X1597000Y-5756258D01*
G01X1594818Y-5756531D01*
G01X1590454Y-5756804D01*
G01X1586091Y-5756531D01*
G01X1583636Y-5755985D01*
G01X1580909Y-5755167D01*
G01X1578454Y-5754076D01*
G01X1576545Y-5752985D01*
G01X1575182Y-5751895D01*
G01X1573000Y-5750258D01*
G01X1570818Y-5747804D01*
G01X1568091Y-5743986D01*
G01X1566727Y-5741258D01*
G01X1565636Y-5738804D01*
G01X1564818Y-5736349D01*
G01X1563727Y-5731986D01*
G01X1563182Y-5728167D01*
G01X1563182Y-5726258D01*
G01X1563727Y-5725440D01*
G01X1598363Y-5725167D01*
G01X1632182Y-5725167D01*
G01X1632454Y-5723258D01*
G01X1632653Y-5721076D01*
G01X1651818Y-5721076D01*
G01X1651818Y-5767713D01*
G01X1667636Y-5767713D01*
G01X1667636Y-5739349D01*
G01X1667909Y-5710167D01*
G01X1668454Y-5705804D01*
G01X1669000Y-5703349D01*
G01X1669818Y-5700622D01*
G01X1670636Y-5698440D01*
G01X1671727Y-5696258D01*
G01X1673091Y-5694349D01*
G01X1674454Y-5692986D01*
G01X1676636Y-5691349D01*
G01X1679363Y-5689440D01*
G01X1682091Y-5688077D01*
G01X1684818Y-5687258D01*
G01X1687545Y-5686713D01*
G01X1691363Y-5686167D01*
G01X1694909Y-5685895D01*
G01X1696818Y-5686167D01*
G01X1699000Y-5686713D01*
G01X1701182Y-5687531D01*
G01X1703091Y-5688622D01*
G01X1705545Y-5690258D01*
G01X1707454Y-5692167D01*
G01X1708545Y-5693804D01*
G01X1709636Y-5695986D01*
G01X1710727Y-5699258D01*
G01X1711272Y-5702258D01*
G01X1711545Y-5704167D01*
G01X1711818Y-5736349D01*
G01X1711818Y-5767713D01*
G01X1727636Y-5767713D01*
G01X1727636Y-5733622D01*
G01X1727538Y-5721076D01*
G01X1752181Y-5721076D01*
G01X1752181Y-5767713D01*
G01X1768000Y-5767713D01*
G01X1768000Y-5737986D01*
G01X1768272Y-5707440D01*
G01X1769363Y-5701986D01*
G01X1770182Y-5699804D01*
G01X1771273Y-5697349D01*
G01X1772909Y-5694895D01*
G01X1774545Y-5692986D01*
G01X1776182Y-5691622D01*
G01X1778636Y-5689986D01*
G01X1781363Y-5688622D01*
G01X1783818Y-5687531D01*
G01X1787363Y-5686713D01*
G01X1791182Y-5686167D01*
G01X1794182Y-5685895D01*
G01X1796636Y-5686167D01*
G01X1798818Y-5686713D01*
G01X1801000Y-5687531D01*
G01X1803182Y-5688622D01*
G01X1805091Y-5689713D01*
G01X1806454Y-5690804D01*
G01X1807818Y-5692440D01*
G01X1808909Y-5694349D01*
G01X1810000Y-5696531D01*
G01X1810818Y-5699258D01*
G01X1811363Y-5701986D01*
G01X1811636Y-5705258D01*
G01X1811909Y-5707986D01*
G01X1812182Y-5738258D01*
G01X1812182Y-5767713D01*
G01X1828000Y-5767713D01*
G01X1828000Y-5742895D01*
G01X1846818Y-5742895D01*
G01X1846818Y-5745622D01*
G01X1847363Y-5749440D01*
G01X1848181Y-5752440D01*
G01X1849272Y-5754895D01*
G01X1850363Y-5756804D01*
G01X1851727Y-5758713D01*
G01X1853363Y-5760622D01*
G01X1854727Y-5761985D01*
G01X1856363Y-5763349D01*
G01X1858545Y-5764713D01*
G01X1861000Y-5766076D01*
G01X1863454Y-5767167D01*
G01X1866181Y-5767985D01*
G01X1868636Y-5768531D01*
G01X1871363Y-5769076D01*
G01X1871363Y-5769076D01*
G01X1874363Y-5769622D01*
G01X1879000Y-5769895D01*
G01X1883363Y-5769622D01*
G01X1888272Y-5769076D01*
G01X1890454Y-5768531D01*
G01X1893181Y-5767713D01*
G01X1895636Y-5766895D01*
G01X1897818Y-5766076D01*
G01X1900272Y-5764985D01*
G01X1902727Y-5763622D01*
G01X1905181Y-5761985D01*
G01X1907909Y-5760349D01*
G01X1909818Y-5758713D01*
G01X1911181Y-5757622D01*
G01X1912545Y-5757076D01*
G01X1913022Y-5757417D01*
G01X1913363Y-5758985D01*
G01X1913909Y-5761985D01*
G01X1914727Y-5764440D01*
G01X1916090Y-5766895D01*
G01X1918681Y-5767508D01*
G01X1924818Y-5767713D01*
G01X1932727Y-5767713D01*
G01X1932181Y-5766349D01*
G01X1931091Y-5764167D01*
G01X1930000Y-5761440D01*
G01X1928909Y-5757622D01*
G01X1928363Y-5753258D01*
G01X1928091Y-5749985D01*
G01X1927545Y-5700349D01*
G01X1927000Y-5693258D01*
G01X1926454Y-5691077D01*
G01X1925636Y-5688622D01*
G01X1924545Y-5686167D01*
G01X1923454Y-5684258D01*
G01X1922363Y-5682895D01*
G01X1918818Y-5679349D01*
G01X1917181Y-5678258D01*
G01X1912818Y-5676076D01*
G01X1910636Y-5675258D01*
G01X1908181Y-5674440D01*
G01X1904909Y-5673622D01*
G01X1901909Y-5673076D01*
G01X1897000Y-5672531D01*
G01X1891272Y-5672258D01*
G01X1885545Y-5672531D01*
G01X1880090Y-5673076D01*
G01X1874636Y-5674167D01*
G01X1868909Y-5676076D01*
G01X1866454Y-5677167D01*
G01X1864272Y-5678258D01*
G01X1862363Y-5679349D01*
G01X1861000Y-5680440D01*
G01X1856909Y-5684531D01*
G01X1855545Y-5686440D01*
G01X1853909Y-5688895D01*
G01X1852545Y-5691622D01*
G01X1851454Y-5694622D01*
G01X1850363Y-5697895D01*
G01X1849818Y-5700349D01*
G01X1850159Y-5700963D01*
G01X1851181Y-5701167D01*
G01X1862091Y-5702531D01*
G01X1864000Y-5702804D01*
G01X1864886Y-5702463D01*
G01X1865363Y-5701440D01*
G01X1866181Y-5698986D01*
G01X1867272Y-5696258D01*
G01X1868363Y-5694077D01*
G01X1869727Y-5692440D01*
G01X1871909Y-5690258D01*
G01X1874363Y-5688349D01*
G01X1876818Y-5687258D01*
G01X1879272Y-5686440D01*
G01X1882000Y-5685895D01*
G01X1884454Y-5685622D01*
G01X1890181Y-5685349D01*
G01X1895909Y-5685622D01*
G01X1898363Y-5686167D01*
G01X1900818Y-5686986D01*
G01X1902727Y-5687804D01*
G01X1904909Y-5688895D01*
G01X1906818Y-5690258D01*
G01X1908181Y-5691622D01*
G01X1909272Y-5693258D01*
G01X1910363Y-5695440D01*
G01X1911181Y-5699258D01*
G01X1911727Y-5704167D01*
G01X1911454Y-5707713D01*
G01X1909272Y-5709349D01*
G01X1905727Y-5710167D01*
G01X1903000Y-5710713D01*
G01X1898090Y-5711804D01*
G01X1894272Y-5712349D01*
G01X1891000Y-5712895D01*
G01X1887181Y-5713440D01*
G01X1884727Y-5713713D01*
G01X1882818Y-5713986D01*
G01X1878454Y-5714531D01*
G01X1872454Y-5715622D01*
G01X1867545Y-5716713D01*
G01X1865363Y-5717531D01*
G01X1861000Y-5719713D01*
G01X1859091Y-5720804D01*
G01X1857181Y-5722167D01*
G01X1855272Y-5723804D01*
G01X1853909Y-5725167D01*
G01X1852545Y-5726804D01*
G01X1850363Y-5730076D01*
G01X1849272Y-5731986D01*
G01X1848454Y-5734167D01*
G01X1847363Y-5738531D01*
G01X1847091Y-5740986D01*
G01X1846818Y-5742895D01*
G01X1828000Y-5742895D01*
G01X1828000Y-5736076D01*
G01X1827727Y-5703622D01*
G01X1827182Y-5695986D01*
G01X1826636Y-5693531D01*
G01X1825818Y-5690804D01*
G01X1825000Y-5688622D01*
G01X1824182Y-5686713D01*
G01X1822818Y-5684531D01*
G01X1821454Y-5682622D01*
G01X1820363Y-5681258D01*
G01X1818454Y-5679622D01*
G01X1814636Y-5676895D01*
G01X1811636Y-5675531D01*
G01X1808363Y-5674440D01*
G01X1804818Y-5673349D01*
G01X1801818Y-5672804D01*
G01X1799909Y-5672531D01*
G01X1795545Y-5672258D01*
G01X1791182Y-5672531D01*
G01X1786818Y-5673076D01*
G01X1784363Y-5673895D01*
G01X1781363Y-5674986D01*
G01X1778636Y-5676076D01*
G01X1776727Y-5677167D01*
G01X1774818Y-5678531D01*
G01X1772909Y-5680167D01*
G01X1768818Y-5684258D01*
G01X1767727Y-5685622D01*
G01X1766909Y-5686167D01*
G01X1766363Y-5680167D01*
G01X1766363Y-5674440D01*
G01X1752181Y-5674440D01*
G01X1752181Y-5721076D01*
G01X1752181Y-5721076D01*
G01X1727538Y-5721076D01*
G01X1727363Y-5698713D01*
G01X1726818Y-5694349D01*
G01X1726000Y-5691622D01*
G01X1724909Y-5688622D01*
G01X1723818Y-5686440D01*
G01X1722454Y-5684258D01*
G01X1721091Y-5682349D01*
G01X1718363Y-5679622D01*
G01X1716727Y-5678258D01*
G01X1714818Y-5677167D01*
G01X1712636Y-5676076D01*
G01X1710181Y-5674986D01*
G01X1707454Y-5674167D01*
G01X1705000Y-5673622D01*
G01X1702818Y-5673076D01*
G01X1699545Y-5672531D01*
G01X1694636Y-5672258D01*
G01X1690818Y-5672531D01*
G01X1687000Y-5673076D01*
G01X1684272Y-5673895D01*
G01X1681272Y-5674986D01*
G01X1678818Y-5676076D01*
G01X1676363Y-5677440D01*
G01X1674454Y-5678804D01*
G01X1672273Y-5680440D01*
G01X1670363Y-5682349D01*
G01X1668182Y-5685077D01*
G01X1666818Y-5686440D01*
G01X1666204Y-5685281D01*
G01X1666000Y-5680713D01*
G01X1666000Y-5674440D01*
G01X1651818Y-5674440D01*
G01X1651818Y-5721076D01*
G01X1651818Y-5721076D01*
G01X1632653Y-5721076D01*
G01X1632727Y-5720258D01*
G01X1632454Y-5718349D01*
G01X1631909Y-5710713D01*
G01X1631364Y-5706895D01*
G01X1630818Y-5704440D01*
G01X1630000Y-5701713D01*
G01X1628364Y-5696804D01*
G01X1627273Y-5694349D01*
G01X1625909Y-5691895D01*
G01X1624273Y-5689440D01*
G01X1622636Y-5687531D01*
G01X1620454Y-5684804D01*
G01X1619091Y-5683440D01*
G01X1615273Y-5680167D01*
G01X1613909Y-5679077D01*
G01X1607909Y-5676076D01*
G01X1605454Y-5674986D01*
G01X1601909Y-5673895D01*
G01X1598091Y-5673076D01*
G01X1594273Y-5672531D01*
G01X1588545Y-5672258D01*
G01X1583909Y-5672531D01*
G01X1580091Y-5673076D01*
G01X1577363Y-5673895D01*
G01X1573818Y-5674986D01*
G01X1571363Y-5676076D01*
G01X1569182Y-5677167D01*
G01X1566727Y-5678531D01*
G01X1564818Y-5679895D01*
G01X1562636Y-5681531D01*
G01X1558000Y-5686167D01*
G01X1555818Y-5688895D01*
G01X1554454Y-5690804D01*
G01X1553091Y-5693258D01*
G01X1550909Y-5697622D01*
G01X1549818Y-5700349D01*
G01X1549000Y-5703349D01*
G01X1548454Y-5705804D01*
G01X1547909Y-5707986D01*
G01X1547363Y-5711258D01*
G01X1546818Y-5715622D01*
G01X1546545Y-5723258D01*
G01X1520432Y-5723258D01*
G01X1520363Y-5715622D01*
G01X1520363Y-5686440D01*
G01X1536182Y-5686440D01*
G01X1536182Y-5674440D01*
G01X1520363Y-5674440D01*
G01X1520363Y-5642258D01*
G01X1519273Y-5642531D01*
G01X1517091Y-5643622D01*
G01X1510545Y-5647713D01*
G01X1508636Y-5648804D01*
G01X1506454Y-5650167D01*
G01X1504818Y-5651804D01*
G01X1504545Y-5663531D01*
G01X1504545Y-5674440D01*
G01X1493091Y-5674440D01*
G01X1458000Y-5674440D01*
G01X1454364Y-5673349D01*
G01X1451636Y-5672804D01*
G01X1449182Y-5672531D01*
G01X1444818Y-5672258D01*
G01X1440454Y-5672531D01*
G01X1436636Y-5673076D01*
G01X1430909Y-5674986D01*
G01X1428454Y-5676076D01*
G01X1426545Y-5677167D01*
G01X1424091Y-5678804D01*
G01X1421909Y-5680713D01*
G01X1420545Y-5682349D01*
G01X1419182Y-5683713D01*
G01X1417545Y-5685622D01*
G01X1416795Y-5686576D01*
G01X1416182Y-5686713D01*
G01X1415636Y-5680440D01*
G01X1415636Y-5674440D01*
G01X1401454Y-5674440D01*
G01X1401454Y-5721076D01*
G01X1401454Y-5721076D01*
G01X1371018Y-5721076D01*
G01X1369273Y-5716713D01*
G01X1368182Y-5714258D01*
G01X1363818Y-5703349D01*
G01X1362727Y-5700895D01*
G01X1358364Y-5689986D01*
G01X1357273Y-5687531D01*
G01X1354000Y-5679349D01*
G01X1352909Y-5676895D01*
G01X1352091Y-5674986D01*
G01X1351273Y-5672804D01*
G01X1349091Y-5667349D01*
G01X1348000Y-5664895D01*
G01X1343636Y-5653985D01*
G01X1342545Y-5651531D01*
G01X1339273Y-5643349D01*
G01X1338182Y-5640895D01*
G01X1337364Y-5639531D01*
G01X1328091Y-5638985D01*
G01X1319091Y-5638985D01*
G01X1317455Y-5643076D01*
G01X1316364Y-5646076D01*
G01X1314182Y-5651531D01*
G01X1313091Y-5654531D01*
G01X1312000Y-5657258D01*
G01X1310909Y-5660258D01*
G01X1308727Y-5665713D01*
G01X1307636Y-5668713D01*
G01X1306546Y-5671440D01*
G01X1305455Y-5674440D01*
G01X1303273Y-5679895D01*
G01X1302182Y-5682895D01*
G01X1301091Y-5685622D01*
G01X1300000Y-5688622D01*
G01X1297818Y-5694077D01*
G01X1295636Y-5700077D01*
G01X1293455Y-5705531D01*
G01X1292364Y-5708531D01*
G01X1291273Y-5711258D01*
G01X1290182Y-5714258D01*
G01X1288000Y-5719713D01*
G01X1286909Y-5722713D01*
G01X1285818Y-5725440D01*
G01X1284727Y-5728440D01*
G01X1282546Y-5733895D01*
G01X1281455Y-5736895D01*
G01X1280364Y-5739622D01*
G01X1279273Y-5742622D01*
G01X1277091Y-5748076D01*
G01X1276000Y-5751076D01*
G01X1274909Y-5753804D01*
G01X1273818Y-5756804D01*
G01X1271636Y-5762258D01*
G01X1270818Y-5765258D01*
G01X1270818Y-5765258D01*
G01X1270545Y-5767167D01*
G01X1270000Y-5767167D01*
G01X1270000Y-5502077D01*
G01X1333818Y-5502077D01*
G01X1333818Y-5566440D01*
G01X1430364Y-5566440D01*
G01X1430364Y-5551167D01*
G01X1351273Y-5551167D01*
G01X1351273Y-5526077D01*
G01X1448091Y-5526077D01*
G01X1448091Y-5527986D01*
G01X1448636Y-5532349D01*
G01X1449182Y-5535077D01*
G01X1451091Y-5540804D01*
G01X1452182Y-5543258D01*
G01X1454364Y-5547077D01*
G01X1455727Y-5549258D01*
G01X1457364Y-5551167D01*
G01X1459545Y-5553895D01*
G01X1460909Y-5555258D01*
G01X1462818Y-5556895D01*
G01X1468273Y-5560713D01*
G01X1473182Y-5563167D01*
G01X1475636Y-5564258D01*
G01X1478909Y-5565349D01*
G01X1482182Y-5566167D01*
G01X1484636Y-5566713D01*
G01X1487364Y-5567258D01*
G01X1491182Y-5567804D01*
G01X1491182Y-5567804D01*
G01X1494182Y-5568349D01*
G01X1502091Y-5568622D01*
G01X1509727Y-5568349D01*
G01X1513545Y-5567804D01*
G01X1519000Y-5566713D01*
G01X1524727Y-5564804D01*
G01X1527182Y-5563713D01*
G01X1530454Y-5562077D01*
G01X1532363Y-5560986D01*
G01X1534818Y-5559349D01*
G01X1537000Y-5557713D01*
G01X1541091Y-5553622D01*
G01X1543273Y-5550895D01*
G01X1544636Y-5548986D01*
G01X1546000Y-5546531D01*
G01X1547091Y-5544349D01*
G01X1547909Y-5542440D01*
G01X1548727Y-5540258D01*
G01X1549545Y-5536986D01*
G01X1550091Y-5533986D01*
G01X1550363Y-5529077D01*
G01X1550091Y-5524168D01*
G01X1549545Y-5521986D01*
G01X1548727Y-5518986D01*
G01X1547636Y-5516258D01*
G01X1546272Y-5513804D01*
G01X1544909Y-5511622D01*
G01X1543273Y-5509440D01*
G01X1538909Y-5505077D01*
G01X1537545Y-5503986D01*
G01X1536182Y-5503167D01*
G01X1534654Y-5502077D01*
G01X1573818Y-5502077D01*
G01X1573818Y-5566440D01*
G01X1590727Y-5566440D01*
G01X1590727Y-5533986D01*
G01X1687545Y-5533986D01*
G01X1688091Y-5536986D01*
G01X1688909Y-5540258D01*
G01X1690545Y-5545168D01*
G01X1691636Y-5547622D01*
G01X1692727Y-5549531D01*
G01X1694909Y-5552804D01*
G01X1696000Y-5554167D01*
G01X1701454Y-5559622D01*
G01X1702818Y-5560713D01*
G01X1704182Y-5561531D01*
G01X1706091Y-5562895D01*
G01X1711000Y-5565349D01*
G01X1713181Y-5566167D01*
G01X1715636Y-5566986D01*
G01X1718091Y-5567531D01*
G01X1720272Y-5567804D01*
G01X1720272Y-5567804D01*
G01X1721909Y-5568349D01*
G01X1728727Y-5568622D01*
G01X1735545Y-5568349D01*
G01X1739363Y-5567804D01*
G01X1741545Y-5567258D01*
G01X1744000Y-5566440D01*
G01X1746181Y-5565622D01*
G01X1785454Y-5565622D01*
G01X1796091Y-5566236D01*
G01X1828000Y-5566440D01*
G01X1870545Y-5566440D01*
G01X1870545Y-5551167D01*
G01X1839181Y-5551167D01*
G01X1815727Y-5550963D01*
G01X1808091Y-5550349D01*
G01X1809454Y-5548168D01*
G01X1811091Y-5545986D01*
G01X1812454Y-5544622D01*
G01X1815182Y-5541349D01*
G01X1817363Y-5539713D01*
G01X1820636Y-5536440D01*
G01X1823363Y-5534258D01*
G01X1824727Y-5532895D01*
G01X1828000Y-5530168D01*
G01X1831818Y-5526895D01*
G01X1835091Y-5524168D01*
G01X1836454Y-5522804D01*
G01X1838636Y-5521168D01*
G01X1840545Y-5519258D01*
G01X1844363Y-5515986D01*
G01X1848454Y-5511895D01*
G01X1850636Y-5510258D01*
G01X1852545Y-5508349D01*
G01X1854727Y-5505622D01*
G01X1857454Y-5502895D01*
G01X1859091Y-5500713D01*
G01X1861272Y-5497986D01*
G01X1863181Y-5495258D01*
G01X1864545Y-5493076D01*
G01X1866727Y-5488713D01*
G01X1867818Y-5486258D01*
G01X1868636Y-5483804D01*
G01X1869181Y-5481622D01*
G01X1869727Y-5478895D01*
G01X1870272Y-5475076D01*
G01X1870545Y-5470986D01*
G01X1870272Y-5468531D01*
G01X1869727Y-5464713D01*
G01X1867818Y-5458986D01*
G01X1866727Y-5456531D01*
G01X1865363Y-5454349D01*
G01X1864000Y-5452440D01*
G01X1862909Y-5451077D01*
G01X1861272Y-5449167D01*
G01X1858818Y-5446986D01*
G01X1856909Y-5445077D01*
G01X1855545Y-5443986D01*
G01X1853636Y-5442895D01*
G01X1851181Y-5441531D01*
G01X1848727Y-5440440D01*
G01X1846272Y-5439622D01*
G01X1841909Y-5438531D01*
G01X1839181Y-5437986D01*
G01X1835909Y-5437440D01*
G01X1828818Y-5437167D01*
G01X1822818Y-5437440D01*
G01X1819000Y-5437986D01*
G01X1816545Y-5438531D01*
G01X1813818Y-5439349D01*
G01X1811636Y-5440167D01*
G01X1809727Y-5440986D01*
G01X1807545Y-5442077D01*
G01X1805091Y-5443440D01*
G01X1803182Y-5444804D01*
G01X1800727Y-5447258D01*
G01X1799091Y-5448622D01*
G01X1797454Y-5450531D01*
G01X1795818Y-5452713D01*
G01X1794182Y-5455440D01*
G01X1792000Y-5459804D01*
G01X1790909Y-5462804D01*
G01X1790091Y-5465804D01*
G01X1789000Y-5471258D01*
G01X1789000Y-5473440D01*
G01X1790636Y-5474531D01*
G01X1793636Y-5474804D01*
G01X1796091Y-5475076D01*
G01X1802091Y-5475622D01*
G01X1803727Y-5475622D01*
G01X1804409Y-5474804D01*
G01X1804818Y-5472895D01*
G01X1805363Y-5468804D01*
G01X1806182Y-5466076D01*
G01X1807000Y-5463895D01*
G01X1807818Y-5461986D01*
G01X1808909Y-5460349D01*
G01X1810545Y-5458167D01*
G01X1812454Y-5456258D01*
G01X1813818Y-5455167D01*
G01X1815727Y-5453804D01*
G01X1818454Y-5452440D01*
G01X1821454Y-5451349D01*
G01X1825000Y-5450531D01*
G01X1831000Y-5450258D01*
G01X1835909Y-5450531D01*
G01X1838636Y-5451349D01*
G01X1841363Y-5452440D01*
G01X1843545Y-5453531D01*
G01X1845454Y-5454895D01*
G01X1849545Y-5458986D01*
G01X1850909Y-5460895D01*
G01X1852000Y-5463076D01*
G01X1852818Y-5465258D01*
G01X1853363Y-5467440D01*
G01X1853909Y-5470167D01*
G01X1854181Y-5473713D01*
G01X1853909Y-5476167D01*
G01X1853363Y-5478622D01*
G01X1852545Y-5481349D01*
G01X1851454Y-5483804D01*
G01X1850363Y-5485986D01*
G01X1849272Y-5487895D01*
G01X1847909Y-5490076D01*
G01X1846545Y-5491986D01*
G01X1844909Y-5494167D01*
G01X1843000Y-5496076D01*
G01X1840818Y-5498804D01*
G01X1835363Y-5504258D01*
G01X1832636Y-5506440D01*
G01X1829909Y-5509167D01*
G01X1827182Y-5511349D01*
G01X1825818Y-5512713D01*
G01X1816000Y-5520895D01*
G01X1812182Y-5524168D01*
G01X1810818Y-5525531D01*
G01X1808091Y-5527713D01*
G01X1799909Y-5535895D01*
G01X1796636Y-5539713D01*
G01X1795545Y-5541077D01*
G01X1794727Y-5542440D01*
G01X1793363Y-5544349D01*
G01X1791727Y-5546804D01*
G01X1790363Y-5549258D01*
G01X1788182Y-5553622D01*
G01X1787091Y-5556622D01*
G01X1786273Y-5559622D01*
G01X1785727Y-5562895D01*
G01X1785727Y-5562895D01*
G01X1785454Y-5565622D01*
G01X1746181Y-5565622D01*
G01X1748091Y-5564804D01*
G01X1750272Y-5563713D01*
G01X1752727Y-5562349D01*
G01X1754636Y-5560986D01*
G01X1756818Y-5559349D01*
G01X1758727Y-5557440D01*
G01X1760091Y-5556349D01*
G01X1761182Y-5555258D01*
G01X1762272Y-5553895D01*
G01X1763909Y-5551986D01*
G01X1767182Y-5547077D01*
G01X1768272Y-5544622D01*
G01X1769091Y-5542713D01*
G01X1769909Y-5540258D01*
G01X1770727Y-5537531D01*
G01X1771273Y-5534804D01*
G01X1771545Y-5532349D01*
G01X1771818Y-5527713D01*
G01X1771545Y-5523077D01*
G01X1771000Y-5520077D01*
G01X1770182Y-5516804D01*
G01X1769363Y-5514622D01*
G01X1768272Y-5512167D01*
G01X1766909Y-5509713D01*
G01X1765272Y-5507258D01*
G01X1762000Y-5503986D01*
G01X1758727Y-5501258D01*
G01X1757091Y-5500167D01*
G01X1755182Y-5499349D01*
G01X1752727Y-5498258D01*
G01X1749727Y-5497167D01*
G01X1748841Y-5496622D01*
G01X1748909Y-5496076D01*
G01X1752727Y-5493895D01*
G01X1754636Y-5492531D01*
G01X1756545Y-5490895D01*
G01X1757909Y-5489531D01*
G01X1759272Y-5487895D01*
G01X1760363Y-5486258D01*
G01X1761727Y-5484349D01*
G01X1763091Y-5481622D01*
G01X1764182Y-5478622D01*
G01X1765000Y-5474531D01*
G01X1765272Y-5468804D01*
G01X1765000Y-5464713D01*
G01X1764454Y-5462258D01*
G01X1763636Y-5459804D01*
G01X1762000Y-5455986D01*
G01X1760909Y-5454077D01*
G01X1759818Y-5452440D01*
G01X1758454Y-5450531D01*
G01X1756818Y-5448622D01*
G01X1755454Y-5447258D01*
G01X1751363Y-5443986D01*
G01X1749727Y-5443167D01*
G01X1747818Y-5442077D01*
G01X1745636Y-5440986D01*
G01X1742909Y-5439895D01*
G01X1739636Y-5438804D01*
G01X1736091Y-5437986D01*
G01X1732818Y-5437440D01*
G01X1726818Y-5437167D01*
G01X1721363Y-5437440D01*
G01X1718363Y-5437986D01*
G01X1715091Y-5438804D01*
G01X1712636Y-5439622D01*
G01X1710454Y-5440440D01*
G01X1708272Y-5441531D01*
G01X1706363Y-5442622D01*
G01X1704454Y-5443986D01*
G01X1702545Y-5445622D01*
G01X1697909Y-5450258D01*
G01X1696818Y-5451622D01*
G01X1696000Y-5452986D01*
G01X1694909Y-5454622D01*
G01X1693818Y-5456531D01*
G01X1692727Y-5458713D01*
G01X1691636Y-5461440D01*
G01X1690545Y-5464713D01*
G01X1689727Y-5468258D01*
G01X1689454Y-5470167D01*
G01X1691363Y-5470713D01*
G01X1694636Y-5471258D01*
G01X1697363Y-5471804D01*
G01X1700636Y-5472349D01*
G01X1703636Y-5472895D01*
G01X1704522Y-5472758D01*
G01X1705000Y-5471804D01*
G01X1705818Y-5468531D01*
G01X1706909Y-5464986D01*
G01X1708272Y-5461986D01*
G01X1709636Y-5459531D01*
G01X1712363Y-5456258D01*
G01X1713727Y-5454895D01*
G01X1715636Y-5453804D01*
G01X1718091Y-5452440D01*
G01X1720272Y-5451622D01*
G01X1723000Y-5450804D01*
G01X1728727Y-5450258D01*
G01X1733363Y-5450531D01*
G01X1735545Y-5451077D01*
G01X1737727Y-5451895D01*
G01X1739636Y-5452986D01*
G01X1741272Y-5454077D01*
G01X1742636Y-5455167D01*
G01X1744000Y-5456531D01*
G01X1745091Y-5457895D01*
G01X1746181Y-5459531D01*
G01X1747272Y-5461440D01*
G01X1748363Y-5464167D01*
G01X1748909Y-5467440D01*
G01X1749181Y-5469622D01*
G01X1749181Y-5472895D01*
G01X1748363Y-5477258D01*
G01X1747272Y-5479986D01*
G01X1746181Y-5481622D01*
G01X1744545Y-5483804D01*
G01X1742636Y-5485440D01*
G01X1741272Y-5486258D01*
G01X1739363Y-5487349D01*
G01X1737181Y-5488440D01*
G01X1734727Y-5489531D01*
G01X1731727Y-5490349D01*
G01X1729000Y-5490895D01*
G01X1725727Y-5491440D01*
G01X1722181Y-5491713D01*
G01X1720545Y-5491713D01*
G01X1720272Y-5494167D01*
G01X1719727Y-5497986D01*
G01X1719454Y-5500440D01*
G01X1718909Y-5504258D01*
G01X1719318Y-5505008D01*
G01X1720545Y-5505077D01*
G01X1723000Y-5504531D01*
G01X1726272Y-5503986D01*
G01X1731454Y-5503713D01*
G01X1735000Y-5503986D01*
G01X1737454Y-5504531D01*
G01X1739909Y-5505349D01*
G01X1743181Y-5506986D01*
G01X1744818Y-5508077D01*
G01X1747000Y-5509713D01*
G01X1748909Y-5511622D01*
G01X1750272Y-5513531D01*
G01X1751909Y-5515986D01*
G01X1753272Y-5518986D01*
G01X1754363Y-5522531D01*
G01X1754909Y-5529077D01*
G01X1754636Y-5534531D01*
G01X1754091Y-5536713D01*
G01X1753272Y-5539168D01*
G01X1752181Y-5541622D01*
G01X1751091Y-5543531D01*
G01X1747818Y-5547622D01*
G01X1746454Y-5548986D01*
G01X1744545Y-5550349D01*
G01X1742091Y-5551986D01*
G01X1739363Y-5553349D01*
G01X1737181Y-5554167D01*
G01X1734454Y-5554986D01*
G01X1728181Y-5555531D01*
G01X1723000Y-5555258D01*
G01X1720545Y-5554440D01*
G01X1717818Y-5553349D01*
G01X1715909Y-5552258D01*
G01X1714000Y-5550895D01*
G01X1712091Y-5549258D01*
G01X1710181Y-5547077D01*
G01X1708272Y-5544349D01*
G01X1706909Y-5541622D01*
G01X1705818Y-5538895D01*
G01X1704727Y-5535895D01*
G01X1703909Y-5532622D01*
G01X1703363Y-5531327D01*
G01X1702272Y-5530713D01*
G01X1700091Y-5530713D01*
G01X1695727Y-5531258D01*
G01X1691909Y-5531804D01*
G01X1689727Y-5532077D01*
G01X1687818Y-5532622D01*
G01X1687545Y-5533986D01*
G01X1590727Y-5533986D01*
G01X1590727Y-5514077D01*
G01X1610364Y-5514077D01*
G01X1630818Y-5513804D01*
G01X1636818Y-5513258D01*
G01X1643363Y-5512167D01*
G01X1646091Y-5511349D01*
G01X1649636Y-5510258D01*
G01X1652636Y-5509167D01*
G01X1655091Y-5507804D01*
G01X1657545Y-5506167D01*
G01X1659454Y-5504531D01*
G01X1662182Y-5501804D01*
G01X1663273Y-5500440D01*
G01X1666000Y-5496622D01*
G01X1667091Y-5494713D01*
G01X1668182Y-5492531D01*
G01X1669273Y-5490076D01*
G01X1670363Y-5486804D01*
G01X1671182Y-5482713D01*
G01X1671727Y-5479440D01*
G01X1672000Y-5473986D01*
G01X1671727Y-5468531D01*
G01X1671182Y-5465804D01*
G01X1670363Y-5462804D01*
G01X1668727Y-5458440D01*
G01X1667636Y-5456258D01*
G01X1666545Y-5454349D01*
G01X1665182Y-5452167D01*
G01X1661909Y-5448349D01*
G01X1660273Y-5446713D01*
G01X1658909Y-5445895D01*
G01X1657000Y-5444531D01*
G01X1654818Y-5443167D01*
G01X1652636Y-5442077D01*
G01X1650182Y-5440986D01*
G01X1647454Y-5440167D01*
G01X1645000Y-5439622D01*
G01X1642273Y-5439077D01*
G01X1639000Y-5438531D01*
G01X1636000Y-5438258D01*
G01X1633545Y-5437986D01*
G01X1603273Y-5437713D01*
G01X1573818Y-5437713D01*
G01X1573818Y-5502077D01*
G01X1573818Y-5502077D01*
G01X1534654Y-5502077D01*
G01X1534273Y-5501804D01*
G01X1529363Y-5499077D01*
G01X1526636Y-5497986D01*
G01X1522273Y-5496349D01*
G01X1519818Y-5495531D01*
G01X1510818Y-5493076D01*
G01X1508091Y-5492531D01*
G01X1505364Y-5491713D01*
G01X1501545Y-5490895D01*
G01X1498818Y-5490349D01*
G01X1496091Y-5489531D01*
G01X1492545Y-5488713D01*
G01X1490091Y-5488167D01*
G01X1484364Y-5486258D01*
G01X1481364Y-5485167D01*
G01X1478636Y-5484076D01*
G01X1476182Y-5482713D01*
G01X1474273Y-5481349D01*
G01X1472909Y-5479986D01*
G01X1471818Y-5478349D01*
G01X1470727Y-5476167D01*
G01X1469909Y-5473440D01*
G01X1469364Y-5470713D01*
G01X1469364Y-5467986D01*
G01X1469909Y-5465258D01*
G01X1471000Y-5462531D01*
G01X1472364Y-5460076D01*
G01X1473727Y-5458440D01*
G01X1475091Y-5457077D01*
G01X1476727Y-5455713D01*
G01X1478909Y-5454349D01*
G01X1481091Y-5453258D01*
G01X1483273Y-5452440D01*
G01X1486818Y-5451622D01*
G01X1490091Y-5451077D01*
G01X1495545Y-5450531D01*
G01X1499636Y-5450258D01*
G01X1503727Y-5450531D01*
G01X1509182Y-5451077D01*
G01X1511364Y-5451622D01*
G01X1513818Y-5452440D01*
G01X1516000Y-5453258D01*
G01X1517636Y-5454077D01*
G01X1521727Y-5456804D01*
G01X1523636Y-5458713D01*
G01X1525000Y-5460622D01*
G01X1526636Y-5463076D01*
G01X1527727Y-5465531D01*
G01X1528545Y-5467713D01*
G01X1529363Y-5470713D01*
G01X1529909Y-5473440D01*
G01X1531000Y-5474531D01*
G01X1534545Y-5474804D01*
G01X1545182Y-5473986D01*
G01X1546272Y-5472895D01*
G01X1546272Y-5470167D01*
G01X1545727Y-5466622D01*
G01X1545182Y-5464167D01*
G01X1544363Y-5461713D01*
G01X1543273Y-5458986D01*
G01X1540545Y-5454077D01*
G01X1539182Y-5452440D01*
G01X1537000Y-5449713D01*
G01X1534273Y-5446986D01*
G01X1532909Y-5445895D01*
G01X1531000Y-5444531D01*
G01X1528545Y-5442895D01*
G01X1526091Y-5441531D01*
G01X1523909Y-5440440D01*
G01X1522000Y-5439622D01*
G01X1519818Y-5438804D01*
G01X1517091Y-5437986D01*
G01X1509727Y-5436349D01*
G01X1504818Y-5435804D01*
G01X1497454Y-5435531D01*
G01X1490091Y-5435804D01*
G01X1486273Y-5436349D01*
G01X1480818Y-5437440D01*
G01X1478364Y-5438258D01*
G01X1475636Y-5439349D01*
G01X1473182Y-5440440D01*
G01X1470455Y-5441531D01*
G01X1468545Y-5442622D01*
G01X1467182Y-5443713D01*
G01X1465000Y-5445349D01*
G01X1461727Y-5448622D01*
G01X1460091Y-5450531D01*
G01X1458727Y-5452440D01*
G01X1457636Y-5454349D01*
G01X1456273Y-5456804D01*
G01X1455182Y-5459258D01*
G01X1454364Y-5461713D01*
G01X1453545Y-5465258D01*
G01X1453000Y-5469076D01*
G01X1452727Y-5471804D01*
G01X1453000Y-5473986D01*
G01X1453545Y-5477804D01*
G01X1454091Y-5479713D01*
G01X1454909Y-5481895D01*
G01X1455727Y-5483804D01*
G01X1456545Y-5485440D01*
G01X1457636Y-5487349D01*
G01X1458727Y-5488986D01*
G01X1459818Y-5490349D01*
G01X1462545Y-5493076D01*
G01X1466636Y-5496349D01*
G01X1468273Y-5497167D01*
G01X1470182Y-5498258D01*
G01X1472364Y-5499349D01*
G01X1474818Y-5500440D01*
G01X1477545Y-5501531D01*
G01X1480545Y-5502622D01*
G01X1483545Y-5503440D01*
G01X1486000Y-5504258D01*
G01X1489000Y-5505077D01*
G01X1491727Y-5505622D01*
G01X1494454Y-5506440D01*
G01X1497727Y-5507258D01*
G01X1500727Y-5508077D01*
G01X1504273Y-5508895D01*
G01X1507000Y-5509440D01*
G01X1509727Y-5510258D01*
G01X1516818Y-5512440D01*
G01X1519818Y-5513531D01*
G01X1522273Y-5514622D01*
G01X1524454Y-5515713D01*
G01X1526091Y-5516804D01*
G01X1528273Y-5518440D01*
G01X1530454Y-5520895D01*
G01X1531818Y-5523077D01*
G01X1532909Y-5525531D01*
G01X1533727Y-5529077D01*
G01X1534000Y-5532895D01*
G01X1533727Y-5535622D01*
G01X1532909Y-5537804D01*
G01X1531818Y-5540258D01*
G01X1530182Y-5542713D01*
G01X1527727Y-5545168D01*
G01X1525818Y-5546804D01*
G01X1524182Y-5547895D01*
G01X1522273Y-5548986D01*
G01X1520091Y-5550077D01*
G01X1517091Y-5551167D01*
G01X1514091Y-5551986D01*
G01X1511364Y-5552531D01*
G01X1507545Y-5553077D01*
G01X1500727Y-5553349D01*
G01X1495545Y-5553077D01*
G01X1491182Y-5552531D01*
G01X1489000Y-5551986D01*
G01X1486000Y-5551167D01*
G01X1483273Y-5550077D01*
G01X1480818Y-5548986D01*
G01X1478364Y-5547622D01*
G01X1475909Y-5545986D01*
G01X1474000Y-5544349D01*
G01X1472636Y-5543258D01*
G01X1471000Y-5541622D01*
G01X1469636Y-5539713D01*
G01X1468545Y-5538077D01*
G01X1467455Y-5536168D01*
G01X1466636Y-5534258D01*
G01X1465818Y-5532077D01*
G01X1465000Y-5528804D01*
G01X1464455Y-5525804D01*
G01X1463909Y-5524440D01*
G01X1460636Y-5523895D01*
G01X1456818Y-5524168D01*
G01X1450273Y-5524713D01*
G01X1448636Y-5525258D01*
G01X1448091Y-5526077D01*
G01X1351273Y-5526077D01*
G01X1351273Y-5507531D01*
G01X1422182Y-5507531D01*
G01X1422182Y-5492258D01*
G01X1351273Y-5492258D01*
G01X1351273Y-5452986D01*
G01X1427091Y-5452986D01*
G01X1427091Y-5437713D01*
G01X1333818Y-5437713D01*
G01X1333818Y-5502077D01*
G01X1333818Y-5502077D01*
G01X1270000Y-5502077D01*
G01X1270000Y-5403895D01*
G01X1940909Y-5403895D01*
G01X1940909Y-5806440D01*
G37*
G36*
G01X1610091Y-5498804D02*
G01X1591000Y-5498531D01*
G01X1590727Y-5475622D01*
G01X1590727Y-5452986D01*
G01X1612818Y-5452986D01*
G01X1635727Y-5453258D01*
G01X1637909Y-5453531D01*
G01X1640363Y-5454077D01*
G01X1642273Y-5454895D01*
G01X1643909Y-5455713D01*
G01X1645818Y-5456804D01*
G01X1647454Y-5458167D01*
G01X1648818Y-5459531D01*
G01X1649909Y-5460895D01*
G01X1650727Y-5462258D01*
G01X1651818Y-5464167D01*
G01X1652909Y-5466622D01*
G01X1653727Y-5469622D01*
G01X1654273Y-5472895D01*
G01X1654545Y-5476713D01*
G01X1654273Y-5479986D01*
G01X1653727Y-5482440D01*
G01X1652909Y-5485167D01*
G01X1651818Y-5487349D01*
G01X1650182Y-5489804D01*
G01X1648545Y-5491986D01*
G01X1646909Y-5493349D01*
G01X1645000Y-5494440D01*
G01X1642818Y-5495531D01*
G01X1639818Y-5496622D01*
G01X1637364Y-5497440D01*
G01X1634636Y-5497986D01*
G01X1631636Y-5498258D01*
G01X1629727Y-5498531D01*
G01X1610091Y-5498804D01*
G37*
G01X2372002Y-4559301D02*
G01X2375304Y-4565397D01*
G01X2384448Y-4574795D01*
G01X2319424Y-4574795D01*
G01X2384448Y-4605021D02*
G01X2319424Y-4605021D01*
G01X2362858Y-4635755D02*
G01X2331870Y-4605021D01*
G01X2344316Y-4617213D02*
G01X2319424Y-4639057D01*
G01X2372002Y-4669283D02*
G01X2375304Y-4675379D01*
G01X2384448Y-4684523D01*
G01X2319424Y-4684523D01*
G01X1520698Y-3121152D02*
G01X1526794Y-3117850D01*
G01X1536192Y-3108706D01*
G01X1536192Y-3173730D01*
G01X1566418Y-3108706D02*
G01X1566418Y-3173730D01*
G01X1597152Y-3130296D02*
G01X1566418Y-3161284D01*
G01X1578610Y-3148838D02*
G01X1600454Y-3173730D01*
G01X1633728Y-3124200D02*
G01X1633728Y-3121152D01*
G01X1636776Y-3114802D01*
G01X1639824Y-3111754D01*
G01X1645920Y-3108706D01*
G01X1658366Y-3108706D01*
G01X1664716Y-3111754D01*
G01X1667764Y-3114802D01*
G01X1670812Y-3121152D01*
G01X1670812Y-3127248D01*
G01X1667764Y-3133344D01*
G01X1661414Y-3142742D01*
G01X1630680Y-3173730D01*
G01X1673860Y-3173730D01*
G01X1069594Y-4510786D02*
G01X1069594Y-4544822D01*
G01X1044956Y-4526280D01*
G01X1044956Y-4535678D01*
G01X1041908Y-4541774D01*
G01X1038606Y-4544822D01*
G01X1029462Y-4548124D01*
G01X1023112Y-4548124D01*
G01X1013968Y-4544822D01*
G01X1007618Y-4538726D01*
G01X1004570Y-4529582D01*
G01X1004570Y-4520184D01*
G01X1007618Y-4510786D01*
G01X1010920Y-4507738D01*
G01X1017016Y-4504690D01*
G01X1020064Y-4581398D02*
G01X1017016Y-4578350D01*
G01X1013968Y-4581398D01*
G01X1017016Y-4584446D01*
G01X1020064Y-4581398D01*
G01X1069594Y-4620768D02*
G01X1069594Y-4654804D01*
G01X1044956Y-4636262D01*
G01X1044956Y-4645406D01*
G01X1041908Y-4651756D01*
G01X1038606Y-4654804D01*
G01X1029462Y-4657852D01*
G01X1023112Y-4657852D01*
G01X1013968Y-4654804D01*
G01X1007618Y-4648708D01*
G01X1004570Y-4639310D01*
G01X1004570Y-4629912D01*
G01X1007618Y-4620768D01*
G01X1010920Y-4617720D01*
G01X1017016Y-4614672D01*
G01X1069594Y-4688078D02*
G01X1004570Y-4688078D01*
G01X1048004Y-4718812D02*
G01X1017016Y-4688078D01*
G01X1029462Y-4700270D02*
G01X1004570Y-4722114D01*
G01X1057148Y-4752340D02*
G01X1060450Y-4758436D01*
G01X1069594Y-4767580D01*
G01X1004570Y-4767580D01*
G01X1509268Y-4533392D02*
G01X1512570Y-4539488D01*
G01X1521714Y-4548886D01*
G01X1456690Y-4548886D01*
G01X1521714Y-4597654D02*
G01X1518666Y-4588256D01*
G01X1509268Y-4582160D01*
G01X1494028Y-4579112D01*
G01X1484630Y-4579112D01*
G01X1469136Y-4582160D01*
G01X1459738Y-4588256D01*
G01X1456690Y-4597654D01*
G01X1456690Y-4603750D01*
G01X1459738Y-4613148D01*
G01X1469136Y-4619244D01*
G01X1484630Y-4622292D01*
G01X1494028Y-4622292D01*
G01X1509268Y-4619244D01*
G01X1518666Y-4613148D01*
G01X1521714Y-4603750D01*
G01X1521714Y-4597654D01*
G01X1521714Y-4652518D02*
G01X1456690Y-4652518D01*
G01X1500124Y-4683252D02*
G01X1469136Y-4652518D01*
G01X1481582Y-4664710D02*
G01X1456690Y-4686554D01*
G01X1509268Y-4716780D02*
G01X1512570Y-4722876D01*
G01X1521714Y-4732020D01*
G01X1456690Y-4732020D01*
G01X1953768Y-4508500D02*
G01X1957070Y-4514596D01*
G01X1966214Y-4523994D01*
G01X1901190Y-4523994D01*
G01X1966214Y-4572762D02*
G01X1963166Y-4563364D01*
G01X1953768Y-4557268D01*
G01X1938528Y-4554220D01*
G01X1929130Y-4554220D01*
G01X1913636Y-4557268D01*
G01X1904238Y-4563364D01*
G01X1901190Y-4572762D01*
G01X1901190Y-4578858D01*
G01X1904238Y-4588256D01*
G01X1913636Y-4594352D01*
G01X1929130Y-4597400D01*
G01X1938528Y-4597400D01*
G01X1953768Y-4594352D01*
G01X1963166Y-4588256D01*
G01X1966214Y-4578858D01*
G01X1966214Y-4572762D01*
G01X1966214Y-4627626D02*
G01X1901190Y-4627626D01*
G01X1944624Y-4658360D02*
G01X1913636Y-4627626D01*
G01X1926082Y-4639818D02*
G01X1901190Y-4661662D01*
G01X1950720Y-4694936D02*
G01X1953768Y-4694936D01*
G01X1960118Y-4697984D01*
G01X1963166Y-4701032D01*
G01X1966214Y-4707128D01*
G01X1966214Y-4719574D01*
G01X1963166Y-4725924D01*
G01X1960118Y-4728972D01*
G01X1953768Y-4732020D01*
G01X1947672Y-4732020D01*
G01X1941576Y-4728972D01*
G01X1932178Y-4722622D01*
G01X1901190Y-4691888D01*
G01X1901190Y-4735068D01*
G01X2444750Y-3774186D02*
G01X2444750Y-3839210D01*
G01X2423160Y-3774186D02*
G01X2466594Y-3774186D01*
G01X2496820Y-3786632D02*
G01X2502916Y-3783330D01*
G01X2512060Y-3774186D01*
G01X2512060Y-3839210D01*
G01X1609090Y-3758946D02*
G01X1609090Y-3823970D01*
G01X1587500Y-3758946D02*
G01X1630934Y-3758946D01*
G01X1664208Y-3774440D02*
G01X1664208Y-3771392D01*
G01X1667256Y-3765042D01*
G01X1670304Y-3761994D01*
G01X1676400Y-3758946D01*
G01X1688846Y-3758946D01*
G01X1695196Y-3761994D01*
G01X1698244Y-3765042D01*
G01X1701292Y-3771392D01*
G01X1701292Y-3777488D01*
G01X1698244Y-3783584D01*
G01X1691894Y-3792982D01*
G01X1661160Y-3823970D01*
G01X1704340Y-3823970D01*
G04 Text End*

G04 PolygonModel Start*
G54D11*
G01X2466340Y-4953000D02*
G01X2227580Y-4953000D01*
G01X2227580Y-4953000D02*
G01X2227580Y-4323080D01*
G01X2227580Y-4323080D02*
G01X2466340Y-4323080D01*
G01X2466340Y-4323080D02*
G01X2466340Y-4953000D01*
G01X1915160Y-3035300D02*
G01X1915160Y-3274060D01*
G01X1915160Y-3274060D02*
G01X1285240Y-3274060D01*
G01X1285240Y-3274060D02*
G01X1285240Y-3035300D01*
G01X1285240Y-3035300D02*
G01X1915160Y-3035300D01*
G01X906780Y-4333240D02*
G01X1145540Y-4333240D01*
G01X1145540Y-4333240D02*
G01X1145540Y-4963160D01*
G01X1145540Y-4963160D02*
G01X906780Y-4963160D01*
G01X906780Y-4963160D02*
G01X906780Y-4333240D01*
G01X1363980Y-4328160D02*
G01X1602740Y-4328160D01*
G01X1602740Y-4328160D02*
G01X1602740Y-4958080D01*
G01X1602740Y-4958080D02*
G01X1363980Y-4958080D01*
G01X1363980Y-4958080D02*
G01X1363980Y-4328160D01*
G01X2054860Y-4958080D02*
G01X1816100Y-4958080D01*
G01X1816100Y-4958080D02*
G01X1816100Y-4328160D01*
G01X1816100Y-4328160D02*
G01X2054860Y-4328160D01*
G01X2054860Y-4328160D02*
G01X2054860Y-4958080D01*
G01X2587884Y-503044D02*
G01X1587881Y-503044D01*
G01X2587884Y-23043D02*
G01X1587881Y-23043D01*
G01X2587882Y-23043D02*
G01X2587882Y-503044D01*
G01X1587884Y-23043D02*
G01X1587881Y-503044D01*
G01X2537884Y-453037D02*
G01X1637881Y-453037D01*
G01X2188787Y-23043D02*
G01X2188787Y-63040D01*
G01X2188787Y-63040D02*
G01X2537882Y-63040D01*
G01X2537882Y-63040D02*
G01X2537882Y-83040D01*
G01X2537882Y-183276D02*
G01X2587882Y-183276D01*
G01X2537882Y-132476D02*
G01X2587882Y-132476D01*
G01X2537882Y-183276D02*
G01X2537882Y-453039D01*
G01X2537882Y-132476D02*
G01X2537882Y-83040D01*
G01X1637881Y-453039D02*
G01X1637881Y-183043D01*
G01X1637881Y-183043D02*
G01X1587884Y-183043D01*
G01X1587878Y-133040D02*
G01X1637662Y-133040D01*
G01X1637662Y-133040D02*
G01X1637662Y-62174D01*
G01X1637662Y-62174D02*
G01X1939668Y-62174D01*
G01X1939668Y-62174D02*
G01X1987674Y-62174D01*
G01X1987674Y-62174D02*
G01X1987674Y-22296D01*
G54D12*
G01X2373540Y-3411220D02*
G02X2242710Y-3831170I-209460J-165099D01*
G01X2085450Y-3831159D02*
G02X1954630Y-3411220I78630J254841D01*
G01X2373530Y-3411220D02*
G01X1954630Y-3411220D01*
G01X2429569Y-3550920D02*
G01X2389450Y-3550920D01*
G01X2192710Y-3550920D02*
G01X2135450Y-3550920D01*
G01X1938710Y-3550920D02*
G01X1898591Y-3550920D01*
G01X1540420Y-3421380D02*
G02X1409590Y-3841330I-209460J-165099D01*
G01X1252330Y-3841319D02*
G02X1121510Y-3421380I78630J254841D01*
G01X1540410Y-3421380D02*
G01X1121510Y-3421380D01*
G01X1596449Y-3561080D02*
G01X1556330Y-3561080D01*
G01X1359590Y-3561080D02*
G01X1302330Y-3561080D01*
G01X1105590Y-3561080D02*
G01X1065471Y-3561080D01*
G54D10*
G01X381000Y-381000D02*
G01X513080Y-248920D01*
G01X518160Y-248920D01*
G01X381000Y-381000D02*
G01X248920Y-513080D01*
G01X243840Y-513080D01*
G01X381000Y-381000D02*
G01X516692Y-516692D01*
G01X381000Y-372258D02*
G01X254000Y-245258D01*
G01X254000Y-243840D01*
G01X2926080Y-381000D02*
G01X3058160Y-248920D01*
G01X3063240Y-248920D01*
G01X2926080Y-381000D02*
G01X2794000Y-513080D01*
G01X2788920Y-513080D01*
G01X2926080Y-381000D02*
G01X3061772Y-516692D01*
G01X2926080Y-372258D02*
G01X2799080Y-245258D01*
G01X2799080Y-243840D01*
G01X381000Y-5588000D02*
G01X513080Y-5455920D01*
G01X518160Y-5455920D01*
G01X381000Y-5588000D02*
G01X248920Y-5720080D01*
G01X243840Y-5720080D01*
G01X381000Y-5588000D02*
G01X516692Y-5723692D01*
G01X381000Y-5579258D02*
G01X254000Y-5452258D01*
G01X254000Y-5450840D01*
G01X2921000Y-5588000D02*
G01X3053080Y-5455920D01*
G01X3058160Y-5455920D01*
G01X2921000Y-5588000D02*
G01X2788920Y-5720080D01*
G01X2783840Y-5720080D01*
G01X2921000Y-5588000D02*
G01X3056692Y-5723692D01*
G01X2921000Y-5579258D02*
G01X2794000Y-5452258D01*
G01X2794000Y-5450840D01*
G54D12*
G01X502920Y-1694180D02*
G01X502920Y-1478280D01*
G01X502920Y-1478280D02*
G01X248920Y-1478280D01*
G01X248920Y-1478280D02*
G01X248920Y-5339080D01*
G01X248920Y-5339080D02*
G01X502920Y-5339080D01*
G01X502920Y-5339080D02*
G01X502920Y-5313680D01*
G54D13*
G01X502920Y-5313680D02*
G01X502920Y-1694180D01*
G54D12*
G01X3037840Y-1694180D02*
G01X3037840Y-1478280D01*
G01X3037840Y-1478280D02*
G01X2783840Y-1478280D01*
G01X2783840Y-1478280D02*
G01X2783840Y-5339080D01*
G01X2783840Y-5339080D02*
G01X3037840Y-5339080D01*
G01X3037840Y-5339080D02*
G01X3037840Y-5313680D01*
G54D13*
G01X3037840Y-5313680D02*
G01X3037840Y-1694180D01*

G04 Circle Start*
G54D10*
G01X191008Y-381000D02*
G03X570992Y-381000I189992J0D01*
G03X191008Y-381000I-189992J0D01*
G01X2736088Y-381000D02*
G03X3116072Y-381000I189992J0D01*
G03X2736088Y-381000I-189992J0D01*
G01X191008Y-5588000D02*
G03X570992Y-5588000I189992J0D01*
G03X191008Y-5588000I-189992J0D01*
G01X2731008Y-5588000D02*
G03X3110992Y-5588000I189992J0D01*
G03X2731008Y-5588000I-189992J0D01*
G04 Circle End*

M02*

